# Blender 3.4.1
# www.blender.org
mtllib GameStageFloor(1).mtl
o Plane.003
v -163.081406 -45.409729 -302.199127
v 128.328735 -44.563648 -302.063751
v -162.590851 -44.563606 -369.193542
v 129.417526 -45.409687 -369.328918
vn -0.0029 0.9999 0.0126
vn 0.0029 0.9999 -0.0125
vt 0.000000 0.000000
vt 1.000000 0.000000
vt 0.000000 1.000000
vt 1.000000 1.000000
s 0
usemtl Material.001
f 2/2/1 3/3/1 1/1/1
f 2/2/2 4/4/2 3/3/2
o 平面.002
v -175.240265 0.000000 116.140305
v 129.640320 0.000000 116.140305
v -175.240265 1.600000 -300.540314
v 129.640320 1.600000 -300.540314
vn -0.0000 1.0000 0.0038
vt 0.000000 0.000000
vt 1.000000 0.000000
vt 0.000000 1.000000
vt 1.000000 1.000000
s 0
f 6/6/3 7/7/3 5/5/3
f 6/6/3 8/8/3 7/7/3
o 平面.003
v -175.240265 0.000000 -369.059692
v 129.640320 0.000000 -369.059692
v -175.240265 1.600000 -801.540344
v 129.640320 1.600000 -801.540344
vn -0.0000 1.0000 0.0037
vt 0.000000 0.000000
vt 1.000000 0.000000
vt 0.000000 1.000000
vt 1.000000 1.000000
s 0
f 10/10/4 11/11/4 9/9/4
f 10/10/4 12/12/4 11/11/4
o 平面.004
v 42.314148 32.420670 -240.222046
v 67.390579 32.289024 -253.747528
v 28.738897 26.685974 -246.523865
v 76.944962 26.623436 -272.512238
vn -0.2024 0.9009 -0.3839
vn -0.2013 0.9046 -0.3756
vt 0.000000 0.000000
vt 1.000000 0.000000
vt 0.000000 1.000000
vt 1.000000 1.000000
s 0
f 14/14/5 15/15/5 13/13/5
f 14/14/6 16/16/6 15/15/6
o 平面.005
v 50.364517 26.711353 -142.559586
v 54.790222 32.438972 -178.418762
v 28.662443 26.683174 -246.488419
v 42.096497 32.453106 -240.549683
vn -0.4321 0.8973 0.0900
vn -0.4254 0.9008 0.0871
vt 0.000000 0.000000
vt 1.000000 0.000000
vt 0.000000 1.000000
vt 1.000000 1.000000
s 0
f 18/18/7 19/19/7 17/17/7
f 18/18/8 20/20/8 19/19/8
o 平面.006
v 50.392365 26.695557 -142.537567
v 85.393333 26.770016 -212.221848
v 54.944702 32.423710 -177.993652
v 73.144974 32.402679 -214.428268
vn 0.3868 0.9012 0.1953
vn 0.3817 0.9045 0.1902
vt 0.000000 0.000000
vt 1.000000 0.000000
vt 0.000000 1.000000
vt 1.000000 1.000000
s 0
f 22/22/9 23/23/9 21/21/9
f 22/22/10 24/24/10 23/23/10
o 平面.007
v 73.217461 32.377693 -214.329010
v 85.407135 26.723669 -212.219604
v 67.384598 32.309631 -253.577850
v 76.871071 26.655779 -272.335968
vn 0.4292 0.9009 -0.0653
vn 0.4198 0.9056 -0.0606
vt 0.000000 0.000000
vt 1.000000 0.000000
vt 0.000000 1.000000
vt 1.000000 1.000000
s 0
f 26/26/11 27/27/11 25/25/11
f 26/26/12 28/28/12 27/27/12
o 平面.008
v 66.534187 5.148927 5.108117
v 79.335114 5.157991 -7.901365
v 55.229156 5.153720 -8.019728
v 74.591675 5.151660 -24.323496
vn -0.0002 1.0000 0.0005
vn -0.0002 1.0000 -0.0003
vt 0.000000 0.000000
vt 1.000000 0.000000
vt 0.000000 1.000000
vt 1.000000 1.000000
s 0
f 30/30/13 31/31/13 29/29/13
f 30/30/14 32/32/14 31/31/14
o 平面.009
v -85.483643 5.445208 48.397743
v -67.632118 5.441392 49.553234
v -78.190033 5.450595 19.524174
v -71.302513 5.442725 25.090899
vn 0.0008 1.0000 0.0004
vn 0.0002 1.0000 -0.0000
vt 0.000000 0.000000
vt 1.000000 0.000000
vt 0.000000 1.000000
vt 1.000000 1.000000
s 0
f 33/33/15 36/36/15 35/35/15
f 33/33/16 34/34/16 36/36/16
o 平面.010
v -98.378670 16.768007 -77.480621
v -79.555695 16.710848 -67.511848
v -98.355362 16.717375 -106.975227
v -74.116699 16.712139 -88.894753
vn 0.0015 1.0000 -0.0017
vn 0.0026 1.0000 0.0007
vt 0.000000 0.000000
vt 1.000000 0.000000
vt 0.000000 1.000000
vt 1.000000 1.000000
s 0
f 37/37/17 40/40/17 39/39/17
f 37/37/18 38/38/18 40/40/18
o Plane.001
v -163.081406 -45.409679 -302.199127
v 128.328735 -44.563599 -302.063751
v -162.590851 -44.563545 -369.193542
v 129.417526 -45.409626 -369.328918
vn -0.0029 0.9999 0.0126
vn 0.0029 0.9999 -0.0125
vt 0.000000 0.000000
vt 1.000000 0.000000
vt 0.000000 1.000000
vt 1.000000 1.000000
s 0
usemtl Material.004
f 42/42/19 43/43/19 41/41/19
f 42/42/20 44/44/20 43/43/20
