# Blender 3.4.1
# www.blender.org
mtllib GameStageFloor(1).mtl
o Plane.003
v -175.240265 0.000000 116.140305
v 129.640320 0.000000 116.140305
v -175.240265 1.600000 -300.540314
v 129.640320 1.600000 -300.540314
vn -0.0000 1.0000 0.0038
vt 0.000000 0.000000
vt 1.000000 0.000000
vt 0.000000 1.000000
vt 1.000000 1.000000
s 0
f 2/2/1 3/3/1 1/1/1
f 2/2/1 4/4/1 3/3/1
o Plane.004
v -175.240265 0.000000 -369.059692
v 129.640320 0.000000 -369.059692
v -175.240265 1.600000 -801.540344
v 129.640320 1.600000 -801.540344
vn -0.0000 1.0000 0.0037
vt 0.000000 0.000000
vt 1.000000 0.000000
vt 0.000000 1.000000
vt 1.000000 1.000000
s 0
f 6/6/2 7/7/2 5/5/2
f 6/6/2 8/8/2 7/7/2
o Plane.005
v 42.314148 32.420670 -240.222046
v 67.390579 32.289024 -253.747528
v 28.738897 26.685974 -246.523865
v 76.944962 26.623436 -272.512238
vn -0.2024 0.9009 -0.3839
vn -0.2013 0.9046 -0.3756
vt 0.000000 0.000000
vt 1.000000 0.000000
vt 0.000000 1.000000
vt 1.000000 1.000000
s 0
f 10/10/3 11/11/3 9/9/3
f 10/10/4 12/12/4 11/11/4
o Plane.006
v 50.364517 26.711353 -142.559586
v 54.790222 32.438972 -178.418762
v 28.662443 26.683174 -246.488419
v 42.096497 32.453106 -240.549683
vn -0.4321 0.8973 0.0900
vn -0.4254 0.9008 0.0871
vt 0.000000 0.000000
vt 1.000000 0.000000
vt 0.000000 1.000000
vt 1.000000 1.000000
s 0
f 14/14/5 15/15/5 13/13/5
f 14/14/6 16/16/6 15/15/6
o Plane.007
v 50.392365 26.695557 -142.537567
v 85.393333 26.770016 -212.221848
v 54.944702 32.423710 -177.993652
v 73.144974 32.402679 -214.428268
vn 0.3868 0.9012 0.1953
vn 0.3817 0.9045 0.1902
vt 0.000000 0.000000
vt 1.000000 0.000000
vt 0.000000 1.000000
vt 1.000000 1.000000
s 0
f 18/18/7 19/19/7 17/17/7
f 18/18/8 20/20/8 19/19/8
o Plane.008
v 73.217461 32.377693 -214.329010
v 85.407135 26.723669 -212.219604
v 67.384598 32.309631 -253.577850
v 76.871071 26.655779 -272.335968
vn 0.4292 0.9009 -0.0653
vn 0.4198 0.9056 -0.0606
vt 0.000000 0.000000
vt 1.000000 0.000000
vt 0.000000 1.000000
vt 1.000000 1.000000
s 0
f 22/22/9 23/23/9 21/21/9
f 22/22/10 24/24/10 23/23/10
o Plane.009
v 66.534187 5.148927 5.108117
v 79.335114 5.157991 -7.901365
v 55.229156 5.153720 -8.019728
v 74.591675 5.151660 -24.323496
vn -0.0002 1.0000 0.0005
vn -0.0002 1.0000 -0.0003
vt 0.000000 0.000000
vt 1.000000 0.000000
vt 0.000000 1.000000
vt 1.000000 1.000000
s 0
f 26/26/11 27/27/11 25/25/11
f 26/26/12 28/28/12 27/27/12
o Plane.010
v -85.483643 5.445208 48.397743
v -67.632118 5.441392 49.553234
v -78.190033 5.450595 19.524174
v -71.302513 5.442725 25.090899
vn 0.0008 1.0000 0.0004
vn 0.0002 1.0000 -0.0000
vt 0.000000 0.000000
vt 1.000000 0.000000
vt 0.000000 1.000000
vt 1.000000 1.000000
s 0
f 29/29/13 32/32/13 31/31/13
f 29/29/14 30/30/14 32/32/14
o Plane.012
v -85.483643 5.445208 48.397743
v -67.632118 5.441392 49.553234
v -78.190033 5.450595 19.524174
v -71.302513 5.442725 25.090899
vn 0.0008 1.0000 0.0004
vn 0.0002 1.0000 -0.0000
vt 0.000000 0.000000
vt 1.000000 0.000000
vt 0.000000 1.000000
vt 1.000000 1.000000
s 0
f 33/33/15 36/36/15 35/35/15
f 33/33/16 34/34/16 36/36/16
o Plane.013
v 66.534187 5.148927 5.108117
v 79.335114 5.157991 -7.901365
v 55.229156 5.153720 -8.019728
v 74.591675 5.151660 -24.323496
vn -0.0002 1.0000 0.0005
vn -0.0002 1.0000 -0.0003
vt 0.000000 0.000000
vt 1.000000 0.000000
vt 0.000000 1.000000
vt 1.000000 1.000000
s 0
f 38/38/17 39/39/17 37/37/17
f 38/38/18 40/40/18 39/39/18
o Plane.014
v 73.217461 32.377693 -214.329010
v 85.407135 26.723669 -212.219604
v 67.384598 32.309631 -253.577850
v 76.871071 26.655779 -272.335968
vn 0.4292 0.9009 -0.0653
vn 0.4198 0.9056 -0.0606
vt 0.000000 0.000000
vt 1.000000 0.000000
vt 0.000000 1.000000
vt 1.000000 1.000000
s 0
f 42/42/19 43/43/19 41/41/19
f 42/42/20 44/44/20 43/43/20
o Plane.015
v 50.392365 26.695557 -142.537567
v 85.393333 26.770016 -212.221848
v 54.944702 32.423710 -177.993652
v 73.144974 32.402679 -214.428268
vn 0.3868 0.9012 0.1953
vn 0.3817 0.9045 0.1902
vt 0.000000 0.000000
vt 1.000000 0.000000
vt 0.000000 1.000000
vt 1.000000 1.000000
s 0
f 46/46/21 47/47/21 45/45/21
f 46/46/22 48/48/22 47/47/22
o Plane.016
v 50.364517 26.711353 -142.559586
v 54.790222 32.438972 -178.418762
v 28.662443 26.683174 -246.488419
v 42.096497 32.453106 -240.549683
vn -0.4321 0.8973 0.0900
vn -0.4254 0.9008 0.0871
vt 0.000000 0.000000
vt 1.000000 0.000000
vt 0.000000 1.000000
vt 1.000000 1.000000
s 0
f 50/50/23 51/51/23 49/49/23
f 50/50/24 52/52/24 51/51/24
o Plane.017
v 42.314148 32.420670 -240.222046
v 67.390579 32.289024 -253.747528
v 28.738897 26.685974 -246.523865
v 76.944962 26.623436 -272.512238
vn -0.2024 0.9009 -0.3839
vn -0.2013 0.9046 -0.3756
vt 0.000000 0.000000
vt 1.000000 0.000000
vt 0.000000 1.000000
vt 1.000000 1.000000
s 0
f 54/54/25 55/55/25 53/53/25
f 54/54/26 56/56/26 55/55/26
o Plane.018
v -175.240265 0.000000 -369.059692
v 129.640320 0.000000 -369.059692
v -175.240265 1.600000 -801.540344
v 129.640320 1.600000 -801.540344
vn -0.0000 1.0000 0.0037
vt 0.000000 0.000000
vt 1.000000 0.000000
vt 0.000000 1.000000
vt 1.000000 1.000000
s 0
f 58/58/27 59/59/27 57/57/27
f 58/58/27 60/60/27 59/59/27
o Plane.019
v -175.240265 0.000000 116.140305
v 129.640320 0.000000 116.140305
v -175.240265 1.600000 -300.540314
v 129.640320 1.600000 -300.540314
vn -0.0000 1.0000 0.0038
vt 0.000000 0.000000
vt 1.000000 0.000000
vt 0.000000 1.000000
vt 1.000000 1.000000
s 0
f 62/62/28 63/63/28 61/61/28
f 62/62/28 64/64/28 63/63/28
o Plane.001
v 55.937119 48.125404 -187.173782
v 69.747345 48.127041 -214.708160
v 45.249504 48.126881 -238.566788
v 64.830582 48.128578 -249.069977
vn -0.0000 1.0000 -0.0000
vn -0.0001 1.0000 0.0001
vt 0.000000 0.000000
vt 1.000000 0.000000
vt 0.000000 1.000000
vt 1.000000 1.000000
s 0
f 66/66/29 67/67/29 65/65/29
f 66/66/30 68/68/30 67/67/30
o Plane.002
v 54.775410 45.184189 -178.315445
v 55.937096 48.125381 -187.173538
v 41.925873 45.190128 -240.116425
v 45.238846 48.118324 -238.566895
vn -0.6923 0.7071 0.1440
vt 0.000000 0.000000
vt 1.000000 0.000000
vt 0.000000 1.000000
vt 1.000000 1.000000
s 0
f 70/70/31 71/71/31 69/69/31
f 70/70/31 72/72/31 71/71/31
o Plane.011
v 41.914860 45.185951 -240.128098
v 45.200020 48.140610 -238.539963
v 67.146751 45.188812 -253.649841
v 64.829178 48.123215 -249.074844
vn -0.3339 0.7075 -0.6229
vn -0.3341 0.7067 -0.6237
vt 0.000000 0.000000
vt 1.000000 0.000000
vt 0.000000 1.000000
vt 1.000000 1.000000
s 0
f 73/73/32 76/76/32 75/75/32
f 73/73/33 74/74/33 76/76/33
o Plane.020
v 54.791656 45.189297 -178.330963
v 55.926620 48.125942 -187.117523
v 72.790565 45.196724 -214.226624
v 69.747406 48.136456 -214.718292
vn 0.6332 0.7057 0.3177
vn 0.6320 0.7072 0.3168
vt 0.000000 0.000000
vt 1.000000 0.000000
vt 0.000000 1.000000
vt 1.000000 1.000000
s 0
f 79/79/34 78/78/34 77/77/34
f 79/79/35 80/80/35 78/78/35
o Plane.021
v 72.790482 45.185917 -214.240021
v 69.774902 48.141964 -214.696228
v 67.154083 45.186447 -253.659744
v 64.840897 48.125038 -249.083359
vn 0.7042 0.7027 -0.1014
vn 0.7001 0.7070 -0.1001
vt 0.000000 0.000000
vt 1.000000 0.000000
vt 0.000000 1.000000
vt 1.000000 1.000000
s 0
f 81/81/36 84/84/36 82/82/36
f 81/81/37 83/83/37 84/84/37
o Plane.022
v -84.730865 16.364883 -162.870056
v -80.955917 13.313758 -162.632523
v -99.390030 16.285110 -186.055496
v -98.534439 13.176997 -190.518845
vn 0.5960 0.7078 -0.3792
vn 0.5957 0.7082 -0.3790
vt 0.000000 0.000000
vt 1.000000 0.000000
vt 0.000000 1.000000
vt 1.000000 1.000000
s 0
f 86/86/38 87/87/38 85/85/38
f 86/86/39 88/88/39 87/87/39
o Plane.023
v -99.252205 16.318352 -186.141098
v -98.524109 13.179260 -190.527557
v -118.201859 16.233368 -171.615753
v -121.728790 13.150002 -172.765884
vn -0.4334 0.7051 -0.5613
vn -0.4373 0.6954 -0.5702
vt 0.000000 0.000000
vt 1.000000 0.000000
vt 0.000000 1.000000
vt 1.000000 1.000000
s 0
f 89/89/40 92/92/40 91/91/40
f 89/89/41 90/90/41 92/92/41
o Plane.024
v -107.501907 16.364677 -135.143524
v -108.801071 13.309998 -128.700928
v -84.685379 16.383797 -162.913422
v -80.957581 13.314041 -162.628632
vn 0.5470 0.7060 0.4499
vn 0.5440 0.7104 0.4465
vt 0.000000 0.000000
vt 1.000000 0.000000
vt 0.000000 1.000000
vt 1.000000 1.000000
s 0
f 93/93/42 96/96/42 95/95/42
f 93/93/43 94/94/43 96/96/43
o Plane
v -118.202255 16.230774 -171.613770
v -121.727325 13.151011 -172.763351
v -107.508560 16.355133 -135.115585
v -108.801895 13.312803 -128.703735
vn -0.6807 0.7056 0.1970
vn -0.6811 0.7052 0.1972
vt 0.000000 0.000000
vt 1.000000 0.000000
vt 0.000000 1.000000
vt 1.000000 1.000000
s 0
f 98/98/44 99/99/44 97/97/44
f 98/98/45 100/100/45 99/99/45
