# Blender 3.4.1
# www.blender.org
mtllib StageSentakuFloor.mtl
o 平面
v -247.937469 11.265208 16.998175
v 165.654480 11.265208 247.526596
v -247.937469 11.265208 -16.847605
v 165.313675 11.265208 -247.473236
v 141.914963 11.211660 30.962961
v 141.841629 11.215569 -30.920008
v 123.828056 11.265208 17.610643
v 123.873962 11.265208 -16.699162
v 142.377747 11.238435 139.244781
v 142.737030 11.251822 193.385681
v 142.659836 11.258515 247.656998
v 140.261780 11.240388 -247.601288
vn -0.0000 1.0000 -0.0000
vn -0.0021 1.0000 -0.0000
vn 0.0028 1.0000 0.0001
vn -0.0029 1.0000 0.0001
vn -0.0000 1.0000 -0.0002
vn -0.0003 1.0000 -0.0001
vn -0.0010 1.0000 0.0001
vn 0.0030 1.0000 -0.0000
vt 0.000000 0.000000
vt 1.000000 0.000000
vt 0.000000 1.000000
vt 1.000000 1.000000
vt 0.938879 0.000000
vt 0.937650 1.000000
vt 0.897215 0.000000
vt 0.895783 1.000000
vt 0.969439 0.000000
vt 0.984720 0.000000
vt 0.992360 0.000000
vt 0.968825 1.000000
s 0
f 1/1/1 8/8/1 3/3/1
f 2/2/2 4/4/2 6/6/2
f 8/8/3 5/5/3 6/6/3
f 1/1/1 7/7/1 8/8/1
f 6/6/4 5/5/4 2/2/4
f 5/5/5 9/9/5 2/2/5
f 10/10/6 11/11/6 2/2/6
f 9/9/5 10/10/5 2/2/5
f 4/4/7 12/12/7 6/6/7
f 8/8/8 7/7/8 5/5/8
o 平面.001
v -245.174973 16.311329 13.704182
v -217.864059 16.311329 13.821795
v -245.174973 16.311329 -13.767814
v -218.069229 16.331865 -13.298364
vn -0.0008 1.0000 -0.0000
vn -0.0000 1.0000 0.0008
vt 0.000000 0.000000
vt 1.000000 0.000000
vt 0.000000 1.000000
vt 1.000000 1.000000
s 0
f 13/13/9 16/16/9 15/15/9
f 13/13/10 14/14/10 16/16/10
