# Blender 3.4.1
# www.blender.org
mtllib CharaEffectCircle.mtl
o 円
v 0.000000 0.000000 -2.026002
v -0.395253 0.000000 -1.987073
v -0.775318 0.000000 -1.871782
v -1.125587 0.000000 -1.684559
v -1.432600 0.000000 -1.432600
v -1.684559 0.000000 -1.125587
v -1.871782 0.000000 -0.775318
v -1.987073 0.000000 -0.395253
v -2.026002 0.000000 0.000000
v -1.987073 0.000000 0.395253
v -1.871782 0.000000 0.775318
v -1.684559 0.000000 1.125587
v -1.432600 0.000000 1.432600
v -1.125587 0.000000 1.684559
v -0.775318 0.000000 1.871782
v -0.395253 0.000000 1.987073
v 0.000000 0.000000 2.026002
v 0.395253 0.000000 1.987073
v 0.775318 0.000000 1.871782
v 1.125587 0.000000 1.684559
v 1.432600 0.000000 1.432600
v 1.684559 0.000000 1.125587
v 1.871782 0.000000 0.775318
v 1.987073 0.000000 0.395253
v 2.026002 0.000000 0.000000
v 1.987073 0.000000 -0.395253
v 1.871782 0.000000 -0.775318
v 1.684559 0.000000 -1.125587
v 1.432600 0.000000 -1.432600
v 1.125587 0.000000 -1.684559
v 0.775318 0.000000 -1.871782
v 0.395253 0.000000 -1.987073
v -0.395253 0.000000 -1.987073
v 0.000000 0.000000 -2.026002
v -0.775318 0.000000 -1.871782
v -1.125587 0.000000 -1.684559
v -1.432600 0.000000 -1.432600
v -1.684559 0.000000 -1.125587
v -1.871782 0.000000 -0.775318
v -1.987073 0.000000 -0.395253
v -2.026002 0.000000 0.000000
v -1.987073 0.000000 0.395253
v -1.871782 0.000000 0.775318
v -1.684559 0.000000 1.125587
v -1.432600 0.000000 1.432600
v -1.125587 0.000000 1.684559
v -0.775318 0.000000 1.871782
v -0.395253 0.000000 1.987073
v 0.000000 0.000000 2.026002
v 0.395253 0.000000 1.987073
v 0.775318 0.000000 1.871782
v 1.125587 0.000000 1.684559
v 1.432600 0.000000 1.432600
v 1.684559 0.000000 1.125587
v 1.871782 0.000000 0.775318
v 1.987073 0.000000 0.395253
v 2.026002 0.000000 0.000000
v 1.987073 0.000000 -0.395253
v 1.871782 0.000000 -0.775318
v 1.684559 0.000000 -1.125587
v 1.432600 0.000000 -1.432600
v 1.125587 0.000000 -1.684559
v 0.775318 0.000000 -1.871782
v 0.395253 0.000000 -1.987073
v -0.629985 4.448378 -3.167150
v 0.000000 4.448378 -3.229198
v -1.235761 4.448378 -2.983390
v -1.794047 4.448378 -2.684981
v -2.283388 4.448378 -2.283388
v -2.684981 4.448378 -1.794047
v -2.983390 4.448378 -1.235761
v -3.167150 4.448378 -0.629985
v -3.229198 4.448378 0.000000
v -3.167150 4.448378 0.629985
v -2.983390 4.448378 1.235761
v -2.684981 4.448378 1.794047
v -2.283388 4.448378 2.283388
v -1.794047 4.448378 2.684981
v -1.235761 4.448378 2.983390
v -0.629985 4.448378 3.167150
v 0.000000 4.448378 3.229198
v 0.629985 4.448378 3.167150
v 1.235761 4.448378 2.983390
v 1.794047 4.448378 2.684981
v 2.283388 4.448378 2.283388
v 2.684981 4.448378 1.794047
v 2.983390 4.448378 1.235761
v 3.167150 4.448378 0.629985
v 3.229198 4.448378 0.000000
v 3.167150 4.448378 -0.629985
v 2.983390 4.448378 -1.235761
v 2.684981 4.448378 -1.794047
v 2.283388 4.448378 -2.283388
v 1.794047 4.448378 -2.684981
v 1.235761 4.448378 -2.983390
v 0.629985 4.448378 -3.167150
vn 0.9240 -0.2599 -0.2803
vn -0.0000 1.0000 -0.0000
vn -0.6126 -0.2599 0.7464
vn 0.8516 -0.2599 -0.4552
vn -0.4552 -0.2599 0.8516
vn -0.0946 -0.2599 -0.9610
vn 0.7464 -0.2599 -0.6126
vn -0.2803 -0.2599 0.9240
vn -0.2803 -0.2599 -0.9240
vn 0.6126 -0.2599 -0.7464
vn -0.0946 -0.2599 0.9610
vn -0.4552 -0.2599 -0.8516
vn 0.4552 -0.2599 -0.8516
vn 0.0946 -0.2599 0.9610
vn -0.6126 -0.2599 -0.7464
vn 0.2803 -0.2599 -0.9240
vn 0.2803 -0.2599 0.9240
vn -0.7464 -0.2599 -0.6126
vn 0.0946 -0.2599 -0.9610
vn 0.4552 -0.2599 0.8516
vn -0.8516 -0.2599 -0.4552
vn 0.6126 -0.2599 0.7464
vn -0.9240 -0.2599 -0.2803
vn 0.7464 -0.2599 0.6126
vn -0.9610 -0.2599 -0.0946
vn 0.8516 -0.2599 0.4552
vn -0.9610 -0.2599 0.0946
vn 0.9240 -0.2599 0.2803
vn -0.9240 -0.2599 0.2803
vn 0.9610 -0.2599 0.0946
vn -0.8516 -0.2599 0.4552
vn 0.9610 -0.2599 -0.0946
vn -0.7464 -0.2599 0.6126
vt 0.778580 0.006640
vt 0.747622 0.006640
vt 0.716664 0.006640
vt 0.685706 0.006640
vt 0.654749 0.006640
vt 0.623791 0.006640
vt 0.592833 0.006640
vt 0.561875 0.006640
vt 0.530917 0.006640
vt 0.499959 0.006640
vt 0.469001 0.006640
vt 0.438043 0.006640
vt 0.407085 0.006640
vt 0.376127 0.006640
vt 0.345169 0.006640
vt 0.314211 0.006640
vt 0.283253 0.006640
vt 0.252295 0.006640
vt 0.221338 0.006640
vt 0.190380 0.006640
vt 0.159422 0.006640
vt 0.128464 0.006640
vt 0.097506 0.006640
vt 0.066548 0.006640
vt 0.035590 0.006640
vt 0.004632 0.006640
vt 0.995286 0.006640
vt 0.964328 0.006640
vt 0.933370 0.006640
vt 0.902412 0.006640
vt 0.871454 0.006640
vt 0.840496 0.006640
vt 0.809538 0.006640
vt 0.747622 0.006640
vt 0.778580 0.006640
vt 0.716664 0.006640
vt 0.685706 0.006640
vt 0.654749 0.006640
vt 0.623791 0.006640
vt 0.592833 0.006640
vt 0.561875 0.006640
vt 0.530917 0.006640
vt 0.499959 0.006640
vt 0.469001 0.006640
vt 0.438043 0.006640
vt 0.407085 0.006640
vt 0.376127 0.006640
vt 0.345169 0.006640
vt 0.314211 0.006640
vt 0.283253 0.006640
vt 0.252295 0.006640
vt 0.221338 0.006640
vt 0.190380 0.006640
vt 0.159422 0.006640
vt 0.128464 0.006640
vt 0.097506 0.006640
vt 0.066548 0.006640
vt 0.035590 0.006640
vt 0.995286 0.006640
vt 0.004632 0.006640
vt 0.964328 0.006640
vt 0.933370 0.006640
vt 0.902412 0.006640
vt 0.871454 0.006640
vt 0.840496 0.006640
vt 0.809538 0.006640
vt 0.747622 0.573790
vt 0.778580 0.573790
vt 0.716664 0.573790
vt 0.685706 0.573790
vt 0.654749 0.573790
vt 0.623791 0.573790
vt 0.592833 0.573790
vt 0.561875 0.573790
vt 0.530917 0.573790
vt 0.499959 0.573790
vt 0.469001 0.573790
vt 0.438043 0.573790
vt 0.407085 0.573790
vt 0.376127 0.573790
vt 0.345169 0.573790
vt 0.314211 0.573790
vt 0.283253 0.573790
vt 0.252295 0.573790
vt 0.221338 0.573790
vt 0.190380 0.573790
vt 0.159422 0.573790
vt 0.128464 0.573790
vt 0.097506 0.573790
vt 0.066548 0.573790
vt 0.035590 0.573790
vt 0.995286 0.573790
vt 0.004632 0.573790
vt 0.964328 0.573790
vt 0.933370 0.573790
vt 0.902412 0.573790
vt 0.871454 0.573790
vt 0.840496 0.573790
vt 0.809538 0.573790
s 0
usemtl マテリアル.001
f 59/61/1 90/92/1 58/59/1
f 31/32/2 64/66/2 63/65/2
f 18/18/2 51/52/2 50/51/2
f 5/5/2 38/39/2 37/38/2
f 32/33/2 34/35/2 64/66/2
f 19/19/2 52/53/2 51/52/2
f 6/6/2 39/40/2 38/39/2
f 20/20/2 53/54/2 52/53/2
f 7/7/2 40/41/2 39/40/2
f 21/21/2 54/55/2 53/54/2
f 8/8/2 41/42/2 40/41/2
f 22/22/2 55/56/2 54/55/2
f 9/9/2 42/43/2 41/42/2
f 23/23/2 56/57/2 55/56/2
f 10/10/2 43/44/2 42/43/2
f 24/24/2 57/58/2 56/57/2
f 11/11/2 44/45/2 43/44/2
f 25/25/2 58/60/2 57/58/2
f 12/12/2 45/46/2 44/45/2
f 26/27/2 59/61/2 58/59/2
f 13/13/2 46/47/2 45/46/2
f 27/28/2 60/62/2 59/61/2
f 14/14/2 47/48/2 46/47/2
f 1/1/2 33/34/2 34/35/2
f 28/29/2 61/63/2 60/62/2
f 15/15/2 48/49/2 47/48/2
f 2/2/2 35/36/2 33/34/2
f 29/30/2 62/64/2 61/63/2
f 16/16/2 49/50/2 48/49/2
f 3/3/2 36/37/2 35/36/2
f 30/31/2 63/65/2 62/64/2
f 17/17/2 50/51/2 49/50/2
f 4/4/2 37/38/2 36/37/2
f 46/47/3 77/79/3 45/46/3
f 60/62/4 91/94/4 59/61/4
f 47/48/5 78/80/5 46/47/5
f 34/35/6 65/67/6 66/68/6
f 61/63/7 92/95/7 60/62/7
f 48/49/8 79/81/8 47/48/8
f 35/36/9 65/67/9 33/34/9
f 62/64/10 93/96/10 61/63/10
f 49/50/11 80/82/11 48/49/11
f 36/37/12 67/69/12 35/36/12
f 63/65/13 94/97/13 62/64/13
f 49/50/14 82/84/14 81/83/14
f 37/38/15 68/70/15 36/37/15
f 64/66/16 95/98/16 63/65/16
f 51/52/17 82/84/17 50/51/17
f 38/39/18 69/71/18 37/38/18
f 64/66/19 66/68/19 96/99/19
f 52/53/20 83/85/20 51/52/20
f 39/40/21 70/72/21 38/39/21
f 53/54/22 84/86/22 52/53/22
f 40/41/23 71/73/23 39/40/23
f 54/55/24 85/87/24 53/54/24
f 40/41/25 73/75/25 72/74/25
f 55/56/26 86/88/26 54/55/26
f 41/42/27 74/76/27 73/75/27
f 56/57/28 87/89/28 55/56/28
f 43/44/29 74/76/29 42/43/29
f 56/57/30 89/91/30 88/90/30
f 44/45/31 75/77/31 43/44/31
f 57/58/32 90/93/32 89/91/32
f 45/46/33 76/78/33 44/45/33
f 59/61/1 91/94/1 90/92/1
f 31/32/2 32/33/2 64/66/2
f 18/18/2 19/19/2 51/52/2
f 5/5/2 6/6/2 38/39/2
f 32/33/2 1/1/2 34/35/2
f 19/19/2 20/20/2 52/53/2
f 6/6/2 7/7/2 39/40/2
f 20/20/2 21/21/2 53/54/2
f 7/7/2 8/8/2 40/41/2
f 21/21/2 22/22/2 54/55/2
f 8/8/2 9/9/2 41/42/2
f 22/22/2 23/23/2 55/56/2
f 9/9/2 10/10/2 42/43/2
f 23/23/2 24/24/2 56/57/2
f 10/10/2 11/11/2 43/44/2
f 24/24/2 25/25/2 57/58/2
f 11/11/2 12/12/2 44/45/2
f 25/25/2 26/26/2 58/60/2
f 12/12/2 13/13/2 45/46/2
f 26/27/2 27/28/2 59/61/2
f 13/13/2 14/14/2 46/47/2
f 27/28/2 28/29/2 60/62/2
f 14/14/2 15/15/2 47/48/2
f 1/1/2 2/2/2 33/34/2
f 28/29/2 29/30/2 61/63/2
f 15/15/2 16/16/2 48/49/2
f 2/2/2 3/3/2 35/36/2
f 29/30/2 30/31/2 62/64/2
f 16/16/2 17/17/2 49/50/2
f 3/3/2 4/4/2 36/37/2
f 30/31/2 31/32/2 63/65/2
f 17/17/2 18/18/2 50/51/2
f 4/4/2 5/5/2 37/38/2
f 46/47/3 78/80/3 77/79/3
f 60/62/4 92/95/4 91/94/4
f 47/48/5 79/81/5 78/80/5
f 34/35/6 33/34/6 65/67/6
f 61/63/7 93/96/7 92/95/7
f 48/49/8 80/82/8 79/81/8
f 35/36/9 67/69/9 65/67/9
f 62/64/10 94/97/10 93/96/10
f 49/50/11 81/83/11 80/82/11
f 36/37/12 68/70/12 67/69/12
f 63/65/13 95/98/13 94/97/13
f 49/50/14 50/51/14 82/84/14
f 37/38/15 69/71/15 68/70/15
f 64/66/16 96/99/16 95/98/16
f 51/52/17 83/85/17 82/84/17
f 38/39/18 70/72/18 69/71/18
f 64/66/19 34/35/19 66/68/19
f 52/53/20 84/86/20 83/85/20
f 39/40/21 71/73/21 70/72/21
f 53/54/22 85/87/22 84/86/22
f 40/41/23 72/74/23 71/73/23
f 54/55/24 86/88/24 85/87/24
f 40/41/25 41/42/25 73/75/25
f 55/56/26 87/89/26 86/88/26
f 41/42/27 42/43/27 74/76/27
f 56/57/28 88/90/28 87/89/28
f 43/44/29 75/77/29 74/76/29
f 56/57/30 57/58/30 89/91/30
f 44/45/31 76/78/31 75/77/31
f 57/58/32 58/60/32 90/93/32
f 45/46/33 77/79/33 76/78/33
o 円.001
v 0.000000 0.025915 -2.026002
v -0.395253 0.025915 -1.987073
v -0.775318 0.025915 -1.871782
v -1.125587 0.025915 -1.684559
v -1.432600 0.025915 -1.432600
v -1.684559 0.025915 -1.125587
v -1.871782 0.025915 -0.775318
v -1.987073 0.025915 -0.395253
v -2.026002 0.025915 0.000000
v -1.987073 0.025915 0.395253
v -1.871782 0.025915 0.775318
v -1.684559 0.025915 1.125587
v -1.432600 0.025915 1.432600
v -1.125587 0.025915 1.684559
v -0.775318 0.025915 1.871782
v -0.395253 0.025915 1.987073
v 0.000000 0.025915 2.026002
v 0.395253 0.025915 1.987073
v 0.775318 0.025915 1.871782
v 1.125587 0.025915 1.684559
v 1.432600 0.025915 1.432600
v 1.684559 0.025915 1.125587
v 1.871782 0.025915 0.775318
v 1.987073 0.025915 0.395253
v 2.026002 0.025915 0.000000
v 1.987073 0.025915 -0.395253
v 1.871782 0.025915 -0.775318
v 1.684559 0.025915 -1.125587
v 1.432600 0.025915 -1.432600
v 1.125587 0.025915 -1.684559
v 0.775318 0.025915 -1.871782
v 0.395253 0.025915 -1.987073
v -0.395253 0.025915 -1.987073
v 0.000000 0.025915 -2.026002
v -0.775318 0.025915 -1.871782
v -1.125587 0.025915 -1.684559
v -1.432600 0.025915 -1.432600
v -1.684559 0.025915 -1.125587
v -1.871782 0.025915 -0.775318
v -1.987073 0.025915 -0.395253
v -2.026002 0.025915 0.000000
v -1.987073 0.025915 0.395253
v -1.871782 0.025915 0.775318
v -1.684559 0.025915 1.125587
v -1.432600 0.025915 1.432600
v -1.125587 0.025915 1.684559
v -0.775318 0.025915 1.871782
v -0.395253 0.025915 1.987073
v 0.000000 0.025915 2.026002
v 0.395253 0.025915 1.987073
v 0.775318 0.025915 1.871782
v 1.125587 0.025915 1.684559
v 1.432600 0.025915 1.432600
v 1.684559 0.025915 1.125587
v 1.871782 0.025915 0.775318
v 1.987073 0.025915 0.395253
v 2.026002 0.025915 0.000000
v 1.987073 0.025915 -0.395253
v 1.871782 0.025915 -0.775318
v 1.684559 0.025915 -1.125587
v 1.432600 0.025915 -1.432600
v 1.125587 0.025915 -1.684559
v 0.775318 0.025915 -1.871782
v 0.395253 0.025915 -1.987073
v -0.629985 4.474293 -3.167150
v 0.000000 4.474293 -3.229198
v -1.235761 4.474293 -2.983390
v -1.794047 4.474293 -2.684981
v -2.283388 4.474293 -2.283388
v -2.684981 4.474293 -1.794047
v -2.983390 4.474293 -1.235761
v -3.167150 4.474293 -0.629985
v -3.229198 4.474293 0.000000
v -3.167150 4.474293 0.629985
v -2.983390 4.474293 1.235761
v -2.684981 4.474293 1.794047
v -2.283388 4.474293 2.283388
v -1.794047 4.474293 2.684981
v -1.235761 4.474293 2.983390
v -0.629985 4.474293 3.167150
v 0.000000 4.474293 3.229198
v 0.629985 4.474293 3.167150
v 1.235761 4.474293 2.983390
v 1.794047 4.474293 2.684981
v 2.283388 4.474293 2.283388
v 2.684981 4.474293 1.794047
v 2.983390 4.474293 1.235761
v 3.167150 4.474293 0.629985
v 3.229198 4.474293 0.000000
v 3.167150 4.474293 -0.629985
v 2.983390 4.474293 -1.235761
v 2.684981 4.474293 -1.794047
v 2.283388 4.474293 -2.283388
v 1.794047 4.474293 -2.684981
v 1.235761 4.474293 -2.983390
v 0.629985 4.474293 -3.167150
vn -0.9240 0.2599 0.2803
vn -0.0000 1.0000 -0.0000
vn 0.6126 0.2599 -0.7464
vn -0.8516 0.2599 0.4552
vn 0.4552 0.2599 -0.8516
vn 0.0946 0.2599 0.9610
vn -0.7464 0.2599 0.6126
vn 0.2803 0.2599 -0.9240
vn 0.2803 0.2599 0.9240
vn -0.6126 0.2599 0.7464
vn 0.0946 0.2599 -0.9610
vn 0.4552 0.2599 0.8516
vn -0.4552 0.2599 0.8516
vn -0.0946 0.2599 -0.9610
vn 0.6126 0.2599 0.7464
vn -0.2803 0.2599 0.9240
vn -0.2803 0.2599 -0.9240
vn 0.7464 0.2599 0.6126
vn -0.0946 0.2599 0.9610
vn -0.4552 0.2599 -0.8516
vn 0.8516 0.2599 0.4552
vn -0.6126 0.2599 -0.7464
vn 0.9240 0.2599 0.2803
vn -0.7464 0.2599 -0.6126
vn 0.9610 0.2599 0.0946
vn -0.8516 0.2599 -0.4552
vn 0.9610 0.2599 -0.0946
vn -0.9240 0.2599 -0.2803
vn 0.9240 0.2599 -0.2803
vn -0.9610 0.2599 -0.0946
vn 0.8516 0.2599 -0.4552
vn -0.9610 0.2599 0.0946
vn 0.7464 0.2599 -0.6126
vt 0.778580 0.006640
vt 0.747622 0.006640
vt 0.716664 0.006640
vt 0.685706 0.006640
vt 0.654749 0.006640
vt 0.623791 0.006640
vt 0.592833 0.006640
vt 0.561875 0.006640
vt 0.530917 0.006640
vt 0.499959 0.006640
vt 0.469001 0.006640
vt 0.438043 0.006640
vt 0.407085 0.006640
vt 0.376127 0.006640
vt 0.345169 0.006640
vt 0.314211 0.006640
vt 0.283253 0.006640
vt 0.252295 0.006640
vt 0.221338 0.006640
vt 0.190380 0.006640
vt 0.159422 0.006640
vt 0.128464 0.006640
vt 0.097506 0.006640
vt 0.066548 0.006640
vt 0.035590 0.006640
vt 0.004632 0.006640
vt 0.995286 0.006640
vt 0.964328 0.006640
vt 0.933370 0.006640
vt 0.902412 0.006640
vt 0.871454 0.006640
vt 0.840496 0.006640
vt 0.809538 0.006640
vt 0.747622 0.006640
vt 0.778580 0.006640
vt 0.716664 0.006640
vt 0.685706 0.006640
vt 0.654749 0.006640
vt 0.623791 0.006640
vt 0.592833 0.006640
vt 0.561875 0.006640
vt 0.530917 0.006640
vt 0.499959 0.006640
vt 0.469001 0.006640
vt 0.438043 0.006640
vt 0.407085 0.006640
vt 0.376127 0.006640
vt 0.345169 0.006640
vt 0.314211 0.006640
vt 0.283253 0.006640
vt 0.252295 0.006640
vt 0.221338 0.006640
vt 0.190380 0.006640
vt 0.159422 0.006640
vt 0.128464 0.006640
vt 0.097506 0.006640
vt 0.066548 0.006640
vt 0.035590 0.006640
vt 0.995286 0.006640
vt 0.004632 0.006640
vt 0.964328 0.006640
vt 0.933370 0.006640
vt 0.902412 0.006640
vt 0.871454 0.006640
vt 0.840496 0.006640
vt 0.809538 0.006640
vt 0.747622 0.573790
vt 0.778580 0.573790
vt 0.716664 0.573790
vt 0.685706 0.573790
vt 0.654749 0.573790
vt 0.623791 0.573790
vt 0.592833 0.573790
vt 0.561875 0.573790
vt 0.530917 0.573790
vt 0.499959 0.573790
vt 0.469001 0.573790
vt 0.438043 0.573790
vt 0.407085 0.573790
vt 0.376127 0.573790
vt 0.345169 0.573790
vt 0.314211 0.573790
vt 0.283253 0.573790
vt 0.252295 0.573790
vt 0.221338 0.573790
vt 0.190380 0.573790
vt 0.159422 0.573790
vt 0.128464 0.573790
vt 0.097506 0.573790
vt 0.066548 0.573790
vt 0.035590 0.573790
vt 0.995286 0.573790
vt 0.004632 0.573790
vt 0.964328 0.573790
vt 0.933370 0.573790
vt 0.902412 0.573790
vt 0.871454 0.573790
vt 0.840496 0.573790
vt 0.809538 0.573790
s 0
usemtl マテリアル.001
f 155/160/34 154/158/34 186/191/34
f 127/131/35 159/164/35 160/165/35
f 114/117/35 146/150/35 147/151/35
f 101/104/35 133/137/35 134/138/35
f 128/132/35 160/165/35 130/134/35
f 115/118/35 147/151/35 148/152/35
f 102/105/35 134/138/35 135/139/35
f 116/119/35 148/152/35 149/153/35
f 103/106/35 135/139/35 136/140/35
f 117/120/35 149/153/35 150/154/35
f 104/107/35 136/140/35 137/141/35
f 118/121/35 150/154/35 151/155/35
f 105/108/35 137/141/35 138/142/35
f 119/122/35 151/155/35 152/156/35
f 106/109/35 138/142/35 139/143/35
f 120/123/35 152/156/35 153/157/35
f 107/110/35 139/143/35 140/144/35
f 121/124/35 153/157/35 154/159/35
f 108/111/35 140/144/35 141/145/35
f 122/126/35 154/158/35 155/160/35
f 109/112/35 141/145/35 142/146/35
f 123/127/35 155/160/35 156/161/35
f 110/113/35 142/146/35 143/147/35
f 97/100/35 130/134/35 129/133/35
f 124/128/35 156/161/35 157/162/35
f 111/114/35 143/147/35 144/148/35
f 98/101/35 129/133/35 131/135/35
f 125/129/35 157/162/35 158/163/35
f 112/115/35 144/148/35 145/149/35
f 99/102/35 131/135/35 132/136/35
f 126/130/35 158/163/35 159/164/35
f 113/116/35 145/149/35 146/150/35
f 100/103/35 132/136/35 133/137/35
f 142/146/36 141/145/36 173/178/36
f 156/161/37 155/160/37 187/193/37
f 143/147/38 142/146/38 174/179/38
f 130/134/39 162/167/39 161/166/39
f 157/162/40 156/161/40 188/194/40
f 144/148/41 143/147/41 175/180/41
f 131/135/42 129/133/42 161/166/42
f 158/163/43 157/162/43 189/195/43
f 145/149/44 144/148/44 176/181/44
f 132/136/45 131/135/45 163/168/45
f 159/164/46 158/163/46 190/196/46
f 145/149/47 177/182/47 178/183/47
f 133/137/48 132/136/48 164/169/48
f 160/165/49 159/164/49 191/197/49
f 147/151/50 146/150/50 178/183/50
f 134/138/51 133/137/51 165/170/51
f 160/165/52 192/198/52 162/167/52
f 148/152/53 147/151/53 179/184/53
f 135/139/54 134/138/54 166/171/54
f 149/153/55 148/152/55 180/185/55
f 136/140/56 135/139/56 167/172/56
f 150/154/57 149/153/57 181/186/57
f 136/140/58 168/173/58 169/174/58
f 151/155/59 150/154/59 182/187/59
f 137/141/60 169/174/60 170/175/60
f 152/156/61 151/155/61 183/188/61
f 139/143/62 138/142/62 170/175/62
f 152/156/63 184/189/63 185/190/63
f 140/144/64 139/143/64 171/176/64
f 153/157/65 185/190/65 186/192/65
f 141/145/66 140/144/66 172/177/66
f 155/160/34 186/191/34 187/193/34
f 127/131/35 160/165/35 128/132/35
f 114/117/35 147/151/35 115/118/35
f 101/104/35 134/138/35 102/105/35
f 128/132/35 130/134/35 97/100/35
f 115/118/35 148/152/35 116/119/35
f 102/105/35 135/139/35 103/106/35
f 116/119/35 149/153/35 117/120/35
f 103/106/35 136/140/35 104/107/35
f 117/120/35 150/154/35 118/121/35
f 104/107/35 137/141/35 105/108/35
f 118/121/35 151/155/35 119/122/35
f 105/108/35 138/142/35 106/109/35
f 119/122/35 152/156/35 120/123/35
f 106/109/35 139/143/35 107/110/35
f 120/123/35 153/157/35 121/124/35
f 107/110/35 140/144/35 108/111/35
f 121/124/35 154/159/35 122/125/35
f 108/111/35 141/145/35 109/112/35
f 122/126/35 155/160/35 123/127/35
f 109/112/35 142/146/35 110/113/35
f 123/127/35 156/161/35 124/128/35
f 110/113/35 143/147/35 111/114/35
f 97/100/35 129/133/35 98/101/35
f 124/128/35 157/162/35 125/129/35
f 111/114/35 144/148/35 112/115/35
f 98/101/35 131/135/35 99/102/35
f 125/129/35 158/163/35 126/130/35
f 112/115/35 145/149/35 113/116/35
f 99/102/35 132/136/35 100/103/35
f 126/130/35 159/164/35 127/131/35
f 113/116/35 146/150/35 114/117/35
f 100/103/35 133/137/35 101/104/35
f 142/146/36 173/178/36 174/179/36
f 156/161/37 187/193/37 188/194/37
f 143/147/38 174/179/38 175/180/38
f 130/134/39 161/166/39 129/133/39
f 157/162/40 188/194/40 189/195/40
f 144/148/41 175/180/41 176/181/41
f 131/135/42 161/166/42 163/168/42
f 158/163/43 189/195/43 190/196/43
f 145/149/44 176/181/44 177/182/44
f 132/136/45 163/168/45 164/169/45
f 159/164/46 190/196/46 191/197/46
f 145/149/47 178/183/47 146/150/47
f 133/137/48 164/169/48 165/170/48
f 160/165/49 191/197/49 192/198/49
f 147/151/50 178/183/50 179/184/50
f 134/138/51 165/170/51 166/171/51
f 160/165/52 162/167/52 130/134/52
f 148/152/53 179/184/53 180/185/53
f 135/139/54 166/171/54 167/172/54
f 149/153/55 180/185/55 181/186/55
f 136/140/56 167/172/56 168/173/56
f 150/154/57 181/186/57 182/187/57
f 136/140/58 169/174/58 137/141/58
f 151/155/59 182/187/59 183/188/59
f 137/141/60 170/175/60 138/142/60
f 152/156/61 183/188/61 184/189/61
f 139/143/62 170/175/62 171/176/62
f 152/156/63 185/190/63 153/157/63
f 140/144/64 171/176/64 172/177/64
f 153/157/65 186/192/65 154/159/65
f 141/145/66 172/177/66 173/178/66
