# Blender 3.4.1
# www.blender.org
mtllib NeedleObjLeftRight(BaseCol).mtl
o 平面.001
v 0.749910 10.053236 -5.054561
v 0.749911 -0.055886 -5.054561
v 0.749909 10.053236 5.054561
v 0.749910 -0.055886 5.054561
vn 1.0000 -0.0000 -0.0000
vt 0.000000 0.000000
vt 1.000000 0.000000
vt 0.000000 1.000000
vt 1.000000 1.000000
s 0
f 2/2/1 1/1/1 3/3/1
f 2/2/1 3/3/1 4/4/1
o 平面.002
v -0.819859 10.053236 -5.054561
v -0.819859 -0.055886 -5.054561
v -0.819866 10.053236 5.054561
v -0.819865 -0.055886 5.054561
vn -1.0000 -0.0000 -0.0000
vt 0.000000 0.000000
vt 1.000000 0.000000
vt 0.000000 1.000000
vt 1.000000 1.000000
s 0
f 6/6/2 7/7/2 5/5/2
f 6/6/2 8/8/2 7/7/2
o 平面.003
v -0.829664 -0.041041 5.067261
v 0.752152 -0.041041 5.067261
v -0.829664 10.033096 5.067261
v 0.752152 10.033096 5.067261
vn -0.0000 -0.0000 1.0000
vt 0.000000 0.000000
vt 1.000000 0.000000
vt 0.000000 1.000000
vt 1.000000 1.000000
s 0
f 10/10/3 11/11/3 9/9/3
f 10/10/3 12/12/3 11/11/3
o 平面.004
v -0.829664 10.049985 -5.067261
v 0.752152 10.049985 -5.067261
v -0.829664 -0.063494 -5.067264
v 0.752152 -0.063494 -5.067264
vn -0.0000 -0.0000 -1.0000
vt 0.000000 0.000000
vt 1.000000 0.000000
vt 0.000000 1.000000
vt 1.000000 1.000000
s 0
f 14/14/4 15/15/4 13/13/4
f 14/14/4 16/16/4 15/15/4
o 平面.005
v -0.829664 10.049707 5.050873
v 0.752152 10.049707 5.050873
v -0.829664 10.049713 -5.062606
v 0.752152 10.049713 -5.062606
vn -0.0000 1.0000 -0.0000
vt 0.000000 0.000000
vt 1.000000 0.000000
vt 0.000000 1.000000
vt 1.000000 1.000000
s 0
f 18/18/5 19/19/5 17/17/5
f 18/18/5 20/20/5 19/19/5
o 平面.006
v -0.829664 -0.052642 -5.036733
v 0.752152 -0.052642 -5.036733
v -0.829664 -0.052650 5.076746
v 0.752152 -0.052650 5.076746
vn -0.0000 -1.0000 -0.0000
vt 0.000000 0.000000
vt 1.000000 0.000000
vt 0.000000 1.000000
vt 1.000000 1.000000
s 0
f 22/22/6 23/23/6 21/21/6
f 22/22/6 24/24/6 23/23/6
