# Blender 3.4.1
# www.blender.org
mtllib FloorCol.mtl
o 平面
v -26.198305 -13.009075 23.379251
v -0.293125 -13.009075 23.379251
v -26.198305 -13.009075 2.888633
v -0.293125 -13.009075 2.888633
vn -0.0000 1.0000 -0.0000
vt 0.000000 0.000000
vt 1.000000 0.000000
vt 0.000000 1.000000
vt 1.000000 1.000000
s 0
f 2/2/1 3/3/1 1/1/1
f 2/2/1 4/4/1 3/3/1
o 平面.001
v -27.355564 -13.009075 -28.079163
v 0.864137 -13.009075 -28.079163
v -27.355564 -13.009075 -64.654213
v 0.864137 -13.009075 -64.654213
vn -0.0000 1.0000 -0.0000
vt 0.000000 0.000000
vt 1.000000 0.000000
vt 0.000000 1.000000
vt 1.000000 1.000000
s 0
f 6/6/2 7/7/2 5/5/2
f 6/6/2 8/8/2 7/7/2
o 平面.002
v -62.885918 3.361888 -81.717659
v 36.394493 3.361888 -81.717659
v -62.885918 3.361888 -118.292702
v 36.394493 3.361888 -118.292702
vn -0.0000 1.0000 -0.0000
vt 0.000000 0.000000
vt 1.000000 0.000000
vt 0.000000 1.000000
vt 1.000000 1.000000
s 0
f 10/10/3 11/11/3 9/9/3
f 10/10/3 12/12/3 11/11/3
o 平面.003
v -25.648165 3.212939 -189.520264
v -1.834287 3.212939 -189.520264
v -25.648165 3.212939 -199.188858
v -1.834287 3.212939 -199.188858
vn -0.0000 1.0000 -0.0000
vt 0.000000 0.000000
vt 1.000000 0.000000
vt 0.000000 1.000000
vt 1.000000 1.000000
s 0
f 14/14/4 15/15/4 13/13/4
f 14/14/4 16/16/4 15/15/4
o 平面.004
v -38.826702 6.370702 -326.109650
v 12.335271 6.370702 -326.109650
v -38.826702 6.370702 -346.210480
v 12.335271 6.370702 -346.210480
vn -0.0000 1.0000 -0.0000
vt 0.000000 0.000000
vt 1.000000 0.000000
vt 0.000000 1.000000
vt 1.000000 1.000000
s 0
f 18/18/5 19/19/5 17/17/5
f 18/18/5 20/20/5 19/19/5
o 平面.005
v -145.674500 -5.168955 -648.608337
v 119.183075 -5.168955 -648.608337
v -145.674500 -5.168955 -675.330994
v 119.183075 -5.168955 -675.330994
vn -0.0000 1.0000 -0.0000
vt 0.000000 0.000000
vt 1.000000 0.000000
vt 0.000000 1.000000
vt 1.000000 1.000000
s 0
f 22/22/6 23/23/6 21/21/6
f 22/22/6 24/24/6 23/23/6
o 平面.006
v 24.261648 -5.168955 -674.519348
v 24.261637 -5.168955 -866.696899
v -51.857727 -5.168955 -674.519348
v -51.857742 -5.168955 -866.696899
vn -0.0000 1.0000 -0.0000
vt 0.000000 0.000000
vt 1.000000 0.000000
vt 0.000000 1.000000
vt 1.000000 1.000000
s 0
f 26/26/7 27/27/7 25/25/7
f 26/26/7 28/28/7 27/27/7
