# Blender 3.4.1
# www.blender.org
mtllib SeesawStage(FloorCol).mtl
o 平面.002
v 66.751083 -76.493050 -140.222870
v 98.717628 -76.493050 -140.222870
v 66.970612 -76.493034 -245.289246
v 98.582542 -76.493034 -245.289246
vn -0.0000 1.0000 -0.0000
vt 0.000000 0.000000
vt 1.000000 0.000000
vt 0.000000 1.000000
vt 1.000000 1.000000
s 0
f 2/2/1 3/3/1 1/1/1
f 2/2/1 4/4/1 3/3/1
o 平面.003
v 66.795616 -48.096001 -103.257439
v 98.745346 -48.096001 -103.257439
v 66.725800 -48.095993 -140.179276
v 98.740356 -48.095993 -140.179276
vn -0.0000 1.0000 -0.0000
vt 0.000000 0.000000
vt 1.000000 0.000000
vt 0.000000 1.000000
vt 1.000000 1.000000
s 0
f 5/5/2 8/8/2 7/7/2
f 5/5/2 6/6/2 8/8/2
o 平面.004
v 38.431702 -38.254517 95.316505
v 127.277138 -38.254517 95.316505
v 38.488617 -38.254490 -61.711357
v 126.629288 -38.254490 -61.711357
v 101.586411 -39.536083 -74.722221
v 64.114777 -39.519932 -74.670486
v 126.807037 -38.254498 -18.628763
v 38.473000 -38.254498 -18.628763
v 103.787521 -35.628475 -18.628763
vn 0.1133 0.9936 -0.0005
vn 0.0003 0.9976 -0.0695
vn -0.0402 0.9992 -0.0000
vn -0.0000 0.9997 0.0230
vn 0.0493 0.9988 -0.0000
vn -0.0401 0.9984 -0.0409
vn -0.0153 0.9975 -0.0689
vt 0.000000 0.000000
vt 1.000000 0.000000
vt 0.000000 1.000000
vt 1.000000 1.000000
vt 0.666667 1.000000
vt 0.333333 1.000000
vt 1.000000 0.725637
vt 0.000000 0.725637
vt 0.739404 0.725637
s 0
f 10/10/3 15/15/3 17/17/3
f 13/13/4 14/14/4 17/17/4
f 16/16/5 9/9/5 17/17/5
f 9/9/6 10/10/6 17/17/6
f 11/11/7 16/16/7 14/14/7
f 16/16/8 17/17/8 14/14/8
f 17/17/3 15/15/3 12/12/3
f 12/12/9 13/13/9 17/17/9
o 平面.005
v 38.595928 25.192894 212.884430
v 120.468475 25.192894 213.200836
v -41.443848 25.192913 92.201408
v 120.532585 25.192913 91.880089
v 38.838638 25.192905 140.246933
v -41.080547 25.192905 139.954514
vn -0.0000 1.0000 -0.0000
vt 0.000000 0.000000
vt 1.000000 0.000000
vt 0.000000 1.000000
vt 1.000000 1.000000
vt 0.000000 0.500000
vt 0.000000 0.750000
s 0
f 22/22/10 19/19/10 21/21/10
f 22/22/10 18/18/10 19/19/10
f 21/21/10 20/20/10 22/22/10
f 20/20/10 23/23/10 22/22/10
o 平面.006
v -1.350039 88.702591 213.318192
v 39.313950 88.702591 213.270462
v -1.697668 88.702606 161.473831
v 39.322964 88.702606 161.826004
vn -0.0000 1.0000 -0.0000
vt 0.000000 0.000000
vt 1.000000 0.000000
vt 0.000000 1.000000
vt 1.000000 1.000000
s 0
f 24/24/11 27/27/11 26/26/11
f 24/24/11 25/25/11 27/27/11
o 平面.007
v -41.685684 111.892036 213.311890
v -1.286682 111.892036 213.309143
v -41.621780 111.892052 138.592575
v 39.326145 111.892052 161.935440
v 39.309845 111.892052 138.717941
v -1.060003 111.892052 162.060852
vn -0.0000 1.0000 -0.0000
vt 0.000000 0.000000
vt 1.000000 0.000000
vt 0.000000 1.000000
vt 1.000000 1.000000
vt 0.500000 1.000000
vt 1.000000 0.500000
s 0
f 33/33/12 32/32/12 30/30/12
f 30/30/12 28/28/12 33/33/12
f 28/28/12 29/29/12 33/33/12
f 33/33/12 31/31/12 32/32/12
o 平面.008
v -126.790146 111.755615 213.408615
v -109.257065 111.755615 213.408615
v -126.891884 111.755630 139.214218
v -109.274025 111.755630 139.214218
vn -0.0000 1.0000 -0.0000
vt 0.000000 0.000000
vt 1.000000 0.000000
vt 0.000000 1.000000
vt 1.000000 1.000000
s 0
f 34/34/13 37/37/13 36/36/13
f 34/34/13 35/35/13 37/37/13
o 平面.009
v -256.341888 111.928566 208.834457
v -135.958008 111.928566 209.053207
v -256.341888 111.928574 145.675369
v -136.063568 111.928574 145.555725
v -243.391479 111.928566 208.857986
v -244.431366 111.928566 198.784119
v -246.178711 111.928566 181.856293
v -229.112503 111.928566 180.096878
v -227.353134 111.928566 196.987137
v -155.902908 111.928574 145.575455
v -205.693939 111.928574 145.624985
v -205.341614 111.928574 149.383102
v -155.726471 111.928574 150.262802
v -217.481476 111.928574 161.874863
v -205.693481 111.928566 174.014709
v -193.025787 111.928574 161.698868
v -171.385117 111.928574 158.004135
v -148.161041 111.928566 165.745560
v -163.291901 111.928566 173.135025
v -172.088882 111.928566 201.989197
v -167.338486 111.928566 185.450851
v -183.700958 111.928566 180.700485
v -188.451370 111.928566 197.062912
vn -0.0000 1.0000 -0.0000
vt 0.000000 0.000000
vt 1.000000 0.000000
vt 0.000000 1.000000
vt 1.000000 1.000000
vt 0.107576 0.000000
vt 0.098961 0.159329
vt 0.084458 0.427229
vt 0.226280 0.455224
vt 0.240850 0.188126
vt 0.835055 1.000000
vt 0.421090 1.000000
vt 0.423994 0.940642
vt 0.836471 0.926091
vt 0.323005 0.743406
vt 0.420916 0.551586
vt 0.526288 0.746064
vt 0.706214 0.804197
vt 0.899173 0.682037
vt 0.773322 0.565601
vt 0.699911 0.110555
vt 0.739553 0.371432
vt 0.603631 0.446190
vt 0.564020 0.187910
s 0
f 56/56/14 59/59/14 58/58/14
f 43/43/14 38/38/14 42/42/14
f 39/39/14 58/58/14 57/57/14
f 46/46/14 43/43/14 42/42/14
f 48/48/14 54/54/14 47/47/14
f 45/45/14 46/46/14 52/52/14
f 46/46/14 60/60/14 52/52/14
f 60/60/14 59/59/14 52/52/14
f 40/40/14 38/38/14 44/44/14
f 40/40/14 44/44/14 45/45/14
f 49/49/14 48/48/14 51/51/14
f 48/48/14 40/40/14 51/51/14
f 41/41/14 47/47/14 50/50/14
f 41/41/14 50/50/14 55/55/14
f 51/51/14 40/40/14 45/45/14
f 54/54/14 53/53/14 59/59/14
f 53/53/14 52/52/14 59/59/14
f 52/52/14 51/51/14 45/45/14
f 56/56/14 54/54/14 59/59/14
f 39/39/14 41/41/14 55/55/14
f 39/39/14 55/55/14 58/58/14
f 55/55/14 56/56/14 58/58/14
f 43/43/14 44/44/14 38/38/14
f 42/42/14 39/39/14 57/57/14
f 57/57/14 60/60/14 42/42/14
f 60/60/14 46/46/14 42/42/14
f 48/48/14 49/49/14 53/53/14
f 53/53/14 54/54/14 48/48/14
f 54/54/14 50/50/14 47/47/14
o 平面.010
v -289.967651 110.434586 209.185562
v -275.064636 110.434586 209.168991
v -289.454559 110.434593 145.919098
v -275.180481 110.434593 146.034958
v -374.779663 154.289291 209.185577
v -374.266571 154.289291 145.919113
v -646.031433 154.289291 223.344620
v -645.518311 154.289307 132.339050
v -377.223694 154.289307 132.760147
v -375.341797 154.289291 222.186646
vn -0.0000 1.0000 -0.0000
vn 0.4593 0.8883 0.0037
vt 0.000000 0.000000
vt 1.000000 0.000000
vt 0.000000 1.000000
vt 1.000000 1.000000
vt 0.000000 0.000000
vt 0.000000 1.000000
vt 0.000000 0.000000
vt 0.000000 1.000000
vt 0.000000 1.000000
vt 0.000000 0.000000
s 0
f 61/61/15 64/64/15 63/63/15
f 61/61/16 66/66/16 65/65/16
f 68/68/15 67/67/15 65/65/15
f 61/61/15 62/62/15 64/64/15
f 61/61/16 63/63/16 66/66/16
f 70/70/15 65/65/15 67/67/15
f 65/65/15 66/66/15 68/68/15
f 66/66/15 69/69/15 68/68/15
o 立方体.040
v 119.198662 -38.236320 24.045630
v 119.198662 -33.452797 38.362728
v 119.198662 -27.782867 52.679817
v 119.198662 -25.543404 66.996910
v 111.092987 -38.236320 24.045630
v 111.092987 -26.533066 52.679817
v 111.092987 -24.495810 66.996910
v 102.987305 -38.236320 24.045630
v 102.987305 -25.843540 52.679817
v 102.987305 -23.903963 66.996910
v 94.881622 -38.236320 24.045630
v 94.881622 -25.622070 52.679817
v 94.881622 -23.712038 66.996910
v 86.775940 -38.236320 24.045630
v 86.775940 -25.843540 52.679817
v 86.775940 -23.903963 66.996910
v 78.670265 -38.236320 24.045630
v 78.670265 -26.533066 52.679817
v 78.670265 -24.495810 66.996910
v 70.564575 -38.236320 24.045630
v 70.564575 -33.452797 38.362728
v 70.564575 -27.782867 52.679817
v 70.564575 -25.543404 66.996910
v 62.458900 -38.236320 24.045630
v 62.458900 -38.236324 38.362724
v 62.458900 -29.839497 52.679817
v 62.458900 -27.175484 66.996910
v 62.458900 -26.420202 81.313995
v 54.353222 -38.236324 38.362724
v 54.353222 -29.721771 66.996910
v 54.353222 -28.761299 81.313995
v 46.247540 -38.236324 38.362724
v 46.247540 -38.236324 52.679813
v 46.247540 -34.833916 66.996910
v 46.247540 -32.864643 81.313995
v 126.539452 -27.020172 95.606422
v 126.747391 -27.058203 95.533653
v 126.933929 -27.089581 95.416458
v 127.089706 -27.112728 95.260674
v 127.206917 -27.126488 95.074135
v 127.279678 -27.130165 94.866188
v 119.198662 -25.530609 95.354889
v 111.092987 -24.483946 95.354843
v 102.987305 -23.892569 95.354820
v 94.881622 -23.700788 95.354820
v 86.775940 -23.892569 95.354820
v 78.670265 -24.483946 95.354843
v 70.564575 -25.530609 95.354889
v 62.458900 -27.160915 95.354973
v 54.353222 -29.703264 95.355186
v 46.247540 -34.796154 95.356606
v 38.375851 -38.081264 81.313995
v 38.401146 -38.127487 66.996895
v 38.423943 -38.236324 52.679802
v 127.031158 -27.120476 66.996895
v 127.033745 -29.770840 52.679806
v 127.057022 -38.090370 38.362724
v 127.016212 -38.236320 24.045630
v 38.388016 -38.101456 94.665062
v 39.129105 -37.803688 95.354927
v 38.415836 -38.121326 94.799400
v 38.466946 -38.099876 94.945465
v 38.550743 -38.064697 95.078850
v 38.664429 -38.016979 95.192520
v 38.803009 -37.958809 95.279594
v 38.959648 -37.893059 95.334404
v 126.539452 -27.020172 95.606422
v 127.279678 -27.130165 94.866188
vn 0.2421 0.9541 -0.1766
vn -0.5488 0.8281 -0.1139
vn -0.3781 0.9007 -0.2140
vn 0.0237 0.9997 -0.0004
vn -0.0237 0.9997 -0.0004
vn -0.0728 0.9973 -0.0004
vn -0.1281 0.9918 -0.0004
vn -0.1969 0.9791 0.0516
vn 0.1973 0.9790 0.0517
vn -0.2771 0.9595 0.0506
vn -0.4508 0.8906 0.0597
vn -0.3891 0.9210 0.0205
vn 0.0728 0.9973 -0.0004
vn -0.0000 0.9999 -0.0102
vn 0.4547 0.7704 -0.4469
vn -0.0000 0.9257 -0.3783
vn 0.1506 0.9767 -0.1528
vn -0.0000 0.9177 -0.3972
vn 0.0839 0.9865 -0.1404
vn 0.0271 0.9906 -0.1342
vn -0.0235 0.9909 -0.1322
vn -0.1211 0.9189 -0.3756
vn -0.0722 0.9884 -0.1339
vn -0.2951 0.9393 -0.1748
vn -0.1269 0.9820 -0.1397
vn -0.4884 0.8276 -0.2765
vn -0.2296 0.9049 -0.3584
vn -0.1951 0.9690 -0.1516
vn -0.4497 0.8561 -0.2546
vn -0.2771 0.9595 -0.0506
vn 0.1282 0.9918 -0.0004
vn -0.4508 0.8906 -0.0597
vn 0.1419 0.9203 -0.3645
vn 0.1951 0.9690 -0.1516
vn -0.3870 0.9221 -0.0037
vn -0.0000 1.0000 -0.0076
vn -0.1282 0.9918 -0.0004
vn -0.1083 0.9941 -0.0004
vn -0.1971 0.9790 -0.0516
vn 0.1974 0.9803 -0.0014
vn 0.1941 0.9810 -0.0004
vn -0.0000 1.0000 -0.0000
vn -0.4935 0.0726 -0.8667
vn -0.4892 -0.1495 -0.8592
vn 0.1969 0.9791 0.0514
vn -0.7449 0.6301 -0.2191
vn -0.0000 -1.0000 -0.0000
vn -0.8238 -0.5125 -0.2423
vn 0.1971 0.9790 0.0517
vn -0.2987 0.9522 0.0639
vn -0.5284 0.8411 0.1157
vn -0.3940 0.9106 0.1252
vn -0.5524 0.8336 0.0018
vn -0.8729 0.4230 0.2433
vn -0.4750 0.8696 0.1349
vn -0.5892 0.7917 0.1614
vn -0.4758 0.8727 0.1096
vn -0.4284 0.9000 0.0803
vn -0.4045 0.9125 0.0613
vn 0.4884 0.8276 -0.2765
vn 0.2296 0.9049 -0.3584
vn 0.0778 0.9150 -0.3960
vn 0.1269 0.9820 -0.1397
vn 0.0250 0.9148 -0.4030
vn 0.0722 0.9884 -0.1339
vn -0.0250 0.9148 -0.4030
vn 0.0235 0.9909 -0.1322
vn -0.0778 0.9150 -0.3960
vn -0.0271 0.9906 -0.1342
vn -0.0000 0.9485 -0.3169
vn -0.1419 0.9203 -0.3645
vn -0.0839 0.9865 -0.1404
vn -0.0000 0.8626 -0.5059
vn -0.4397 0.8609 -0.2560
vn -0.1506 0.9767 -0.1528
vn -0.4537 0.7687 -0.4508
vn -0.2420 0.9539 -0.1775
vn -0.5230 0.8292 -0.1971
vn -0.2991 0.9521 -0.0639
vn 0.1281 0.9918 -0.0004
vn -0.5299 0.8402 -0.1156
vn 0.1211 0.9189 -0.3756
vt 0.647727 0.750000
vt 0.647727 0.750000
vt 0.647727 0.750000
vt 0.647727 0.750000
vt 0.670455 0.750000
vt 0.670455 0.750000
vt 0.670455 0.750000
vt 0.693182 0.750000
vt 0.693182 0.750000
vt 0.693182 0.750000
vt 0.715909 0.750000
vt 0.715909 0.750000
vt 0.715909 0.750000
vt 0.738636 0.750000
vt 0.738636 0.750000
vt 0.738636 0.750000
vt 0.761364 0.750000
vt 0.761364 0.750000
vt 0.761364 0.750000
vt 0.784091 0.750000
vt 0.784091 0.750000
vt 0.784091 0.750000
vt 0.784091 0.750000
vt 0.806818 0.750000
vt 0.806818 0.750000
vt 0.806818 0.750000
vt 0.806818 0.750000
vt 0.806818 0.750000
vt 0.829545 0.750000
vt 0.829545 0.750000
vt 0.829545 0.750000
vt 0.852273 0.750000
vt 0.852273 0.750000
vt 0.852273 0.750000
vt 0.852273 0.750000
vt 0.627145 0.750000
vt 0.626562 0.750000
vt 0.626039 0.750000
vt 0.625602 0.750000
vt 0.625273 0.750000
vt 0.625069 0.750000
vt 0.647727 0.750000
vt 0.670455 0.750000
vt 0.693182 0.750000
vt 0.715909 0.750000
vt 0.738636 0.750000
vt 0.761364 0.750000
vt 0.784091 0.750000
vt 0.806818 0.750000
vt 0.829545 0.750000
vt 0.852273 0.750000
vt 0.874344 0.750000
vt 0.874273 0.750000
vt 0.874209 0.750000
vt 0.625766 0.750000
vt 0.625759 0.750000
vt 0.625693 0.750000
vt 0.625808 0.750000
vt 0.874287 0.750000
vt 0.872226 0.750000
vt 0.874249 0.750000
vt 0.874107 0.750000
vt 0.873873 0.750000
vt 0.873554 0.750000
vt 0.873164 0.750000
vt 0.872724 0.750000
vt 0.627145 0.750000
vt 0.625069 0.750000
s 0
f 73/73/17 125/125/17 126/126/17
f 104/104/18 122/122/18 105/105/18
f 103/103/19 123/123/19 104/104/19
f 83/83/20 114/114/20 80/80/20
f 83/83/21 116/116/21 115/115/21
f 86/86/22 117/117/22 116/116/22
f 89/89/23 118/118/23 117/117/23
f 98/98/24 119/119/24 118/118/24
f 109/109/25 110/110/25 138/138/25
f 101/101/26 119/119/26 98/98/26
f 105/105/27 120/120/27 101/101/27
f 130/130/28 121/121/28 129/129/28
f 80/80/29 113/113/29 77/77/29
f 71/71/30 127/127/30 128/128/30
f 72/72/31 126/126/31 127/127/31
f 78/78/32 76/76/32 75/75/32
f 76/76/33 74/74/33 73/73/33
f 81/81/34 79/79/34 78/78/34
f 79/79/35 77/77/35 76/76/35
f 85/85/34 81/81/34 84/84/34
f 82/82/36 80/80/36 79/79/36
f 88/88/32 84/84/32 87/87/32
f 82/82/37 86/86/37 83/83/37
f 87/87/38 91/91/38 88/88/38
f 85/85/39 89/89/39 86/86/39
f 100/100/40 97/97/40 96/96/40
f 88/88/41 93/93/41 89/89/41
f 90/90/42 95/95/42 91/91/42
f 91/91/43 96/96/43 92/92/43
f 92/92/44 97/97/44 93/93/44
f 99/99/45 103/103/45 100/100/45
f 97/97/46 101/101/46 98/98/46
f 77/77/47 112/112/47 74/74/47
f 100/100/48 105/105/48 101/101/48
f 76/76/49 73/73/49 72/72/49
f 73/73/50 74/74/50 125/125/50
f 104/104/51 123/123/51 122/122/51
f 103/103/52 124/124/52 123/123/52
f 83/83/20 115/115/20 114/114/20
f 83/83/21 86/86/21 116/116/21
f 86/86/22 89/89/22 117/117/22
f 89/89/53 93/93/53 118/118/53
f 118/118/54 93/93/54 98/98/54
f 93/93/55 97/97/55 98/98/55
f 125/125/56 74/74/56 138/138/56
f 74/74/57 112/112/57 138/138/57
f 137/137/58 106/106/59 107/107/60
f 112/112/61 137/137/61 138/138/61
f 110/110/62 111/111/63 138/138/64
f 137/137/65 107/107/65 138/138/65
f 107/107/65 108/108/65 138/138/65
f 108/108/65 109/109/65 138/138/65
f 101/101/66 120/120/66 119/119/66
f 105/105/67 121/121/67 120/120/67
f 121/121/68 105/105/68 129/129/68
f 105/105/69 122/122/69 129/129/69
f 129/129/70 131/131/70 132/132/70
f 130/130/71 129/129/71 136/136/71
f 132/132/72 133/133/72 129/129/72
f 133/133/73 134/134/73 129/129/73
f 134/134/74 135/135/74 129/129/74
f 135/135/75 136/136/75 129/129/75
f 80/80/29 114/114/29 113/113/29
f 71/71/76 72/72/76 127/127/76
f 72/72/77 73/73/77 126/126/77
f 78/78/78 79/79/78 76/76/78
f 76/76/79 77/77/79 74/74/79
f 81/81/80 82/82/80 79/79/80
f 79/79/81 80/80/81 77/77/81
f 85/85/82 82/82/82 81/81/82
f 82/82/83 83/83/83 80/80/83
f 88/88/84 85/85/84 84/84/84
f 82/82/85 85/85/85 86/86/85
f 90/90/86 91/91/86 87/87/86
f 91/91/87 92/92/87 88/88/87
f 85/85/88 88/88/88 89/89/88
f 95/95/89 99/99/89 96/96/89
f 99/99/90 100/100/90 96/96/90
f 88/88/91 92/92/91 93/93/91
f 90/90/58 94/94/58 95/95/58
f 91/91/92 95/95/92 96/96/92
f 92/92/93 96/96/93 97/97/93
f 102/102/58 103/103/58 99/99/58
f 103/103/94 104/104/94 100/100/94
f 97/97/95 100/100/95 101/101/95
f 77/77/96 113/113/96 112/112/96
f 100/100/97 104/104/97 105/105/97
f 71/71/86 75/75/86 72/72/86
f 75/75/98 76/76/98 72/72/98
o 平面
v 69.630203 -47.963333 -166.873535
v 96.004311 -47.963333 -166.873535
v 69.630203 -47.963333 -178.373810
v 96.004311 -47.963333 -178.373810
vn -0.0000 1.0000 -0.0000
vt 0.000000 0.000000
vt 1.000000 0.000000
vt 0.000000 1.000000
vt 1.000000 1.000000
s 0
f 140/140/99 141/141/99 139/139/99
f 140/140/99 142/142/99 141/141/99
