# Blender 3.4.1
# www.blender.org
mtllib SeesawStage(FallCol).mtl
o 平面
v -121.649872 -118.053078 394.359711
v 279.881744 -118.053078 394.359711
v -121.649872 -118.053078 -294.113556
v 279.881744 -118.053078 -294.113556
vn -0.0000 1.0000 -0.0000
vt 0.000000 0.000000
vt 1.000000 0.000000
vt 0.000000 1.000000
vt 1.000000 1.000000
s 0
f 2/2/1 3/3/1 1/1/1
f 2/2/1 4/4/1 3/3/1
o 平面.001
v -152.308685 -81.299446 399.683502
v 152.308685 -81.299446 399.683502
v -152.308685 -81.299446 36.147923
v 152.308685 -81.299446 36.147923
vn -0.0000 1.0000 -0.0000
vt 0.000000 0.000000
vt 1.000000 0.000000
vt 0.000000 1.000000
vt 1.000000 1.000000
s 0
f 6/6/2 7/7/2 5/5/2
f 6/6/2 8/8/2 7/7/2
o 平面.002
v -779.473816 74.590645 296.139038
v -41.139801 74.590645 296.139038
v -779.473816 74.590645 43.704132
v -41.139801 74.590645 43.704132
vn -0.0000 1.0000 -0.0000
vt 0.000000 0.000000
vt 1.000000 0.000000
vt 0.000000 1.000000
vt 1.000000 1.000000
s 0
f 10/10/3 11/11/3 9/9/3
f 10/10/3 12/12/3 11/11/3
