# Blender 3.4.1
# www.blender.org
mtllib SeesawStage(FloorCol).mtl
o 平面.002
v 66.751083 -76.493073 -140.222855
v 98.717628 -76.493073 -140.222855
v 66.970612 -76.493073 -245.289230
v 98.582542 -76.493073 -245.289230
vn -0.0000 1.0000 -0.0000
vt 0.000000 0.000000
vt 1.000000 0.000000
vt 0.000000 1.000000
vt 1.000000 1.000000
s 0
f 2/2/1 3/3/1 1/1/1
f 2/2/1 4/4/1 3/3/1
o 立方体.040
v 119.198662 -38.236317 24.045635
v 119.198662 -33.452789 38.362732
v 119.198662 -27.782860 52.679821
v 119.198662 -25.543392 66.996918
v 111.092987 -38.236317 24.045635
v 111.092987 -26.533058 52.679821
v 111.092987 -24.495798 66.996918
v 102.987305 -38.236317 24.045635
v 102.987305 -25.843533 52.679821
v 102.987305 -23.903952 66.996918
v 94.881622 -38.236317 24.045635
v 94.881622 -25.622063 52.679821
v 94.881622 -23.712027 66.996918
v 86.775940 -38.236317 24.045635
v 86.775940 -25.843533 52.679821
v 86.775940 -23.903952 66.996918
v 78.670265 -38.236317 24.045635
v 78.670265 -26.533058 52.679821
v 78.670265 -24.495798 66.996918
v 70.564575 -38.236317 24.045635
v 70.564575 -33.452789 38.362732
v 70.564575 -27.782860 52.679821
v 70.564575 -25.543392 66.996918
v 62.458900 -38.236317 24.045635
v 62.458900 -38.236317 38.362732
v 62.458900 -29.839489 52.679821
v 62.458900 -27.175472 66.996918
v 62.458900 -26.420189 81.314003
v 54.353222 -38.236317 38.362732
v 54.353222 -29.721760 66.996918
v 54.353222 -28.761286 81.314003
v 46.247540 -38.236317 38.362732
v 46.247540 -38.236317 52.679821
v 46.247540 -34.833904 66.996918
v 46.247540 -32.864632 81.314003
v 126.539452 -27.020157 95.606430
v 126.747391 -27.058187 95.533661
v 126.933929 -27.089565 95.416466
v 127.089706 -27.112713 95.260681
v 127.206917 -27.126472 95.074142
v 127.279678 -27.130150 94.866196
v 119.198662 -25.530594 95.354897
v 111.092987 -24.483931 95.354851
v 102.987305 -23.892553 95.354828
v 94.881622 -23.700773 95.354828
v 86.775940 -23.892553 95.354828
v 78.670265 -24.483931 95.354851
v 70.564575 -25.530594 95.354897
v 62.458900 -27.160900 95.354980
v 54.353222 -29.703249 95.355194
v 46.247540 -34.796139 95.356613
v 38.375851 -38.081253 81.314003
v 38.401146 -38.127476 66.996902
v 38.423943 -38.236317 52.679810
v 127.031158 -27.120464 66.996902
v 127.033745 -29.770832 52.679810
v 127.057022 -38.090363 38.362732
v 127.016212 -38.236317 24.045635
v 38.388016 -38.101440 94.665070
v 39.129105 -37.803673 95.354935
v 38.415836 -38.121311 94.799408
v 38.466946 -38.099861 94.945473
v 38.550743 -38.064682 95.078857
v 38.664429 -38.016964 95.192528
v 38.803009 -37.958794 95.279602
v 38.959648 -37.893044 95.334412
v 126.539452 -27.020157 95.606430
v 127.279678 -27.130150 94.866196
vn 0.2421 0.9541 -0.1766
vn -0.5488 0.8281 -0.1139
vn -0.3781 0.9007 -0.2140
vn 0.0237 0.9997 -0.0004
vn -0.0237 0.9997 -0.0004
vn -0.0728 0.9973 -0.0004
vn -0.1281 0.9918 -0.0004
vn -0.1969 0.9791 0.0516
vn 0.1971 0.9790 0.0517
vn -0.2771 0.9595 0.0506
vn -0.4508 0.8906 0.0597
vn -0.3891 0.9210 0.0205
vn 0.0728 0.9973 -0.0004
vn -0.0000 0.9999 -0.0102
vn 0.4547 0.7704 -0.4469
vn -0.0000 0.9257 -0.3783
vn 0.1506 0.9767 -0.1528
vn -0.0000 0.9177 -0.3972
vn 0.0839 0.9865 -0.1404
vn 0.0271 0.9906 -0.1342
vn -0.0235 0.9909 -0.1322
vn -0.1211 0.9189 -0.3756
vn -0.0722 0.9884 -0.1339
vn -0.2951 0.9393 -0.1748
vn -0.1269 0.9820 -0.1397
vn -0.4884 0.8276 -0.2765
vn -0.2296 0.9049 -0.3584
vn -0.1951 0.9690 -0.1516
vn -0.4497 0.8561 -0.2546
vn -0.2771 0.9595 -0.0506
vn 0.1282 0.9918 -0.0004
vn -0.4508 0.8906 -0.0597
vn 0.1419 0.9203 -0.3645
vn 0.1951 0.9690 -0.1516
vn -0.3870 0.9221 -0.0037
vn -0.0000 1.0000 -0.0076
vn -0.1282 0.9918 -0.0004
vn -0.1083 0.9941 -0.0004
vn -0.1971 0.9790 -0.0516
vn 0.1974 0.9803 -0.0014
vn 0.1941 0.9810 -0.0004
vn -0.0000 1.0000 -0.0000
vn 0.1969 0.9791 0.0514
vn 0.1972 0.9790 0.0517
vn 0.1972 0.9790 0.0516
vn -0.2987 0.9522 0.0639
vn -0.5284 0.8411 0.1157
vn -0.3940 0.9106 0.1252
vn -0.5524 0.8336 0.0018
vn -0.8728 0.4230 0.2433
vn -0.4750 0.8696 0.1349
vn -0.5894 0.7916 0.1614
vn -0.4759 0.8727 0.1097
vn -0.4282 0.9001 0.0803
vn -0.4045 0.9125 0.0613
vn 0.4884 0.8276 -0.2765
vn 0.2296 0.9049 -0.3584
vn 0.0778 0.9150 -0.3960
vn 0.1269 0.9820 -0.1397
vn 0.0250 0.9148 -0.4030
vn 0.0722 0.9884 -0.1339
vn -0.0250 0.9148 -0.4030
vn 0.0235 0.9909 -0.1322
vn -0.0778 0.9150 -0.3960
vn -0.0271 0.9906 -0.1342
vn -0.0000 0.9485 -0.3169
vn -0.1419 0.9203 -0.3645
vn -0.0839 0.9865 -0.1404
vn -0.0000 0.8626 -0.5059
vn -0.4397 0.8609 -0.2560
vn -0.1506 0.9767 -0.1528
vn -0.4537 0.7687 -0.4508
vn -0.2420 0.9539 -0.1775
vn -0.5230 0.8292 -0.1971
vn -0.2991 0.9521 -0.0639
vn 0.1281 0.9918 -0.0004
vn -0.5299 0.8402 -0.1156
vn 0.1211 0.9189 -0.3756
vt 0.647727 0.750000
vt 0.647727 0.750000
vt 0.647727 0.750000
vt 0.647727 0.750000
vt 0.670455 0.750000
vt 0.670455 0.750000
vt 0.670455 0.750000
vt 0.693182 0.750000
vt 0.693182 0.750000
vt 0.693182 0.750000
vt 0.715909 0.750000
vt 0.715909 0.750000
vt 0.715909 0.750000
vt 0.738636 0.750000
vt 0.738636 0.750000
vt 0.738636 0.750000
vt 0.761364 0.750000
vt 0.761364 0.750000
vt 0.761364 0.750000
vt 0.784091 0.750000
vt 0.784091 0.750000
vt 0.784091 0.750000
vt 0.784091 0.750000
vt 0.806818 0.750000
vt 0.806818 0.750000
vt 0.806818 0.750000
vt 0.806818 0.750000
vt 0.806818 0.750000
vt 0.829545 0.750000
vt 0.829545 0.750000
vt 0.829545 0.750000
vt 0.852273 0.750000
vt 0.852273 0.750000
vt 0.852273 0.750000
vt 0.852273 0.750000
vt 0.627145 0.750000
vt 0.626562 0.750000
vt 0.626039 0.750000
vt 0.625602 0.750000
vt 0.625273 0.750000
vt 0.625069 0.750000
vt 0.647727 0.750000
vt 0.670455 0.750000
vt 0.693182 0.750000
vt 0.715909 0.750000
vt 0.738636 0.750000
vt 0.761364 0.750000
vt 0.784091 0.750000
vt 0.806818 0.750000
vt 0.829545 0.750000
vt 0.852273 0.750000
vt 0.874344 0.750000
vt 0.874273 0.750000
vt 0.874209 0.750000
vt 0.625766 0.750000
vt 0.625759 0.750000
vt 0.625693 0.750000
vt 0.625808 0.750000
vt 0.874287 0.750000
vt 0.872226 0.750000
vt 0.874249 0.750000
vt 0.874107 0.750000
vt 0.873873 0.750000
vt 0.873554 0.750000
vt 0.873164 0.750000
vt 0.872724 0.750000
vt 0.627145 0.750000
vt 0.625069 0.750000
s 0
f 7/7/2 59/59/2 60/60/2
f 38/38/3 56/56/3 39/39/3
f 37/37/4 57/57/4 38/38/4
f 17/17/5 48/48/5 14/14/5
f 17/17/6 50/50/6 49/49/6
f 20/20/7 51/51/7 50/50/7
f 23/23/8 52/52/8 51/51/8
f 32/32/9 53/53/9 52/52/9
f 43/43/10 44/44/10 72/72/10
f 35/35/11 53/53/11 32/32/11
f 39/39/12 54/54/12 35/35/12
f 64/64/13 55/55/13 63/63/13
f 14/14/14 47/47/14 11/11/14
f 5/5/15 61/61/15 62/62/15
f 6/6/16 60/60/16 61/61/16
f 12/12/17 10/10/17 9/9/17
f 10/10/18 8/8/18 7/7/18
f 15/15/19 13/13/19 12/12/19
f 13/13/20 11/11/20 10/10/20
f 19/19/19 15/15/19 18/18/19
f 16/16/21 14/14/21 13/13/21
f 22/22/17 18/18/17 21/21/17
f 16/16/22 20/20/22 17/17/22
f 21/21/23 25/25/23 22/22/23
f 19/19/24 23/23/24 20/20/24
f 34/34/25 31/31/25 30/30/25
f 22/22/26 27/27/26 23/23/26
f 24/24/27 29/29/27 25/25/27
f 25/25/28 30/30/28 26/26/28
f 26/26/29 31/31/29 27/27/29
f 33/33/30 37/37/30 34/34/30
f 31/31/31 35/35/31 32/32/31
f 11/11/32 46/46/32 8/8/32
f 34/34/33 39/39/33 35/35/33
f 10/10/34 7/7/34 6/6/34
f 7/7/35 8/8/35 59/59/35
f 38/38/36 57/57/36 56/56/36
f 37/37/37 58/58/37 57/57/37
f 17/17/5 49/49/5 48/48/5
f 17/17/6 20/20/6 50/50/6
f 20/20/7 23/23/7 51/51/7
f 23/23/38 27/27/38 52/52/38
f 52/52/39 27/27/39 32/32/39
f 27/27/40 31/31/40 32/32/40
f 59/59/41 8/8/41 72/72/41
f 8/8/42 46/46/42 72/72/42
f 71/71/43 40/40/43 41/41/43
f 46/46/44 71/71/44 72/72/44
f 44/44/43 45/45/43 72/72/43
f 71/71/45 41/41/45 72/72/45
f 41/41/10 42/42/10 72/72/10
f 42/42/46 43/43/46 72/72/46
f 35/35/47 54/54/47 53/53/47
f 39/39/48 55/55/48 54/54/48
f 55/55/49 39/39/49 63/63/49
f 39/39/50 56/56/50 63/63/50
f 63/63/51 65/65/51 66/66/51
f 64/64/52 63/63/52 70/70/52
f 66/66/53 67/67/53 63/63/53
f 67/67/54 68/68/54 63/63/54
f 68/68/55 69/69/55 63/63/55
f 69/69/56 70/70/56 63/63/56
f 14/14/14 48/48/14 47/47/14
f 5/5/57 6/6/57 61/61/57
f 6/6/58 7/7/58 60/60/58
f 12/12/59 13/13/59 10/10/59
f 10/10/60 11/11/60 8/8/60
f 15/15/61 16/16/61 13/13/61
f 13/13/62 14/14/62 11/11/62
f 19/19/63 16/16/63 15/15/63
f 16/16/64 17/17/64 14/14/64
f 22/22/65 19/19/65 18/18/65
f 16/16/66 19/19/66 20/20/66
f 24/24/67 25/25/67 21/21/67
f 25/25/68 26/26/68 22/22/68
f 19/19/69 22/22/69 23/23/69
f 29/29/70 33/33/70 30/30/70
f 33/33/71 34/34/71 30/30/71
f 22/22/72 26/26/72 27/27/72
f 24/24/43 28/28/43 29/29/43
f 25/25/73 29/29/73 30/30/73
f 26/26/74 30/30/74 31/31/74
f 36/36/43 37/37/43 33/33/43
f 37/37/75 38/38/75 34/34/75
f 31/31/76 34/34/76 35/35/76
f 11/11/77 47/47/77 46/46/77
f 34/34/78 38/38/78 39/39/78
f 5/5/67 9/9/67 6/6/67
f 9/9/79 10/10/79 6/6/79
o 平面.003
v 66.795616 -48.096016 -103.257431
v 98.745346 -48.096016 -103.257431
v 66.725800 -48.096016 -140.179260
v 98.740356 -48.096016 -140.179260
vn -0.0000 1.0000 -0.0000
vt 0.000000 0.000000
vt 1.000000 0.000000
vt 0.000000 1.000000
vt 1.000000 1.000000
s 0
f 73/73/80 76/76/80 75/75/80
f 73/73/80 74/74/80 76/76/80
o 平面.004
v 38.431702 -38.254501 95.316513
v 127.277138 -38.254501 95.316513
v 38.488617 -38.254501 -61.711349
v 126.629288 -38.254501 -61.711349
v 101.586411 -39.536095 -74.722214
v 64.114777 -39.519943 -74.670479
v 126.807037 -38.254501 -18.628757
v 38.473000 -38.254501 -18.628757
v 103.787521 -35.628479 -18.628757
vn 0.1133 0.9936 -0.0005
vn 0.0003 0.9976 -0.0695
vn -0.0402 0.9992 -0.0000
vn -0.0000 0.9997 0.0230
vn 0.0493 0.9988 -0.0000
vn -0.0401 0.9984 -0.0409
vn -0.0153 0.9975 -0.0689
vt 0.000000 0.000000
vt 1.000000 0.000000
vt 0.000000 1.000000
vt 1.000000 1.000000
vt 0.666667 1.000000
vt 0.333333 1.000000
vt 1.000000 0.725637
vt 0.000000 0.725637
vt 0.739404 0.725637
s 0
f 78/78/81 83/83/81 85/85/81
f 81/81/82 82/82/82 85/85/82
f 84/84/83 77/77/83 85/85/83
f 77/77/84 78/78/84 85/85/84
f 79/79/85 84/84/85 82/82/85
f 84/84/86 85/85/86 82/82/86
f 85/85/81 83/83/81 80/80/81
f 80/80/87 81/81/87 85/85/87
o 平面.005
v 38.595928 25.192928 212.884430
v 120.468475 25.192928 213.200836
v -41.443848 25.192928 92.201401
v 120.532585 25.192928 91.880081
v 38.838638 25.192928 140.246933
v -41.080547 25.192928 139.954514
vn -0.0000 1.0000 -0.0000
vt 0.000000 0.000000
vt 1.000000 0.000000
vt 0.000000 1.000000
vt 1.000000 1.000000
vt 0.000000 0.500000
vt 0.000000 0.750000
s 0
f 90/90/88 87/87/88 89/89/88
f 90/90/88 86/86/88 87/87/88
f 89/89/88 88/88/88 90/90/88
f 88/88/88 91/91/88 90/90/88
o 平面.006
v -1.350039 88.702629 213.318176
v 39.313950 88.702629 213.270447
v -1.697668 88.702629 161.473816
v 39.322964 88.702629 161.825989
vn -0.0000 1.0000 -0.0000
vt 0.000000 0.000000
vt 1.000000 0.000000
vt 0.000000 1.000000
vt 1.000000 1.000000
s 0
f 92/92/89 95/95/89 94/94/89
f 92/92/89 93/93/89 95/95/89
o 平面.007
v -41.685684 111.892075 213.311874
v -1.286682 111.892075 213.309128
v -41.621780 111.892075 138.592560
v 39.326145 111.892075 161.935425
v 39.309845 111.892075 138.717926
v -1.060003 111.892075 162.060837
vn -0.0000 1.0000 -0.0000
vt 0.000000 0.000000
vt 1.000000 0.000000
vt 0.000000 1.000000
vt 1.000000 1.000000
vt 0.500000 1.000000
vt 1.000000 0.500000
s 0
f 101/101/90 100/100/90 98/98/90
f 98/98/90 96/96/90 101/101/90
f 96/96/90 97/97/90 101/101/90
f 101/101/90 99/99/90 100/100/90
o 平面.008
v -126.790146 111.755653 213.408600
v -109.257065 111.755653 213.408600
v -126.891884 111.755653 139.214203
v -109.274025 111.755653 139.214203
vn -0.0000 1.0000 -0.0000
vt 0.000000 0.000000
vt 1.000000 0.000000
vt 0.000000 1.000000
vt 1.000000 1.000000
s 0
f 102/102/91 105/105/91 104/104/91
f 102/102/91 103/103/91 105/105/91
o 平面.009
v -256.341888 111.928596 208.834442
v -135.958008 111.928596 209.053192
v -256.341888 111.928596 145.675354
v -136.063568 111.928596 145.555710
v -243.391479 111.928596 208.857971
v -244.431366 111.928596 198.784103
v -246.178711 111.928596 181.856277
v -229.112503 111.928596 180.096863
v -227.353134 111.928596 196.987122
v -155.902908 111.928596 145.575439
v -205.693939 111.928596 145.624969
v -205.341614 111.928596 149.383087
v -155.726471 111.928596 150.262787
v -217.481476 111.928596 161.874847
v -205.693481 111.928596 174.014694
v -193.025787 111.928596 161.698853
v -171.385117 111.928596 158.004120
v -148.161041 111.928596 165.745544
v -163.291901 111.928596 173.135010
v -172.088882 111.928596 201.989182
v -167.338486 111.928596 185.450836
v -183.700958 111.928596 180.700470
v -188.451370 111.928596 197.062897
vn -0.0000 1.0000 -0.0000
vt 0.000000 0.000000
vt 1.000000 0.000000
vt 0.000000 1.000000
vt 1.000000 1.000000
vt 0.107576 0.000000
vt 0.098961 0.159329
vt 0.084458 0.427229
vt 0.226280 0.455224
vt 0.240850 0.188126
vt 0.835055 1.000000
vt 0.421090 1.000000
vt 0.423994 0.940642
vt 0.836471 0.926091
vt 0.323005 0.743406
vt 0.420916 0.551586
vt 0.526288 0.746064
vt 0.706214 0.804197
vt 0.899173 0.682037
vt 0.773322 0.565601
vt 0.699911 0.110555
vt 0.739553 0.371432
vt 0.603631 0.446190
vt 0.564020 0.187910
s 0
f 124/124/92 127/127/92 126/126/92
f 111/111/92 106/106/92 110/110/92
f 107/107/92 126/126/92 125/125/92
f 114/114/92 111/111/92 110/110/92
f 116/116/92 122/122/92 115/115/92
f 113/113/92 114/114/92 120/120/92
f 114/114/92 128/128/92 120/120/92
f 128/128/92 127/127/92 120/120/92
f 108/108/92 106/106/92 112/112/92
f 108/108/92 112/112/92 113/113/92
f 117/117/92 116/116/92 119/119/92
f 116/116/92 108/108/92 119/119/92
f 109/109/92 115/115/92 118/118/92
f 109/109/92 118/118/92 123/123/92
f 119/119/92 108/108/92 113/113/92
f 122/122/92 121/121/92 127/127/92
f 121/121/92 120/120/92 127/127/92
f 120/120/92 119/119/92 113/113/92
f 124/124/92 122/122/92 127/127/92
f 107/107/92 109/109/92 123/123/92
f 107/107/92 123/123/92 126/126/92
f 123/123/92 124/124/92 126/126/92
f 111/111/92 112/112/92 106/106/92
f 110/110/92 107/107/92 125/125/92
f 125/125/92 128/128/92 110/110/92
f 128/128/92 114/114/92 110/110/92
f 116/116/92 117/117/92 121/121/92
f 121/121/92 122/122/92 116/116/92
f 122/122/92 118/118/92 115/115/92
o 平面.010
v -289.967651 110.434616 209.185547
v -275.064636 110.434616 209.168976
v -289.454559 110.434616 145.919083
v -275.180481 110.434616 146.034943
v -374.779663 154.289322 209.185547
v -374.266571 154.289322 145.919083
v -646.031433 154.289322 223.344589
v -645.518311 154.289322 132.339020
v -377.223694 154.289322 132.760117
v -375.341797 154.289322 222.186615
vn -0.0000 1.0000 -0.0000
vn 0.4593 0.8883 0.0037
vt 0.000000 0.000000
vt 1.000000 0.000000
vt 0.000000 1.000000
vt 1.000000 1.000000
vt 0.000000 0.000000
vt 0.000000 1.000000
vt 0.000000 0.000000
vt 0.000000 1.000000
vt 0.000000 1.000000
vt 0.000000 0.000000
s 0
f 129/129/93 132/132/93 131/131/93
f 129/129/94 134/134/94 133/133/94
f 136/136/93 135/135/93 133/133/93
f 129/129/93 130/130/93 132/132/93
f 129/129/94 131/131/94 134/134/94
f 138/138/93 133/133/93 135/135/93
f 133/133/93 134/134/93 136/136/93
f 134/134/93 137/137/93 136/136/93
