# Blender 3.4.1
# www.blender.org
mtllib SeesawStage(FloorCol).mtl
o 平面.002
v 12.222793 -17.431126 -31.252968
v 22.878304 -17.431126 -31.252968
v 12.295964 -17.431126 -66.275093
v 22.833277 -17.431126 -66.275093
vn -0.0000 1.0000 -0.0000
vt 0.000000 0.000000
vt 1.000000 0.000000
vt 0.000000 1.000000
vt 1.000000 1.000000
s 0
f 2/2/1 3/3/1 1/1/1
f 2/2/1 4/4/1 3/3/1
o 立方体.040
v 29.705317 -4.678871 23.503195
v 29.705317 -3.084362 28.275560
v 29.705317 -1.194386 33.047924
v 29.705317 -0.447897 37.820290
v 27.003424 -4.678871 23.503195
v 27.003424 -0.777785 33.047924
v 27.003424 -0.098699 37.820290
v 24.301531 -4.678871 23.503195
v 24.301531 -0.547943 33.047924
v 24.301531 0.098584 37.820290
v 21.599636 -4.678871 23.503195
v 21.599636 -0.474120 33.047924
v 21.599636 0.162559 37.820290
v 18.897743 -4.678871 23.503195
v 18.897743 -0.547943 33.047924
v 18.897743 0.098584 37.820290
v 16.195850 -4.678871 23.503195
v 16.195850 -0.777785 33.047924
v 16.195850 -0.098699 37.820290
v 13.493957 -4.678871 23.503195
v 13.493957 -3.084362 28.275560
v 13.493957 -1.194386 33.047924
v 13.493957 -0.447897 37.820290
v 10.792063 -4.678871 23.503195
v 10.792063 -4.678871 28.275560
v 10.792063 -1.879929 33.047924
v 10.792063 -0.991923 37.820290
v 10.792063 -0.740162 42.592651
v 8.090170 -4.678871 28.275560
v 8.090170 -1.840686 37.820290
v 8.090170 -1.520527 42.592651
v 5.388276 -4.678871 28.275560
v 5.388276 -4.678871 33.047924
v 5.388276 -3.544734 37.820290
v 5.388276 -2.888310 42.592651
v 32.152245 -0.940151 47.356792
v 32.221558 -0.952828 47.332539
v 32.283737 -0.963287 47.293472
v 32.335663 -0.971003 47.241543
v 32.374737 -0.975589 47.179363
v 32.398987 -0.976816 47.110050
v 29.705317 -0.443631 47.272949
v 27.003424 -0.094743 47.272934
v 24.301531 0.102383 47.272926
v 21.599636 0.166310 47.272926
v 18.897743 0.102383 47.272926
v 16.195850 -0.094743 47.272934
v 13.493957 -0.443631 47.272949
v 10.792063 -0.987066 47.272976
v 8.090170 -1.834515 47.273048
v 5.388276 -3.532146 47.273521
v 2.764380 -4.627182 42.592651
v 2.772812 -4.642591 37.820286
v 2.780410 -4.678871 33.047920
v 32.316147 -0.973587 37.820286
v 32.317013 -1.857043 33.047920
v 32.324772 -4.630220 28.275560
v 32.311165 -4.678871 23.503195
v 2.768434 -4.633912 47.043007
v 3.015465 -4.534658 47.272961
v 2.777709 -4.640537 47.087788
v 2.794744 -4.633386 47.136475
v 2.822677 -4.621660 47.180935
v 2.860572 -4.605754 47.218826
v 2.906766 -4.586364 47.247852
v 2.958979 -4.564446 47.266121
v 32.152245 -0.940151 47.356792
v 32.398987 -0.976816 47.110050
vn 0.2421 0.9541 -0.1766
vn -0.5488 0.8281 -0.1139
vn -0.3781 0.9007 -0.2140
vn 0.0237 0.9997 -0.0004
vn -0.0237 0.9997 -0.0004
vn -0.0728 0.9973 -0.0004
vn -0.1281 0.9918 -0.0004
vn -0.1969 0.9791 0.0516
vn 0.1971 0.9790 0.0516
vn -0.2771 0.9595 0.0506
vn -0.4508 0.8906 0.0597
vn -0.3891 0.9210 0.0205
vn 0.0728 0.9973 -0.0004
vn -0.0000 0.9999 -0.0102
vn 0.4547 0.7704 -0.4469
vn -0.0000 0.9257 -0.3783
vn 0.1506 0.9767 -0.1528
vn -0.0000 0.9177 -0.3972
vn 0.0839 0.9865 -0.1404
vn 0.0271 0.9906 -0.1342
vn -0.0235 0.9909 -0.1322
vn -0.1211 0.9189 -0.3756
vn -0.0722 0.9884 -0.1339
vn -0.2951 0.9393 -0.1748
vn -0.1269 0.9820 -0.1397
vn -0.4884 0.8276 -0.2765
vn -0.2296 0.9049 -0.3584
vn -0.1951 0.9690 -0.1516
vn -0.4497 0.8561 -0.2546
vn -0.2771 0.9595 -0.0506
vn 0.1282 0.9918 -0.0004
vn -0.4508 0.8906 -0.0597
vn 0.1419 0.9203 -0.3645
vn 0.1951 0.9690 -0.1516
vn -0.3870 0.9221 -0.0037
vn -0.0000 1.0000 -0.0076
vn -0.1282 0.9918 -0.0004
vn -0.1083 0.9941 -0.0004
vn -0.1971 0.9790 -0.0516
vn 0.1974 0.9803 -0.0014
vn 0.1941 0.9810 -0.0004
vn -0.0000 1.0000 -0.0000
vn 0.1969 0.9791 0.0514
vn 0.1972 0.9790 0.0517
vn -0.2987 0.9522 0.0639
vn -0.5284 0.8411 0.1157
vn -0.3940 0.9106 0.1252
vn -0.5524 0.8336 0.0018
vn -0.8730 0.4227 0.2434
vn -0.4749 0.8696 0.1349
vn -0.5892 0.7917 0.1614
vn -0.4759 0.8726 0.1097
vn -0.4283 0.9001 0.0803
vn -0.4045 0.9125 0.0614
vn 0.4884 0.8276 -0.2765
vn 0.2296 0.9049 -0.3584
vn 0.0778 0.9150 -0.3960
vn 0.1269 0.9820 -0.1397
vn 0.0250 0.9148 -0.4030
vn 0.0722 0.9884 -0.1339
vn -0.0250 0.9148 -0.4030
vn 0.0235 0.9909 -0.1322
vn -0.0778 0.9150 -0.3960
vn -0.0271 0.9906 -0.1342
vn -0.0000 0.9485 -0.3169
vn -0.1419 0.9203 -0.3645
vn -0.0839 0.9865 -0.1404
vn -0.0000 0.8626 -0.5059
vn -0.4397 0.8609 -0.2560
vn -0.1506 0.9767 -0.1528
vn -0.4537 0.7687 -0.4508
vn -0.2420 0.9539 -0.1775
vn -0.5230 0.8292 -0.1971
vn -0.2991 0.9521 -0.0639
vn 0.1281 0.9918 -0.0004
vn -0.5299 0.8402 -0.1156
vn 0.1211 0.9189 -0.3756
vt 0.647727 0.750000
vt 0.647727 0.750000
vt 0.647727 0.750000
vt 0.647727 0.750000
vt 0.670455 0.750000
vt 0.670455 0.750000
vt 0.670455 0.750000
vt 0.693182 0.750000
vt 0.693182 0.750000
vt 0.693182 0.750000
vt 0.715909 0.750000
vt 0.715909 0.750000
vt 0.715909 0.750000
vt 0.738636 0.750000
vt 0.738636 0.750000
vt 0.738636 0.750000
vt 0.761364 0.750000
vt 0.761364 0.750000
vt 0.761364 0.750000
vt 0.784091 0.750000
vt 0.784091 0.750000
vt 0.784091 0.750000
vt 0.784091 0.750000
vt 0.806818 0.750000
vt 0.806818 0.750000
vt 0.806818 0.750000
vt 0.806818 0.750000
vt 0.806818 0.750000
vt 0.829545 0.750000
vt 0.829545 0.750000
vt 0.829545 0.750000
vt 0.852273 0.750000
vt 0.852273 0.750000
vt 0.852273 0.750000
vt 0.852273 0.750000
vt 0.627145 0.750000
vt 0.626562 0.750000
vt 0.626039 0.750000
vt 0.625602 0.750000
vt 0.625273 0.750000
vt 0.625069 0.750000
vt 0.647727 0.750000
vt 0.670455 0.750000
vt 0.693182 0.750000
vt 0.715909 0.750000
vt 0.738636 0.750000
vt 0.761364 0.750000
vt 0.784091 0.750000
vt 0.806818 0.750000
vt 0.829545 0.750000
vt 0.852273 0.750000
vt 0.874344 0.750000
vt 0.874273 0.750000
vt 0.874209 0.750000
vt 0.625766 0.750000
vt 0.625759 0.750000
vt 0.625693 0.750000
vt 0.625808 0.750000
vt 0.874287 0.750000
vt 0.872226 0.750000
vt 0.874249 0.750000
vt 0.874107 0.750000
vt 0.873873 0.750000
vt 0.873554 0.750000
vt 0.873164 0.750000
vt 0.872724 0.750000
vt 0.627145 0.750000
vt 0.625069 0.750000
s 0
f 7/7/2 59/59/2 60/60/2
f 38/38/3 56/56/3 39/39/3
f 37/37/4 57/57/4 38/38/4
f 17/17/5 48/48/5 14/14/5
f 17/17/6 50/50/6 49/49/6
f 20/20/7 51/51/7 50/50/7
f 23/23/8 52/52/8 51/51/8
f 32/32/9 53/53/9 52/52/9
f 43/43/10 44/44/10 72/72/10
f 35/35/11 53/53/11 32/32/11
f 39/39/12 54/54/12 35/35/12
f 64/64/13 55/55/13 63/63/13
f 14/14/14 47/47/14 11/11/14
f 5/5/15 61/61/15 62/62/15
f 6/6/16 60/60/16 61/61/16
f 12/12/17 10/10/17 9/9/17
f 10/10/18 8/8/18 7/7/18
f 15/15/19 13/13/19 12/12/19
f 13/13/20 11/11/20 10/10/20
f 19/19/19 15/15/19 18/18/19
f 16/16/21 14/14/21 13/13/21
f 22/22/17 18/18/17 21/21/17
f 16/16/22 20/20/22 17/17/22
f 21/21/23 25/25/23 22/22/23
f 19/19/24 23/23/24 20/20/24
f 34/34/25 31/31/25 30/30/25
f 22/22/26 27/27/26 23/23/26
f 24/24/27 29/29/27 25/25/27
f 25/25/28 30/30/28 26/26/28
f 26/26/29 31/31/29 27/27/29
f 33/33/30 37/37/30 34/34/30
f 31/31/31 35/35/31 32/32/31
f 11/11/32 46/46/32 8/8/32
f 34/34/33 39/39/33 35/35/33
f 10/10/34 7/7/34 6/6/34
f 7/7/35 8/8/35 59/59/35
f 38/38/36 57/57/36 56/56/36
f 37/37/37 58/58/37 57/57/37
f 17/17/5 49/49/5 48/48/5
f 17/17/6 20/20/6 50/50/6
f 20/20/7 23/23/7 51/51/7
f 23/23/38 27/27/38 52/52/38
f 52/52/39 27/27/39 32/32/39
f 27/27/40 31/31/40 32/32/40
f 59/59/41 8/8/41 72/72/41
f 8/8/42 46/46/42 72/72/42
f 71/71/43 40/40/43 41/41/43
f 46/46/44 71/71/44 72/72/44
f 44/44/43 45/45/43 72/72/43
f 71/71/45 41/41/45 72/72/45
f 41/41/10 42/42/10 72/72/10
f 42/42/10 43/43/10 72/72/10
f 35/35/46 54/54/46 53/53/46
f 39/39/47 55/55/47 54/54/47
f 55/55/48 39/39/48 63/63/48
f 39/39/49 56/56/49 63/63/49
f 63/63/50 65/65/50 66/66/50
f 64/64/51 63/63/51 70/70/51
f 66/66/52 67/67/52 63/63/52
f 67/67/53 68/68/53 63/63/53
f 68/68/54 69/69/54 63/63/54
f 69/69/55 70/70/55 63/63/55
f 14/14/14 48/48/14 47/47/14
f 5/5/56 6/6/56 61/61/56
f 6/6/57 7/7/57 60/60/57
f 12/12/58 13/13/58 10/10/58
f 10/10/59 11/11/59 8/8/59
f 15/15/60 16/16/60 13/13/60
f 13/13/61 14/14/61 11/11/61
f 19/19/62 16/16/62 15/15/62
f 16/16/63 17/17/63 14/14/63
f 22/22/64 19/19/64 18/18/64
f 16/16/65 19/19/65 20/20/65
f 24/24/66 25/25/66 21/21/66
f 25/25/67 26/26/67 22/22/67
f 19/19/68 22/22/68 23/23/68
f 29/29/69 33/33/69 30/30/69
f 33/33/70 34/34/70 30/30/70
f 22/22/71 26/26/71 27/27/71
f 24/24/43 28/28/43 29/29/43
f 25/25/72 29/29/72 30/30/72
f 26/26/73 30/30/73 31/31/73
f 36/36/43 37/37/43 33/33/43
f 37/37/74 38/38/74 34/34/74
f 31/31/75 34/34/75 35/35/75
f 11/11/76 47/47/76 46/46/76
f 34/34/77 38/38/77 39/39/77
f 5/5/66 9/9/66 6/6/66
f 9/9/78 10/10/78 6/6/78
o 平面.003
v 12.237635 -7.965437 -18.931162
v 22.887543 -7.965437 -18.931162
v 12.214361 -7.965437 -31.238438
v 22.885881 -7.965437 -31.238438
vn -0.0000 1.0000 -0.0000
vt 0.000000 0.000000
vt 1.000000 0.000000
vt 0.000000 1.000000
vt 1.000000 1.000000
s 0
f 73/73/79 76/76/79 75/75/79
f 73/73/79 74/74/79 76/76/79
o 平面.004
v 2.782997 -4.684934 47.260155
v 32.398140 -4.684934 47.260155
v 2.801968 -4.684934 -5.082467
v 32.182194 -4.684934 -5.082467
v 23.834566 -5.112131 -9.419421
v 11.344021 -5.106748 -9.402178
v 32.241444 -4.684934 9.278397
v 2.796763 -4.684934 9.278397
v 24.568270 -3.809592 9.278397
vn 0.1133 0.9936 -0.0005
vn 0.0003 0.9976 -0.0695
vn -0.0402 0.9992 -0.0000
vn -0.0000 0.9997 0.0230
vn 0.0493 0.9988 -0.0000
vn -0.0401 0.9984 -0.0409
vn -0.0153 0.9975 -0.0689
vt 0.000000 0.000000
vt 1.000000 0.000000
vt 0.000000 1.000000
vt 1.000000 1.000000
vt 0.666667 1.000000
vt 0.333333 1.000000
vt 1.000000 0.725637
vt 0.000000 0.725637
vt 0.739404 0.725637
s 0
f 78/78/80 83/83/80 85/85/80
f 81/81/81 82/82/81 85/85/81
f 84/84/82 77/77/82 85/85/82
f 77/77/83 78/78/83 85/85/83
f 79/79/84 84/84/84 82/82/84
f 84/84/85 85/85/85 82/82/85
f 85/85/80 83/83/80 80/80/80
f 80/80/86 81/81/86 85/85/86
o 平面.005
v 2.837739 16.464211 86.449463
v 30.128588 16.464211 86.554932
v -23.842186 16.464211 46.221783
v 30.149960 16.464211 46.114677
v 2.918642 16.464211 62.236961
v -23.721087 16.464211 62.139488
vn -0.0000 1.0000 -0.0000
vt 0.000000 0.000000
vt 1.000000 0.000000
vt 0.000000 1.000000
vt 1.000000 1.000000
vt 0.000000 0.500000
vt 0.000000 0.750000
s 0
f 90/90/87 87/87/87 89/89/87
f 90/90/87 86/86/87 87/87/87
f 89/89/87 88/88/87 90/90/87
f 88/88/87 91/91/87 90/90/87
o 平面.006
v -10.477584 37.634109 86.594040
v 3.077079 37.634109 86.578133
v -10.593460 37.634109 69.312592
v 3.080084 37.634109 69.429977
vn -0.0000 1.0000 -0.0000
vt 0.000000 0.000000
vt 1.000000 0.000000
vt 0.000000 1.000000
vt 1.000000 1.000000
s 0
f 92/92/88 95/95/88 94/94/88
f 92/92/88 93/93/88 95/95/88
o 平面.007
v -23.922798 45.363926 86.591942
v -10.456465 45.363926 86.591026
v -23.901497 45.363926 61.685505
v 3.081144 45.363926 69.466461
v 3.075710 45.363926 61.727295
v -10.380905 45.363926 69.508263
vn -0.0000 1.0000 -0.0000
vt 0.000000 0.000000
vt 1.000000 0.000000
vt 0.000000 1.000000
vt 1.000000 1.000000
vt 0.500000 1.000000
vt 1.000000 0.500000
s 0
f 101/101/89 100/100/89 98/98/89
f 98/98/89 96/96/89 101/101/89
f 96/96/89 97/97/89 101/101/89
f 101/101/89 99/99/89 100/100/89
o 平面.008
v -52.290951 45.318451 86.624184
v -46.446590 45.318451 86.624184
v -52.324867 45.318451 61.892719
v -46.452244 45.318451 61.892719
vn -0.0000 1.0000 -0.0000
vt 0.000000 0.000000
vt 1.000000 0.000000
vt 0.000000 1.000000
vt 1.000000 1.000000
s 0
f 102/102/90 105/105/90 104/104/90
f 102/102/90 103/103/90 105/105/90
o 平面.009
v -95.474869 45.376099 85.099464
v -55.346909 45.376099 85.172379
v -95.474869 45.376099 64.046432
v -55.382095 45.376099 64.006554
v -91.158066 45.376099 85.107307
v -91.504692 45.376099 81.749352
v -92.087143 45.376099 76.106743
v -86.398407 45.376099 75.520271
v -85.811951 45.376099 81.150360
v -61.995209 45.376099 64.013130
v -78.592216 45.376099 64.029640
v -78.474777 45.376099 65.282349
v -61.936394 45.376099 65.575577
v -82.521400 45.376099 69.446266
v -78.592064 45.376099 73.492882
v -74.369499 45.376099 69.387604
v -67.155945 45.376099 68.156021
v -59.414585 45.376099 70.736496
v -64.458206 45.376099 73.199654
v -67.390533 45.376099 82.817711
v -65.807068 45.376099 77.304932
v -71.261223 45.376099 75.721474
v -72.844696 45.376099 81.175613
vn -0.0000 1.0000 -0.0000
vt 0.000000 0.000000
vt 1.000000 0.000000
vt 0.000000 1.000000
vt 1.000000 1.000000
vt 0.107576 0.000000
vt 0.098961 0.159329
vt 0.084458 0.427229
vt 0.226280 0.455224
vt 0.240850 0.188126
vt 0.835055 1.000000
vt 0.421090 1.000000
vt 0.423994 0.940642
vt 0.836471 0.926091
vt 0.323005 0.743406
vt 0.420916 0.551586
vt 0.526288 0.746064
vt 0.706214 0.804197
vt 0.899173 0.682037
vt 0.773322 0.565601
vt 0.699911 0.110555
vt 0.739553 0.371432
vt 0.603631 0.446190
vt 0.564020 0.187910
s 0
f 124/124/91 127/127/91 126/126/91
f 111/111/91 106/106/91 110/110/91
f 107/107/91 126/126/91 125/125/91
f 114/114/91 111/111/91 110/110/91
f 116/116/91 122/122/91 115/115/91
f 113/113/91 114/114/91 120/120/91
f 114/114/91 128/128/91 120/120/91
f 128/128/91 127/127/91 120/120/91
f 108/108/91 106/106/91 112/112/91
f 108/108/91 112/112/91 113/113/91
f 117/117/91 116/116/91 119/119/91
f 116/116/91 108/108/91 119/119/91
f 109/109/91 115/115/91 118/118/91
f 109/109/91 118/118/91 123/123/91
f 119/119/91 108/108/91 113/113/91
f 122/122/91 121/121/91 127/127/91
f 121/121/91 120/120/91 127/127/91
f 120/120/91 119/119/91 113/113/91
f 124/124/91 122/122/91 127/127/91
f 107/107/91 109/109/91 123/123/91
f 107/107/91 123/123/91 126/126/91
f 123/123/91 124/124/91 126/126/91
f 111/111/91 112/112/91 106/106/91
f 110/110/91 107/107/91 125/125/91
f 125/125/91 128/128/91 110/110/91
f 128/128/91 114/114/91 110/110/91
f 116/116/91 117/117/91 121/121/91
f 121/121/91 122/122/91 116/116/91
f 122/122/91 118/118/91 115/115/91
o 平面.010
v -106.683456 44.878105 85.216499
v -101.715782 44.878105 85.210976
v -106.512428 44.878105 64.127678
v -101.754395 44.878105 64.166298
v -134.954132 59.496342 85.216499
v -134.783096 59.496342 64.127678
v -225.371384 59.496342 89.936180
v -225.200333 59.496342 59.600990
v -135.768799 59.496342 59.741356
v -135.141510 59.496342 89.550186
vn -0.0000 1.0000 -0.0000
vn 0.4593 0.8883 0.0037
vt 0.000000 0.000000
vt 1.000000 0.000000
vt 0.000000 1.000000
vt 1.000000 1.000000
vt 0.000000 0.000000
vt 0.000000 1.000000
vt 0.000000 0.000000
vt 0.000000 1.000000
vt 0.000000 1.000000
vt 0.000000 0.000000
s 0
f 129/129/92 132/132/92 131/131/92
f 129/129/93 134/134/93 133/133/93
f 136/136/92 135/135/92 133/133/92
f 129/129/92 130/130/92 132/132/92
f 129/129/93 131/131/93 134/134/93
f 138/138/92 133/133/92 135/135/92
f 133/133/92 134/134/92 136/136/92
f 134/134/92 137/137/92 136/136/92
