# Blender 3.4.1
# www.blender.org
mtllib NeedleObjectBaseCol.mtl
o 平面.001
v -1.000000 -0.310565 -1.000000
v 1.000000 -0.310565 -1.000000
v -1.000000 -0.310566 1.000000
v 1.000000 -0.310566 1.000000
vn -0.0000 -1.0000 -0.0000
vt 0.000000 0.000000
vt 1.000000 0.000000
vt 0.000000 1.000000
vt 1.000000 1.000000
s 0
f 2/2/1 3/3/1 1/1/1
f 2/2/1 4/4/1 3/3/1
o 平面
v -1.000000 0.000000 -1.000000
v 1.000000 0.000000 -1.000000
v -1.000000 -0.000000 1.000000
v 1.000000 -0.000000 1.000000
vn -0.0000 1.0000 -0.0000
vt 0.000000 0.000000
vt 1.000000 0.000000
vt 0.000000 1.000000
vt 1.000000 1.000000
s 0
f 6/6/2 5/5/2 7/7/2
f 6/6/2 7/7/2 8/8/2
