# Blender 3.4.1
# www.blender.org
mtllib RengaBlock.mtl
o 立方体
v -0.650070 5.100851 0.650070
v -0.650070 5.175691 0.724911
v -0.724911 5.175691 0.650070
v -0.650070 6.475832 0.724911
v -0.650070 6.550672 0.650070
v -0.724911 6.475832 0.650070
v -0.650070 5.100851 -0.650070
v -0.724911 5.175691 -0.650070
v -0.650070 5.175691 -0.724911
v -0.650070 6.550672 -0.650070
v -0.650070 6.475832 -0.724911
v -0.724911 6.475832 -0.650070
v 0.650070 5.100851 0.650070
v 0.724911 5.175691 0.650070
v 0.650070 5.175691 0.724911
v 0.650070 6.550672 0.650070
v 0.650070 6.475832 0.724911
v 0.724911 6.475832 0.650070
v 0.650070 5.100851 -0.650070
v 0.650070 5.175691 -0.724911
v 0.724911 5.175691 -0.650070
v 0.650070 6.550672 -0.650070
v 0.724911 6.475832 -0.650070
v 0.650070 6.475832 -0.724911
vn -0.0000 -0.0000 1.0000
vn 1.0000 -0.0000 -0.0000
vn -0.0000 1.0000 -0.0000
vn -1.0000 -0.0000 -0.0000
vn -0.0000 -0.0000 -1.0000
vn -0.5773 -0.5774 0.5774
vn -0.5773 0.5774 0.5773
vn -0.5773 -0.5774 -0.5774
vn -0.5773 0.5774 -0.5773
vn 0.5773 -0.5774 0.5774
vn 0.5773 0.5774 0.5773
vn 0.5773 -0.5774 -0.5774
vn 0.5773 0.5774 -0.5773
vn -0.7071 -0.7071 -0.0000
vn -0.7071 -0.0000 0.7071
vn -0.7071 0.7071 -0.0000
vn -0.7071 -0.0000 -0.7071
vn -0.0000 -0.7071 -0.7071
vn -0.0000 0.7071 -0.7071
vn 0.7071 -0.0000 -0.7071
vn 0.7071 -0.7071 -0.0000
vn 0.7071 0.7071 -0.0000
vn 0.7071 -0.0000 0.7071
vn -0.0000 -0.7071 0.7071
vn -0.0000 0.7071 0.7071
vn -0.0000 -1.0000 -0.0000
vt 0.022198 0.642815
vt 0.137905 0.737095
vt 0.094447 0.915188
vt 0.137905 0.750000
vt 0.235062 0.084535
vt 0.237914 0.087151
vt 0.022198 0.655720
vt 0.867875 0.102899
vt 0.125000 0.737095
vt 0.226449 0.084599
vt 0.612095 0.000000
vt 0.247832 0.884244
vt 0.241811 0.891877
vt 0.834938 0.961382
vt 0.625000 0.012905
vt 0.911724 0.968411
vt 0.847843 0.961382
vt 0.826367 0.891421
vt 0.233197 0.891940
vt 0.612095 0.012905
vt 0.094447 0.110979
vt 0.137905 0.512905
vt 0.212202 0.112817
vt 0.125000 0.512905
vt 0.209885 0.113623
vt 0.786451 0.100058
vt 0.192663 0.112977
vt 0.137905 0.500000
vt 0.804989 0.288618
vt 0.911724 0.252302
vt 0.625000 0.237095
vt 0.612095 0.250000
vt 0.187055 0.890990
vt 0.796369 0.910007
vt 0.792084 0.288618
vt 0.243547 0.888483
vt 0.612095 0.237095
vt 0.242399 0.891635
vt 0.362095 0.737095
vt 0.160679 0.728524
vt 0.246388 0.642815
vt 0.898656 0.915188
vt 0.375000 0.737095
vt 0.195060 0.094278
vt 0.186489 0.728524
vt 0.224313 0.101158
vt 0.769310 0.094376
vt 0.362095 0.750000
vt 0.207085 0.098842
vt 0.246388 0.655720
vt 0.625000 0.762905
vt 0.847843 0.737192
vt 0.195615 0.968410
vt 0.886461 0.762807
vt 0.612095 0.762905
vt 0.205175 0.891670
vt 0.800654 0.891468
vt 0.834938 0.737192
vt 0.612095 0.750000
vt 0.222119 0.891371
vt 0.860651 0.762807
vt 0.222402 0.890176
vt 0.362095 0.512905
vt 0.160679 0.504334
vt 0.898656 0.110979
vt 0.207916 0.092834
vt 0.362095 0.500000
vt 0.662174 0.349961
vt 0.807879 0.084361
vt 0.375000 0.512905
vt 0.662174 0.375771
vt 0.186489 0.504334
vt 0.195615 0.252301
vt 0.625000 0.487095
vt 0.886461 0.538618
vt 0.804989 0.512808
vt 0.612095 0.500000
vt 0.886363 0.375771
vt 0.817796 0.885739
vt 0.860651 0.538618
vt 0.612095 0.487095
vt 0.239261 0.881356
vt 0.792084 0.512808
vt 0.886363 0.349961
s 0
usemtl マテリアル.006
f 17/57/1 2/6/1 15/47/1
f 23/79/2 14/44/2 21/69/2
f 10/30/3 16/53/3 22/73/3
f 6/18/4 8/23/4 3/8/4
f 11/34/5 20/66/5 9/26/5
f 1/2/6 2/4/6 3/9/6
f 4/11/7 5/15/7 6/20/7
f 7/22/8 8/24/8 9/28/8
f 10/31/9 11/32/9 12/37/9
f 13/39/10 14/43/10 15/48/10
f 16/51/11 17/55/11 18/59/11
f 19/63/12 20/67/12 21/70/12
f 22/74/13 23/77/13 24/81/13
f 1/2/14 8/24/14 7/22/14
f 4/13/15 3/10/15 2/5/15
f 10/31/16 6/20/16 5/15/16
f 9/27/17 12/38/17 11/33/17
f 7/22/18 20/67/18 19/63/18
f 22/76/19 11/35/19 10/29/19
f 21/71/20 24/84/20 23/78/20
f 19/64/21 14/45/21 13/40/21
f 16/54/22 23/80/22 22/75/22
f 15/49/23 18/62/23 17/56/23
f 13/41/24 2/7/24 1/1/24
f 5/17/25 17/58/25 16/52/25
f 19/65/26 1/3/26 7/21/26
f 17/57/1 4/12/1 2/6/1
f 23/79/2 18/60/2 14/44/2
f 10/30/3 5/16/3 16/53/3
f 6/18/4 12/36/4 8/23/4
f 11/34/5 24/82/5 20/66/5
f 1/2/14 3/9/14 8/24/14
f 4/13/15 6/19/15 3/10/15
f 10/31/16 12/37/16 6/20/16
f 9/27/17 8/25/17 12/38/17
f 7/22/18 9/28/18 20/67/18
f 22/76/19 24/83/19 11/35/19
f 21/71/20 20/68/20 24/84/20
f 19/64/21 21/72/21 14/45/21
f 16/54/22 18/61/22 23/80/22
f 15/49/23 14/46/23 18/62/23
f 13/41/24 15/50/24 2/7/24
f 5/17/25 4/14/25 17/58/25
f 19/65/26 13/42/26 1/3/26
