# Blender 3.4.1
# www.blender.org
mtllib number0.mtl
o 立方体
v -0.851065 0.562448 0.851065
v -4.525702 5.399885 7.379906
v -0.851065 0.562448 -0.851065
v -4.525702 5.399888 -7.379904
v 0.851065 0.562448 0.851065
v 4.525702 5.399885 7.379906
v 0.851065 0.562448 -0.851065
v 4.525702 5.399888 -7.379904
vn -0.7963 -0.6049 -0.0000
vn -0.0000 -0.8035 -0.5953
vn 0.7963 -0.6049 -0.0000
vn -0.0000 -0.8035 0.5953
vn -0.0000 -1.0000 -0.0000
vn -0.0000 1.0000 -0.0000
vt 0.375000 0.000000
vt 0.375000 1.000000
vt 0.125000 0.750000
vt 0.625000 0.000000
vt 0.625000 1.000000
vt 0.704565 0.002988
vt 0.125000 0.500000
vt 0.375000 0.250000
vt 0.625000 0.250000
vt 0.279530 0.002988
vt 0.375000 0.750000
vt 0.625000 0.750000
vt 0.704565 1.145291
vt 0.375000 0.500000
vt 0.625000 0.500000
vt 0.279530 1.145291
s 0
usemtl マテリアル
f 2/4/1 3/8/1 1/1/1
f 4/9/2 7/14/2 3/8/2
f 8/15/3 5/11/3 7/14/3
f 6/12/4 1/2/4 5/11/4
f 7/14/5 1/3/5 3/7/5
f 2/4/1 4/9/1 3/8/1
f 4/9/2 8/15/2 7/14/2
f 8/15/3 6/12/3 5/11/3
f 6/12/4 2/5/4 1/2/4
f 7/14/5 5/11/5 1/3/5
usemtl Material
f 4/10/6 6/13/6 8/16/6
f 4/10/6 2/6/6 6/13/6
