# Blender 3.4.1
# www.blender.org
mtllib Stone1.mtl
o Cube
v -0.937466 1.392487 0.962948
v -1.043687 1.948346 -0.660700
v -0.930715 0.616647 -0.680852
v -0.865306 0.424463 -0.679434
v 0.246631 -0.165610 0.024775
v 0.181145 -0.143232 -0.063907
v 0.100086 1.124946 -1.556885
v 0.889982 0.946910 0.953701
v 1.182154 0.237769 0.719604
v 0.879148 0.013373 0.354561
v 0.970804 1.590319 -0.873266
v 1.003130 1.593974 -0.767201
v 0.826561 2.227585 0.116021
v 0.658092 1.311903 0.959347
v -0.604188 1.272542 1.476633
v -0.210776 1.196990 1.565645
v -0.083072 2.877887 -0.016015
v -1.360905 1.148829 0.430334
v -1.398443 1.041245 0.438869
v -1.396208 1.179265 0.290619
v -1.343535 1.450288 0.003226
v -1.131766 1.839932 -0.543285
v -1.351176 1.251944 0.067315
v -1.260345 1.432418 -0.250395
v -1.191536 1.646273 -0.453077
v -1.281006 0.580260 0.237623
v -1.266500 0.538981 0.328940
v -1.226549 0.502070 0.216856
v -1.241593 0.513316 0.138908
v -1.170878 0.488077 -0.085176
v -1.051216 0.689740 -0.488309
v -1.121318 0.474456 -0.217779
v -0.875750 0.262753 -0.481310
v -0.848650 0.263830 -0.573865
v -0.771261 0.212469 -0.608878
v -0.546490 0.138611 -0.832135
v -0.485335 0.289411 -1.005414
v -0.402927 0.453997 -1.177952
v -0.466094 0.250111 -0.975593
v -0.397110 0.366971 -1.090894
v -0.333011 0.597797 -1.302184
v -0.274643 0.702961 -1.381582
v -0.192704 0.794022 -1.438854
v -0.114790 -0.006988 -0.496238
v -0.090116 -0.011585 -0.236902
v 0.000135 0.972227 -1.510263
v 0.238085 -0.144249 -0.077225
v 0.380752 0.041460 -0.252584
v 0.737143 0.286708 -0.340710
v 0.902646 0.863685 -0.701290
v 0.970374 0.532817 -0.504605
v 0.969671 0.772946 -0.584808
v 1.328008 0.793983 -0.261268
v 1.332033 0.429445 0.227402
v 1.329231 0.524286 0.000647
v 1.356311 0.643129 -0.130396
v 1.226740 1.086638 -0.519326
v 1.161922 1.234350 -0.644621
v 1.315827 0.375129 0.391292
v 1.326523 0.869981 -0.191269
v 1.334873 0.412027 0.421457
v 1.273701 0.321234 0.606886
v 1.283775 0.729389 0.751295
v 1.289084 0.833444 0.714069
v 1.060099 1.567757 -0.096547
v 1.235837 0.919760 0.766939
v 0.935810 1.906597 -0.256566
v 1.009108 1.171530 0.846724
v 0.871242 2.143560 0.020563
v 0.722020 2.370044 0.166835
v 0.602618 1.399543 0.982080
v 0.628238 2.428253 0.419845
v 0.516703 1.321014 1.041831
v 0.607079 1.859897 1.012277
v 0.430196 2.601607 0.416415
v 0.380242 2.655971 0.338171
v 0.303447 1.792443 1.195994
v 0.160754 2.746836 0.470135
v -0.073980 2.051365 1.267959
v 0.013065 2.257111 1.114162
v -0.072109 2.186852 1.190493
v -0.136817 2.664347 0.470344
v -0.200792 2.770565 0.139504
v -0.260167 2.547254 0.490311
v -0.374158 1.457608 1.594930
v -0.344380 2.249897 0.761404
v -0.476334 1.361880 1.543530
v -0.560089 1.471795 1.427871
v -0.455518 2.085395 0.769363
v -0.718316 1.330130 1.356882
v -0.860309 1.347376 1.167335
v 0.420477 -0.150851 0.151948
v 0.578416 -0.103857 0.176555
v 0.534409 -0.110588 0.209736
v 0.768849 -0.031194 0.258619
v 0.773438 -0.033934 0.328398
v 0.944271 0.051252 0.443980
v 0.885255 0.042739 0.468956
v 1.012381 0.096271 0.530786
v 1.114721 0.263901 0.834779
v 1.051206 0.306252 0.909851
v -0.372069 0.240538 1.080195
v -0.753294 0.388229 1.013578
v -0.628926 0.341041 1.066336
v -0.069692 0.208442 1.200085
v -0.675966 0.415274 1.093473
v -0.620503 0.391679 1.119337
v -0.437864 0.283776 1.122167
v 0.181052 0.431390 1.368552
v 0.215264 0.484528 1.382813
v 0.868004 0.419635 1.041793
v 0.131320 0.595249 1.421131
v 0.139143 0.681211 1.431325
v 0.060158 0.740065 1.459368
v -0.065954 0.949945 1.510588
v -0.131391 1.044238 1.529546
v 0.064183 0.799416 1.470221
v -0.039525 1.027984 1.516749
v -0.142155 1.122388 1.556148
v 0.160837 1.567128 -1.617433
v 0.767984 1.619230 -1.216535
v 0.307655 1.739215 -1.521642
v 0.226507 1.663909 -1.571648
v 0.877669 1.659379 -1.008960
v 0.306862 1.814520 -1.498325
v 0.305628 2.017308 -1.345869
v 0.222758 2.133056 -1.231237
v 0.089086 2.041888 -1.240482
v 0.017500 2.307342 -0.998543
v -0.940817 2.041031 -0.765719
v -0.863857 2.217836 -0.682763
v -0.092950 2.742317 -0.609172
v -0.160261 2.788193 -0.530787
v -0.364172 2.722679 -0.504681
v -0.154293 2.870427 -0.295629
v -0.085364 2.874360 -0.176704
v -0.177825 2.860912 -0.252563
vn -0.8934 0.3354 0.2988
vn -0.8292 -0.5469 -0.1155
vn -0.8969 -0.1159 -0.4267
vn -0.8564 -0.2946 -0.4241
vn -0.2984 -0.6653 -0.6843
vn -0.1578 -0.6448 -0.7479
vn -0.0641 -0.9778 -0.1994
vn 0.9679 0.1804 -0.1753
vn 0.8710 -0.4888 0.0480
vn 0.8133 0.1588 0.5598
vn 0.5062 0.0982 0.8568
vn 0.9220 -0.0342 0.3857
vn -0.2655 -0.3049 0.9146
vn 0.0768 -0.3118 0.9470
vn -0.3047 0.6845 -0.6623
vn -0.2191 0.9711 0.0949
vn -0.9496 -0.0626 -0.3071
vn -0.4235 -0.9052 -0.0361
vn -0.8094 -0.5829 0.0721
vn -0.6001 -0.7783 -0.1848
vn -0.0594 -0.7080 -0.7037
vn 0.6239 -0.3279 -0.7094
vn 0.8750 0.3333 0.3510
vn 0.9901 0.1050 -0.0930
vn 0.4977 0.8282 0.2576
vn 0.4359 0.4132 0.7995
vn -0.6796 0.4820 0.5530
vn -0.5418 0.6476 0.5358
vn 0.2601 -0.9536 0.1516
vn 0.9313 0.3616 -0.0444
vn 0.2442 -0.9611 0.1289
vn 0.3787 -0.9235 -0.0612
vn -0.2697 -0.8499 0.4527
vn -0.3859 -0.6356 0.6686
vn -0.4944 -0.5572 0.6671
vn -0.5338 -0.5674 0.6270
vn 0.0895 -0.1850 0.9786
vn 0.1540 -0.1295 0.9795
vn 0.1166 -0.1174 0.9862
vn -0.2470 -0.3426 0.9064
vn 0.4279 0.1326 -0.8941
vn -0.5114 0.8546 -0.0906
vn -0.1279 0.9916 -0.0199
vn -0.9780 -0.0291 -0.2067
vn -0.1794 0.6452 -0.7426
vn 0.4207 -0.9050 -0.0632
vn 0.3542 -0.9102 0.2147
vn 0.2527 -0.9256 0.2817
vn 0.0530 -0.2905 0.9554
vn 0.2400 -0.1358 0.9612
vn -0.7961 0.5038 -0.3352
vn -0.9536 0.1830 -0.2391
vn -0.9499 0.0097 -0.3123
vn -0.8303 0.5442 -0.1204
vn -0.5429 0.8248 0.1583
vn -0.6158 0.7077 0.3463
vn -0.7685 0.5361 0.3493
vn -0.8142 0.4895 0.3124
vn -0.6932 0.7101 0.1230
vn -0.7238 0.5991 0.3423
vn -0.7925 -0.2023 0.5753
vn -0.9486 -0.1404 -0.2836
vn -0.9340 -0.1191 -0.3368
vn 0.1527 -0.8199 -0.5517
vn 0.1732 -0.6907 -0.7021
vn 0.2553 -0.6688 -0.6982
vn 0.5233 -0.5430 -0.6567
vn 0.5524 -0.1871 -0.8123
vn 0.4278 -0.7022 -0.5690
vn 0.3934 -0.1362 -0.9092
vn 0.8520 0.1916 -0.4873
vn 0.9464 -0.1558 -0.2831
vn 0.8362 -0.1993 -0.5109
vn 0.3786 0.2266 0.8974
vn 0.7165 -0.1376 0.6838
vn 0.8268 -0.1938 0.5280
vn -0.2725 -0.3573 0.8933
vn -0.5080 -0.3157 0.8014
vn 0.0741 -0.8991 0.4315
vn 0.2706 -0.8005 0.5348
vn -0.3590 -0.8712 0.3348
vn -0.4600 -0.8851 0.0710
vn -0.5152 -0.8403 0.1684
vn 0.1110 -0.9934 -0.0282
vn -0.3656 -0.9303 0.0298
vn -0.3742 -0.9223 0.0965
vn -0.4409 -0.8874 0.1351
vn -0.4505 -0.8918 -0.0417
vn -0.7626 -0.6074 -0.2226
vn -0.9218 -0.2751 -0.2731
vn -0.3828 -0.8961 0.2245
vn -0.3788 -0.9207 0.0935
vn -0.6057 -0.4799 -0.6347
vn -0.6913 -0.4850 -0.5356
vn -0.6137 0.0569 -0.7875
vn -0.7735 -0.0554 -0.6314
vn 0.2968 0.2853 -0.9113
vn -0.6793 0.2321 -0.6962
vn -0.3167 0.5433 -0.7775
vn -0.3349 0.5158 -0.7886
vn 0.8958 0.2211 0.3856
vn 0.9887 0.0032 0.1501
vn 0.9039 -0.4246 -0.0513
vn 0.9455 0.3212 -0.0543
vn 0.8226 0.5391 0.1809
vn 0.9195 0.2379 0.3130
vn 0.9409 0.1627 0.2972
vn 0.8647 0.4992 0.0559
vn 0.2784 -0.0722 0.9577
vn 0.7552 0.5888 0.2881
vn 0.5442 0.7626 0.3497
vn 0.5174 0.6031 0.6071
vn 0.5755 0.7972 -0.1823
vn 0.6035 0.1235 0.7878
vn 0.5368 -0.0003 0.8437
vn 0.4948 0.3018 0.8149
vn 0.4347 0.1732 0.8838
vn -0.6291 0.2826 0.7241
vn 0.3713 0.2968 0.8798
vn -0.6981 0.4966 0.5159
vn 0.5844 -0.0010 0.8114
vn -0.7340 0.3447 0.5852
vn 0.3184 -0.8436 -0.4323
vn 0.2399 -0.9460 -0.2182
vn 0.4778 -0.7653 -0.4312
vn 0.4236 -0.7807 -0.4595
vn 0.6327 -0.3773 -0.6762
vn 0.6610 -0.7482 -0.0579
vn 0.6957 -0.3918 -0.6021
vn -0.3445 0.5799 -0.7382
vn 0.2434 0.9136 -0.3257
vn 0.6658 0.5843 -0.4639
vn 0.6253 0.6591 -0.4179
vn 0.4195 0.8661 -0.2718
vn 0.7902 0.5549 -0.2600
vn 0.5963 0.4847 -0.6399
vn 0.5866 0.7716 -0.2459
vn -0.0256 0.8317 0.5546
vn 0.0893 0.9532 0.2888
vn 0.4479 0.8937 -0.0260
vn 0.6515 0.6650 -0.3651
vn 0.7795 0.5747 -0.2491
vn 0.9207 0.3850 -0.0632
vn 0.9466 0.3151 -0.0681
vn 0.7559 0.6246 -0.1960
vn 0.2336 -0.9447 0.2300
vn 0.2563 -0.1368 0.9569
vn 0.2002 -0.1894 0.9613
vn -0.7730 -0.0560 -0.6319
vn -0.6921 -0.0478 -0.7202
vn -0.8606 -0.1079 -0.4977
vn -0.9252 -0.1487 -0.3490
vn -0.9466 -0.1686 -0.2748
vn -0.9698 -0.1711 -0.1739
vn -0.9557 -0.1621 -0.2455
vn -0.8674 -0.3621 -0.3412
vn -0.8085 -0.3401 -0.4802
vn 0.5266 -0.0607 0.8480
vn 0.5754 -0.0072 0.8179
vn -0.2704 -0.3523 0.8960
vn -0.2352 -0.2529 0.9385
vn 0.6386 -0.3842 -0.6667
vn 0.4080 0.3995 0.8209
vn 0.3501 0.4613 0.8153
vn -0.3765 0.8519 0.3641
vn -0.2214 0.8000 0.5576
vn -0.5275 0.6491 0.5481
vn 0.9294 0.3656 -0.0498
vn 0.9350 0.3475 0.0704
vn -0.3265 0.8948 -0.3046
vn -0.8143 0.5109 0.2756
vn -0.7788 0.5805 0.2377
vn -0.7276 0.6727 0.1345
vn -0.7381 0.6208 0.2642
vn -0.6879 0.6900 0.2254
vn -0.7595 0.5456 0.3542
vn -0.9647 -0.2611 0.0352
vn -0.7902 -0.3217 0.5215
vn -0.6726 -0.1897 0.7152
vn -0.7146 -0.0961 0.6929
vn -0.7564 -0.2131 0.6184
vn -0.9350 -0.1554 0.3187
vn -0.8074 0.3210 0.4950
vn -0.3508 -0.9330 0.0804
vn -0.3191 -0.9476 0.0136
vn -0.3163 -0.9486 -0.0046
vn 0.2697 -0.7523 -0.6011
vn 0.5514 -0.0060 -0.8342
vn 0.6220 -0.3625 -0.6941
vn 0.4308 -0.6963 -0.5741
vn 0.7748 -0.1982 -0.6003
vn -0.0530 -0.5183 -0.8536
vn 0.3579 -0.7295 -0.5828
vn 0.3552 -0.7060 -0.6126
vn 0.4361 -0.6705 -0.6002
vn 0.4274 -0.5641 -0.7065
vn 0.5060 0.1216 0.8539
vn 0.5791 -0.0129 0.8151
vn 0.4775 0.0482 0.8773
vn 0.4788 0.1574 0.8637
vn -0.2441 -0.3898 0.8880
vn -0.2643 -0.3713 0.8901
vn -0.2557 -0.3715 0.8925
vn -0.2708 -0.3677 0.8897
vn -0.2674 -0.3667 0.8911
vn -0.2646 -0.3632 0.8933
vn -0.1990 -0.9481 0.2482
vn 0.1330 -0.9168 0.3765
vn 0.1261 -0.9192 0.3730
vn -0.1180 -0.9550 0.2722
vn 0.3755 -0.4580 0.8058
vn 0.2709 -0.7554 0.5966
vn -0.1232 -0.8307 0.5429
vn 0.3073 -0.8733 0.3781
vn -0.0094 -0.8743 0.4853
vn 0.1392 -0.8722 0.4689
vn -0.1938 -0.5907 -0.7832
vn 0.0618 -0.7452 -0.6640
vn -0.7173 -0.1201 -0.6864
vn -0.7038 -0.2365 -0.6699
vn -0.7000 -0.3192 -0.6388
vn -0.6797 -0.2365 -0.6943
vn -0.6717 -0.4249 -0.6069
vn -0.7264 -0.0460 -0.6858
vn -0.4050 0.2551 -0.8780
vn -0.4805 0.1756 -0.8593
vn -0.3060 0.5709 -0.7619
vn -0.3324 0.5503 -0.7660
vn -0.2975 0.5657 -0.7691
vn -0.9513 0.0903 -0.2948
vn -0.3256 0.5845 -0.7432
vn -0.3287 0.5822 -0.7436
vn -0.3410 0.5813 -0.7387
vn 0.8261 -0.2060 0.5245
vn 0.9938 0.1111 -0.0046
vn 0.9965 0.0803 0.0213
vn 0.9587 -0.1155 0.2597
vn 0.9986 0.0315 0.0426
vn 0.4689 0.6479 0.6002
vn 0.5120 0.6107 0.6041
vn 0.6541 0.7493 0.1030
vn 0.6613 0.7465 0.0734
vn 0.5030 0.3628 0.7845
vn 0.5446 0.2591 0.7977
vn 0.6087 0.1164 0.7848
vn 0.4692 0.1265 0.8740
vn 0.4543 0.2520 0.8544
vn -0.6078 0.3131 0.7298
vn -0.6028 0.3130 0.7340
vn -0.5926 0.6341 0.4967
vn -0.6723 0.5918 0.4447
vn -0.6180 0.6857 0.3846
vn -0.5098 0.5982 0.6182
vn 0.4910 -0.7671 -0.4129
vn 0.6587 -0.2366 -0.7142
vn 0.6438 -0.7569 -0.1126
vn 0.6450 -0.7488 -0.1526
vn 0.6176 -0.6808 -0.3938
vn 0.5268 -0.7569 -0.3869
vn 0.6213 -0.6400 -0.4521
vn 0.5917 -0.7411 -0.3173
vn 0.6302 -0.7535 -0.1874
vn 0.5310 -0.7461 -0.4018
vn 0.6564 -0.7540 -0.0252
vn 0.5112 0.8407 -0.1787
vn 0.6234 0.7272 -0.2871
vn 0.6497 0.6050 -0.4603
vn 0.5792 0.2467 -0.7769
vn 0.6234 0.7283 -0.2847
vt 0.424790 0.994164
vt 0.622391 0.115747
vt 0.873638 0.634013
vt 0.512539 0.246201
vt 0.494676 0.259845
vt 0.375000 0.406250
vt 0.281250 0.500867
vt 0.384191 0.398438
vt 0.273438 0.500000
vt 0.739102 0.500000
vt 0.621027 0.385859
vt 0.382784 0.698319
vt 0.374364 0.607235
vt 0.359733 0.552414
vt 0.619901 0.582828
vt 0.608754 0.594975
vt 0.594733 0.750317
vt 0.399495 0.760696
vt 0.381830 0.948546
vt 0.227098 0.749162
vt 0.758039 0.749919
vt 0.625000 0.883039
vt 0.461315 0.092256
vt 0.452777 0.101563
vt 0.474636 0.101626
vt 0.522065 0.101563
vt 0.602598 0.114194
vt 0.500619 0.114037
vt 0.544754 0.125783
vt 0.579857 0.120681
vt 0.429688 0.156876
vt 0.418783 0.151761
vt 0.424486 0.164260
vt 0.430750 0.172205
vt 0.445973 0.195846
vt 0.501935 0.218044
vt 0.454799 0.209659
vt 0.459923 0.259273
vt 0.471248 0.266367
vt 0.468750 0.278135
vt 0.484184 0.311978
vt 0.511619 0.315416
vt 0.538719 0.327352
vt 0.505287 0.320428
vt 0.526569 0.328428
vt 0.560636 0.335938
vt 0.575507 0.343694
vt 0.586340 0.352947
vt 0.438274 0.363276
vt 0.404908 0.360030
vt 0.605854 0.374853
vt 0.385746 0.406250
vt 0.416411 0.429677
vt 0.443295 0.486637
vt 0.541492 0.519688
vt 0.487349 0.512966
vt 0.518406 0.525784
vt 0.489489 0.570419
vt 0.422474 0.581838
vt 0.446415 0.570312
vt 0.466494 0.569975
vt 0.538846 0.572649
vt 0.564217 0.571547
vt 0.407592 0.591275
vt 0.489558 0.583377
vt 0.409687 0.598125
vt 0.391160 0.603360
vt 0.404602 0.647265
vt 0.414063 0.653150
vt 0.553029 0.655664
vt 0.413086 0.665826
vt 0.591587 0.673902
vt 0.412199 0.705997
vt 0.596325 0.726740
vt 0.598129 0.774716
vt 0.412448 0.779613
vt 0.569777 0.797562
vt 0.394373 0.794624
vt 0.468526 0.798754
vt 0.578260 0.826242
vt 0.588569 0.833529
vt 0.446532 0.837582
vt 0.578472 0.857730
vt 0.465402 0.882504
vt 0.494106 0.873082
vt 0.483268 0.882328
vt 0.575379 0.888845
vt 0.610433 0.895394
vt 0.567484 0.902453
vt 0.398438 0.914939
vt 0.524514 0.918133
vt 0.390684 0.928458
vt 0.405048 0.939566
vt 0.509035 0.935416
vt 0.390625 0.965087
vt 0.410702 0.004908
vt 0.409043 0.986976
vt 0.303781 0.515617
vt 0.325598 0.519090
vt 0.319171 0.524469
vt 0.349572 0.534173
vt 0.346889 0.544004
vt 0.362875 0.564867
vt 0.355065 0.566830
vt 0.365229 0.579357
vt 0.367188 0.617188
vt 0.360696 0.625704
vt 0.208022 0.631710
vt 0.163666 0.640625
vt 0.178875 0.640625
vt 0.239934 0.640433
vt 0.171618 0.649846
vt 0.179861 0.648921
vt 0.201544 0.641497
vt 0.265581 0.669410
vt 0.273623 0.674955
vt 0.346746 0.645940
vt 0.263494 0.686684
vt 0.265159 0.695687
vt 0.254960 0.702391
vt 0.242705 0.724983
vt 0.233012 0.732486
vt 0.259456 0.710199
vt 0.245951 0.733370
vt 0.234375 0.742188
vt 0.734042 0.536481
vt 0.657800 0.559443
vt 0.717096 0.554261
vt 0.726563 0.546875
vt 0.638884 0.578714
vt 0.718192 0.562527
vt 0.716590 0.590792
vt 0.726562 0.605719
vt 0.740806 0.597362
vt 0.750596 0.634859
vt 0.860271 0.632979
vt 0.850122 0.655227
vt 0.759366 0.695312
vt 0.766102 0.703125
vt 0.788275 0.703125
vt 0.765406 0.726562
vt 0.757812 0.736570
vt 0.770550 0.729731
s 0
usemtl Material.001
f 18/23/1 20/25/1 19/24/1
f 26/31/2 28/33/2 27/32/2
f 24/29/3 25/30/3 31/36/3
f 31/36/4 3/4/4 4/5/4
f 37/42/5 39/44/5 36/41/5
f 37/42/6 40/45/6 39/44/6
f 6/8/7 47/52/7 5/6/7
f 57/62/8 60/65/8 53/58/8
f 59/64/9 61/66/9 62/67/9
f 64/69/10 66/71/10 63/68/10
f 14/18/11 71/76/11 73/78/11
f 71/76/12 65/70/12 74/79/12
f 16/20/13 87/92/13 15/19/13
f 116/122/14 118/124/14 119/125/14
f 132/138/15 134/140/15 133/139/15
f 135/141/16 137/143/16 136/142/16
f 21/26/17 24/29/17 23/28/17
f 28/33/18 30/35/18 45/50/18
f 28/33/19 26/31/19 29/34/19
f 33/38/20 34/39/20 35/40/20
f 40/45/21 37/42/21 38/43/21
f 57/62/22 50/55/22 58/63/22
f 13/17/23 72/77/23 74/79/23
f 53/58/24 60/65/24 56/61/24
f 78/83/25 75/80/25 76/81/25
f 80/85/26 79/84/26 77/82/26
f 88/93/27 91/97/27 90/95/27
f 80/85/28 82/87/28 86/91/28
f 92/98/29 93/99/29 94/100/29
f 65/70/30 60/65/30 57/62/30
f 94/100/31 93/99/31 96/102/31
f 93/99/32 95/101/32 96/102/32
f 102/108/33 105/111/33 108/114/33
f 107/113/34 104/110/34 108/114/34
f 103/109/35 104/110/35 106/112/35
f 104/110/36 107/113/36 106/112/36
f 114/120/37 117/123/37 115/121/37
f 118/124/38 115/121/38 117/123/38
f 115/121/39 118/124/39 116/122/39
f 116/122/40 119/125/40 16/20/40
f 120/126/41 123/129/41 122/128/41
f 135/141/42 134/140/42 137/143/42
f 136/142/43 137/143/43 17/21/43
f 20/25/44 21/26/44 23/28/44
f 82/87/45 78/83/45 76/81/45
f 10/14/46 96/102/46 95/101/46
f 10/14/47 98/104/47 96/102/47
f 98/104/48 97/103/48 99/105/48
f 110/116/49 112/118/49 109/115/49
f 113/119/50 114/120/50 112/118/50
f 131/137/51 130/136/51 2/2/51
f 22/27/52 25/30/52 21/26/52
f 25/30/53 24/29/53 21/26/53
f 131/137/54 2/2/54 22/27/54
f 83/88/55 17/21/55 137/143/55
f 84/89/56 82/87/56 83/88/56
f 89/94/57 86/91/57 84/89/57
f 21/26/58 20/25/58 18/23/58
f 83/88/59 137/143/59 134/140/59
f 1/1/60 89/94/60 21/26/60
f 106/112/61 90/95/61 91/96/61
f 30/35/62 29/34/62 26/31/62
f 31/36/63 32/37/63 30/35/63
f 39/44/64 44/49/64 36/41/64
f 40/45/65 38/43/65 41/46/65
f 41/46/66 42/47/66 43/48/66
f 46/51/67 7/10/67 50/55/67
f 121/127/68 7/10/68 120/126/68
f 41/46/69 43/48/69 50/55/69
f 12/16/70 58/63/70 50/55/70
f 121/127/71 124/130/71 11/15/71
f 11/15/72 12/16/72 50/55/72
f 121/127/73 11/15/73 50/55/73
f 68/73/74 14/18/74 8/12/74
f 101/107/75 100/106/75 63/68/75
f 100/106/76 9/13/76 62/67/76
f 116/122/77 15/19/77 107/113/77
f 106/112/78 107/113/78 15/19/78
f 94/100/79 96/102/79 98/104/79
f 111/117/80 105/111/80 98/104/80
f 102/108/81 108/114/81 104/110/81
f 5/7/82 102/108/82 45/50/82
f 6/9/83 5/7/83 45/50/83
f 45/50/84 44/49/84 48/53/84
f 102/108/85 104/110/85 103/109/85
f 102/108/86 103/109/86 45/50/86
f 27/32/87 28/33/87 103/109/87
f 28/33/88 29/34/88 30/35/88
f 30/35/89 32/37/89 33/38/89
f 4/5/90 34/39/90 33/38/90
f 33/38/91 45/50/91 30/35/91
f 45/50/92 103/109/92 28/33/92
f 35/40/93 34/39/93 4/5/93
f 36/41/94 35/40/94 4/5/94
f 43/48/95 42/47/95 130/136/95
f 25/30/96 22/27/96 2/3/96
f 125/131/97 122/128/97 123/129/97
f 7/11/98 46/51/98 128/134/98
f 127/133/99 126/132/99 128/134/99
f 129/135/100 130/136/100 131/137/100
f 55/60/101 56/61/101 60/65/101
f 64/69/102 63/68/102 61/66/102
f 61/66/103 59/64/103 54/59/103
f 65/70/104 67/72/104 69/74/104
f 13/17/105 70/75/105 72/77/105
f 65/70/106 69/74/106 74/79/106
f 69/74/107 13/17/107 74/79/107
f 66/71/108 64/69/108 60/65/108
f 71/76/109 14/18/109 68/73/109
f 68/73/110 66/71/110 65/70/110
f 71/76/111 68/73/111 65/70/111
f 75/80/112 80/85/112 72/77/112
f 70/75/113 136/142/113 76/81/113
f 117/123/114 113/119/114 73/78/114
f 8/12/115 113/119/115 110/116/115
f 8/12/116 14/18/116 73/78/116
f 85/90/117 16/20/117 77/82/117
f 87/92/118 85/90/118 88/93/118
f 85/90/119 77/82/119 79/84/119
f 86/91/120 89/94/120 81/86/120
f 16/20/121 73/78/121 77/82/121
f 89/94/122 79/84/122 81/86/122
f 93/99/123 92/98/123 48/53/123
f 47/52/124 92/98/124 5/6/124
f 95/101/125 93/99/125 49/54/125
f 49/54/126 93/99/126 48/53/126
f 53/58/127 52/57/127 57/62/127
f 59/64/128 62/67/128 99/105/128
f 53/58/129 56/61/129 51/56/129
f 127/133/130 128/134/130 129/135/130
f 132/138/131 133/139/131 135/141/131
f 129/135/132 132/138/132 69/74/132
f 67/72/133 129/135/133 69/74/133
f 132/138/134 135/141/134 136/142/134
f 12/16/135 11/15/135 124/130/135
f 121/127/136 125/131/136 126/132/136
f 132/138/137 136/142/137 70/75/137
f 17/22/138 83/88/138 76/81/138
f 83/88/139 82/87/139 76/81/139
f 136/142/140 17/22/140 76/81/140
f 132/138/141 70/75/141 69/74/141
f 12/16/142 124/130/142 67/72/142
f 58/63/143 12/16/143 65/70/143
f 67/72/144 65/70/144 12/16/144
f 13/17/145 69/74/145 70/75/145
f 10/14/146 97/103/146 98/104/146
f 110/116/147 113/119/147 112/118/147
f 113/119/148 117/123/148 114/120/148
f 25/30/149 2/3/149 3/4/149
f 2/3/150 130/136/150 3/4/150
f 3/4/151 31/36/151 25/30/151
f 31/36/152 30/35/152 23/28/152
f 30/35/153 26/31/153 23/28/153
f 26/31/154 19/24/154 20/25/154
f 26/31/155 20/25/155 23/28/155
f 24/29/152 31/36/152 23/28/152
f 4/5/156 33/38/156 31/36/156
f 33/38/157 32/37/157 31/36/157
f 74/79/158 77/82/158 71/76/158
f 77/82/159 73/78/159 71/76/159
f 15/19/160 116/122/160 16/20/160
f 16/20/161 85/90/161 87/92/161
f 57/62/162 52/57/162 50/55/162
f 77/82/163 74/79/163 80/85/163
f 80/85/164 81/86/164 79/84/164
f 81/86/165 80/85/165 86/91/165
f 80/85/166 78/83/166 82/87/166
f 86/91/167 82/87/167 84/89/167
f 57/62/168 58/63/168 65/70/168
f 65/70/169 66/71/169 60/65/169
f 135/141/170 133/139/170 134/140/170
f 89/94/171 84/89/171 131/137/171
f 84/89/172 83/88/172 131/137/172
f 83/88/173 134/140/173 131/137/173
f 131/137/174 22/27/174 89/94/174
f 22/27/175 21/26/175 89/94/175
f 21/26/176 18/23/176 1/1/176
f 19/24/177 26/31/177 27/32/177
f 27/32/178 103/109/178 19/24/178
f 103/109/179 106/112/179 91/96/179
f 19/24/180 103/109/180 1/1/180
f 106/112/181 15/19/181 90/95/181
f 91/96/182 1/1/182 103/109/182
f 1/1/183 18/23/183 19/24/183
f 45/50/184 33/38/184 35/40/184
f 45/50/185 35/40/185 44/49/185
f 35/40/186 36/41/186 44/49/186
f 40/45/187 44/49/187 39/44/187
f 120/126/188 122/128/188 121/127/188
f 121/127/189 50/55/189 7/10/189
f 46/51/190 50/55/190 43/48/190
f 50/55/191 52/57/191 51/56/191
f 49/54/192 50/55/192 51/56/192
f 49/54/193 48/53/193 44/49/193
f 44/49/194 40/45/194 49/54/194
f 40/45/195 41/46/195 50/55/195
f 49/54/196 40/45/196 50/55/196
f 8/12/197 111/117/197 63/68/197
f 111/117/198 101/107/198 63/68/198
f 63/68/199 66/71/199 8/12/199
f 66/71/200 68/73/200 8/12/200
f 107/113/201 108/114/201 114/120/201
f 108/114/202 105/111/202 112/118/202
f 107/113/203 114/120/203 115/121/203
f 105/111/204 109/115/204 112/118/204
f 112/118/205 114/120/205 108/114/205
f 115/121/206 116/122/206 107/113/206
f 105/111/207 102/108/207 5/7/207
f 92/98/208 94/100/208 105/111/208
f 94/100/209 98/104/209 105/111/209
f 105/111/210 5/7/210 92/98/210
f 110/116/211 109/115/211 111/117/211
f 109/115/212 105/111/212 111/117/212
f 101/107/213 111/117/213 98/104/213
f 9/13/214 100/106/214 99/105/214
f 100/106/215 101/107/215 99/105/215
f 98/104/216 99/105/216 101/107/216
f 48/53/217 47/52/217 6/9/217
f 6/9/218 45/50/218 48/53/218
f 3/4/219 42/47/219 41/46/219
f 41/46/220 38/43/220 3/4/220
f 38/43/221 37/42/221 3/4/221
f 3/4/222 37/42/222 4/5/222
f 37/42/223 36/41/223 4/5/223
f 3/4/224 130/136/224 42/47/224
f 130/136/225 128/134/225 46/51/225
f 43/48/226 130/136/226 46/51/226
f 128/134/227 126/132/227 125/131/227
f 125/131/228 123/129/228 128/134/228
f 123/129/229 120/126/229 128/134/229
f 120/126/230 7/11/230 128/134/230
f 131/137/231 134/140/231 129/135/231
f 134/140/232 132/138/232 129/135/232
f 129/135/233 128/134/233 130/136/233
f 63/68/234 100/106/234 62/67/234
f 61/66/235 54/59/235 64/69/235
f 54/59/236 55/60/236 64/69/236
f 63/68/237 62/67/237 61/66/237
f 60/65/238 64/69/238 55/60/238
f 78/83/239 80/85/239 75/80/239
f 80/85/240 74/79/240 72/77/240
f 76/81/241 75/80/241 72/77/241
f 72/77/242 70/75/242 76/81/242
f 16/20/243 119/125/243 73/78/243
f 119/125/244 118/124/244 73/78/244
f 118/124/245 117/123/245 73/78/245
f 110/116/246 111/117/246 8/12/246
f 8/12/247 73/78/247 113/119/247
f 88/93/248 90/95/248 15/19/248
f 15/19/249 87/92/249 88/93/249
f 79/84/250 89/94/250 88/93/250
f 89/94/251 1/1/251 88/93/251
f 1/1/252 91/97/252 88/93/252
f 88/93/253 85/90/253 79/84/253
f 47/52/254 48/53/254 92/98/254
f 53/58/255 51/56/255 52/57/255
f 99/105/256 97/103/256 59/64/256
f 97/103/257 10/14/257 54/59/257
f 10/14/258 95/101/258 49/54/258
f 49/54/259 51/56/259 55/60/259
f 51/56/260 56/61/260 55/60/260
f 55/60/261 54/59/261 10/14/261
f 54/59/262 59/64/262 97/103/262
f 10/14/263 49/54/263 55/60/263
f 62/67/264 9/13/264 99/105/264
f 127/133/265 129/135/265 67/72/265
f 67/72/266 124/130/266 127/133/266
f 124/130/267 121/127/267 126/132/267
f 121/127/268 122/128/268 125/131/268
f 126/132/269 127/133/269 124/130/269
