# Blender 3.4.1
# www.blender.org
mtllib Tree1.mtl
o 円錐
v 0.000000 4.178257 -1.670063
v 0.325813 4.178257 -1.637973
v 0.639105 4.178257 -1.542937
v 0.927837 4.178257 -1.388606
v 1.180912 4.178257 -1.180912
v 1.388606 4.178257 -0.927837
v 1.542937 4.178257 -0.639105
v 1.637973 4.178257 -0.325813
v 1.670063 4.178257 0.000000
v 1.637973 4.178257 0.325813
v 1.542937 4.178257 0.639105
v 1.388606 4.178257 0.927837
v 1.180912 4.178257 1.180912
v 0.927837 4.178257 1.388606
v 0.639105 4.178257 1.542937
v 0.325813 4.178257 1.637973
v 0.000000 4.178257 1.670063
v -0.325813 4.178257 1.637973
v -0.639105 4.178257 1.542937
v -0.927837 4.178257 1.388606
v -1.180912 4.178257 1.180912
v -1.388606 4.178257 0.927837
v -1.542937 4.178257 0.639105
v -1.637973 4.178257 0.325813
v -1.670063 4.178257 0.000000
v -1.637973 4.178257 -0.325813
v -1.542937 4.178257 -0.639105
v -1.388606 4.178257 -0.927837
v -1.180912 4.178257 -1.180912
v -0.927837 4.178257 -1.388606
v -0.639105 4.178257 -1.542937
v -0.325813 4.178257 -1.637973
v 0.000000 6.677711 0.000000
vn 0.0816 0.5537 -0.8287
vn 0.2417 0.5537 -0.7969
vn 0.3925 0.5537 -0.7344
vn 0.5283 0.5537 -0.6437
vn 0.6437 0.5537 -0.5283
vn 0.7344 0.5537 -0.3925
vn 0.7969 0.5537 -0.2417
vn 0.8287 0.5537 -0.0816
vn 0.8287 0.5537 0.0816
vn 0.7969 0.5537 0.2417
vn 0.7344 0.5537 0.3925
vn 0.6437 0.5537 0.5283
vn 0.5283 0.5537 0.6437
vn 0.3925 0.5537 0.7344
vn 0.2417 0.5537 0.7969
vn 0.0816 0.5537 0.8287
vn -0.0816 0.5537 0.8287
vn -0.2417 0.5537 0.7969
vn -0.3925 0.5537 0.7344
vn -0.5283 0.5537 0.6437
vn -0.6437 0.5537 0.5283
vn -0.7344 0.5537 0.3925
vn -0.7969 0.5537 0.2417
vn -0.8287 0.5537 0.0816
vn -0.8287 0.5537 -0.0816
vn -0.7969 0.5537 -0.2417
vn -0.7344 0.5537 -0.3925
vn -0.6437 0.5537 -0.5283
vn -0.5283 0.5537 -0.6437
vn -0.3925 0.5537 -0.7344
vn -0.0000 -1.0000 -0.0000
vn -0.2417 0.5537 -0.7969
vn -0.0816 0.5537 -0.8287
vt 0.250000 0.490000
vt 0.750000 0.490000
vt 0.296822 0.485388
vt 0.796822 0.485388
vt 0.341844 0.471731
vt 0.841844 0.471731
vt 0.383337 0.449553
vt 0.883337 0.449553
vt 0.419706 0.419706
vt 0.919706 0.419706
vt 0.449553 0.383337
vt 0.949553 0.383337
vt 0.471731 0.341844
vt 0.971731 0.341844
vt 0.485388 0.296822
vt 0.985388 0.296822
vt 0.490000 0.250000
vt 0.990000 0.250000
vt 0.485388 0.203178
vt 0.985388 0.203178
vt 0.471731 0.158156
vt 0.971731 0.158156
vt 0.449553 0.116663
vt 0.949553 0.116663
vt 0.419706 0.080294
vt 0.919706 0.080294
vt 0.383337 0.050447
vt 0.883337 0.050447
vt 0.341844 0.028269
vt 0.841844 0.028269
vt 0.296822 0.014612
vt 0.796822 0.014612
vt 0.250000 0.010000
vt 0.750000 0.010000
vt 0.203178 0.014612
vt 0.703178 0.014612
vt 0.158156 0.028269
vt 0.658156 0.028269
vt 0.116663 0.050447
vt 0.616663 0.050447
vt 0.080294 0.080294
vt 0.580294 0.080294
vt 0.050447 0.116663
vt 0.550447 0.116663
vt 0.028269 0.158156
vt 0.528269 0.158156
vt 0.014612 0.203178
vt 0.514612 0.203178
vt 0.010000 0.250000
vt 0.510000 0.250000
vt 0.014612 0.296822
vt 0.514612 0.296822
vt 0.028269 0.341844
vt 0.528269 0.341844
vt 0.050447 0.383337
vt 0.550447 0.383337
vt 0.080294 0.419706
vt 0.580294 0.419706
vt 0.116663 0.449553
vt 0.616663 0.449553
vt 0.158156 0.471731
vt 0.658156 0.471731
vt 0.203178 0.485388
vt 0.703178 0.485388
vt 0.250000 0.250000
s 0
usemtl マテリアル.004
f 1/1/1 33/65/1 2/3/1
f 2/3/2 33/65/2 3/5/2
f 3/5/3 33/65/3 4/7/3
f 4/7/4 33/65/4 5/9/4
f 5/9/5 33/65/5 6/11/5
f 6/11/6 33/65/6 7/13/6
f 7/13/7 33/65/7 8/15/7
f 8/15/8 33/65/8 9/17/8
f 9/17/9 33/65/9 10/19/9
f 10/19/10 33/65/10 11/21/10
f 11/21/11 33/65/11 12/23/11
f 12/23/12 33/65/12 13/25/12
f 13/25/13 33/65/13 14/27/13
f 14/27/14 33/65/14 15/29/14
f 15/29/15 33/65/15 16/31/15
f 16/31/16 33/65/16 17/33/16
f 17/33/17 33/65/17 18/35/17
f 18/35/18 33/65/18 19/37/18
f 19/37/19 33/65/19 20/39/19
f 20/39/20 33/65/20 21/41/20
f 21/41/21 33/65/21 22/43/21
f 22/43/22 33/65/22 23/45/22
f 23/45/23 33/65/23 24/47/23
f 24/47/24 33/65/24 25/49/24
f 25/49/25 33/65/25 26/51/25
f 26/51/26 33/65/26 27/53/26
f 27/53/27 33/65/27 28/55/27
f 28/55/28 33/65/28 29/57/28
f 29/57/29 33/65/29 30/59/29
f 30/59/30 33/65/30 31/61/30
f 16/32/31 24/48/31 32/64/31
f 31/61/32 33/65/32 32/63/32
f 32/63/33 33/65/33 1/1/33
f 32/64/31 1/2/31 2/4/31
f 2/4/31 3/6/31 4/8/31
f 4/8/31 5/10/31 6/12/31
f 6/12/31 7/14/31 8/16/31
f 8/16/31 9/18/31 10/20/31
f 10/20/31 11/22/31 12/24/31
f 12/24/31 13/26/31 14/28/31
f 14/28/31 15/30/31 16/32/31
f 16/32/31 17/34/31 18/36/31
f 18/36/31 19/38/31 20/40/31
f 20/40/31 21/42/31 22/44/31
f 22/44/31 23/46/31 24/48/31
f 24/48/31 25/50/31 26/52/31
f 26/52/31 27/54/31 28/56/31
f 28/56/31 29/58/31 30/60/31
f 30/60/31 31/62/31 32/64/31
f 32/64/31 2/4/31 8/16/31
f 2/4/31 4/8/31 8/16/31
f 4/8/31 6/12/31 8/16/31
f 8/16/31 10/20/31 16/32/31
f 10/20/31 12/24/31 16/32/31
f 12/24/31 14/28/31 16/32/31
f 16/32/31 18/36/31 24/48/31
f 18/36/31 20/40/31 24/48/31
f 20/40/31 22/44/31 24/48/31
f 24/48/31 26/52/31 32/64/31
f 26/52/31 28/56/31 32/64/31
f 28/56/31 30/60/31 32/64/31
f 32/64/31 8/16/31 16/32/31
o 円錐.001
v 0.000000 2.940735 -2.243310
v 0.325813 2.940735 -2.200205
v 0.639105 2.940735 -2.072548
v 0.927837 2.940735 -1.865244
v 1.180912 2.940735 -1.586260
v 1.388606 2.940735 -1.246316
v 1.542937 2.940735 -0.858478
v 1.637973 2.940735 -0.437648
v 1.670063 2.940735 0.000000
v 1.637973 2.940735 0.437648
v 1.542937 2.940735 0.858478
v 1.388606 2.940735 1.246316
v 1.180912 2.940735 1.586260
v 0.927837 2.940735 1.865244
v 0.639105 2.940735 2.072548
v 0.325813 2.940735 2.200205
v 0.000000 2.940735 2.243310
v -0.325813 2.940735 2.200205
v -0.639105 2.940735 2.072548
v -0.927837 2.940735 1.865244
v -1.180912 2.940735 1.586260
v -1.388606 2.940735 1.246316
v -1.542937 2.940735 0.858478
v -1.637973 2.940735 0.437648
v -1.670063 2.940735 0.000000
v -1.637973 2.940735 -0.437648
v -1.542937 2.940735 -0.858478
v -1.388606 2.940735 -1.246316
v -1.180912 2.940735 -1.586260
v -0.927837 2.940735 -1.865244
v -0.639105 2.940735 -2.072548
v -0.325813 2.940735 -2.200205
v 0.000000 5.440190 0.000000
vn 0.0980 0.6647 -0.7406
vn 0.2855 0.6539 -0.7006
vn 0.4504 0.6353 -0.6273
vn 0.5851 0.6132 -0.5307
vn 0.6879 0.5917 -0.4203
vn 0.7610 0.5738 -0.3028
vn 0.8074 0.5611 -0.1823
vn 0.8299 0.5545 -0.0609
vn 0.8299 0.5545 0.0609
vn 0.8074 0.5611 0.1823
vn 0.7610 0.5738 0.3028
vn 0.6879 0.5917 0.4203
vn 0.5851 0.6132 0.5307
vn 0.4504 0.6353 0.6273
vn 0.2855 0.6539 0.7006
vn 0.0980 0.6647 0.7406
vn -0.0980 0.6647 0.7406
vn -0.2855 0.6539 0.7006
vn -0.4504 0.6353 0.6273
vn -0.5851 0.6132 0.5307
vn -0.6879 0.5917 0.4203
vn -0.7610 0.5738 0.3028
vn -0.8074 0.5611 0.1823
vn -0.8299 0.5545 0.0609
vn -0.8299 0.5545 -0.0609
vn -0.8074 0.5611 -0.1823
vn -0.7610 0.5738 -0.3028
vn -0.6879 0.5917 -0.4203
vn -0.5851 0.6132 -0.5307
vn -0.4504 0.6353 -0.6273
vn -0.0000 -1.0000 -0.0000
vn -0.2855 0.6539 -0.7006
vn -0.0980 0.6647 -0.7406
vt 0.250000 0.490000
vt 0.750000 0.490000
vt 0.296822 0.485388
vt 0.796822 0.485388
vt 0.341844 0.471731
vt 0.841844 0.471731
vt 0.383337 0.449553
vt 0.883337 0.449553
vt 0.419706 0.419706
vt 0.919706 0.419706
vt 0.449553 0.383337
vt 0.949553 0.383337
vt 0.471731 0.341844
vt 0.971731 0.341844
vt 0.485388 0.296822
vt 0.985388 0.296822
vt 0.490000 0.250000
vt 0.990000 0.250000
vt 0.485388 0.203178
vt 0.985388 0.203178
vt 0.471731 0.158156
vt 0.971731 0.158156
vt 0.449553 0.116663
vt 0.949553 0.116663
vt 0.419706 0.080294
vt 0.919706 0.080294
vt 0.383337 0.050447
vt 0.883337 0.050447
vt 0.341844 0.028269
vt 0.841844 0.028269
vt 0.296822 0.014612
vt 0.796822 0.014612
vt 0.250000 0.010000
vt 0.750000 0.010000
vt 0.203178 0.014612
vt 0.703178 0.014612
vt 0.158156 0.028269
vt 0.658156 0.028269
vt 0.116663 0.050447
vt 0.616663 0.050447
vt 0.080294 0.080294
vt 0.580294 0.080294
vt 0.050447 0.116663
vt 0.550447 0.116663
vt 0.028269 0.158156
vt 0.528269 0.158156
vt 0.014612 0.203178
vt 0.514612 0.203178
vt 0.010000 0.250000
vt 0.510000 0.250000
vt 0.014612 0.296822
vt 0.514612 0.296822
vt 0.028269 0.341844
vt 0.528269 0.341844
vt 0.050447 0.383337
vt 0.550447 0.383337
vt 0.080294 0.419706
vt 0.580294 0.419706
vt 0.116663 0.449553
vt 0.616663 0.449553
vt 0.158156 0.471731
vt 0.658156 0.471731
vt 0.203178 0.485388
vt 0.703178 0.485388
vt 0.250000 0.250000
s 0
usemtl マテリアル.004
f 34/66/34 66/130/34 35/68/34
f 35/68/35 66/130/35 36/70/35
f 36/70/36 66/130/36 37/72/36
f 37/72/37 66/130/37 38/74/37
f 38/74/38 66/130/38 39/76/38
f 39/76/39 66/130/39 40/78/39
f 40/78/40 66/130/40 41/80/40
f 41/80/41 66/130/41 42/82/41
f 42/82/42 66/130/42 43/84/42
f 43/84/43 66/130/43 44/86/43
f 44/86/44 66/130/44 45/88/44
f 45/88/45 66/130/45 46/90/45
f 46/90/46 66/130/46 47/92/46
f 47/92/47 66/130/47 48/94/47
f 48/94/48 66/130/48 49/96/48
f 49/96/49 66/130/49 50/98/49
f 50/98/50 66/130/50 51/100/50
f 51/100/51 66/130/51 52/102/51
f 52/102/52 66/130/52 53/104/52
f 53/104/53 66/130/53 54/106/53
f 54/106/54 66/130/54 55/108/54
f 55/108/55 66/130/55 56/110/55
f 56/110/56 66/130/56 57/112/56
f 57/112/57 66/130/57 58/114/57
f 58/114/58 66/130/58 59/116/58
f 59/116/59 66/130/59 60/118/59
f 60/118/60 66/130/60 61/120/60
f 61/120/61 66/130/61 62/122/61
f 62/122/62 66/130/62 63/124/62
f 63/124/63 66/130/63 64/126/63
f 49/97/64 57/113/64 65/129/64
f 64/126/65 66/130/65 65/128/65
f 65/128/66 66/130/66 34/66/66
f 65/129/64 34/67/64 35/69/64
f 35/69/64 36/71/64 37/73/64
f 37/73/64 38/75/64 39/77/64
f 39/77/64 40/79/64 41/81/64
f 41/81/64 42/83/64 43/85/64
f 43/85/64 44/87/64 45/89/64
f 45/89/64 46/91/64 47/93/64
f 47/93/64 48/95/64 49/97/64
f 49/97/64 50/99/64 51/101/64
f 51/101/64 52/103/64 53/105/64
f 53/105/64 54/107/64 55/109/64
f 55/109/64 56/111/64 57/113/64
f 57/113/64 58/115/64 59/117/64
f 59/117/64 60/119/64 61/121/64
f 61/121/64 62/123/64 63/125/64
f 63/125/64 64/127/64 65/129/64
f 65/129/64 35/69/64 41/81/64
f 35/69/64 37/73/64 41/81/64
f 37/73/64 39/77/64 41/81/64
f 41/81/64 43/85/64 49/97/64
f 43/85/64 45/89/64 49/97/64
f 45/89/64 47/93/64 49/97/64
f 49/97/64 51/101/64 57/113/64
f 51/101/64 53/105/64 57/113/64
f 53/105/64 55/109/64 57/113/64
f 57/113/64 59/117/64 65/129/64
f 59/117/64 61/121/64 65/129/64
f 61/121/64 63/125/64 65/129/64
f 65/129/64 41/81/64 49/97/64
o 円柱
v -0.000000 -0.309481 -0.750772
v -0.000000 3.358745 -0.387559
v 0.348901 -0.309481 -0.664776
v 0.180108 3.358745 -0.343167
v 0.617874 -0.309481 -0.426487
v 0.318955 3.358745 -0.220159
v 0.745298 -0.309481 -0.090496
v 0.384734 3.358745 -0.046715
v 0.701984 -0.309481 0.266228
v 0.362374 3.358745 0.137430
v 0.497854 -0.309481 0.561961
v 0.256999 3.358745 0.290092
v 0.179672 -0.309481 0.728956
v 0.092749 3.358745 0.376298
v -0.179672 -0.309481 0.728956
v -0.092749 3.358745 0.376298
v -0.497854 -0.309481 0.561961
v -0.256999 3.358745 0.290092
v -0.701984 -0.309481 0.266228
v -0.362374 3.358745 0.137430
v -0.745298 -0.309481 -0.090496
v -0.384734 3.358745 -0.046715
v -0.617874 -0.309481 -0.426487
v -0.318955 3.358745 -0.220159
v -0.348901 -0.309481 -0.664776
v -0.180108 3.358745 -0.343167
vn 0.2382 0.0957 -0.9665
vn 0.6601 0.0957 -0.7451
vn 0.9307 0.0957 -0.3530
vn 0.9882 0.0957 0.1200
vn 0.8192 0.0957 0.5655
vn 0.4626 0.0957 0.8814
vn -0.0000 0.0957 0.9954
vn -0.4626 0.0957 0.8814
vn -0.8192 0.0957 0.5655
vn -0.9882 0.0957 0.1200
vn -0.9307 0.0957 -0.3530
vn -0.0000 1.0000 -0.0000
vn -0.6601 0.0957 -0.7451
vn -0.2382 0.0957 -0.9665
vn -0.0000 -1.0000 -0.0000
vt 1.000000 0.500000
vt 0.000000 0.500000
vt 0.750000 0.490000
vt 1.000000 1.000000
vt 0.250000 0.490000
vt 0.000000 1.000000
vt 0.923077 0.500000
vt 0.861534 0.462509
vt 0.923077 1.000000
vt 0.361534 0.462509
vt 0.846154 0.500000
vt 0.947516 0.386336
vt 0.846154 1.000000
vt 0.447516 0.386336
vt 0.769231 0.500000
vt 0.988250 0.278929
vt 0.769231 1.000000
vt 0.488250 0.278929
vt 0.692308 0.500000
vt 0.974404 0.164895
vt 0.692308 1.000000
vt 0.474404 0.164895
vt 0.615385 0.500000
vt 0.909149 0.070357
vt 0.615385 1.000000
vt 0.409149 0.070357
vt 0.538462 0.500000
vt 0.807436 0.016974
vt 0.538462 1.000000
vt 0.307436 0.016974
vt 0.461538 0.500000
vt 0.692564 0.016974
vt 0.461538 1.000000
vt 0.192564 0.016974
vt 0.384615 0.500000
vt 0.590851 0.070357
vt 0.384615 1.000000
vt 0.090851 0.070357
vt 0.307692 0.500000
vt 0.525596 0.164895
vt 0.307692 1.000000
vt 0.025596 0.164895
vt 0.230769 0.500000
vt 0.511750 0.278929
vt 0.230769 1.000000
vt 0.011750 0.278929
vt 0.153846 0.500000
vt 0.552484 0.386336
vt 0.052484 0.386336
vt 0.153846 1.000000
vt 0.076923 0.500000
vt 0.638466 0.462509
vt 0.138466 0.462509
vt 0.076923 1.000000
s 0
usemtl マテリアル
f 68/134/67 69/137/67 67/131/67
f 70/139/68 71/141/68 69/137/68
f 71/141/69 74/147/69 73/145/69
f 73/145/70 76/151/70 75/149/70
f 76/151/71 77/153/71 75/149/71
f 78/155/72 79/157/72 77/153/72
f 79/157/73 82/163/73 81/161/73
f 81/161/74 84/167/74 83/165/74
f 84/167/75 85/169/75 83/165/75
f 86/171/76 87/173/76 85/169/76
f 88/175/77 89/177/77 87/173/77
f 68/135/78 86/172/78 78/156/78
f 90/180/79 91/181/79 89/177/79
f 92/184/80 67/132/80 91/181/80
f 89/178/81 69/138/81 77/154/81
f 68/134/67 70/139/67 69/137/67
f 70/139/68 72/143/68 71/141/68
f 71/141/69 72/143/69 74/147/69
f 73/145/70 74/147/70 76/151/70
f 76/151/71 78/155/71 77/153/71
f 78/155/72 80/159/72 79/157/72
f 79/157/73 80/159/73 82/163/73
f 81/161/74 82/163/74 84/167/74
f 84/167/75 86/171/75 85/169/75
f 86/171/76 88/175/76 87/173/76
f 88/175/77 90/180/77 89/177/77
f 72/144/78 70/140/78 68/135/78
f 68/135/78 92/183/78 90/179/78
f 90/179/78 88/176/78 86/172/78
f 86/172/78 84/168/78 82/164/78
f 82/164/78 80/160/78 78/156/78
f 78/156/78 76/152/78 74/148/78
f 74/148/78 72/144/78 78/156/78
f 72/144/78 68/135/78 78/156/78
f 68/135/78 90/179/78 86/172/78
f 86/172/78 82/164/78 78/156/78
f 90/180/79 92/184/79 91/181/79
f 92/184/80 68/136/80 67/132/80
f 91/182/81 67/133/81 69/138/81
f 69/138/81 71/142/81 77/154/81
f 71/142/81 73/146/81 77/154/81
f 73/146/81 75/150/81 77/154/81
f 77/154/81 79/158/81 81/162/81
f 81/162/81 83/166/81 85/170/81
f 85/170/81 87/174/81 89/178/81
f 89/178/81 91/182/81 69/138/81
f 77/154/81 81/162/81 85/170/81
f 85/170/81 89/178/81 77/154/81
