# Blender 3.4.1
# www.blender.org
mtllib Stone2.mtl
o Rock
v 0.761831 0.011291 0.191220
v -0.966890 0.057416 -0.186081
v -0.645409 0.214474 -1.149704
v 0.638828 0.201720 -1.143937
v 0.872988 0.240993 0.789111
v -0.363972 0.157785 1.153017
v -0.347481 0.310988 1.204358
v -1.181729 0.252068 -0.034660
v -0.317918 0.232852 -1.427140
v 0.879687 0.192080 -0.856615
v 0.928765 0.523283 -1.087046
v -0.011473 1.123071 -0.940865
v 0.258859 1.565321 -0.208454
v 0.180434 1.508644 -0.533570
v -0.854631 1.025693 0.532643
v 0.626882 1.420710 -0.065667
v 1.068963 0.535195 -0.343436
v 0.454138 1.043560 -0.958567
v -0.952102 0.805517 -0.847449
v -0.713717 1.033417 -0.674078
v 1.171064 0.520003 0.385722
v 0.612794 0.837285 -1.184640
v 0.434949 0.065184 -1.273289
v 0.423021 0.194003 -1.383510
v -1.018195 0.593915 -0.806370
v -0.861799 0.191268 -0.878155
v -0.870439 0.096381 0.533561
v -0.719411 0.008948 0.201044
v -0.215350 -0.020751 0.839085
v 0.251356 -0.031059 0.787670
v 0.000426 0.917925 -1.249388
v -1.069620 0.563753 -0.333468
v 0.352205 0.206646 1.180680
v 1.048042 0.964588 0.024663
v -1.180726 0.503267 0.361378
v -0.322777 1.108190 0.909059
v 0.769094 1.056534 0.599198
v 0.333900 0.352866 1.202896
v 0.954681 0.120865 0.503503
v 0.215595 0.033956 1.022012
v -1.034750 0.175775 0.458163
v -0.671400 0.013311 -0.744641
v 0.728538 0.033599 -0.767173
v 1.012481 0.210321 0.577885
v -0.438089 0.106762 -1.306495
v 0.937794 0.157817 -0.516884
v 0.360532 1.047004 0.949933
v -0.450923 1.255608 0.652383
v -0.764504 1.230330 -0.261920
v 0.754358 1.253102 -0.277049
v 0.687042 1.120519 -0.566336
v -0.195799 1.582773 -0.216471
v -0.172104 1.458075 -0.576141
v -0.593820 1.242505 -0.567561
v -0.655374 1.390488 0.023696
v -0.865291 1.135376 0.162180
v -0.045679 1.623523 -0.023116
v -0.249366 1.332894 0.690865
v -0.023834 1.307634 0.773471
v 0.278053 1.475545 0.320074
v 0.895748 0.897450 -0.404655
v 0.983162 0.762520 -0.734305
v 0.837483 0.834312 -0.976782
v -0.618754 0.851915 -1.140997
v -0.484030 1.142042 -0.811953
v -0.925906 0.840606 -0.399123
v -1.231115 0.522188 -0.018363
v -1.074969 0.871845 0.330178
v -0.794652 0.796599 0.809255
v -0.347575 0.511282 1.168329
v -0.052383 0.516412 1.200875
v 0.937495 0.795993 0.645777
v 1.057999 0.907035 0.283989
v -0.935486 0.160154 -0.513282
v -0.876830 0.673100 0.784894
v -0.916214 0.223431 0.725846
v -0.606407 0.067474 0.855651
v 0.348254 0.710284 1.077247
v 0.608211 0.072817 0.860131
v 1.239399 0.526424 0.011760
v 1.192604 0.279262 -0.024549
v 1.023231 0.110069 -0.170410
v -0.101875 -0.023168 -0.734275
v -0.798008 0.000687 -0.225786
v -0.375353 0.009304 0.548361
v 0.705069 0.646327 0.940227
v -0.464580 0.054894 -1.181661
v 0.819862 0.001213 -0.314183
v 0.900970 1.118935 0.179014
v 0.504642 1.258388 0.588497
v -0.839359 0.557889 -1.173393
v 0.350179 0.498122 -1.449324
v 0.497657 0.023742 -0.939988
v 0.362741 -0.000864 -0.456669
v -0.025534 0.000552 -0.944159
v 0.413441 0.007686 0.537695
v 0.004289 0.568524 -1.563062
v -1.079237 0.891136 0.132344
v -0.671400 0.013311 -0.744641
v -0.464580 0.054894 -1.181661
v -0.861799 0.191268 -0.878155
v 0.728538 0.033599 -0.767173
v 0.819862 0.001213 -0.314183
v 0.954681 0.120865 0.503503
v 1.012481 0.210321 0.577885
v 1.012481 0.210321 0.577885
v 1.171064 0.520003 0.385722
v -0.347481 0.310988 1.204358
v -0.347481 0.310988 1.204358
v -0.347481 0.310988 1.204358
v -0.363972 0.157785 1.153017
v -0.363972 0.157785 1.153017
v -0.363972 0.157785 1.153017
v -1.181729 0.252068 -0.034660
v -1.181729 0.252068 -0.034660
v -1.034750 0.175775 0.458163
v -1.231115 0.522188 -0.018363
v -1.231115 0.522188 -0.018363
v -1.231115 0.522188 -0.018363
v -0.935486 0.160154 -0.513282
v -0.438089 0.106762 -1.306495
v -0.438089 0.106762 -1.306495
v -0.317918 0.232852 -1.427140
v 0.004289 0.568524 -1.563062
v 0.879687 0.192080 -0.856615
v 0.928765 0.523283 -1.087046
v 0.928765 0.523283 -1.087046
v 0.258859 1.565321 -0.208454
v 0.258859 1.565321 -0.208454
v 0.626882 1.420710 -0.065667
v 0.626882 1.420710 -0.065667
v 0.180434 1.508644 -0.533570
v -0.045679 1.623523 -0.023116
v -0.023834 1.307634 0.773471
v -0.023834 1.307634 0.773471
v 0.705069 0.646327 0.940227
v 0.423021 0.194003 -1.383510
v 0.423021 0.194003 -1.383510
v 0.423021 0.194003 -1.383510
v -1.018195 0.593915 -0.806370
v -1.069620 0.563753 -0.333468
v 0.333900 0.352866 1.202896
v 0.352205 0.206646 1.180680
v 0.352205 0.206646 1.180680
v 0.352205 0.206646 1.180680
v 0.872988 0.240993 0.789111
v 1.239399 0.526424 0.011760
v 1.239399 0.526424 0.011760
v 1.239399 0.526424 0.011760
v 1.048042 0.964588 0.024663
v 0.215595 0.033956 1.022012
v 0.215595 0.033956 1.022012
v 0.497657 0.023742 -0.939988
v 0.497657 0.023742 -0.939988
v 0.754358 1.253102 -0.277049
v 0.754358 1.253102 -0.277049
v -0.854631 1.025693 0.532643
v 0.434949 0.065184 -1.273289
v 0.434949 0.065184 -1.273289
v -0.916214 0.223431 0.725846
v 1.068963 0.535195 -0.343436
v 1.068963 0.535195 -0.343436
v 1.192604 0.279262 -0.024549
v 1.192604 0.279262 -0.024549
v -0.839359 0.557889 -1.173393
v -0.606407 0.067474 0.855651
v 0.937794 0.157817 -0.516884
v 0.983162 0.762520 -0.734305
vn -0.6505 -0.6628 -0.3709
vn 0.5062 -0.7363 -0.4491
vn 0.5282 -0.7181 0.4531
vn 0.5615 -0.6931 0.4521
vn 0.0839 -0.9264 -0.3671
vn -0.6440 -0.6484 -0.4061
vn -0.6761 -0.4234 -0.6031
vn -0.5444 -0.2478 -0.8013
vn -0.4194 0.0353 -0.9071
vn 0.9521 -0.2503 -0.1755
vn -0.3841 0.7047 0.5965
vn -0.8300 0.4565 -0.3204
vn 0.0928 0.7009 -0.7072
vn 0.7961 0.4583 -0.3953
vn 0.7606 0.6469 -0.0542
vn 0.5465 0.7456 -0.3814
vn 0.5619 0.7609 -0.3246
vn 0.3749 0.7359 -0.5639
vn 0.0115 0.9766 -0.2147
vn -0.0946 0.9386 -0.3317
vn -0.4030 0.7685 -0.4970
vn -0.4363 0.8409 -0.3203
vn -0.3509 0.9333 0.0758
vn -0.6199 0.7012 0.3521
vn 0.0351 0.9293 0.3676
vn 0.5725 0.7656 0.2934
vn 0.5729 0.7651 0.2939
vn 0.5747 0.7627 0.2965
vn 0.4568 0.8397 0.2937
vn 0.9813 0.0509 -0.1858
vn 0.8373 0.3838 -0.3894
vn 0.7528 0.6547 -0.0684
vn 0.4149 0.7981 -0.4370
vn -0.1177 0.8248 -0.5530
vn -0.1976 0.6537 -0.7305
vn -0.1884 0.7736 -0.6050
vn -0.5448 0.7880 -0.2868
vn -0.8068 0.4754 -0.3508
vn -0.7546 0.6513 0.0798
vn -0.5230 0.5973 0.6081
vn -0.1109 0.1759 0.9781
vn 0.7632 0.0770 0.6416
vn 0.7782 0.0707 0.6240
vn 0.8506 0.3513 0.3912
vn 0.9316 0.3183 0.1757
vn 0.7719 0.6262 0.1093
vn 0.1644 0.6600 -0.7331
vn 0.1665 0.7838 -0.5983
vn 0.5316 -0.0556 -0.8452
vn 0.6561 -0.4901 -0.5738
vn 0.6581 -0.4926 -0.5695
vn 0.6557 -0.4895 -0.5749
vn 0.0449 -0.9903 -0.1316
vn -0.0052 -0.6887 -0.7250
vn 0.0328 -0.4020 -0.9150
vn 0.0107 -0.6495 -0.7603
vn -0.9229 -0.3204 -0.2137
vn -0.5975 -0.7797 -0.1872
vn -0.6442 -0.7099 -0.2847
vn -0.7432 -0.6147 -0.2643
vn -0.8297 0.2790 0.4835
vn -0.7598 0.4053 0.5083
vn -0.8653 -0.2588 0.4293
vn -0.1730 -0.9849 -0.0066
vn -0.5446 -0.5685 0.6166
vn 0.1323 0.3240 0.9368
vn 0.3880 0.2918 0.8743
vn 0.3889 0.3134 0.8664
vn 0.0113 -0.1488 0.9888
vn 0.3090 -0.7644 0.5659
vn 0.6023 -0.0476 0.7969
vn 0.6013 -0.0464 0.7977
vn 0.6016 -0.0467 0.7974
vn 0.8384 0.3777 -0.3930
vn 0.5888 -0.7683 -0.2511
vn 0.0942 -0.9925 -0.0779
vn -0.0632 -0.9972 -0.0397
vn -0.0177 -0.9996 0.0226
vn -0.3019 -0.9505 0.0740
vn -0.0016 -0.9998 0.0198
vn 0.2127 -0.9556 0.2039
vn -0.0011 -1.0000 -0.0000
vn 0.0011 -1.0000 -0.0075
vn 0.0015 -1.0000 -0.0089
vn -0.0020 -1.0000 0.0030
vn 0.0197 -0.9987 0.0473
vn -0.0703 -0.6442 0.7616
vn 0.6692 -0.7388 0.0799
vn 0.7648 -0.6248 0.1572
vn 0.9165 -0.3222 0.2372
vn -0.0841 -0.8828 0.4622
vn 0.0083 -0.9632 0.2685
vn 0.0667 -0.9973 -0.0322
vn -0.4731 -0.8740 0.1107
vn -0.6410 -0.7641 0.0729
vn -0.3330 -0.9381 0.0954
vn -0.0602 -0.9895 -0.1317
vn -0.0570 -0.9910 -0.1213
vn -0.0572 -0.9909 -0.1218
vn -0.4438 -0.7909 -0.4213
vn -0.6882 -0.4290 -0.5851
vn -0.6798 -0.1662 0.7143
vn 0.0446 -0.9983 -0.0384
vn 0.3720 -0.8115 -0.4507
vn 0.6585 -0.4931 -0.5685
vn 0.8267 -0.0776 0.5572
vn -0.1829 -0.8893 0.4192
vn -0.9753 -0.1856 0.1202
vn -0.8924 -0.1006 -0.4398
vn -0.7545 0.6535 0.0603
vn 0.6554 -0.7324 -0.1845
vn 0.6565 -0.7311 -0.1860
vn 0.9438 -0.2712 -0.1888
vn 0.4804 0.6600 0.5776
vn 0.2453 0.8445 0.4761
vn 0.2701 0.7803 0.5641
vn -0.5344 0.8061 0.2540
vn -0.5218 0.6008 0.6056
vn -0.7102 0.5972 -0.3728
vn 0.4379 0.8618 -0.2559
vn 0.0726 0.9794 -0.1883
vn 0.3308 0.8264 -0.4557
vn -0.0226 0.7313 -0.6817
vn -0.1648 0.6892 -0.7056
vn -0.5997 0.6086 -0.5196
vn -0.4850 0.8351 -0.2595
vn -0.3915 0.8653 0.3130
vn -0.3247 0.9048 0.2757
vn -0.5200 0.8143 -0.2579
vn 0.2945 0.9367 0.1897
vn -0.1687 0.7145 0.6790
vn -0.0312 0.9288 0.3692
vn 0.0838 0.4713 0.8780
vn -0.0794 0.4760 0.8759
vn 0.7305 0.5456 0.4108
vn 0.5748 0.7626 0.2966
vn 0.7124 0.7014 -0.0227
vn 0.8635 0.3518 -0.3613
vn 0.8153 0.4534 -0.3601
vn 0.8968 0.4386 0.0583
vn 0.6991 0.6808 -0.2185
vn 0.6200 0.4175 -0.6643
vn 0.1208 0.8288 -0.5464
vn -0.3909 0.3854 -0.8358
vn -0.4988 0.7412 -0.4493
vn -0.6042 0.5198 -0.6039
vn -0.8498 0.4228 -0.3147
vn -0.8912 0.4250 -0.1588
vn -0.9485 0.2840 0.1400
vn -0.9310 0.3607 0.0553
vn -0.6880 0.6903 0.2242
vn -0.4226 0.3758 0.8247
vn -0.5358 0.1945 0.8216
vn 0.1189 0.3474 0.9302
vn -0.1073 0.3998 0.9103
vn 0.5679 0.4720 0.6743
vn 0.4384 -0.8969 0.0590
vn 0.5537 0.4796 0.6808
vn 0.9157 0.3983 0.0532
vn 0.9783 -0.0749 -0.1934
vn 0.5056 0.2524 -0.8250
vn 0.3581 0.3861 -0.8501
vn -0.8859 0.4636 0.0155
vn 0.2841 -0.1373 -0.9489
vn -0.0370 -0.9695 -0.2421
vn -0.8757 0.1871 -0.4451
vn 0.2085 -0.9754 0.0711
vn -0.6844 0.7289 -0.0171
vn -0.8760 -0.2689 -0.4004
vn -0.9569 -0.2641 -0.1209
vn -0.3388 -0.9349 -0.1054
vn -0.8114 -0.0057 0.5845
vn -0.7555 0.4146 0.5072
vn -0.5369 -0.7570 0.3724
vn -0.5367 -0.7571 0.3725
vn -0.2156 -0.9724 0.0895
vn -0.5370 -0.7570 0.3723
vn -0.6148 -0.0495 0.7872
vn 0.0012 0.0152 0.9999
vn 0.5243 -0.5514 0.6489
vn 0.6010 -0.0460 0.7979
vn 0.2124 -0.9328 0.2912
vn 0.8937 -0.1102 -0.4349
vn 0.8952 -0.1068 -0.4328
vn 0.8955 -0.1060 -0.4323
vn 0.9629 -0.2076 0.1724
vn 0.7869 -0.5546 -0.2705
vn -0.0609 -0.9891 -0.1339
vn -0.1756 -0.9688 0.1750
vn -0.0034 -0.9949 -0.1010
vn 0.0017 -0.9998 0.0177
vn -0.0415 -0.9829 -0.1792
vn 0.1410 -0.3282 0.9340
vn 0.0285 -0.9966 -0.0770
vn -0.5503 0.1476 0.8218
vn -0.9136 -0.3424 0.2195
vn -0.8750 -0.1319 -0.4658
vn -0.7677 0.6376 -0.0642
vn 0.2938 0.9468 0.1311
vn 0.6826 0.6606 0.3124
vn 0.4109 -0.9093 0.0653
vn 0.4559 -0.8026 -0.3848
vn -0.9556 0.2818 -0.0859
vn 0.2740 -0.9613 0.0287
vn 0.8935 -0.1106 -0.4352
s 1
usemtl マテリアル
f 3//1 100//1 99//1
f 4//2 125//2 102//2
f 39//3 106//3 146//3
f 39//4 146//4 79//4
f 87//5 121//5 95//5
f 100//6 3//6 122//6
f 3//7 165//7 122//7
f 122//8 165//8 123//8
f 123//9 165//9 124//9
f 162//10 46//10 11//10
f 36//11 58//11 48//11
f 66//12 49//12 20//12
f 132//13 18//13 12//13
f 61//14 51//14 155//14
f 16//15 89//15 156//15
f 132//16 130//16 51//16
f 132//17 51//17 63//17
f 132//18 63//18 18//18
f 14//19 52//19 133//19
f 14//20 53//20 52//20
f 53//21 65//21 54//21
f 54//22 52//22 53//22
f 55//23 57//23 52//23
f 48//24 55//24 56//24
f 134//25 60//25 57//25
f 37//26 89//27 90//28
f 131//29 60//29 90//29
f 162//30 11//30 62//30
f 127//31 63//31 168//31
f 51//32 61//32 168//32
f 18//33 63//33 22//33
f 65//34 12//34 31//34
f 124//35 64//35 31//35
f 65//36 31//36 64//36
f 20//37 65//37 19//37
f 98//38 141//38 119//38
f 56//39 98//39 68//39
f 69//40 36//40 157//40
f 70//41 109//41 71//41
f 136//42 5//42 72//42
f 72//43 5//43 21//43
f 73//44 72//44 21//44
f 21//45 147//45 73//45
f 34//46 89//46 73//46
f 22//47 124//47 31//47
f 31//48 18//48 22//48
f 137//49 92//49 127//49
f 126//50 4//51 138//52
f 153//53 95//53 158//53
f 9//54 159//54 45//54
f 9//55 97//55 137//55
f 137//56 159//56 9//56
f 26//57 74//57 25//57
f 120//58 101//58 99//58
f 120//59 99//59 2//59
f 120//60 2//60 114//60
f 75//61 68//61 35//61
f 69//62 68//62 75//62
f 35//63 41//63 160//63
f 27//64 85//64 29//64
f 113//65 76//65 166//65
f 71//66 142//66 78//66
f 86//67 78//67 142//67
f 78//68 86//68 47//68
f 109//69 145//69 142//69
f 151//70 79//70 144//70
f 5//71 136//72 143//73
f 148//74 161//74 150//74
f 167//75 82//75 103//75
f 95//76 94//76 83//76
f 84//77 42//77 83//77
f 28//78 84//78 83//78
f 28//79 2//79 84//79
f 88//80 1//80 94//80
f 1//81 104//81 96//81
f 96//82 28//83 1//84
f 96//82 85//85 28//83
f 94//86 28//86 83//86
f 110//87 152//87 33//87
f 82//88 163//88 104//88
f 105//89 104//89 163//89
f 163//90 107//90 105//90
f 151//91 112//91 29//91
f 151//92 29//92 30//92
f 43//93 94//93 153//93
f 2//94 27//94 116//94
f 116//95 114//95 2//95
f 2//96 28//96 27//96
f 42//97 87//98 95//99
f 3//100 99//100 101//100
f 26//101 165//101 3//101
f 108//102 75//102 111//102
f 153//103 94//103 95//103
f 4//104 102//104 154//104
f 4//51 126//50 125//105
f 44//106 21//106 5//106
f 77//107 29//107 112//107
f 115//108 35//108 117//108
f 8//109 32//109 74//109
f 55//110 98//110 56//110
f 167//111 103//111 102//111
f 167//112 102//112 125//112
f 10//113 11//113 46//113
f 90//114 47//114 37//114
f 90//115 60//115 134//115
f 90//116 134//116 47//116
f 48//117 56//117 15//117
f 157//118 36//118 48//118
f 49//119 54//119 20//119
f 128//120 130//120 132//120
f 14//121 133//121 129//121
f 130//122 50//122 51//122
f 53//123 132//123 12//123
f 65//124 53//124 12//124
f 54//125 65//125 20//125
f 52//126 54//126 55//126
f 55//127 48//127 58//127
f 55//128 58//128 57//128
f 55//129 54//129 49//129
f 57//130 131//130 13//130
f 58//131 36//131 135//131
f 58//132 134//132 57//132
f 59//133 36//133 71//133
f 47//134 59//134 71//134
f 73//135 37//135 72//135
f 131//136 90//28 89//27
f 89//137 34//137 156//137
f 150//138 161//138 61//138
f 150//139 61//139 155//139
f 168//140 61//140 17//140
f 168//141 63//141 51//141
f 63//142 127//142 22//142
f 18//143 31//143 12//143
f 64//144 124//144 165//144
f 19//145 65//145 64//145
f 64//146 165//146 19//146
f 141//147 98//147 49//147
f 141//148 49//148 66//148
f 118//149 35//149 68//149
f 118//150 68//150 98//150
f 68//151 15//151 56//151
f 69//152 70//152 36//152
f 69//153 75//153 70//153
f 71//154 78//154 47//154
f 71//155 36//155 70//155
f 37//156 47//156 86//156
f 104//157 103//157 82//157
f 72//158 37//158 86//158
f 73//159 147//159 34//159
f 139//160 93//160 23//160
f 22//161 127//161 92//161
f 124//162 22//162 92//162
f 19//163 141//163 66//163
f 137//164 97//164 92//164
f 121//165 158//165 95//165
f 19//166 91//166 140//166
f 79//167 96//167 104//167
f 19//168 66//168 20//168
f 25//169 165//169 26//169
f 74//170 32//170 25//170
f 2//171 42//171 84//171
f 75//172 35//172 160//172
f 69//173 157//173 68//173
f 27//174 76//174 116//175
f 27//176 29//176 77//176
f 166//177 76//174 27//174
f 111//178 75//178 160//178
f 142//179 71//179 109//179
f 144//180 79//180 146//180
f 143//73 136//72 38//181
f 79//182 151//182 30//182
f 81//183 162//184 149//185
f 80//186 107//186 163//186
f 164//187 82//187 167//187
f 42//97 95//99 83//188
f 28//189 85//189 27//189
f 85//190 96//190 29//190
f 28//191 94//191 1//191
f 30//192 29//192 96//192
f 7//193 6//193 40//193
f 43//194 88//194 94//194
f 108//195 70//195 75//195
f 115//196 41//196 35//196
f 8//197 67//197 32//197
f 55//198 49//198 98//198
f 57//199 60//199 131//199
f 73//200 89//200 37//200
f 104//201 1//201 103//201
f 24//202 4//202 154//202
f 19//203 140//203 141//203
f 79//204 30//204 96//204
f 81//183 46//205 162//184
