# Blender 3.4.1
# www.blender.org
mtllib SplitSeesaw.mtl
o 立方体
v 45.572350 -1.155428 2.639615
v 42.544270 -1.155428 5.667696
v 42.544270 0.465090 5.667696
v 45.572350 0.465090 2.639615
v -42.594753 -1.155428 5.667697
v -45.622837 -1.155428 2.639618
v -45.622837 0.465090 2.639618
v -42.594753 0.465090 5.667697
v 42.544270 -1.155428 -5.667697
v 45.572350 -1.155428 -2.639618
v 45.572350 0.465090 -2.639618
v 42.544270 0.465090 -5.667697
v -45.622837 -1.155428 -2.639615
v -42.594753 -1.155428 -5.667696
v -42.594753 0.465090 -5.667696
v -45.622837 0.465090 -2.639615
v 21.083559 -1.155428 2.639616
v 18.055479 -1.155428 5.667696
v 32.848648 -1.155428 5.667696
v 29.820568 -1.155428 2.639616
v 29.820568 0.465090 2.639616
v 32.848648 0.465090 5.667696
v 18.055479 0.465090 5.667696
v 21.083559 0.465090 2.639616
v 29.820568 -1.155428 -2.639617
v 32.848648 -1.155428 -5.667697
v 18.055479 -1.155428 -5.667697
v 21.083559 -1.155428 -2.639617
v 21.083559 0.465090 -2.639617
v 18.055479 0.465090 -5.667697
v 32.848648 0.465090 -5.667697
v 29.820568 0.465090 -2.639617
v -21.110392 0.465090 2.639617
v -18.082312 0.465090 5.667697
v -32.982304 0.465090 5.667697
v -29.954226 0.465090 2.639617
v -21.110392 -1.155428 -2.639616
v -18.082312 -1.155428 -5.667696
v -32.982304 -1.155428 -5.667696
v -29.954226 -1.155428 -2.639616
v -29.954226 -1.155428 2.639617
v -32.982304 -1.155428 5.667697
v -18.082312 -1.155428 5.667697
v -21.110392 -1.155428 2.639617
v -29.954226 0.465090 -2.639616
v -32.982304 0.465090 -5.667696
v -18.082312 0.465090 -5.667696
v -21.110392 0.465090 -2.639616
vn -0.0000 1.0000 -0.0000
vn -0.0000 -1.0000 -0.0000
vn -0.0000 -0.0000 -1.0000
vn -1.0000 -0.0000 -0.0000
vn 1.0000 -0.0000 -0.0000
vn -0.0000 -0.0000 1.0000
vn 0.7071 -0.0000 0.7071
vn -0.7071 -0.0000 0.7071
vn -0.7071 -0.0000 -0.7071
vn 0.7071 -0.0000 -0.7071
vt 0.191784 0.750000
vt 0.375000 0.000000
vt 0.375000 0.933216
vt 0.125000 0.742095
vt 0.375000 0.007905
vt 0.875000 0.742095
vt 0.625000 0.007905
vt 0.808216 0.750000
vt 0.625000 0.933216
vt 0.625000 0.000000
vt 0.125000 0.507531
vt 0.375000 0.242469
vt 0.191784 0.500000
vt 0.375000 0.316784
vt 0.808216 0.500000
vt 0.625000 0.316784
vt 0.875000 0.507653
vt 0.625000 0.242469
vt 0.375000 0.742095
vt 0.308216 0.750000
vt 0.375000 0.816784
vt 0.691784 0.750000
vt 0.625000 0.816784
vt 0.625000 0.742095
vt 0.308216 0.500000
vt 0.375000 0.433216
vt 0.375000 0.507531
vt 0.625000 0.507653
vt 0.691784 0.500000
vt 0.625000 0.433216
vt 0.191784 0.684989
vt 0.375000 0.230629
vt 0.125000 0.676365
vt 0.375000 0.073635
vt 0.125000 0.716786
vt 0.375000 0.033214
vt 0.191784 0.708881
vt 0.375000 0.219501
vt 0.808216 0.708881
vt 0.625000 0.219501
vt 0.875000 0.716786
vt 0.625000 0.033214
vt 0.625000 0.073635
vt 0.875000 0.676365
vt 0.808216 0.684989
vt 0.625000 0.230629
vt 0.308216 0.708881
vt 0.375000 0.530499
vt 0.375000 0.716786
vt 0.375000 0.676365
vt 0.308216 0.684989
vt 0.375000 0.519371
vt 0.691784 0.684989
vt 0.625000 0.519371
vt 0.625000 0.676365
vt 0.625000 0.716786
vt 0.691784 0.708881
vt 0.625000 0.530499
vt 0.625000 0.185180
vt 0.625000 0.286595
vt 0.808216 0.564820
vt 0.875000 0.573444
vt 0.625000 0.176556
vt 0.875000 0.531948
vt 0.625000 0.218563
vt 0.808216 0.539601
vt 0.625000 0.298805
vt 0.625000 0.211032
vt 0.308216 0.564820
vt 0.375000 0.573444
vt 0.375000 0.531437
vt 0.308216 0.538967
vt 0.191784 0.538967
vt 0.375000 0.211032
vt 0.125000 0.531437
vt 0.375000 0.218563
vt 0.125000 0.573444
vt 0.375000 0.176556
vt 0.191784 0.564820
vt 0.375000 0.185180
vt 0.691784 0.539601
vt 0.625000 0.451829
vt 0.625000 0.531948
vt 0.625000 0.573444
vt 0.691784 0.564820
vt 0.625000 0.463405
s 0
usemtl マテリアル
f 47/84/3 27/50/3 38/70/3
f 17/32/5 29/54/5 24/46/5
f 37/69/4 33/60/4 48/86/4
f 23/43/6 43/78/6 18/34/6
f 28/51/2 17/31/2 18/33/2
f 24/45/1 29/53/1 30/55/1
f 28/52/10 30/55/10 29/54/10
f 18/34/7 24/46/7 23/43/7
f 38/70/9 48/86/9 47/84/9
f 44/80/8 34/63/8 33/59/8
f 47/84/3 30/55/3 27/50/3
f 17/32/5 28/52/5 29/54/5
f 37/69/4 44/79/4 33/60/4
f 23/43/6 34/63/6 43/78/6
f 18/33/2 43/77/2 38/70/2
f 43/77/2 44/79/2 38/70/2
f 44/79/2 37/69/2 38/70/2
f 38/70/2 27/50/2 18/33/2
f 27/50/2 28/51/2 18/33/2
f 30/55/1 47/84/1 34/62/1
f 47/84/1 48/85/1 34/62/1
f 48/85/1 33/61/1 34/62/1
f 34/62/1 23/44/1 30/55/1
f 23/44/1 24/45/1 30/55/1
f 28/52/10 27/50/10 30/55/10
f 18/34/7 17/32/7 24/46/7
f 38/70/9 37/69/9 48/86/9
f 44/80/8 43/78/8 34/63/8
usemtl マテリアル.001
f 36/66/1 45/81/1 46/83/1
f 40/72/2 41/73/2 42/75/2
f 15/28/3 39/71/3 14/27/3
f 10/20/2 1/1/2 2/4/2
f 4/8/1 11/22/1 12/24/1
f 7/16/4 13/26/4 6/14/4
f 11/23/5 1/3/5 10/21/5
f 35/65/6 5/12/6 42/76/6
f 31/56/3 9/19/3 26/49/3
f 21/40/4 25/48/4 20/38/4
f 45/82/5 41/73/5 40/72/5
f 4/10/7 2/5/7 1/2/7
f 6/14/8 8/18/8 7/16/8
f 14/27/9 16/30/9 15/28/9
f 10/21/10 12/24/10 11/23/10
f 26/49/9 32/58/9 31/56/9
f 20/38/8 22/42/8 21/40/8
f 40/72/10 46/83/10 45/82/10
f 42/76/7 36/68/7 35/65/7
f 3/7/6 19/36/6 2/5/6
f 46/83/1 15/28/1 8/17/1
f 15/28/1 16/29/1 8/17/1
f 16/29/1 7/15/1 8/17/1
f 8/17/1 35/64/1 46/83/1
f 35/64/1 36/66/1 46/83/1
f 42/75/2 5/11/2 14/27/2
f 5/11/2 6/13/2 14/27/2
f 6/13/2 13/25/2 14/27/2
f 14/27/2 39/71/2 42/75/2
f 39/71/2 40/72/2 42/75/2
f 15/28/3 46/83/3 39/71/3
f 2/4/2 19/35/2 26/49/2
f 19/35/2 20/37/2 26/49/2
f 20/37/2 25/47/2 26/49/2
f 26/49/2 9/19/2 2/4/2
f 9/19/2 10/20/2 2/4/2
f 12/24/1 31/56/1 22/41/1
f 31/56/1 32/57/1 22/41/1
f 32/57/1 21/39/1 22/41/1
f 22/41/1 3/6/1 12/24/1
f 3/6/1 4/8/1 12/24/1
f 7/16/4 16/30/4 13/26/4
f 11/23/5 4/9/5 1/3/5
f 35/65/6 8/18/6 5/12/6
f 31/56/3 12/24/3 9/19/3
f 21/40/4 32/58/4 25/48/4
f 45/82/5 36/67/5 41/73/5
f 4/10/7 3/7/7 2/5/7
f 6/14/8 5/12/8 8/18/8
f 14/27/9 13/26/9 16/30/9
f 10/21/10 9/19/10 12/24/10
f 26/49/9 25/48/9 32/58/9
f 20/38/8 19/36/8 22/42/8
f 40/72/10 39/71/10 46/83/10
f 42/76/7 41/74/7 36/68/7
f 3/7/6 22/42/6 19/36/6
