# Blender 3.4.1
# www.blender.org
mtllib SplitSeesawCol.mtl
o 平面
v -18.029949 0.477604 5.612430
v 18.069395 0.477604 5.556728
v -18.052229 0.477604 -5.648080
v 18.073851 0.477604 -5.654764
v -21.069042 0.477604 -2.687028
v -21.089096 0.477604 2.611274
v 21.028278 0.477604 2.571168
v 21.090664 0.477604 -2.586765
vn -0.0000 1.0000 -0.0000
vt 0.000000 0.000000
vt 1.000000 0.000000
vt 0.000000 1.000000
vt 1.000000 1.000000
vt 0.000000 0.666667
vt 0.000000 0.333333
vt 1.000000 0.333333
vt 1.000000 0.666667
s 0
f 3/3/1 5/5/1 1/1/1
f 6/6/1 1/1/1 5/5/1
f 1/1/1 2/2/1 3/3/1
f 2/2/1 7/7/1 4/4/1
f 7/7/1 8/8/1 4/4/1
f 4/4/1 3/3/1 2/2/1
o 平面.001
v 32.856251 0.481046 5.673081
v 42.568905 0.481046 5.641177
v 32.864758 0.481046 -5.677335
v 42.551888 0.481046 -5.677335
v 29.818947 0.481046 -2.653189
v 29.795549 0.481046 2.644681
v 45.542400 0.481046 2.606395
v 45.546654 0.481046 -2.638300
vn -0.0000 1.0000 -0.0000
vt 0.000000 0.000000
vt 1.000000 0.000000
vt 0.000000 1.000000
vt 1.000000 1.000000
vt 0.000000 0.666667
vt 0.000000 0.333333
vt 1.000000 0.333333
vt 1.000000 0.666667
s 0
f 11/11/2 13/13/2 9/9/2
f 14/14/2 9/9/2 13/13/2
f 9/9/2 10/10/2 11/11/2
f 10/10/2 15/15/2 12/12/2
f 15/15/2 16/16/2 12/12/2
f 12/12/2 11/11/2 10/10/2
o 平面.002
v -42.565990 0.481046 5.673081
v -32.853333 0.481046 5.641177
v -42.557480 0.481046 -5.677335
v -32.870350 0.481046 -5.677335
v -45.603287 0.481046 -2.653189
v -45.626690 0.481046 2.644681
v -29.879839 0.481046 2.606395
v -29.875586 0.481046 -2.638300
vn -0.0000 1.0000 -0.0000
vt 0.000000 0.000000
vt 1.000000 0.000000
vt 0.000000 1.000000
vt 1.000000 1.000000
vt 0.000000 0.666667
vt 0.000000 0.333333
vt 1.000000 0.333333
vt 1.000000 0.666667
s 0
f 19/19/3 21/21/3 17/17/3
f 22/22/3 17/17/3 21/21/3
f 17/17/3 18/18/3 19/19/3
f 18/18/3 23/23/3 20/20/3
f 23/23/3 24/24/3 20/20/3
f 20/20/3 19/19/3 18/18/3
