# Blender 3.4.1
# www.blender.org
mtllib GameStage_1(floorCol).mtl
o 平面
v 26.730450 15.326861 35.111629
v 26.889822 15.326861 34.149700
v 21.734690 15.326861 36.246616
v 20.875372 15.326861 34.274612
v 26.448805 15.326861 32.608387
v 25.568438 15.326864 31.661482
v 24.457628 15.326864 31.173315
v 22.769634 15.326864 31.339869
v 21.408998 15.326861 32.413120
v 22.843704 15.326861 36.969173
v 24.361917 15.326861 37.088703
v 25.350327 15.326861 36.747345
v 25.998455 15.326861 36.293995
v 26.461367 15.326861 35.681278
vn -0.0000 1.0000 -0.0000
vt 0.000000 0.000000
vt 1.000000 0.000000
vt 0.000000 1.000000
vt 1.000000 1.000000
vt 1.000000 0.166667
vt 1.000000 0.333333
vt 1.000000 0.500000
vt 1.000000 0.666667
vt 1.000000 0.833333
vt 0.000000 0.833333
vt 0.000000 0.666667
vt 0.000000 0.500000
vt 0.000000 0.333333
vt 0.000000 0.166667
s 0
f 8/8/1 4/4/1 5/5/1
f 14/14/1 1/1/1 2/2/1
f 2/2/1 5/5/1 14/14/1
f 5/5/1 6/6/1 8/8/1
f 14/14/1 5/5/1 12/12/1
f 6/6/1 7/7/1 8/8/1
f 8/8/1 9/9/1 4/4/1
f 4/4/1 3/3/1 11/11/1
f 3/3/1 10/10/1 11/11/1
f 11/11/1 12/12/1 5/5/1
f 4/4/1 11/11/1 5/5/1
f 12/12/1 13/13/1 14/14/1
o 平面.001
v 19.135702 16.663778 5.729558
v 19.094303 16.663778 4.580529
v 17.997875 16.663778 5.750016
v 17.955502 16.663778 4.612188
v 18.570442 16.663773 5.976501
v 19.361214 16.663778 5.148713
v 18.537809 16.663778 4.370117
v 17.869778 16.663778 5.194496
vn -0.0000 1.0000 -0.0000
vt 0.000000 0.000000
vt 1.000000 0.000000
vt 0.000000 1.000000
vt 1.000000 1.000000
vt 0.000000 0.500000
vt 0.500000 0.000000
vt 1.000000 0.500000
vt 0.500000 1.000000
s 0
f 22/22/2 17/17/2 19/19/2
f 19/19/2 15/15/2 22/22/2
f 15/15/2 20/20/2 22/22/2
f 20/20/2 16/16/2 22/22/2
f 16/16/2 21/21/2 22/22/2
f 21/21/2 18/18/2 22/22/2
o 平面.002
v 29.648771 15.145803 8.072746
v 29.815613 15.121225 9.776511
v 29.862143 15.145147 8.066474
v 30.087212 15.121225 9.732204
vn 0.0035 0.9999 0.0141
vn 0.0023 0.9999 0.0141
vt 0.000000 0.000000
vt 1.000000 0.000000
vt 0.000000 1.000000
vt 1.000000 1.000000
s 0
f 24/24/3 25/25/3 23/23/3
f 24/24/4 26/26/4 25/25/4
o 平面.003
v -28.337782 17.190449 -34.252464
v -28.443552 17.190449 -35.303593
v -29.379873 17.190449 -34.166561
v -29.485876 17.190449 -35.207363
v -28.841509 17.190449 -33.992683
v -28.165281 17.190449 -34.798367
v -28.966227 17.190449 -35.463684
v -29.530111 17.190449 -34.668373
vn -0.0000 1.0000 -0.0000
vt 0.000000 0.000000
vt 1.000000 0.000000
vt 0.000000 1.000000
vt 1.000000 1.000000
vt 0.000000 0.500000
vt 0.500000 0.000000
vt 1.000000 0.500000
vt 0.500000 1.000000
s 0
f 34/34/5 29/29/5 31/31/5
f 31/31/5 27/27/5 34/34/5
f 27/27/5 32/32/5 34/34/5
f 32/32/5 28/28/5 34/34/5
f 28/28/5 33/33/5 34/34/5
f 33/33/5 30/30/5 34/34/5
o 平面.004
v -12.303770 15.638421 -64.070374
v -6.557783 17.268869 -70.284821
v -15.813101 15.673303 -61.886047
v -6.372303 18.478987 -72.416092
vn 0.3199 0.8042 0.5010
vn 0.2985 0.8186 0.4908
vt 0.000000 0.000000
vt 1.000000 0.000000
vt 0.000000 1.000000
vt 1.000000 1.000000
s 0
f 35/35/6 38/38/6 37/37/6
f 35/35/7 36/36/7 38/38/7
o 平面.005
v 15.923141 15.665927 -123.648331
v 15.930104 15.662011 -131.976562
v 3.526049 15.664677 -129.661484
v 3.526049 15.662011 -131.982132
v 13.428633 15.665300 -123.753952
v 13.403444 15.664990 -129.652267
vn -0.0000 1.0000 -0.0011
vn -0.0002 1.0000 -0.0001
vn 0.0007 1.0000 -0.0005
vn -0.0000 1.0000 -0.0013
vt 0.000000 0.000000
vt 1.000000 0.000000
vt 0.000000 1.000000
vt 1.000000 1.000000
vt 0.000000 0.500000
vt 0.000000 0.750000
s 0
f 42/42/8 41/41/8 44/44/8
f 43/43/9 39/39/9 44/44/9
f 39/39/10 40/40/10 44/44/10
f 40/40/11 42/42/11 44/44/11
o 平面.006
v -14.832624 15.671187 -64.934235
v -8.335508 17.659843 -71.488297
v -15.815115 15.675525 -61.884995
v -7.630476 18.105440 -71.013275
vn -0.4184 0.8980 -0.1361
vn -0.4417 0.8808 -0.1706
vt 0.000000 0.000000
vt 1.000000 0.000000
vt 0.000000 1.000000
vt 1.000000 1.000000
s 0
f 45/45/12 47/47/12 48/48/12
f 45/45/13 48/48/13 46/46/13
o 平面.007
v -8.290583 16.583048 -68.469193
v 1.289896 25.965429 -79.096916
v -9.938253 16.583048 -69.940735
v 0.208305 25.935938 -80.131813
vn -0.3635 0.8379 0.4071
vn -0.3913 0.8358 0.3851
vt 0.000000 0.000000
vt 1.000000 0.000000
vt 0.000000 1.000000
vt 1.000000 1.000000
s 0
f 49/49/14 52/52/14 51/51/14
f 49/49/15 50/50/15 52/52/15
o 平面.008
v 1.304911 25.923365 -79.062828
v 2.052031 25.658735 -79.824471
v 0.207289 25.923365 -80.139488
v 0.954409 25.658735 -80.901146
vn 0.1686 0.9706 -0.1719
vt 0.000000 0.000000
vt 1.000000 0.000000
vt 0.000000 1.000000
vt 1.000000 1.000000
s 0
f 54/54/16 55/55/16 53/53/16
f 54/54/16 56/56/16 55/55/16
o 平面.018
v 31.154383 15.044615 39.965366
v 31.168291 15.044638 -4.139579
v 16.555517 15.044615 39.832470
v 16.573624 15.044638 -4.072870
v 28.189901 15.044638 -7.053378
v 19.530642 15.044638 -7.039553
v 30.928053 15.044638 -5.213598
v 30.284880 15.044638 -6.183947
v 29.315491 15.044638 -6.826005
v 18.416529 15.044638 -6.825076
v 17.452269 15.044638 -6.185412
v 16.794937 15.044638 -5.218961
v 16.721251 15.044615 40.678623
v 17.146803 15.044615 41.277584
v 17.750780 15.044615 41.690922
v 18.473036 15.044615 41.827038
v 29.249382 15.044615 41.853947
v 31.012552 15.044615 40.657471
v 29.994019 15.044615 41.691166
v 30.597635 15.044615 41.284901
vn -0.0000 1.0000 -0.0000
vt 0.000000 0.000000
vt 0.940721 0.000000
vt 0.040739 1.000000
vt 0.941644 1.000000
vt 1.000000 0.206020
vt 1.000000 0.797806
vt 0.955540 0.051505
vt 0.970360 0.103010
vt 0.985180 0.154515
vt 0.985411 0.848355
vt 0.970822 0.898903
vt 0.956233 0.949452
vt 0.000000 0.857143
vt 0.000000 0.714286
vt 0.000000 0.571429
vt 0.000000 0.428571
vt 0.000000 0.285714
vt 0.000000 0.142857
vt 0.000000 0.238095
vt 0.000000 0.190476
s 0
f 59/59/17 70/70/17 72/72/17
f 74/74/17 57/57/17 75/75/17
f 57/57/17 58/58/17 59/59/17
f 58/58/17 63/63/17 61/61/17
f 63/63/17 64/64/17 65/65/17
f 61/61/17 63/63/17 65/65/17
f 61/61/17 62/62/17 60/60/17
f 62/62/17 66/66/17 67/67/17
f 60/60/17 62/62/17 67/67/17
f 67/67/17 68/68/17 60/60/17
f 60/60/17 59/59/17 58/58/17
f 59/59/17 69/69/17 70/70/17
f 70/70/17 71/71/17 72/72/17
f 72/72/17 73/73/17 59/59/17
f 73/73/17 75/75/17 57/57/17
f 75/75/17 76/76/17 74/74/17
f 57/57/17 59/59/17 73/73/17
f 58/58/17 61/61/17 60/60/17
o 平面.024
v -17.364157 30.865261 -124.003044
v -17.236021 30.865267 -141.775131
v -33.193794 30.865858 -123.997543
v -33.194382 30.858335 -141.788864
v -33.505871 30.865242 -141.689957
v -33.685558 30.886230 -141.461273
v -33.713371 30.898651 -141.289841
v -33.721619 30.860498 -124.316086
v -33.575211 30.862785 -123.948753
v -33.404461 30.859018 -123.839806
v -17.164663 30.865261 -123.814171
v -17.072975 30.865261 -123.907967
v -17.096281 30.865261 -124.252655
v -17.090878 30.865267 -141.644745
v -33.522915 30.838552 -124.285545
vn -0.0052 0.9963 -0.0859
vn -0.0000 1.0000 -0.0000
vn -0.0004 1.0000 0.0005
vn -0.0004 1.0000 -0.0004
vn 0.0770 0.9970 -0.0004
vn 0.0309 0.9973 -0.0672
vn -0.0115 0.9999 0.0022
vn -0.0084 1.0000 -0.0029
vn -0.0030 0.9992 0.0393
vt 0.000000 0.000000
vt 1.000000 0.000000
vt 0.000000 1.000000
vt 1.000000 1.000000
vt 0.777778 1.000000
vt 0.666667 1.000000
vt 0.555556 1.000000
vt 0.444444 1.000000
vt 0.333333 1.000000
vt 0.222222 1.000000
vt 0.166667 0.000000
vt 0.333333 0.000000
vt 0.500000 0.000000
vt 0.833333 0.000000
s 0
f 81/81/18 83/83/18 80/80/18
f 79/79/19 77/77/19 90/90/19
f 77/77/19 87/87/19 88/88/19
f 89/89/19 77/77/19 88/88/19
f 89/89/19 90/90/19 77/77/19
f 90/90/20 78/78/20 80/80/20
f 79/79/21 90/90/21 80/80/21
f 79/79/22 80/80/22 83/83/22
f 81/81/23 82/82/23 83/83/23
f 83/83/24 84/84/24 79/79/24
f 84/84/25 85/85/25 79/79/25
f 85/85/26 86/86/26 79/79/26
l 85 91
o 平面.025
v 56.249474 43.496586 -148.677155
v 57.983475 43.496597 -155.255539
v 51.433350 43.496586 -148.683456
v 50.367287 43.496597 -156.677246
v 49.982056 43.496597 -156.287094
v 49.731010 43.496597 -155.804062
v 49.645111 43.496597 -155.269394
v 49.642723 43.496586 -150.478409
v 49.725723 43.496586 -149.934372
v 49.976692 43.496586 -149.425049
v 50.374977 43.496586 -149.026459
v 50.895248 43.496586 -148.772385
v 57.897568 43.496597 -155.787582
v 57.644318 43.496597 -156.293015
v 57.244843 43.496597 -156.687424
v 56.755207 43.496597 -156.927536
v 56.210152 43.496597 -157.033600
v 51.429474 43.496597 -157.026688
v 50.880367 43.496597 -156.936417
v 56.785988 43.496586 -148.779160
v 57.254936 43.496586 -149.028458
v 57.640114 43.496586 -149.408813
v 57.932053 43.496586 -150.068893
vn -0.0000 1.0000 -0.0000
vt 0.000000 0.000000
vt 1.000000 0.000000
vt 0.000000 1.000000
vt 1.000000 1.000000
vt 0.888889 1.000000
vt 0.777778 1.000000
vt 0.666667 1.000000
vt 0.555556 1.000000
vt 0.444444 1.000000
vt 0.333333 1.000000
vt 0.222222 1.000000
vt 0.111111 1.000000
vt 1.000000 0.125000
vt 1.000000 0.250000
vt 1.000000 0.375000
vt 1.000000 0.500000
vt 1.000000 0.625000
vt 1.000000 0.750000
vt 1.000000 0.875000
vt 0.200000 0.000000
vt 0.400000 0.000000
vt 0.600000 0.000000
vt 0.800000 0.000000
s 0
f 94/93/27 93/92/27 99/98/27
f 94/93/27 92/91/27 93/92/27
f 92/91/27 111/110/27 114/113/27
f 93/92/27 92/91/27 114/113/27
f 111/110/27 112/111/27 114/113/27
f 112/111/27 113/112/27 114/113/27
f 93/92/27 104/103/27 107/106/27
f 104/103/27 105/104/27 107/106/27
f 105/104/27 106/105/27 107/106/27
f 107/106/27 108/107/27 93/92/27
f 108/107/27 109/108/27 93/92/27
f 109/108/27 110/109/27 98/97/27
f 110/109/27 95/94/27 96/95/27
f 98/97/27 110/109/27 96/95/27
f 96/95/27 97/96/27 98/97/27
f 98/97/27 99/98/27 109/108/27
f 99/98/27 100/99/27 103/102/27
f 100/99/27 101/100/27 103/102/27
f 101/100/27 102/101/27 103/102/27
f 103/102/27 94/93/27 99/98/27
f 93/92/27 109/108/27 99/98/27
o 平面.026
v 15.126889 35.435154 -122.750282
v 16.231470 35.435165 -140.737732
v -16.127069 35.435154 -122.607552
v -18.183657 35.435165 -140.627548
v -18.526037 35.435154 -125.109947
v -17.839094 35.435154 -123.322807
v 16.645599 35.435154 -124.132011
v 16.780815 35.435154 -125.039055
v 16.822216 35.435165 -138.811615
v 16.526217 35.435165 -140.385635
vn -0.0000 1.0000 -0.0000
vt 0.000000 0.000000
vt 1.000000 0.000000
vt 0.000000 1.000000
vt 1.000000 1.000000
vt 0.333333 1.000000
vt 0.166667 1.000000
vt 0.166667 0.000000
vt 0.333333 0.000000
vt 0.666667 0.000000
vt 0.833333 0.000000
s 0
f 119/118/28 120/119/28 117/116/28
f 117/116/28 115/114/28 123/122/28
f 115/114/28 121/120/28 122/121/28
f 123/122/28 115/114/28 122/121/28
f 123/122/28 124/123/28 116/115/28
f 116/115/28 118/117/28 123/122/28
f 118/117/28 119/118/28 117/116/28
f 123/122/28 118/117/28 117/116/28
o 平面.027
v 15.936818 39.869537 -140.594574
v 15.948995 39.869560 -184.816757
v -17.650198 39.869537 -140.377258
v -17.539938 39.869560 -184.830551
vn -0.0000 1.0000 -0.0000
vt 0.000000 0.000000
vt 1.000000 0.000000
vt 0.000000 1.000000
vt 1.000000 1.000000
s 0
f 125/124/29 128/127/29 127/126/29
f 125/124/29 126/125/29 128/127/29
o 平面.028
v 25.657194 51.108231 -233.272034
v 25.790125 51.108253 -281.618256
v -26.846132 51.108231 -233.441238
v -26.616514 51.108253 -281.449066
vn -0.0000 1.0000 -0.0000
vt 0.000000 0.000000
vt 1.000000 0.000000
vt 0.000000 1.000000
vt 1.000000 1.000000
s 0
f 129/128/30 132/131/30 131/130/30
f 129/128/30 130/129/30 132/131/30
o 平面.029
v -41.288528 49.646168 -250.398621
v -33.520203 49.646168 -261.306763
v -74.007126 49.646168 -260.549683
v -52.718254 49.646179 -285.542236
v -70.000656 49.646168 -251.653412
v -60.397041 49.646156 -244.237549
v -47.973717 49.646156 -241.967682
v -35.986046 49.646179 -272.881714
v -41.440796 49.646179 -279.564453
v -63.240501 49.646179 -280.031097
v -70.520065 49.646179 -272.842224
vn -0.0000 1.0000 -0.0000
vt 0.000000 0.000000
vt 1.000000 0.000000
vt 0.000000 1.000000
vt 1.000000 1.000000
vt 0.000000 0.750000
vt 0.000000 0.500000
vt 0.000000 0.250000
vt 1.000000 0.333333
vt 1.000000 0.666667
vt 0.666667 1.000000
vt 0.333333 1.000000
s 0
f 142/141/31 133/132/31 141/140/31
f 139/138/31 133/132/31 138/137/31
f 133/132/31 134/133/31 140/139/31
f 138/137/31 133/132/31 137/136/31
f 140/139/31 141/140/31 133/132/31
f 141/140/31 136/135/31 142/141/31
f 142/141/31 143/142/31 133/132/31
f 143/142/31 135/134/31 137/136/31
f 143/142/31 137/136/31 133/132/31
o 平面.030
v -20.848536 24.311981 -53.698631
v -20.850698 24.311981 -60.562866
v -30.739859 24.311981 -53.716316
v -30.753843 24.311981 -60.504311
v -30.467886 24.311981 -52.833412
v -29.631979 24.311975 -52.241501
v -29.109621 24.311975 -52.161636
v -22.494562 24.311975 -52.160721
v -21.915808 24.311975 -52.234245
v -21.145323 24.311981 -52.833351
v -21.121454 24.311981 -61.402855
v -21.929068 24.311981 -61.981178
v -22.513365 24.311981 -62.076775
v -29.115992 24.311981 -62.073975
v -29.679991 24.311981 -61.971069
v -30.440233 24.311981 -61.385437
vn -0.0000 1.0000 -0.0000
vt 0.000000 0.000000
vt 1.000000 0.000000
vt 0.000000 1.000000
vt 1.000000 1.000000
vt 0.000000 0.857143
vt 0.000000 0.714286
vt 0.000000 0.571429
vt 0.000000 0.428571
vt 0.000000 0.285714
vt 0.000000 0.142857
vt 1.000000 0.125000
vt 1.000000 0.250000
vt 1.000000 0.375000
vt 1.000000 0.625000
vt 1.000000 0.750000
vt 1.000000 0.875000
s 0
f 157/156/32 146/145/32 150/149/32
f 153/152/32 144/143/32 151/150/32
f 144/143/32 145/144/32 156/155/32
f 151/150/32 144/143/32 156/155/32
f 145/144/32 154/153/32 155/154/32
f 155/154/32 156/155/32 145/144/32
f 156/155/32 157/156/32 150/149/32
f 157/156/32 158/157/32 159/158/32
f 159/158/32 147/146/32 157/156/32
f 147/146/32 146/145/32 157/156/32
f 146/145/32 148/147/32 149/148/32
f 149/148/32 150/149/32 146/145/32
f 150/149/32 151/150/32 156/155/32
f 151/150/32 152/151/32 153/152/32
o 盛山４.001
v 29.898823 15.671560 -20.098925
v 18.118114 15.671612 -121.058624
v -37.246796 15.671564 -22.788675
v -37.205452 15.671612 -121.191360
v 18.094893 15.671569 -35.716660
v 29.846533 15.671569 -35.741894
v 31.001385 15.671560 -20.324644
v 31.966782 15.671564 -21.004728
v 32.584118 15.671564 -21.947149
v 32.831100 15.671564 -23.100466
v 32.822788 15.671566 -31.801882
v 31.938152 15.671569 -34.851513
v 30.986647 15.671569 -35.502457
v -37.004532 15.671564 -21.734514
v -36.460213 15.671564 -20.899561
v -35.574081 15.671560 -20.298700
v -34.514320 15.671560 -20.081568
v 17.897316 15.671612 -122.095444
v 17.320850 15.671612 -122.973709
v 16.446289 15.671612 -123.552170
v -34.517029 15.671612 -124.287430
v -35.536087 15.671612 -123.575302
v -36.432373 15.671612 -122.950089
v -37.003159 15.671612 -122.109253
v 15.395433 15.671612 -124.294266
vn -0.0000 1.0000 -0.0000
vn -0.0000 -1.0000 -0.0000
vt 0.000000 0.000000
vt 0.000000 0.000000
vt 0.000000 0.000000
vt 0.000000 0.000000
vt 0.000000 0.000000
vt 0.000000 0.000000
vt 0.000000 0.000000
vt 0.000000 0.000000
vt 0.000000 0.000000
vt 0.000000 0.000000
vt 0.000000 0.000000
vt 0.000000 0.000000
vt 0.000000 0.000000
vt 0.000000 0.000000
vt 0.000000 0.000000
vt 0.000000 0.000000
vt 0.000000 0.000000
vt 0.000000 0.000000
vt 0.000000 0.000000
vt 0.000000 0.000000
vt 0.000000 0.000000
vt 0.000000 0.000000
vt 0.000000 0.000000
vt 0.000000 0.000000
vt 0.000000 0.000000
s 0
f 180/179/33 182/181/33 163/162/33
f 176/175/33 160/159/33 164/163/33
f 160/159/33 166/165/33 167/166/33
f 164/163/33 160/159/33 170/169/33
f 167/166/33 168/167/33 160/159/33
f 168/167/33 169/168/33 160/159/33
f 169/168/33 170/169/33 160/159/33
f 170/169/33 171/170/33 165/164/33
f 171/170/33 172/171/33 165/164/33
f 165/164/33 164/163/33 170/169/33
f 164/163/33 161/160/33 163/162/33
f 161/160/33 177/176/33 184/183/33
f 163/162/33 161/160/33 180/179/33
f 177/176/33 178/177/33 179/178/33
f 179/178/33 184/183/33 177/176/33
f 184/183/33 180/179/33 161/160/33
f 180/179/34 181/180/34 182/181/34
f 182/181/33 183/182/33 163/162/33
f 163/162/33 162/161/33 164/163/33
f 162/161/33 173/172/33 176/175/33
f 164/163/33 162/161/33 176/175/33
f 173/172/33 174/173/33 175/174/33
f 175/174/33 176/175/33 173/172/33
