# Blender 3.4.1
# www.blender.org
mtllib GameStage_1(RotationgObjectCol).mtl
o 平面
v -8.555953 0.158309 1.605718
v -0.257726 0.158309 1.676797
v -8.548227 0.158309 -1.614989
v -0.239184 0.158309 -1.553181
vn -0.0000 1.0000 -0.0000
vt 0.000000 0.000000
vt 1.000000 0.000000
vt 0.000000 1.000000
vt 1.000000 1.000000
s 0
f 1/1/1 4/4/1 3/3/1
f 1/1/1 2/2/1 4/4/1
o 平面.001
v 0.248977 0.158309 1.695505
v 8.529245 0.158309 1.771073
v 0.256702 0.158309 -1.614989
v 8.565745 0.158309 -1.553181
vn -0.0000 1.0000 -0.0000
vt 0.000000 0.000000
vt 1.000000 0.000000
vt 0.000000 1.000000
vt 1.000000 1.000000
s 0
f 5/5/2 8/8/2 7/7/2
f 5/5/2 6/6/2 8/8/2
