# Blender 3.4.1
# www.blender.org
mtllib Stage2(FloorCol).mtl
o 平面.001
v -35.999443 -0.169927 -3.326957
v 36.267967 -0.169927 -3.109577
v -7.056083 -0.169927 -29.433325
v 6.909033 -0.169927 -29.471684
v 0.000000 -0.169927 -29.746605
v -23.711145 -0.169927 -15.843087
v 22.007277 -0.169927 -17.307198
v 0.079919 -0.169927 0.064794
v -34.467773 -0.169927 -0.064675
v 34.336704 -0.169927 -0.090248
v -36.512306 -0.169927 -1.293025
v 36.389233 -0.169927 -1.165155
v -12.807034 -0.169927 -26.749228
v 13.010028 -0.169927 -26.426353
vn -0.0000 1.0000 -0.0000
vt 0.000000 0.000000
vt 1.000000 0.000000
vt 0.000000 1.000000
vt 1.000000 1.000000
vt 0.500000 1.000000
vt 0.000000 0.500000
vt 1.000000 0.500000
vt 0.500000 0.000000
vt 0.250000 0.000000
vt 0.750000 0.000000
vt 0.125000 0.000000
vt 0.875000 0.000000
vt 0.000000 0.750000
vt 1.000000 0.750000
s 0
f 13/13/1 6/6/1 8/8/1
f 6/6/1 1/1/1 9/9/1
f 1/1/1 11/11/1 9/9/1
f 9/9/1 8/8/1 6/6/1
f 8/8/1 10/10/1 7/7/1
f 10/10/1 12/12/1 2/2/1
f 7/7/1 10/10/1 2/2/1
f 7/7/1 14/14/1 8/8/1
f 14/14/1 4/4/1 8/8/1
f 4/4/1 5/5/1 8/8/1
f 5/5/1 3/3/1 8/8/1
f 3/3/1 13/13/1 8/8/1
o 平面.002
v -13.799570 1.166865 -109.635445
v 13.727211 1.166865 -109.635445
v -13.649682 1.166865 -131.569778
v 13.815077 1.166865 -131.554276
v -18.735596 1.166865 -120.695656
v 0.000000 1.166865 -104.585716
v 18.813124 1.166865 -120.607788
v -0.041349 1.166865 -136.686722
vn -0.0000 1.0000 -0.0000
vt 0.000000 0.000000
vt 1.000000 0.000000
vt 0.000000 1.000000
vt 1.000000 1.000000
vt 0.000000 0.500000
vt 0.500000 0.000000
vt 1.000000 0.500000
vt 0.500000 1.000000
s 0
f 17/17/2 19/19/2 15/15/2
f 15/15/2 20/20/2 17/17/2
f 20/20/2 16/16/2 22/22/2
f 22/22/2 16/16/2 18/18/2
f 16/16/2 21/21/2 18/18/2
f 22/22/2 17/17/2 20/20/2
o 平面.003
v 127.390495 0.687138 -112.371918
v 127.390495 0.687138 -128.803772
v 114.296997 0.687138 -112.461395
v 114.306252 0.687138 -128.856216
v 120.788216 0.687138 -109.425407
v 130.404907 0.687138 -120.609444
v 120.840660 0.687138 -131.839752
v 111.242493 0.687138 -120.584763
vn -0.0000 1.0000 -0.0000
vt 0.000000 0.000000
vt 1.000000 0.000000
vt 0.000000 1.000000
vt 1.000000 1.000000
vt 0.000000 0.500000
vt 0.500000 0.000000
vt 1.000000 0.500000
vt 0.500000 1.000000
s 0
f 25/25/3 27/27/3 23/23/3
f 23/23/3 28/28/3 25/25/3
f 28/28/3 24/24/3 30/30/3
f 30/30/3 24/24/3 26/26/3
f 24/24/3 29/29/3 26/26/3
f 30/30/3 25/25/3 28/28/3
o 平面.004
v 35.999443 -0.169927 -396.611908
v -36.267971 -0.169927 -396.829285
v 7.056090 -0.169927 -370.505554
v -6.909026 -0.169927 -370.467163
v 0.000007 -0.169927 -370.192230
v 23.711147 -0.169927 -384.095764
v -22.007273 -0.169927 -382.631683
v -0.079922 -0.169927 -400.003662
v 34.467773 -0.169927 -399.874176
v -34.336704 -0.169927 -399.848602
v 36.512306 -0.169927 -398.645844
v -36.389233 -0.169927 -398.773712
v 12.807039 -0.169927 -373.189636
v -13.010022 -0.169927 -373.512482
vn -0.0000 1.0000 -0.0000
vt 0.000000 0.000000
vt 1.000000 0.000000
vt 0.000000 1.000000
vt 1.000000 1.000000
vt 0.500000 1.000000
vt 0.000000 0.500000
vt 1.000000 0.500000
vt 0.500000 0.000000
vt 0.250000 0.000000
vt 0.750000 0.000000
vt 0.125000 0.000000
vt 0.875000 0.000000
vt 0.000000 0.750000
vt 1.000000 0.750000
s 0
f 43/43/4 36/36/4 38/38/4
f 36/36/4 31/31/4 39/39/4
f 31/31/4 41/41/4 39/39/4
f 39/39/4 38/38/4 36/36/4
f 38/38/4 40/40/4 37/37/4
f 40/40/4 42/42/4 32/32/4
f 37/37/4 40/40/4 32/32/4
f 37/37/4 44/44/4 38/38/4
f 44/44/4 34/34/4 38/38/4
f 34/34/4 35/35/4 38/38/4
f 35/35/4 33/33/4 38/38/4
f 33/33/4 43/43/4 38/38/4
