# Blender 3.4.1
# www.blender.org
mtllib Stage2(FloorCol).mtl
o 平面
v -36.562908 -17.637676 -29.849184
v 36.436199 -17.637676 -29.916761
v -36.410858 -17.637665 -104.402550
v 36.596695 -17.637665 -104.427895
vn -0.0000 1.0000 -0.0000
vt 0.000000 0.000000
vt 1.000000 0.000000
vt 0.000000 1.000000
vt 1.000000 1.000000
s 0
f 2/2/1 3/3/1 1/1/1
f 2/2/1 4/4/1 3/3/1
o 平面.001
v -35.999443 -0.169925 -3.326957
v 36.267967 -0.169925 -3.109577
v -7.056083 -0.169917 -29.433325
v 6.909033 -0.169917 -29.471684
v 0.000000 -0.169917 -29.746605
v -23.711145 -0.169921 -15.843087
v 22.007277 -0.169921 -17.307198
v 0.079919 -0.169927 0.064794
v -34.467773 -0.169927 -0.064675
v 34.336704 -0.169927 -0.090248
v -36.512306 -0.169927 -1.293025
v 36.389233 -0.169927 -1.165155
v -12.807034 -0.169919 -26.749228
v 13.010028 -0.169919 -26.426353
vn -0.0000 1.0000 -0.0000
vt 0.000000 0.000000
vt 1.000000 0.000000
vt 0.000000 1.000000
vt 1.000000 1.000000
vt 0.500000 1.000000
vt 0.000000 0.500000
vt 1.000000 0.500000
vt 0.500000 0.000000
vt 0.250000 0.000000
vt 0.750000 0.000000
vt 0.125000 0.000000
vt 0.875000 0.000000
vt 0.000000 0.750000
vt 1.000000 0.750000
s 0
f 17/17/2 10/10/2 12/12/2
f 10/10/2 5/5/2 13/13/2
f 5/5/2 15/15/2 13/13/2
f 13/13/2 12/12/2 10/10/2
f 12/12/2 14/14/2 11/11/2
f 14/14/2 16/16/2 6/6/2
f 11/11/2 14/14/2 6/6/2
f 11/11/2 18/18/2 12/12/2
f 18/18/2 8/8/2 12/12/2
f 8/8/2 9/9/2 12/12/2
f 9/9/2 7/7/2 12/12/2
f 7/7/2 17/17/2 12/12/2
o 平面.002
v -13.799570 1.166901 -109.635445
v 13.727211 1.166901 -109.635445
v -13.649682 1.166907 -131.569778
v 13.815077 1.166907 -131.554276
v -18.735596 1.166905 -120.695656
v 0.000000 1.166899 -104.585716
v 18.813124 1.166905 -120.607788
v -0.041349 1.166909 -136.686722
vn -0.0000 1.0000 -0.0000
vt 0.000000 0.000000
vt 1.000000 0.000000
vt 0.000000 1.000000
vt 1.000000 1.000000
vt 0.000000 0.500000
vt 0.500000 0.000000
vt 1.000000 0.500000
vt 0.500000 1.000000
s 0
f 21/21/3 23/23/3 19/19/3
f 19/19/3 24/24/3 21/21/3
f 24/24/3 20/20/3 26/26/3
f 26/26/3 20/20/3 22/22/3
f 20/20/3 25/25/3 22/22/3
f 26/26/3 21/21/3 24/24/3
o 平面.003
v 127.390495 0.687174 -112.371918
v 127.390495 0.687180 -128.803772
v 114.296997 0.687174 -112.461395
v 114.306252 0.687180 -128.856216
v 120.788216 0.687174 -109.425407
v 130.404907 0.687178 -120.609444
v 120.840660 0.687180 -131.839752
v 111.242493 0.687178 -120.584763
vn -0.0000 1.0000 -0.0000
vt 0.000000 0.000000
vt 1.000000 0.000000
vt 0.000000 1.000000
vt 1.000000 1.000000
vt 0.000000 0.500000
vt 0.500000 0.000000
vt 1.000000 0.500000
vt 0.500000 1.000000
s 0
f 29/29/4 31/31/4 27/27/4
f 27/27/4 32/32/4 29/29/4
f 32/32/4 28/28/4 34/34/4
f 34/34/4 28/28/4 30/30/4
f 28/28/4 33/33/4 30/30/4
f 34/34/4 29/29/4 32/32/4
o 平面.004
v 35.999443 -0.169797 -396.611908
v -36.267971 -0.169797 -396.829285
v 7.056090 -0.169807 -370.505554
v -6.909026 -0.169807 -370.467163
v 0.000007 -0.169807 -370.192230
v 23.711147 -0.169801 -384.095764
v -22.007273 -0.169803 -382.631683
v -0.079922 -0.169797 -400.003662
v 34.467773 -0.169797 -399.874176
v -34.336704 -0.169797 -399.848602
v 36.512306 -0.169797 -398.645844
v -36.389233 -0.169797 -398.773712
v 12.807039 -0.169805 -373.189636
v -13.010022 -0.169805 -373.512482
vn -0.0000 1.0000 -0.0000
vt 0.000000 0.000000
vt 1.000000 0.000000
vt 0.000000 1.000000
vt 1.000000 1.000000
vt 0.500000 1.000000
vt 0.000000 0.500000
vt 1.000000 0.500000
vt 0.500000 0.000000
vt 0.250000 0.000000
vt 0.750000 0.000000
vt 0.125000 0.000000
vt 0.875000 0.000000
vt 0.000000 0.750000
vt 1.000000 0.750000
s 0
f 47/47/5 40/40/5 42/42/5
f 40/40/5 35/35/5 43/43/5
f 35/35/5 45/45/5 43/43/5
f 43/43/5 42/42/5 40/40/5
f 42/42/5 44/44/5 41/41/5
f 44/44/5 46/46/5 36/36/5
f 41/41/5 44/44/5 36/36/5
f 41/41/5 48/48/5 42/42/5
f 48/48/5 38/38/5 42/42/5
f 38/38/5 39/39/5 42/42/5
f 39/39/5 37/37/5 42/42/5
f 37/37/5 47/47/5 42/42/5
o 円.001
v 28.459314 -0.227952 -29.864231
v 27.552223 -0.227952 -29.774891
v 26.679993 -0.227952 -29.510302
v 25.876139 -0.227952 -29.080633
v 25.171556 -0.227952 -28.502396
v 24.593319 -0.227952 -27.797812
v 24.163649 -0.227952 -26.993958
v 23.899061 -0.227952 -26.121727
v 23.809721 -0.227952 -25.214636
v 23.899061 -0.227952 -24.307545
v 24.163649 -0.227952 -23.435314
v 24.593319 -0.227952 -22.631460
v 25.171556 -0.227952 -21.926878
v 25.876139 -0.227952 -21.348640
v 26.679993 -0.227952 -20.918970
v 27.552223 -0.227952 -20.654383
v 28.459314 -0.227952 -20.565042
v 29.366405 -0.227952 -20.654383
v 30.238636 -0.227952 -20.918970
v 31.042490 -0.227952 -21.348640
v 31.747074 -0.227952 -21.926878
v 32.325310 -0.227952 -22.631460
v 32.754978 -0.227952 -23.435314
v 33.019569 -0.227952 -24.307545
v 33.108910 -0.227952 -25.214636
v 33.019569 -0.227952 -26.121727
v 32.754978 -0.227952 -26.993958
v 32.325310 -0.227952 -27.797812
v 31.747074 -0.227952 -28.502396
v 31.042490 -0.227952 -29.080633
v 30.238636 -0.227952 -29.510302
v 29.366405 -0.227952 -29.774891
vn -0.0000 1.0000 -0.0000
vt 0.000000 0.000000
vt 0.000000 0.000000
vt 0.000000 0.000000
vt 0.000000 0.000000
vt 0.000000 0.000000
vt 0.000000 0.000000
vt 0.000000 0.000000
vt 0.000000 0.000000
vt 0.000000 0.000000
vt 0.000000 0.000000
vt 0.000000 0.000000
vt 0.000000 0.000000
vt 0.000000 0.000000
vt 0.000000 0.000000
vt 0.000000 0.000000
vt 0.000000 0.000000
vt 0.000000 0.000000
vt 0.000000 0.000000
vt 0.000000 0.000000
vt 0.000000 0.000000
vt 0.000000 0.000000
vt 0.000000 0.000000
vt 0.000000 0.000000
vt 0.000000 0.000000
vt 0.000000 0.000000
vt 0.000000 0.000000
vt 0.000000 0.000000
vt 0.000000 0.000000
vt 0.000000 0.000000
vt 0.000000 0.000000
vt 0.000000 0.000000
vt 0.000000 0.000000
s 0
f 65/65/6 73/73/6 49/49/6
f 49/49/6 50/50/6 53/53/6
f 50/50/6 51/51/6 53/53/6
f 51/51/6 52/52/6 53/53/6
f 53/53/6 54/54/6 55/55/6
f 55/55/6 56/56/6 53/53/6
f 56/56/6 57/57/6 53/53/6
f 57/57/6 58/58/6 61/61/6
f 58/58/6 59/59/6 61/61/6
f 59/59/6 60/60/6 61/61/6
f 61/61/6 62/62/6 63/63/6
f 63/63/6 64/64/6 61/61/6
f 64/64/6 65/65/6 61/61/6
f 65/65/6 66/66/6 69/69/6
f 66/66/6 67/67/6 69/69/6
f 67/67/6 68/68/6 69/69/6
f 69/69/6 70/70/6 71/71/6
f 71/71/6 72/72/6 69/69/6
f 72/72/6 73/73/6 69/69/6
f 73/73/6 74/74/6 77/77/6
f 74/74/6 75/75/6 77/77/6
f 75/75/6 76/76/6 77/77/6
f 77/77/6 78/78/6 79/79/6
f 79/79/6 80/80/6 77/77/6
f 80/80/6 49/49/6 77/77/6
f 49/49/6 53/53/6 57/57/6
f 57/57/6 61/61/6 65/65/6
f 65/65/6 69/69/6 73/73/6
f 73/73/6 77/77/6 49/49/6
f 49/49/6 57/57/6 65/65/6
