# Blender 3.4.1
# www.blender.org
mtllib Stage2(FloorCol).mtl
o 円.001
v 28.459314 -0.227947 -29.864231
v 27.552223 -0.227947 -29.774891
v 26.679993 -0.227947 -29.510302
v 25.876139 -0.227947 -29.080633
v 25.171556 -0.227947 -28.502396
v 24.593319 -0.227947 -27.797812
v 24.163649 -0.227948 -26.993958
v 23.899061 -0.227948 -26.121727
v 23.809721 -0.227948 -25.214636
v 23.899061 -0.227948 -24.307545
v 24.163649 -0.227948 -23.435314
v 24.593319 -0.227948 -22.631460
v 25.171556 -0.227948 -21.926878
v 25.876139 -0.227949 -21.348640
v 26.679993 -0.227949 -20.918970
v 27.552223 -0.227949 -20.654383
v 28.459314 -0.227949 -20.565042
v 29.366405 -0.227949 -20.654383
v 30.238636 -0.227949 -20.918970
v 31.042490 -0.227949 -21.348640
v 31.747074 -0.227948 -21.926878
v 32.325310 -0.227948 -22.631460
v 32.754978 -0.227948 -23.435314
v 33.019569 -0.227948 -24.307545
v 33.108910 -0.227948 -25.214636
v 33.019569 -0.227948 -26.121727
v 32.754978 -0.227948 -26.993958
v 32.325310 -0.227947 -27.797812
v 31.747074 -0.227947 -28.502396
v 31.042490 -0.227947 -29.080633
v 30.238636 -0.227947 -29.510302
v 29.366405 -0.227947 -29.774891
vn -0.0000 1.0000 -0.0000
vt 0.000000 0.000000
vt 0.000000 0.000000
vt 0.000000 0.000000
vt 0.000000 0.000000
vt 0.000000 0.000000
vt 0.000000 0.000000
vt 0.000000 0.000000
vt 0.000000 0.000000
vt 0.000000 0.000000
vt 0.000000 0.000000
vt 0.000000 0.000000
vt 0.000000 0.000000
vt 0.000000 0.000000
vt 0.000000 0.000000
vt 0.000000 0.000000
vt 0.000000 0.000000
vt 0.000000 0.000000
vt 0.000000 0.000000
vt 0.000000 0.000000
vt 0.000000 0.000000
vt 0.000000 0.000000
vt 0.000000 0.000000
vt 0.000000 0.000000
vt 0.000000 0.000000
vt 0.000000 0.000000
vt 0.000000 0.000000
vt 0.000000 0.000000
vt 0.000000 0.000000
vt 0.000000 0.000000
vt 0.000000 0.000000
vt 0.000000 0.000000
vt 0.000000 0.000000
s 0
f 17/17/1 25/25/1 1/1/1
f 1/1/1 2/2/1 5/5/1
f 2/2/1 3/3/1 5/5/1
f 3/3/1 4/4/1 5/5/1
f 5/5/1 6/6/1 7/7/1
f 7/7/1 8/8/1 5/5/1
f 8/8/1 9/9/1 5/5/1
f 9/9/1 10/10/1 13/13/1
f 10/10/1 11/11/1 13/13/1
f 11/11/1 12/12/1 13/13/1
f 13/13/1 14/14/1 15/15/1
f 15/15/1 16/16/1 13/13/1
f 16/16/1 17/17/1 13/13/1
f 17/17/1 18/18/1 21/21/1
f 18/18/1 19/19/1 21/21/1
f 19/19/1 20/20/1 21/21/1
f 21/21/1 22/22/1 23/23/1
f 23/23/1 24/24/1 21/21/1
f 24/24/1 25/25/1 21/21/1
f 25/25/1 26/26/1 29/29/1
f 26/26/1 27/27/1 29/29/1
f 27/27/1 28/28/1 29/29/1
f 29/29/1 30/30/1 31/31/1
f 31/31/1 32/32/1 29/29/1
f 32/32/1 1/1/1 29/29/1
f 1/1/1 5/5/1 9/9/1
f 9/9/1 13/13/1 17/17/1
f 17/17/1 21/21/1 25/25/1
f 25/25/1 29/29/1 1/1/1
f 1/1/1 9/9/1 17/17/1
o 平面
v -36.562908 -17.637671 -29.849188
v 36.436199 -17.637671 -29.916765
v -36.410858 -17.637648 -104.402550
v 36.596695 -17.637648 -104.427895
vn -0.0000 1.0000 -0.0000
vt 0.000000 0.000000
vt 1.000000 0.000000
vt 0.000000 1.000000
vt 1.000000 1.000000
s 0
f 34/34/2 35/35/2 33/33/2
f 34/34/2 36/36/2 35/35/2
o 平面.001
v -35.999443 -0.169924 -3.326957
v 36.267967 -0.169924 -3.109577
v -7.056083 -0.169912 -29.433325
v 6.909033 -0.169912 -29.471684
v 0.000000 -0.169912 -29.746605
v -23.711145 -0.169918 -15.843087
v 22.007277 -0.169918 -17.307198
v 0.079919 -0.169927 0.064794
v -34.467773 -0.169927 -0.064675
v 34.336704 -0.169927 -0.090248
v -36.512306 -0.169927 -1.293025
v 36.389233 -0.169927 -1.165155
v -12.807034 -0.169915 -26.749228
v 13.010028 -0.169915 -26.426353
vn -0.0000 1.0000 -0.0000
vt 0.000000 0.000000
vt 1.000000 0.000000
vt 0.000000 1.000000
vt 1.000000 1.000000
vt 0.500000 1.000000
vt 0.000000 0.500000
vt 1.000000 0.500000
vt 0.500000 0.000000
vt 0.250000 0.000000
vt 0.750000 0.000000
vt 0.125000 0.000000
vt 0.875000 0.000000
vt 0.000000 0.750000
vt 1.000000 0.750000
s 0
f 49/49/3 42/42/3 44/44/3
f 42/42/3 37/37/3 45/45/3
f 37/37/3 47/47/3 45/45/3
f 45/45/3 44/44/3 42/42/3
f 44/44/3 46/46/3 43/43/3
f 46/46/3 48/48/3 38/38/3
f 43/43/3 46/46/3 38/38/3
f 43/43/3 50/50/3 44/44/3
f 50/50/3 40/40/3 44/44/3
f 40/40/3 41/41/3 44/44/3
f 41/41/3 39/39/3 44/44/3
f 39/39/3 49/49/3 44/44/3
o 平面.002
v -13.799570 1.166919 -109.635445
v 13.727211 1.166919 -109.635445
v -13.649682 1.166928 -131.569778
v 13.815077 1.166928 -131.554276
v -18.735596 1.166925 -120.695656
v 0.000000 1.166916 -104.585716
v 18.813124 1.166925 -120.607788
v -0.041349 1.166931 -136.686722
vn -0.0000 1.0000 -0.0000
vt 0.000000 0.000000
vt 1.000000 0.000000
vt 0.000000 1.000000
vt 1.000000 1.000000
vt 0.000000 0.500000
vt 0.500000 0.000000
vt 1.000000 0.500000
vt 0.500000 1.000000
s 0
f 53/53/4 55/55/4 51/51/4
f 51/51/4 56/56/4 53/53/4
f 56/56/4 52/52/4 58/58/4
f 58/58/4 52/52/4 54/54/4
f 52/52/4 57/57/4 54/54/4
f 58/58/4 53/53/4 56/56/4
o 平面.003
v 127.390495 0.687192 -112.371918
v 127.390495 0.687201 -128.803772
v 114.296997 0.687192 -112.461395
v 114.306252 0.687201 -128.856216
v 120.788216 0.687192 -109.425407
v 130.404907 0.687198 -120.609444
v 120.840660 0.687201 -131.839752
v 111.242493 0.687198 -120.584763
vn -0.0000 1.0000 -0.0000
vt 0.000000 0.000000
vt 1.000000 0.000000
vt 0.000000 1.000000
vt 1.000000 1.000000
vt 0.000000 0.500000
vt 0.500000 0.000000
vt 1.000000 0.500000
vt 0.500000 1.000000
s 0
f 61/61/5 63/63/5 59/59/5
f 59/59/5 64/64/5 61/61/5
f 64/64/5 60/60/5 66/66/5
f 66/66/5 60/60/5 62/62/5
f 60/60/5 65/65/5 62/62/5
f 66/66/5 61/61/5 64/64/5
o 平面.004
v 35.999443 -0.169732 -396.611908
v -36.267971 -0.169732 -396.829285
v 7.056090 -0.169747 -370.505554
v -6.909026 -0.169747 -370.467163
v 0.000007 -0.169747 -370.192230
v 23.711147 -0.169738 -384.095764
v -22.007273 -0.169741 -382.631683
v -0.079922 -0.169732 -400.003662
v 34.467773 -0.169732 -399.874176
v -34.336704 -0.169732 -399.848602
v 36.512306 -0.169732 -398.645844
v -36.389233 -0.169732 -398.773712
v 12.807039 -0.169744 -373.189636
v -13.010022 -0.169744 -373.512482
vn -0.0000 1.0000 -0.0000
vt 0.000000 0.000000
vt 1.000000 0.000000
vt 0.000000 1.000000
vt 1.000000 1.000000
vt 0.500000 1.000000
vt 0.000000 0.500000
vt 1.000000 0.500000
vt 0.500000 0.000000
vt 0.250000 0.000000
vt 0.750000 0.000000
vt 0.125000 0.000000
vt 0.875000 0.000000
vt 0.000000 0.750000
vt 1.000000 0.750000
s 0
f 79/79/6 72/72/6 74/74/6
f 72/72/6 67/67/6 75/75/6
f 67/67/6 77/77/6 75/75/6
f 75/75/6 74/74/6 72/72/6
f 74/74/6 76/76/6 73/73/6
f 76/76/6 78/78/6 68/68/6
f 73/73/6 76/76/6 68/68/6
f 73/73/6 80/80/6 74/74/6
f 80/80/6 70/70/6 74/74/6
f 70/70/6 71/71/6 74/74/6
f 71/71/6 69/69/6 74/74/6
f 69/69/6 79/79/6 74/74/6
o 平面.005
v -14.155667 2.530000 -180.542740
v 14.077425 2.530000 -180.542740
v -14.055072 2.530000 -196.793793
v 13.993596 2.530000 -196.679214
vn -0.0000 1.0000 -0.0000
vt 0.000000 0.000000
vt 1.000000 0.000000
vt 0.000000 1.000000
vt 1.000000 1.000000
s 0
f 81/81/7 84/84/7 83/83/7
f 81/81/7 82/82/7 84/84/7
o 平面.006
v -14.155667 7.850008 -210.201416
v 14.077425 7.850008 -210.201416
v -14.055072 7.850008 -226.452469
v 13.993596 7.850008 -226.337891
vn -0.0000 1.0000 -0.0000
vt 0.000000 0.000000
vt 1.000000 0.000000
vt 0.000000 1.000000
vt 1.000000 1.000000
s 0
f 85/85/8 88/88/8 87/87/8
f 85/85/8 86/86/8 88/88/8
o 平面.007
v -14.155667 14.058764 -240.340744
v 14.077425 14.058764 -240.340744
v -14.055072 14.058764 -256.591797
v 13.993596 14.058764 -256.477234
vn -0.0000 1.0000 -0.0000
vt 0.000000 0.000000
vt 1.000000 0.000000
vt 0.000000 1.000000
vt 1.000000 1.000000
s 0
f 89/89/9 92/92/9 91/91/9
f 89/89/9 90/90/9 92/92/9
