# Blender v2.79 (sub 0) OBJ File: ''
# www.blender.org
mtllib Adventurer'sSword.mtl
o sword_C:polySurface121_Untitled.001
v 0.003557 -0.001791 0.035812
v -0.000000 -0.001791 0.034338
v -0.003557 -0.001791 0.035812
v -0.005030 -0.001791 0.039369
v -0.003557 -0.001791 0.042926
v -0.000000 -0.001791 0.044399
v 0.003557 -0.001791 0.042926
v 0.005030 -0.001791 0.039369
v 0.003557 0.001791 0.035812
v -0.000000 0.001791 0.034338
v -0.003557 0.001791 0.035812
v -0.005030 0.001791 0.039369
v -0.003557 0.001791 0.042926
v -0.000000 0.001791 0.044399
v 0.003557 0.001791 0.042926
v 0.005030 0.001791 0.039369
v 0.002945 -0.002338 0.036423
v -0.000000 -0.002338 0.035203
v -0.000000 -0.002338 0.039369
v -0.002945 -0.002338 0.036423
v -0.004165 -0.002338 0.039369
v -0.002945 -0.002338 0.042314
v -0.000000 -0.002338 0.043534
v 0.002945 -0.002338 0.042314
v 0.004165 -0.002338 0.039369
v 0.002945 0.002338 0.036423
v -0.000000 0.002338 0.035203
v -0.000000 0.002338 0.039369
v -0.002945 0.002338 0.036423
v -0.004165 0.002338 0.039369
v -0.002945 0.002338 0.042314
v -0.000000 0.002338 0.043534
v 0.002945 0.002338 0.042314
v 0.004165 0.002338 0.039369
v 0.003932 -0.000000 0.035437
v -0.000000 -0.000000 0.033809
v -0.003932 -0.000000 0.035437
v -0.005560 -0.000000 0.039369
v -0.003932 -0.000000 0.043300
v -0.000000 -0.000000 0.044929
v 0.003932 -0.000000 0.043300
v 0.005560 -0.000000 0.039369
v -0.000000 -0.001981 -0.006532
v -0.000000 0.001981 -0.006532
v 0.009859 0.001981 -0.007583
v 0.009859 -0.001981 -0.007583
v -0.009859 -0.001981 -0.007583
v -0.009859 0.001981 -0.007583
v -0.000000 -0.001981 -0.009885
v -0.000000 0.001981 -0.009885
v 0.009168 0.001981 -0.010936
v 0.009168 -0.001981 -0.010936
v -0.009168 -0.001981 -0.010936
v -0.009168 0.001981 -0.010936
v 0.002030 0.001241 -0.001464
v -0.000000 0.001755 -0.001464
v -0.002030 0.001241 -0.001464
v -0.002871 0.000000 -0.001464
v -0.002030 -0.001241 -0.001464
v -0.000000 -0.001755 -0.001464
v 0.002030 -0.001241 -0.001464
v 0.002871 0.000000 -0.001464
v 0.002030 0.001241 0.039293
v -0.000000 0.001755 0.039293
v -0.002030 0.001241 0.039293
v -0.002871 -0.000000 0.039293
v -0.002030 -0.001241 0.039293
v -0.000000 -0.001755 0.039293
v 0.002030 -0.001241 0.039293
v 0.002871 -0.000000 0.039293
v 0.001637 0.000986 0.018327
v -0.000000 0.001395 0.018327
v -0.001637 0.000986 0.018327
v -0.002316 -0.000000 0.018327
v -0.001637 -0.000986 0.018327
v -0.000000 -0.001395 0.018327
v 0.001637 -0.000986 0.018327
v 0.002316 -0.000000 0.018327
v 0.001637 0.000986 0.007843
v -0.000000 0.001395 0.007843
v -0.001637 0.000986 0.007843
v -0.002316 -0.000000 0.007843
v -0.001637 -0.000986 0.007843
v -0.000000 -0.001395 0.007843
v 0.001637 -0.000986 0.007843
v 0.002316 -0.000000 0.007843
v 0.002030 0.001241 0.013085
v 0.002871 -0.000000 0.013085
v 0.002030 -0.001241 0.013085
v -0.000000 -0.001755 0.013085
v -0.002030 -0.001241 0.013085
v -0.002871 -0.000000 0.013085
v -0.002030 0.001241 0.013085
v -0.000000 0.001755 0.013085
v 0.001637 0.000986 0.028810
v -0.000000 0.001395 0.028810
v -0.001637 0.000986 0.028810
v -0.002316 -0.000000 0.028810
v -0.001637 -0.000986 0.028810
v -0.000000 -0.001395 0.028810
v 0.001637 -0.000986 0.028810
v 0.002316 -0.000000 0.028810
v 0.002030 0.001241 0.023568
v -0.000000 0.001755 0.023568
v -0.002030 0.001241 0.023568
v -0.002871 -0.000000 0.023568
v -0.002030 -0.001241 0.023568
v -0.000000 -0.001755 0.023568
v 0.002030 -0.001241 0.023568
v 0.002871 -0.000000 0.023568
v 0.002030 0.001241 0.034052
v -0.000000 0.001755 0.034052
v -0.002030 0.001241 0.034052
v -0.002871 -0.000000 0.034052
v -0.002030 -0.001241 0.034052
v -0.000000 -0.001755 0.034052
v 0.002030 -0.001241 0.034052
v 0.002871 -0.000000 0.034052
v 0.002030 0.001241 0.002602
v -0.000000 0.001755 0.002602
v -0.002030 0.001241 0.002602
v -0.002871 -0.000000 0.002602
v -0.002030 -0.001241 0.002602
v -0.000000 -0.001755 0.002602
v 0.002030 -0.001241 0.002602
v 0.002871 -0.000000 0.002602
v -0.018757 -0.002675 -0.003060
v 0.018757 -0.002675 -0.003060
v -0.018757 0.002675 -0.003060
v 0.018757 0.002675 -0.003060
v -0.015002 0.002675 -0.010239
v 0.015002 0.002675 -0.010239
v -0.015002 -0.002675 -0.010239
v 0.015002 -0.002675 -0.010239
v -0.000000 -0.002675 0.000991
v -0.000000 -0.002675 -0.006926
v -0.000000 0.002675 -0.006926
v -0.000000 0.002675 0.000991
v 0.010695 -0.002675 -0.000554
v 0.010695 0.002675 -0.000554
v 0.009062 0.002675 -0.008166
v 0.009062 -0.002675 -0.008166
v -0.010695 -0.002675 -0.000554
v -0.009062 -0.002675 -0.008166
v -0.009062 0.002675 -0.008166
v -0.010695 0.002675 -0.000554
v 0.024663 -0.002675 -0.005951
v 0.024663 0.002675 -0.005951
v -0.024663 -0.002675 -0.005951
v -0.024663 0.002675 -0.005951
v 0.019741 0.002675 -0.015360
v 0.019741 -0.002675 -0.015360
v -0.019741 0.002675 -0.015360
v -0.019741 -0.002675 -0.015360
v -0.000000 0.002158 0.000456
v -0.000000 -0.002158 0.000456
v 0.004690 -0.002158 -0.000595
v 0.004690 0.002158 -0.000595
v -0.004690 0.002158 -0.000595
v -0.004690 -0.002158 -0.000595
v -0.000000 0.002158 0.002777
v -0.000000 -0.002158 0.002777
v 0.004690 -0.002158 0.001727
v 0.004690 0.002158 0.001727
v -0.004690 0.002158 0.001727
v -0.004690 -0.002158 0.001727
v 0.008451 0.000000 -0.007447
v 0.005221 0.000000 -0.109633
v -0.000000 -0.001052 -0.007447
v -0.000000 -0.001052 -0.109633
v -0.000000 0.000000 -0.136952
v 0.004226 -0.001052 -0.007447
v 0.002780 -0.001052 -0.109633
v -0.008451 0.000000 -0.007447
v -0.005221 0.000000 -0.109633
v -0.004226 -0.001052 -0.007447
v -0.002780 -0.001052 -0.109633
v -0.000000 0.001052 -0.007447
v -0.000000 0.001052 -0.109633
v 0.004226 0.001052 -0.007447
v 0.002780 0.001052 -0.109633
v -0.004226 0.001052 -0.007447
v -0.002780 0.001052 -0.109633
v 0.007282 0.000000 -0.071131
v 0.003765 -0.001052 -0.071131
v -0.000000 -0.001052 -0.071131
v -0.003765 -0.001052 -0.071131
v -0.007282 0.000000 -0.071131
v -0.003765 0.001052 -0.071131
v -0.000000 0.001052 -0.071131
v 0.003765 0.001052 -0.071131
v 0.003122 0.000000 -0.126324
v -0.000000 -0.000510 -0.126328
v -0.003120 0.000000 -0.126332
v -0.000000 0.000510 -0.126328
v 0.007912 0.000000 -0.043612
v -0.000000 -0.001052 -0.043631
v 0.004013 -0.001052 -0.043621
v -0.007911 0.000000 -0.043649
v -0.004013 -0.001052 -0.043640
v -0.000000 0.001052 -0.043631
v 0.004013 0.001052 -0.043621
v -0.004013 0.001052 -0.043640
v 0.008182 0.000000 -0.025530
v 0.004119 -0.001052 -0.025534
v -0.000000 -0.001052 -0.025539
v -0.004119 -0.001052 -0.025544
v -0.008181 0.000000 -0.025548
v -0.004119 0.001052 -0.025544
v -0.000000 0.001052 -0.025539
v 0.004119 0.001052 -0.025534
vt 0.761497 0.593129
vt 0.727153 0.608015
vt 0.725846 0.595509
vt 0.751728 0.585210
vt 0.692342 0.594258
vt 0.700261 0.584489
vt 0.677456 0.559914
vt 0.689961 0.558607
vt 0.691213 0.525104
vt 0.700982 0.533023
vt 0.725557 0.510217
vt 0.726864 0.522723
vt 0.760368 0.523975
vt 0.752449 0.533743
vt 0.775254 0.558318
vt 0.762750 0.559625
vt 0.609982 0.588048
vt 0.589729 0.579079
vt 0.610683 0.559116
vt 0.630646 0.580071
vt 0.639614 0.559818
vt 0.631638 0.539153
vt 0.611385 0.530184
vt 0.590720 0.538161
vt 0.581752 0.558415
vt 0.746316 0.580063
vt 0.725658 0.588042
vt 0.726355 0.559116
vt 0.705408 0.579077
vt 0.697430 0.558419
vt 0.706394 0.538169
vt 0.727053 0.530190
vt 0.747302 0.539155
vt 0.755280 0.559814
vt 0.610165 0.595511
vt 0.584582 0.584484
vt 0.636051 0.585218
vt 0.647080 0.559635
vt 0.636785 0.533748
vt 0.611202 0.522721
vt 0.585316 0.533015
vt 0.574286 0.558598
vt 0.611490 0.608010
vt 0.576680 0.594260
vt 0.645828 0.593119
vt 0.659578 0.558309
vt 0.644686 0.523972
vt 0.609876 0.510222
vt 0.575539 0.525113
vt 0.561789 0.559923
vt 0.456841 0.091883
vt 0.456841 0.062044
vt 0.526512 0.062044
vt 0.526512 0.091883
vt 0.387171 0.091883
vt 0.387171 0.062044
vt 0.456841 0.036790
vt 0.526512 0.036790
vt 0.552102 0.062044
vt 0.552102 0.091883
vt 0.526512 0.117137
vt 0.456841 0.117137
vt 0.361488 0.091883
vt 0.361488 0.062044
vt 0.387171 0.036790
vt 0.387171 0.117137
vt 0.415689 0.345942
vt 0.400216 0.345906
vt 0.400223 0.306967
vt 0.415792 0.307043
vt 0.384744 0.345934
vt 0.384643 0.307050
vt 0.373621 0.346280
vt 0.373527 0.307142
vt 0.507388 0.346355
vt 0.496266 0.346009
vt 0.496355 0.307115
vt 0.507503 0.307227
vt 0.480768 0.345968
vt 0.480759 0.307040
vt 0.465274 0.346006
vt 0.465154 0.307136
vt 0.454137 0.346360
vt 0.454030 0.307244
vt 0.426794 0.346282
vt 0.426933 0.307149
vt 0.412855 0.541035
vt 0.400237 0.541061
vt 0.400224 0.502055
vt 0.415640 0.502056
vt 0.387619 0.541039
vt 0.384807 0.502061
vt 0.378704 0.541016
vt 0.373700 0.502071
vt 0.502325 0.540942
vt 0.493398 0.540988
vt 0.496196 0.501994
vt 0.507316 0.501997
vt 0.480768 0.541004
vt 0.480761 0.501999
vt 0.468142 0.540983
vt 0.465327 0.501999
vt 0.459213 0.540952
vt 0.454208 0.502002
vt 0.421769 0.541005
vt 0.426748 0.502060
vt 0.415687 0.580078
vt 0.400214 0.580121
vt 0.384740 0.580085
vt 0.373611 0.579742
vt 0.507379 0.579691
vt 0.496257 0.580023
vt 0.480764 0.580078
vt 0.465277 0.580025
vt 0.454144 0.579686
vt 0.426793 0.579733
vt 0.412850 0.463072
vt 0.421770 0.463076
vt 0.459182 0.463031
vt 0.468114 0.463030
vt 0.480760 0.463030
vt 0.493405 0.463031
vt 0.502338 0.463031
vt 0.378668 0.463074
vt 0.387587 0.463071
vt 0.400218 0.463069
vt 0.415632 0.424065
vt 0.400223 0.424063
vt 0.400238 0.385013
vt 0.412849 0.385036
vt 0.384814 0.424059
vt 0.387625 0.385031
vt 0.373711 0.424056
vt 0.378716 0.385058
vt 0.507313 0.424062
vt 0.496194 0.424060
vt 0.493399 0.385067
vt 0.502323 0.385106
vt 0.480761 0.424056
vt 0.480767 0.385048
vt 0.465328 0.424056
vt 0.468143 0.385067
vt 0.454210 0.424056
vt 0.459214 0.385099
vt 0.426735 0.424069
vt 0.421759 0.385065
vt 0.400227 0.610315
vt 0.415820 0.610219
vt 0.384619 0.610205
vt 0.373502 0.610067
vt 0.496370 0.610194
vt 0.507523 0.610038
vt 0.480762 0.610283
vt 0.465143 0.610169
vt 0.454013 0.610021
vt 0.426965 0.610061
vt 0.600126 0.819777
vt 0.600126 0.778885
vt 0.673714 0.778885
vt 0.673714 0.819777
vt 0.600126 0.880283
vt 0.673714 0.880283
vt 0.600126 0.921175
vt 0.673714 0.921175
vt 0.600000 0.670848
vt 0.600000 0.729212
vt 0.520332 0.729212
vt 0.520332 0.670848
vt 0.369344 0.819777
vt 0.419784 0.819777
vt 0.419784 0.880283
vt 0.369344 0.880283
vt 0.679668 0.670848
vt 0.679668 0.729212
vt 0.526537 0.921175
vt 0.526537 0.880283
vt 0.526537 0.819777
vt 0.526537 0.778885
vt 0.724328 0.778885
vt 0.724328 0.819777
vt 0.724328 0.880283
vt 0.724328 0.921175
vt 0.458093 0.729212
vt 0.458093 0.670848
vt 0.741907 0.729212
vt 0.741907 0.670848
vt 0.475923 0.880283
vt 0.475923 0.921175
vt 0.475923 0.819777
vt 0.475923 0.778885
vt 0.409612 0.670848
vt 0.409612 0.729212
vt 0.780468 0.778885
vt 0.780468 0.819777
vt 0.419784 0.778885
vt 0.780468 0.880283
vt 0.780468 0.921175
vt 0.830656 0.819777
vt 0.830656 0.880283
vt 0.419784 0.921175
vt 0.790388 0.670848
vt 0.790388 0.729212
vt 0.452485 0.182655
vt 0.452485 0.151025
vt 0.487255 0.151025
vt 0.487255 0.182655
vt 0.417715 0.182655
vt 0.417715 0.151025
vt 0.452485 0.134329
vt 0.487255 0.134329
vt 0.504649 0.151025
vt 0.504532 0.183053
vt 0.487255 0.199556
vt 0.452485 0.199556
vt 0.400671 0.183331
vt 0.400873 0.151025
vt 0.417715 0.134329
vt 0.417715 0.199556
vt 0.065500 0.776830
vt 0.047361 0.776830
vt 0.032040 0.490629
vt 0.058184 0.490629
vt 0.086168 0.490629
vt 0.086168 0.776830
vt 0.086170 0.900933
vt 0.062963 0.900906
vt 0.106835 0.776830
vt 0.114152 0.490629
vt 0.140295 0.490629
vt 0.124975 0.776830
vt 0.086168 0.979906
vt 0.109363 0.900961
vt 0.299001 0.776830
vt 0.306317 0.490629
vt 0.332461 0.490629
vt 0.317141 0.776830
vt 0.278334 0.490629
vt 0.278334 0.776830
vt 0.278331 0.900933
vt 0.301538 0.900906
vt 0.257666 0.776830
vt 0.239526 0.776830
vt 0.224206 0.490629
vt 0.250350 0.490629
vt 0.278334 0.979906
vt 0.255138 0.900961
vt 0.027357 0.286064
vt 0.056338 0.286133
vt 0.055547 0.151684
vt 0.086168 0.151719
vt 0.086168 0.286204
vt 0.116788 0.151755
vt 0.115996 0.286275
vt 0.144974 0.286343
vt 0.219527 0.286343
vt 0.248505 0.286275
vt 0.247713 0.151755
vt 0.278334 0.151719
vt 0.278334 0.286204
vt 0.308954 0.151684
vt 0.308164 0.286133
vt 0.337145 0.286064
vt 0.025350 0.151649
vt 0.146983 0.151789
vt 0.217518 0.151789
vt 0.339151 0.151649
vt 0.023344 0.017235
vt 0.054756 0.017235
vt 0.086168 0.017235
vt 0.117579 0.017235
vt 0.148991 0.017235
vt 0.215510 0.017235
vt 0.246922 0.017235
vt 0.278334 0.017235
vt 0.309745 0.017235
vt 0.341157 0.017235
vn 0.3827 -0.0000 -0.9239
vn 0.3691 0.2636 -0.8912
vn -0.3827 0.0000 -0.9239
vn -0.3691 0.2636 -0.8912
vn -0.9239 0.0000 -0.3827
vn -0.8912 0.2637 -0.3691
vn -0.9239 0.0000 0.3827
vn -0.8912 0.2637 0.3691
vn -0.3827 0.0000 0.9239
vn -0.3691 0.2636 0.8912
vn 0.3827 0.0000 0.9239
vn 0.3691 0.2636 0.8912
vn 0.9239 0.0000 0.3827
vn 0.8912 0.2637 0.3691
vn 0.9239 0.0000 -0.3827
vn 0.8912 0.2637 -0.3691
vn -0.0000 -1.0000 -0.0000
vn -0.0000 1.0000 0.0000
vn 0.2161 -0.8252 -0.5218
vn -0.2161 -0.8252 -0.5218
vn -0.5218 -0.8252 -0.2161
vn -0.5218 -0.8252 0.2161
vn -0.2161 -0.8252 0.5218
vn 0.2161 -0.8252 0.5218
vn 0.5218 -0.8252 0.2161
vn 0.5218 -0.8252 -0.2161
vn 0.2161 0.8252 -0.5218
vn -0.2161 0.8252 -0.5218
vn -0.5218 0.8252 -0.2161
vn -0.5218 0.8252 0.2161
vn -0.2161 0.8252 0.5218
vn 0.2161 0.8252 0.5218
vn 0.5218 0.8252 0.2161
vn 0.5218 0.8252 -0.2161
vn 0.3691 -0.2636 -0.8912
vn -0.3691 -0.2636 -0.8912
vn -0.8912 -0.2637 -0.3691
vn -0.8912 -0.2637 0.3691
vn -0.3691 -0.2636 0.8912
vn 0.3691 -0.2636 0.8912
vn 0.8912 -0.2637 0.3691
vn 0.8912 -0.2637 -0.3691
vn 0.0000 0.0000 -1.0000
vn -0.1139 0.0000 -0.9935
vn 0.1139 0.0000 -0.9935
vn 0.9794 0.0000 -0.2020
vn -0.9794 0.0000 -0.2020
vn 0.2446 0.9692 -0.0306
vn 0.2446 0.9691 -0.0312
vn 0.2454 0.9694 0.0000
vn -0.2446 0.9691 -0.0311
vn -0.2446 0.9691 -0.0306
vn -0.2454 0.9694 0.0000
vn -0.8262 0.5618 -0.0419
vn -0.8263 0.5618 -0.0410
vn -0.8277 0.5611 0.0000
vn -0.8263 -0.5618 -0.0410
vn -0.8262 -0.5618 -0.0419
vn -0.8277 -0.5611 -0.0000
vn -0.2446 -0.9691 -0.0306
vn -0.2446 -0.9691 -0.0311
vn -0.2454 -0.9694 -0.0000
vn 0.2446 -0.9691 -0.0312
vn 0.2446 -0.9691 -0.0307
vn 0.2454 -0.9694 -0.0000
vn 0.8262 -0.5618 -0.0419
vn 0.8263 -0.5618 -0.0411
vn 0.8277 -0.5611 -0.0000
vn 0.8263 0.5618 -0.0411
vn 0.8262 0.5618 -0.0419
vn 0.8277 0.5611 0.0000
vn 0.2439 0.9698 0.0000
vn -0.2439 0.9698 0.0000
vn -0.8261 0.5635 0.0000
vn -0.8261 -0.5635 -0.0000
vn -0.2439 -0.9698 -0.0000
vn 0.2439 -0.9698 -0.0000
vn 0.8261 -0.5635 -0.0000
vn 0.8261 0.5635 0.0000
vn 0.2444 0.9690 0.0348
vn 0.2444 0.9690 0.0353
vn -0.2444 0.9690 0.0352
vn -0.2444 0.9690 0.0348
vn -0.8259 0.5618 0.0475
vn -0.8260 0.5618 0.0465
vn -0.8260 -0.5618 0.0465
vn -0.8259 -0.5618 0.0475
vn -0.2444 -0.9690 0.0348
vn -0.2444 -0.9690 0.0352
vn 0.2444 -0.9690 0.0352
vn 0.2444 -0.9690 0.0348
vn 0.8259 -0.5618 0.0474
vn 0.8260 -0.5618 0.0466
vn 0.8260 0.5618 0.0466
vn 0.8259 0.5618 0.0474
vn -0.0000 -0.0000 1.0000
vn 0.2111 0.0000 0.9775
vn -0.2157 0.0000 -0.9765
vn -0.8861 0.0000 -0.4635
vn 0.2157 0.0000 -0.9765
vn -0.2111 0.0000 0.9775
vn 0.3604 -0.0000 0.9328
vn -0.3296 0.0000 -0.9441
vn 0.3296 0.0000 -0.9441
vn -0.3604 -0.0000 0.9328
vn 0.4397 -0.0000 0.8982
vn -0.4397 -0.0000 0.8982
vn -0.7339 0.0000 -0.6793
vn 0.8861 0.0000 -0.4635
vn 0.7339 0.0000 -0.6793
vn 0.2186 -0.0000 0.9758
vn -0.2186 -0.0000 0.9758
vn 1.0000 -0.0000 0.0000
vn -1.0000 -0.0000 0.0000
vn 0.1706 -0.9852 -0.0162
vn 0.3166 -0.9483 -0.0242
vn 0.3044 -0.9525 -0.0090
vn 0.1543 -0.9880 -0.0045
vn -0.0000 -1.0000 -0.0050
vn -0.0001 -0.9986 -0.0536
vn 0.2474 -0.9674 -0.0535
vn -0.1706 -0.9852 -0.0162
vn -0.1537 -0.9881 -0.0046
vn -0.3043 -0.9525 -0.0089
vn -0.3166 -0.9483 -0.0242
vn 0.0000 -0.9989 -0.0479
vn -0.2474 -0.9674 -0.0535
vn 0.1706 0.9852 -0.0162
vn 0.1543 0.9880 -0.0045
vn 0.3044 0.9525 -0.0090
vn 0.3166 0.9483 -0.0242
vn 0.0000 1.0000 -0.0050
vn -0.0001 0.9986 -0.0536
vn 0.2474 0.9674 -0.0535
vn -0.1706 0.9852 -0.0162
vn -0.3165 0.9483 -0.0242
vn -0.3043 0.9525 -0.0089
vn -0.1537 0.9881 -0.0046
vn 0.0000 0.9989 -0.0479
vn -0.2474 0.9674 -0.0535
vn 0.2656 -0.9641 -0.0036
vn 0.1342 -0.9910 -0.0018
vn 0.1276 -0.9918 -0.0013
vn -0.1276 -0.9918 -0.0013
vn -0.1340 -0.9910 -0.0018
vn -0.2656 -0.9641 -0.0036
vn -0.2655 0.9641 -0.0036
vn -0.1340 0.9910 -0.0018
vn -0.1275 0.9918 -0.0013
vn 0.1275 0.9918 -0.0013
vn 0.1342 0.9910 -0.0018
vn 0.2656 0.9641 -0.0036
vn 0.2507 -0.9681 -0.0026
vn -0.2507 -0.9681 -0.0026
vn -0.2507 0.9681 -0.0026
vn 0.2507 0.9681 -0.0026
vn 0.2460 -0.9693 -0.0026
vn 0.1260 -0.9920 -0.0013
vn -0.1260 -0.9920 -0.0013
vn -0.2460 -0.9693 -0.0026
vn -0.2460 0.9693 -0.0026
vn -0.1260 0.9920 -0.0013
vn 0.1259 0.9920 -0.0013
vn 0.2460 0.9693 -0.0026
usemtl lambert23
s 1
f 35/1/1 36/2/1 10/3/2 9/4/2
f 36/2/3 37/5/3 11/6/4 10/3/4
f 37/5/5 38/7/5 12/8/6 11/6/6
f 38/7/7 39/9/7 13/10/8 12/8/8
f 39/9/9 40/11/9 14/12/10 13/10/10
f 40/11/11 41/13/11 15/14/12 14/12/12
f 41/13/13 42/15/13 16/16/14 15/14/14
f 42/15/15 35/1/15 9/4/16 16/16/16
f 18/17/17 17/18/17 19/19/17
f 20/20/17 18/17/17 19/19/17
f 21/21/17 20/20/17 19/19/17
f 22/22/17 21/21/17 19/19/17
f 23/23/17 22/22/17 19/19/17
f 24/24/17 23/23/17 19/19/17
f 25/25/17 24/24/17 19/19/17
f 17/18/17 25/25/17 19/19/17
f 26/26/18 27/27/18 28/28/18
f 27/27/18 29/29/18 28/28/18
f 29/29/18 30/30/18 28/28/18
f 30/30/18 31/31/18 28/28/18
f 31/31/18 32/32/18 28/28/18
f 32/32/18 33/33/18 28/28/18
f 33/33/18 34/34/18 28/28/18
f 34/34/18 26/26/18 28/28/18
f 2/35/19 1/36/19 17/18/19 18/17/19
f 3/37/20 2/35/20 18/17/20 20/20/20
f 4/38/21 3/37/21 20/20/21 21/21/21
f 5/39/22 4/38/22 21/21/22 22/22/22
f 6/40/23 5/39/23 22/22/23 23/23/23
f 7/41/24 6/40/24 23/23/24 24/24/24
f 8/42/25 7/41/25 24/24/25 25/25/25
f 1/36/26 8/42/26 25/25/26 17/18/26
f 9/4/27 10/3/27 27/27/27 26/26/27
f 10/3/28 11/6/28 29/29/28 27/27/28
f 11/6/29 12/8/29 30/30/29 29/29/29
f 12/8/30 13/10/30 31/31/30 30/30/30
f 13/10/31 14/12/31 32/32/31 31/31/31
f 14/12/32 15/14/32 33/33/32 32/32/32
f 15/14/33 16/16/33 34/34/33 33/33/33
f 16/16/34 9/4/34 26/26/34 34/34/34
f 1/36/35 2/35/35 36/43/1 35/44/1
f 2/35/36 3/37/36 37/45/3 36/43/3
f 3/37/37 4/38/37 38/46/5 37/45/5
f 4/38/38 5/39/38 39/47/7 38/46/7
f 5/39/39 6/40/39 40/48/9 39/47/9
f 6/40/40 7/41/40 41/49/11 40/48/11
f 7/41/41 8/42/41 42/50/13 41/49/13
f 8/42/42 1/36/42 35/44/15 42/50/15
f 49/51/43 50/52/43 51/53/44 52/54/44
f 53/55/45 54/56/45 50/52/43 49/51/43
f 44/57/18 45/58/18 51/53/18 50/52/18
f 45/59/46 46/60/46 52/54/46 51/53/46
f 46/61/17 43/62/17 49/51/17 52/54/17
f 47/63/47 48/64/47 54/56/47 53/55/47
f 48/65/18 44/57/18 50/52/18 54/56/18
f 43/62/17 47/66/17 53/55/17 49/51/17
f 111/67/48 112/68/49 64/69/50 63/70/50
f 112/68/51 113/71/52 65/72/53 64/69/53
f 113/71/54 114/73/55 66/74/56 65/72/56
f 114/75/57 115/76/58 67/77/59 66/78/59
f 115/76/60 116/79/61 68/80/62 67/77/62
f 116/79/63 117/81/64 69/82/65 68/80/65
f 117/81/66 118/83/67 70/84/68 69/82/68
f 118/85/69 111/67/70 63/70/71 70/86/71
f 79/87/72 80/88/72 94/89/72 87/90/72
f 80/88/73 81/91/73 93/92/73 94/89/73
f 81/91/74 82/93/74 92/94/74 93/92/74
f 82/95/75 83/96/75 91/97/75 92/98/75
f 83/96/76 84/99/76 90/100/76 91/97/76
f 84/99/77 85/101/77 89/102/77 90/100/77
f 85/101/78 86/103/78 88/104/78 89/102/78
f 86/105/79 79/87/79 87/90/79 88/106/79
f 119/107/80 120/108/81 80/88/72 79/87/72
f 120/108/82 121/109/83 81/91/73 80/88/73
f 121/109/84 122/110/85 82/93/74 81/91/74
f 122/111/86 123/112/87 83/96/75 82/95/75
f 123/112/88 124/113/89 84/99/76 83/96/76
f 124/113/90 125/114/91 85/101/77 84/99/77
f 125/114/92 126/115/93 86/103/78 85/101/78
f 126/116/94 119/107/95 79/87/79 86/105/79
f 88/106/79 87/90/79 71/117/79 78/118/79
f 89/102/78 88/104/78 78/119/78 77/120/78
f 90/100/77 89/102/77 77/120/77 76/121/77
f 91/97/76 90/100/76 76/121/76 75/122/76
f 92/98/75 91/97/75 75/122/75 74/123/75
f 93/92/74 92/94/74 74/124/74 73/125/74
f 94/89/73 93/92/73 73/125/73 72/126/73
f 87/90/72 94/89/72 72/126/72 71/117/72
f 103/127/72 104/128/72 96/129/72 95/130/72
f 104/128/73 105/131/73 97/132/73 96/129/73
f 105/131/74 106/133/74 98/134/74 97/132/74
f 106/135/75 107/136/75 99/137/75 98/138/75
f 107/136/76 108/139/76 100/140/76 99/137/76
f 108/139/77 109/141/77 101/142/77 100/140/77
f 109/141/78 110/143/78 102/144/78 101/142/78
f 110/145/79 103/127/79 95/130/79 102/146/79
f 71/117/72 72/126/72 104/128/72 103/127/72
f 72/126/73 73/125/73 105/131/73 104/128/73
f 73/125/74 74/124/74 106/133/74 105/131/74
f 74/123/75 75/122/75 107/136/75 106/135/75
f 75/122/76 76/121/76 108/139/76 107/136/76
f 76/121/77 77/120/77 109/141/77 108/139/77
f 77/120/78 78/119/78 110/143/78 109/141/78
f 78/118/79 71/117/79 103/127/79 110/145/79
f 95/130/72 96/129/72 112/68/49 111/67/48
f 96/129/73 97/132/73 113/71/52 112/68/51
f 97/132/74 98/134/74 114/73/55 113/71/54
f 98/138/75 99/137/75 115/76/58 114/75/57
f 99/137/76 100/140/76 116/79/61 115/76/60
f 100/140/77 101/142/77 117/81/64 116/79/63
f 101/142/78 102/144/78 118/83/67 117/81/66
f 102/146/79 95/130/79 111/67/70 118/85/69
f 56/147/50 120/108/81 119/107/80 55/148/50
f 57/149/53 121/109/83 120/108/82 56/147/53
f 58/150/56 122/110/85 121/109/84 57/149/56
f 59/151/59 123/112/87 122/111/86 58/152/59
f 60/153/62 124/113/89 123/112/88 59/151/62
f 61/154/65 125/114/91 124/113/90 60/153/65
f 62/155/68 126/115/93 125/114/92 61/154/68
f 55/148/71 119/107/95 126/116/94 62/156/71
f 138/157/96 135/158/96 139/159/97 140/160/97
f 137/161/18 138/157/18 140/160/18 141/162/18
f 136/163/43 137/161/43 141/162/98 142/164/98
f 135/165/17 136/166/17 142/167/17 139/168/17
f 149/169/99 150/170/99 153/171/99 154/172/99
f 143/173/17 144/174/17 136/166/17 135/165/17
f 144/175/100 145/176/100 137/161/43 136/163/43
f 145/176/18 146/177/18 138/157/18 137/161/18
f 146/177/101 143/178/101 135/158/96 138/157/96
f 140/160/97 139/159/97 128/179/102 130/180/102
f 141/162/18 140/160/18 130/180/18 132/181/18
f 142/164/98 141/162/98 132/181/103 134/182/103
f 139/168/17 142/167/17 134/183/17 128/184/17
f 133/185/17 144/174/17 143/173/17 127/186/17
f 131/187/104 145/176/100 144/175/100 133/188/104
f 129/189/18 146/177/18 145/176/18 131/187/18
f 127/190/105 143/178/101 146/177/101 129/189/105
f 147/191/17 128/184/17 134/183/17 152/192/17
f 130/180/102 128/179/102 147/193/106 148/194/106
f 127/190/105 129/189/105 150/170/107 149/195/107
f 150/170/18 129/189/18 131/187/18 153/171/18
f 134/182/108 132/181/108 151/196/108 152/197/108
f 148/194/18 151/196/18 132/181/18 130/180/18
f 147/198/109 152/199/109 151/196/109 148/194/109
f 131/187/110 133/188/110 154/200/110 153/171/110
f 149/201/17 154/202/17 133/185/17 127/186/17
f 161/203/96 162/204/96 163/205/111 164/206/111
f 165/207/112 166/208/112 162/204/96 161/203/96
f 156/209/17 157/210/17 163/205/17 162/204/17
f 157/211/113 158/212/113 164/206/113 163/205/113
f 158/213/18 155/214/18 161/203/18 164/206/18
f 159/215/114 160/216/114 166/208/114 165/207/114
f 160/217/17 156/209/17 162/204/17 166/208/17
f 155/214/18 159/218/18 165/207/18 161/203/18
f 173/219/115 168/220/116 184/221/117 185/222/118
f 185/222/118 186/223/17 170/224/119 173/219/115
f 168/220/116 173/219/115 193/225/120 192/226/121
f 177/227/122 187/228/123 188/229/124 175/230/125
f 186/223/17 187/228/123 177/227/122 170/224/119
f 171/231/126 193/225/120 194/232/127
f 181/233/128 191/234/129 184/235/130 168/236/131
f 190/237/18 191/234/129 181/233/128 179/238/132
f 179/238/132 181/233/128 195/239/133
f 168/236/131 192/240/134 195/239/133 181/233/128
f 179/238/132 195/239/133 183/241/135
f 183/241/135 175/242/136 188/243/137 189/244/138
f 189/244/138 190/237/18 179/238/132 183/241/135
f 171/245/139 194/246/140 195/239/133
f 185/222/118 184/221/117 196/247/141 198/248/142
f 205/249/143 206/250/17 197/251/17 198/248/142
f 206/250/17 207/252/144 200/253/145 197/251/17
f 188/229/124 187/228/123 200/253/145 199/254/146
f 189/244/138 188/243/137 199/255/147 203/256/148
f 209/257/149 210/258/18 201/259/18 203/256/148
f 210/258/18 211/260/150 202/261/151 201/259/18
f 184/235/130 191/234/129 202/261/151 196/262/152
f 193/225/120 173/219/115 170/224/119
f 192/226/121 193/225/120 171/231/126
f 193/225/120 170/224/119 177/227/122
f 194/232/127 193/225/120 177/227/122 175/230/125
f 195/239/133 192/240/134 171/245/139
f 195/239/133 194/246/140 175/242/136 183/241/135
f 198/248/142 196/247/141 204/263/153 205/249/143
f 198/248/142 197/251/17 186/223/17 185/222/118
f 197/251/17 200/253/145 187/228/123 186/223/17
f 199/254/146 200/253/145 207/252/144 208/264/154
f 203/256/148 199/255/147 208/265/155 209/257/149
f 203/256/148 201/259/18 190/237/18 189/244/138
f 201/259/18 202/261/151 191/234/129 190/237/18
f 196/262/152 202/261/151 211/260/150 204/266/156
f 205/249/143 204/263/153 167/267/157 172/268/158
f 169/269/17 206/250/17 205/249/143 172/268/158
f 169/269/17 176/270/159 207/252/144 206/250/17
f 208/264/154 207/252/144 176/270/159 174/271/160
f 209/257/149 208/265/155 174/272/161 182/273/162
f 178/274/18 210/258/18 209/257/149 182/273/162
f 178/274/18 180/275/163 211/260/150 210/258/18
f 204/266/156 211/260/150 180/275/163 167/276/164
