# Blender 3.4.1
# www.blender.org
mtllib AttackPotion.mtl
o default
v -0.260150 0.028705 0.000000
v 0.239545 0.019688 0.000000
v -0.373404 0.304914 0.000000
v -0.128474 1.090732 -0.000000
v -0.082095 1.533323 -0.000000
v 0.016801 1.526157 -0.105577
v 0.013343 1.334529 -0.141215
v 0.008324 1.056398 -0.150765
v -0.242412 0.814601 -0.246821
v 0.250173 0.805712 -0.246821
v 0.227453 0.306565 -0.254954
v -0.237716 0.314959 -0.254954
v 0.138022 0.028799 -0.180038
v -0.158365 0.034148 -0.180038
v -0.130022 1.343485 -0.000000
v 0.013343 1.334529 0.141215
v 0.008324 1.056398 0.150765
v 0.156937 1.338307 -0.000000
v 0.146271 1.085774 -0.000000
v -0.242412 0.814601 0.246821
v -0.370930 0.823820 -0.000000
v 0.250173 0.805712 0.246821
v 0.378940 0.810288 -0.000000
v 0.362690 0.291631 0.000000
v 0.227453 0.306565 0.254954
v -0.237716 0.314959 0.254954
v 0.138022 0.028799 0.180038
v -0.158365 0.034148 0.180038
v 0.016801 1.526157 0.105577
v 0.121401 1.522824 -0.000000
vn 0.0031 0.0895 -0.9960
vn 0.0083 0.4622 -0.8868
vn -0.8683 0.4960 -0.0000
vn -0.9943 0.1066 -0.0000
vn 0.8856 0.4644 -0.0000
vn 0.9974 0.0716 -0.0000
vn -0.5160 0.2958 -0.8039
vn -0.9414 0.3372 -0.0000
vn 0.9530 0.3030 -0.0000
vn 0.5263 0.2770 -0.8039
vn 0.9751 -0.2218 -0.0000
vn 0.5074 -0.1782 -0.8431
vn -0.5135 -0.1598 -0.8431
vn -0.9825 -0.1865 -0.0000
vn 0.6273 -0.7788 -0.0000
vn 0.2963 -0.7347 -0.6103
vn -0.3226 -0.7235 -0.6103
vn -0.6550 -0.7556 -0.0000
vn -0.7199 0.6941 -0.0000
vn 0.0174 0.6394 -0.7687
vn 0.7791 0.6268 -0.0000
vn 0.0031 0.0895 0.9960
vn 0.0083 0.4622 0.8868
vn -0.5160 0.2958 0.8039
vn 0.5263 0.2770 0.8039
vn 0.5074 -0.1782 0.8431
vn -0.5135 -0.1598 0.8431
vn 0.2963 -0.7347 0.6103
vn -0.3226 -0.7235 0.6103
vn 0.0174 0.6394 0.7687
vt 0.166775 0.007046
vt 0.821703 0.007046
vt 0.014598 0.224820
vt 0.316932 0.699553
vt 0.370800 0.995509
vt 0.496380 0.932841
vt 0.496981 0.819493
vt 0.496981 0.665895
vt 0.200332 0.529908
vt 0.793629 0.529908
vt 0.777119 0.254117
vt 0.216843 0.254117
vt 0.675473 0.099880
vt 0.318488 0.099880
vt 0.308928 0.851377
vt 0.496981 0.819493
vt 0.496981 0.665895
vt 0.685033 0.851377
vt 0.677029 0.699553
vt 0.200332 0.529908
vt 0.005570 0.536577
vt 0.793629 0.529908
vt 0.988391 0.536577
vt 0.979363 0.224820
vt 0.777119 0.254117
vt 0.216843 0.254117
vt 0.675473 0.099880
vt 0.318488 0.099880
vt 0.496380 0.932841
vt 0.642148 0.995530
s 1
usemtl マテリアル
f 7/7/1 8/8/2 4/4/3
f 4/4/3 15/15/4 7/7/1
f 19/19/5 8/8/2 7/7/1
f 7/7/1 18/18/6 19/19/5
f 9/9/7 21/21/8 4/4/3
f 4/4/3 8/8/2 9/9/7
f 19/19/5 23/23/9 10/10/10
f 10/10/10 8/8/2 19/19/5
f 10/10/10 9/9/7 8/8/2
f 24/24/11 11/11/12 10/10/10
f 10/10/10 23/23/9 24/24/11
f 9/9/7 12/12/13 3/3/14
f 3/3/14 21/21/8 9/9/7
f 10/10/10 11/11/12 12/12/13
f 12/12/13 9/9/7 10/10/10
f 2/2/15 13/13/16 11/11/12
f 11/11/12 24/24/11 2/2/15
f 12/12/13 14/14/17 1/1/18
f 1/1/18 3/3/14 12/12/13
f 14/14/17 12/12/13 11/11/12
f 14/14/17 11/11/12 13/13/16
f 13/13/16 2/2/15 1/1/18
f 14/14/17 13/13/16 1/1/18
f 15/15/4 5/5/19 6/6/20
f 6/6/20 7/7/1 15/15/4
f 7/7/1 6/6/20 30/30/21
f 30/30/21 18/18/6 7/7/1
f 6/6/20 5/5/19 30/30/21
f 16/16/22 15/15/4 4/4/3
f 4/4/3 17/17/23 16/16/22
f 19/19/5 18/18/6 16/16/22
f 16/16/22 17/17/23 19/19/5
f 20/20/24 17/17/23 4/4/3
f 4/4/3 21/21/8 20/20/24
f 19/19/5 17/17/23 22/22/25
f 22/22/25 23/23/9 19/19/5
f 22/22/25 17/17/23 20/20/24
f 24/24/11 23/23/9 22/22/25
f 22/22/25 25/25/26 24/24/11
f 20/20/24 21/21/8 3/3/14
f 3/3/14 26/26/27 20/20/24
f 22/22/25 20/20/24 26/26/27
f 26/26/27 25/25/26 22/22/25
f 2/2/15 24/24/11 25/25/26
f 25/25/26 27/27/28 2/2/15
f 26/26/27 3/3/14 1/1/18
f 1/1/18 28/28/29 26/26/27
f 28/28/29 25/25/26 26/26/27
f 28/28/29 27/27/28 25/25/26
f 27/27/28 1/1/18 2/2/15
f 28/28/29 1/1/18 27/27/28
f 15/15/4 16/16/22 29/29/30
f 29/29/30 5/5/19 15/15/4
f 16/16/22 18/18/6 30/30/21
f 30/30/21 29/29/30 16/16/22
f 29/29/30 30/30/21 5/5/19
