# Blender 3.4.1
# www.blender.org
mtllib Heart.mtl
o Cube.016
v 0.446599 0.554758 -0.088354
v -0.449231 0.553578 -0.088354
v 0.687013 1.897323 -0.064861
v -0.663798 1.897323 -0.111847
v 0.235422 1.897323 -0.111847
v -0.239783 1.897323 -0.064861
v -0.494194 2.047045 0.002572
v -0.449231 1.986906 -0.064861
v 0.491218 0.471683 0.002573
v 0.755673 1.948504 0.002572
v 0.983924 0.963092 0.002573
v 0.446599 1.986906 -0.064861
v -0.986728 1.449408 -0.088354
v -0.001316 1.718157 -0.111847
v 0.984097 1.449408 -0.088354
v -0.897146 1.001493 -0.111847
v 1.082466 1.455798 0.002573
v 0.894514 1.001493 -0.111847
v -0.001316 0.105664 -0.029622
v -0.001316 0.105664 0.040856
v -0.001316 1.001493 0.226530
v -0.449231 1.001493 0.226530
v -0.897146 1.001493 0.123080
v -0.986728 1.449408 0.099587
v 0.894514 1.001493 0.123080
v 0.984097 1.449408 0.099587
v 0.446599 1.001493 0.226530
v -0.663798 1.897323 0.123080
v -0.001316 1.718157 0.123080
v -0.449231 1.449408 0.226530
v -0.449231 1.986906 0.076095
v 0.687013 1.897323 0.076095
v 0.446599 1.986906 0.076095
v 0.446599 1.449408 0.226530
v 0.446599 0.554758 0.099588
v -0.449231 0.553578 0.099588
v -0.239783 1.897323 0.076095
v 0.235422 1.897323 0.123080
v -0.001488 -0.022321 0.002573
v -0.263802 1.948504 0.002572
v 0.491218 2.047045 0.002572
v -0.730218 1.948504 0.002572
v -1.085442 1.455798 0.002573
v 0.258924 1.948504 0.002572
v -0.001488 1.751422 0.002573
v -0.986901 0.963092 0.002573
v -0.494194 0.470385 0.002573
v 0.446599 1.449408 -0.221385
v 0.446599 1.001493 -0.221385
v -0.449231 1.449408 -0.221385
v -0.449231 1.001493 -0.221385
v -0.001316 1.449408 -0.221385
v -0.001316 0.554168 -0.130116
v -0.001316 1.001493 -0.221385
v -0.001316 0.547736 0.132482
vn -0.7396 -0.1314 0.6601
vn 0.5819 0.4036 0.7061
vn 0.5818 0.4036 0.7061
vn 0.5354 -0.5528 0.6386
vn 0.2496 0.6698 0.6993
vn 0.3884 -0.4379 0.8108
vn 0.3885 -0.4379 0.8108
vn 0.3884 -0.4379 0.8107
vn -0.2586 0.7663 0.5881
vn -0.3868 -0.4375 0.8118
vn 0.5620 0.7818 0.2702
vn -0.3264 0.8648 0.3816
vn -0.6486 0.4523 0.6121
vn -0.5893 0.7786 0.2158
vn -0.5354 -0.5514 0.6398
vn 0.1820 0.2239 0.9575
vn 0.0749 -0.2024 0.9764
vn 0.0721 0.2871 0.9552
vn 0.0881 0.0881 0.9922
vn 0.0882 0.0882 0.9922
vn -0.0256 0.2135 0.9766
vn 0.2278 0.0029 0.9737
vn 0.2274 0.0025 0.9738
vn 0.2277 0.0028 0.9737
vn -0.0881 0.0881 0.9922
vn -0.2278 0.0029 0.9737
vn -0.2274 0.0025 0.9738
vn -0.2277 0.0028 0.9737
vn -0.1238 0.1666 0.9782
vn -0.1239 0.1666 0.9782
vn -0.1247 0.1685 0.9778
vn 0.2169 -0.2668 0.9390
vn -0.0744 -0.2024 0.9765
vn -0.2169 -0.2662 0.9392
vn 0.7407 -0.1317 0.6588
vn 0.3501 0.8185 0.4554
vn 0.3434 0.8030 -0.4871
vn 0.7220 -0.1274 -0.6801
vn -0.5220 -0.5386 -0.6614
vn -0.5878 0.7766 -0.2267
vn -0.6346 0.4417 -0.6342
vn -0.3205 0.8566 -0.4043
vn -0.3206 0.8566 -0.4043
vn 0.5580 0.7785 -0.2873
vn -0.3593 -0.4116 -0.8376
vn -0.3593 -0.4115 -0.8376
vn -0.2495 0.7504 -0.6121
vn -0.2494 0.7504 -0.6121
vn 0.3609 -0.4120 -0.8366
vn 0.3609 -0.4121 -0.8366
vn 0.2388 0.6409 -0.7296
vn 0.5221 -0.5400 -0.6602
vn 0.5595 0.3894 -0.7317
vn -0.7208 -0.1271 -0.6814
vn -0.1325 0.1751 -0.9756
vn -0.2282 -0.2772 -0.9333
vn -0.0903 -0.2178 -0.9718
vn 0.2391 0.0016 -0.9710
vn 0.2389 0.0014 -0.9710
vn 0.2390 0.0015 -0.9710
vn 0.2282 -0.2779 -0.9331
vn 0.1898 0.2315 -0.9541
vn -0.0000 -0.0000 -1.0000
vn -0.0450 -0.2428 -0.9690
vn -0.0451 -0.2428 -0.9690
vn 0.0526 0.3231 -0.9449
vn -0.2389 0.0014 -0.9710
vn -0.2391 0.0016 -0.9710
vn -0.2390 0.0016 -0.9710
vn 0.0453 -0.2430 -0.9690
vn 0.0453 -0.2431 -0.9689
vn -0.0214 0.2750 -0.9612
vn -0.0214 0.2749 -0.9612
vn 0.0909 -0.2177 -0.9718
vn -0.0371 -0.2378 0.9706
vn -0.0372 -0.2379 0.9706
vn 0.0375 -0.2382 0.9705
vn 0.0376 -0.2382 0.9705
vn 0.5350 -0.5532 0.6385
vn -0.0255 0.2131 0.9767
vn -0.2276 0.0027 0.9737
vn -0.3592 -0.4116 -0.8376
vn 0.2390 0.0016 -0.9710
vn 0.0527 0.3231 -0.9449
vn -0.0213 0.2750 -0.9612
s 1
usemtl マテリアル
f 46//1 24//1 43//1
f 10//2 26//3 17//2
f 9//4 25//4 35//4
f 41//5 32//5 10//5
f 9//6 20//7 39//8
f 7//9 28//9 31//9
f 47//10 20//10 36//10
f 45//11 37//11 29//11
f 44//12 33//12 41//12
f 42//13 24//13 28//13
f 45//14 38//14 44//14
f 47//15 23//15 46//15
f 34//16 32//16 33//16
f 35//17 55//17 20//17
f 30//18 37//18 31//18
f 21//19 30//20 22//19
f 34//21 38//21 29//21
f 25//22 34//23 27//24
f 21//25 34//25 29//25
f 23//26 30//27 24//28
f 28//29 30//30 31//31
f 35//32 25//32 27//32
f 36//33 20//33 55//33
f 23//34 36//34 22//34
f 11//35 26//35 25//35
f 40//36 31//36 37//36
f 8//37 40//37 6//37
f 15//38 11//38 18//38
f 16//39 47//39 46//39
f 5//40 45//40 44//40
f 13//41 42//41 4//41
f 12//42 44//43 41//43
f 6//44 45//44 14//44
f 19//45 47//46 2//46
f 4//47 7//48 8//47
f 19//49 9//49 39//50
f 3//51 41//51 10//51
f 18//52 9//52 1//52
f 15//53 10//53 17//53
f 13//54 46//54 43//54
f 4//55 50//55 13//55
f 16//56 51//56 2//56
f 2//57 53//57 19//57
f 18//58 48//59 15//60
f 1//61 49//61 18//61
f 48//62 3//62 15//62
f 49//63 52//63 48//63
f 51//64 53//65 2//64
f 14//66 50//66 6//66
f 50//67 16//68 13//69
f 53//70 49//71 1//71
f 5//72 12//73 48//73
f 19//74 53//74 1//74
f 52//63 51//63 50//63
f 55//75 22//76 36//76
f 55//77 27//78 21//77
f 46//1 23//1 24//1
f 10//2 32//2 26//3
f 9//4 11//79 25//4
f 41//5 33//5 32//5
f 9//6 35//7 20//7
f 7//9 42//9 28//9
f 47//10 39//10 20//10
f 45//11 40//11 37//11
f 44//12 38//12 33//12
f 42//13 43//13 24//13
f 45//14 29//14 38//14
f 47//15 36//15 23//15
f 34//16 26//16 32//16
f 30//18 29//18 37//18
f 21//19 29//19 30//20
f 34//21 33//80 38//21
f 25//22 26//24 34//23
f 21//25 27//25 34//25
f 23//26 22//81 30//27
f 28//29 24//30 30//30
f 11//35 17//35 26//35
f 40//36 7//36 31//36
f 8//37 7//37 40//37
f 15//38 17//38 11//38
f 16//39 2//39 47//39
f 5//40 14//40 45//40
f 13//41 43//41 42//41
f 12//42 5//42 44//43
f 6//44 40//44 45//44
f 19//45 39//82 47//46
f 4//47 42//47 7//48
f 19//49 1//50 9//49
f 3//51 12//51 41//51
f 18//52 11//52 9//52
f 15//53 3//53 10//53
f 13//54 16//54 46//54
f 4//55 8//55 50//55
f 18//58 49//83 48//59
f 48//62 12//62 3//62
f 49//63 54//63 52//63
f 51//64 54//64 53//65
f 52//66 50//66 14//66
f 50//66 8//84 6//66
f 50//67 51//69 16//68
f 53//70 54//71 49//71
f 48//73 52//85 14//73
f 14//73 5//72 48//73
f 52//63 54//63 51//63
f 55//75 21//76 22//76
f 55//77 35//77 27//78
