# Blender 3.4.1
# www.blender.org
mtllib AlwaysNeedleBaseCol.mtl
o 平面.001
v -7.532612 7.408844 1.438291
v -7.532613 7.408844 -7.408844
v -7.532612 -7.408844 1.438291
v -7.532612 -7.408844 -7.408844
vn -1.0000 -0.0000 -0.0000
vt 0.000000 0.000000
vt 1.000000 0.000000
vt 0.000000 1.000000
vt 1.000000 1.000000
s 0
f 2/2/1 3/3/1 1/1/1
f 2/2/1 4/4/1 3/3/1
o 平面.002
v 7.468819 7.408844 1.462578
v -7.509240 7.408844 1.462588
v 7.468819 -7.408844 1.462577
v -7.509240 -7.408844 1.462587
vn -0.0000 -0.0000 1.0000
vt 0.000000 0.000000
vt 1.000000 0.000000
vt 0.000000 1.000000
vt 1.000000 1.000000
s 0
f 6/6/2 7/7/2 5/5/2
f 6/6/2 8/8/2 7/7/2
o 平面.003
v 7.499837 7.408844 1.438291
v 7.499836 7.408844 -7.408844
v 7.499837 -7.408844 1.438291
v 7.499837 -7.408844 -7.408844
vn 1.0000 -0.0000 -0.0000
vt 0.000000 0.000000
vt 1.000000 0.000000
vt 0.000000 1.000000
vt 1.000000 1.000000
s 0
f 11/11/3 10/10/3 9/9/3
f 11/11/3 12/12/3 10/10/3
o 平面.004
v 7.468819 7.408843 -7.304531
v -7.509240 7.408843 -7.304521
v 7.468819 -7.408844 -7.304532
v -7.509240 -7.408844 -7.304522
vn -0.0000 -0.0000 -1.0000
vt 0.000000 0.000000
vt 1.000000 0.000000
vt 0.000000 1.000000
vt 1.000000 1.000000
s 0
f 15/15/4 14/14/4 13/13/4
f 15/15/4 16/16/4 14/14/4
