# Blender 3.4.1
# www.blender.org
mtllib FloorCol.mtl
o 平面.013
v -19.811392 0.231790 36.469402
v 19.770281 0.231790 36.469402
v -19.811392 0.231790 -8.958195
v 19.770281 0.231790 -8.958195
vn -0.0000 1.0000 -0.0000
vt 0.000000 0.000000
vt 1.000000 0.000000
vt 0.000000 1.000000
vt 1.000000 1.000000
s 0
f 2/2/1 3/3/1 1/1/1
f 2/2/1 4/4/1 3/3/1
o 平面.014
v -131.163986 0.231790 570.027344
v 132.307251 0.231790 570.027344
v -131.163986 0.231790 299.667938
v 132.307251 0.231790 299.667938
vn -0.0000 1.0000 -0.0000
vt 0.000000 0.000000
vt 1.000000 0.000000
vt 0.000000 1.000000
vt 1.000000 1.000000
s 0
f 6/6/2 7/7/2 5/5/2
f 6/6/2 8/8/2 7/7/2
o 平面.015
v -26.725559 0.231790 1643.327515
v 31.755087 0.231790 1643.327515
v -26.725559 0.231790 1486.855835
v 31.755087 0.231790 1486.855835
vn -0.0000 1.0000 -0.0000
vt 0.000000 0.000000
vt 1.000000 0.000000
vt 0.000000 1.000000
vt 1.000000 1.000000
s 0
f 10/10/3 11/11/3 9/9/3
f 10/10/3 12/12/3 11/11/3
o 平面.017
v -248.071503 0.231790 1931.745361
v 166.320160 0.231790 1890.302002
v -186.736603 0.231790 1686.909912
v 107.206902 0.231790 1651.532471
vn -0.0000 1.0000 -0.0000
vt 0.000000 0.000000
vt 1.000000 0.000000
vt 0.000000 1.000000
vt 1.000000 1.000000
s 0
f 14/14/4 15/15/4 13/13/4
f 14/14/4 16/16/4 15/15/4
