# Blender 3.4.1
# www.blender.org
mtllib WallCol.mtl
o 平面.018
v -132.345261 -0.288896 299.060211
v 132.445694 -0.288896 299.060211
v -132.345261 -92.463493 299.060211
v 132.445694 -92.463493 299.060211
vn -0.0000 -0.0000 -1.0000
vt 0.000000 0.000000
vt 1.000000 0.000000
vt 0.000000 1.000000
vt 1.000000 1.000000
s 0
f 2/2/1 3/3/1 1/1/1
f 2/2/1 4/4/1 3/3/1
o 平面.019
v 132.345245 -0.288898 571.337097
v -132.445694 -0.288898 571.337219
v 132.345245 -92.463501 571.337097
v -132.445694 -92.463501 571.337219
vn -0.0000 -0.0000 1.0000
vt 0.000000 0.000000
vt 1.000000 0.000000
vt 0.000000 1.000000
vt 1.000000 1.000000
s 0
f 6/6/2 7/7/2 5/5/2
f 6/6/2 8/8/2 7/7/2
o 平面.020
v -23.871996 0.637411 1486.734009
v 29.427418 0.637411 1486.734009
v -23.871996 -39.182209 1486.734009
v 29.427418 -39.182209 1486.734009
vn -0.0000 -0.0000 -1.0000
vt 0.000000 0.000000
vt 1.000000 0.000000
vt 0.000000 1.000000
vt 1.000000 1.000000
s 0
f 10/10/3 11/11/3 9/9/3
f 10/10/3 12/12/3 11/11/3
o 立方体.047
v 22.296230 110.871048 1285.497437
v 22.296230 32.308170 1285.497437
v 22.296230 110.871048 1325.558472
v 22.296230 32.308170 1325.558472
v -17.764915 110.871048 1285.497437
v -17.764915 32.308170 1285.497437
v -17.764915 110.871048 1325.558472
v -17.764915 32.308170 1325.558472
vn -1.0000 -0.0000 -0.0000
vn -0.0000 -0.0000 -1.0000
vn 1.0000 -0.0000 -0.0000
vn -0.0000 -0.0000 1.0000
vt 0.375000 0.000000
vt 0.375000 1.000000
vt 0.625000 0.000000
vt 0.625000 1.000000
vt 0.375000 0.250000
vt 0.625000 0.250000
vt 0.375000 0.750000
vt 0.625000 0.750000
vt 0.375000 0.500000
vt 0.625000 0.500000
s 0
f 14/15/4 15/17/4 13/13/4
f 16/18/5 19/21/5 15/17/5
f 20/22/6 17/19/6 19/21/6
f 18/20/7 13/14/7 17/19/7
f 14/15/4 16/18/4 15/17/4
f 16/18/5 20/22/5 19/21/5
f 20/22/6 18/20/6 17/19/6
f 18/20/7 14/16/7 13/14/7
o 平面.021
v -185.972839 0.041663 1688.541626
v 101.543869 0.041663 1647.576782
v -185.972839 -39.777954 1688.541626
v 101.543869 -39.777954 1647.576782
vn -0.1411 -0.0000 -0.9900
vt 0.000000 0.000000
vt 1.000000 0.000000
vt 0.000000 1.000000
vt 1.000000 1.000000
s 0
f 22/24/8 23/25/8 21/23/8
f 22/24/8 24/26/8 23/25/8
o 平面.022
v 29.192314 0.637411 1644.667603
v -24.107098 0.637411 1644.667603
v 29.192314 -39.182209 1644.667603
v -24.107098 -39.182209 1644.667603
vn -0.0000 -0.0000 1.0000
vt 0.000000 0.000000
vt 1.000000 0.000000
vt 0.000000 1.000000
vt 1.000000 1.000000
s 0
f 26/28/9 27/29/9 25/27/9
f 26/28/9 28/30/9 27/29/9
o 平面.023
v 19.256298 -0.288896 35.588188
v -19.270914 -0.288896 35.588203
v 19.256298 -92.463493 35.588188
v -19.270914 -92.463493 35.588203
vn -0.0000 -0.0000 1.0000
vt 0.000000 0.000000
vt 1.000000 0.000000
vt 0.000000 1.000000
vt 1.000000 1.000000
s 0
f 30/32/10 31/33/10 29/31/10
f 30/32/10 32/34/10 31/33/10
o 立方体.048
v -156.537201 -11.208332 1913.135742
v -156.537201 207.786102 1913.135742
v -182.053482 -11.208332 1694.548584
v -182.053482 207.786102 1694.548584
v 129.032104 -11.208332 1879.800415
v 129.032104 207.786102 1879.800415
v 107.552284 -11.208332 1649.488403
v 107.552284 207.786102 1649.488403
vn 0.9933 -0.0000 -0.1159
vn -0.9957 -0.0000 0.0929
vn -0.1159 -0.0000 -0.9933
vt 0.375000 0.000000
vt 0.375000 1.000000
vt 0.625000 0.000000
vt 0.625000 1.000000
vt 0.375000 0.250000
vt 0.625000 0.250000
vt 0.375000 0.750000
vt 0.625000 0.750000
vt 0.375000 0.500000
vt 0.625000 0.500000
s 0
f 35/39/11 34/37/11 33/35/11
f 37/41/12 40/44/12 39/43/12
f 33/36/13 38/42/13 37/41/13
f 35/39/11 36/40/11 34/37/11
f 37/41/12 38/42/12 40/44/12
f 33/36/13 34/38/13 38/42/13
