# Blender 3.4.1
# www.blender.org
mtllib HighJumpKinokoCol.mtl
o 立方体
v -4.166871 -7.567882 3.621545
v -4.580894 4.909515 3.971838
v -4.370798 -7.567882 -3.194011
v -4.804940 4.909515 -3.516120
v 4.401750 -7.567882 3.428457
v 4.833081 4.909515 3.759701
v 4.227171 -7.567882 -3.378270
v 4.641278 4.909515 -3.718557
v -0.047352 -7.567882 -5.424526
v -0.054956 4.909515 -5.966690
v -5.386421 -7.567882 0.002165
v -5.920761 4.909515 -0.004619
v 0.117439 -7.567882 5.486941
v 0.126093 4.909515 6.021268
v 5.462862 -7.567882 0.025094
v 5.998878 4.909515 0.020572
vn -0.9522 -0.0409 -0.3026
vn 0.4315 -0.0389 -0.9013
vn 0.9539 -0.0409 0.2974
vn -0.3989 -0.0390 0.9162
vn -0.0000 1.0000 -0.0000
vn -0.4581 -0.0389 -0.8880
vn -0.9469 -0.0404 0.3191
vn 0.4327 -0.0389 0.9007
vn 0.9392 -0.0405 -0.3410
vt 0.375000 1.000000
vt 0.375000 0.000000
vt 0.625000 1.000000
vt 0.875000 0.750000
vt 0.625000 0.000000
vt 0.375000 0.250000
vt 0.875000 0.500000
vt 0.625000 0.250000
vt 0.375000 0.750000
vt 0.625000 0.750000
vt 0.375000 0.500000
vt 0.625000 0.500000
vt 0.375000 0.375000
vt 0.750000 0.500000
vt 0.625000 0.375000
vt 0.375000 0.125000
vt 0.875000 0.625000
vt 0.625000 0.125000
vt 0.375000 0.875000
vt 0.750000 0.750000
vt 0.625000 0.875000
vt 0.375000 0.625000
vt 0.625000 0.625000
s 0
f 12/18/1 3/6/1 11/16/1
f 9/13/2 8/12/2 7/11/2
f 16/23/3 5/9/3 15/22/3
f 14/21/4 1/1/4 13/19/4
f 8/12/5 12/17/5 14/20/5
f 4/8/6 9/13/6 3/6/6
f 1/2/7 12/18/7 11/16/7
f 5/9/8 14/21/8 13/19/8
f 8/12/9 15/22/9 7/11/9
f 12/18/1 4/8/1 3/6/1
f 9/13/2 10/15/2 8/12/2
f 16/23/3 6/10/3 5/9/3
f 14/21/4 2/3/4 1/1/4
f 16/23/5 8/12/5 14/20/5
f 8/12/5 10/14/5 12/17/5
f 10/14/5 4/7/5 12/17/5
f 12/17/5 2/4/5 14/20/5
f 14/20/5 6/10/5 16/23/5
f 4/8/6 10/15/6 9/13/6
f 1/2/7 2/5/7 12/18/7
f 5/9/8 6/10/8 14/21/8
f 8/12/9 16/23/9 15/22/9
