# Blender 3.4.1
# www.blender.org
mtllib PointLine.mtl
o 立方体
v -37.192860 -1.035783 65.618530
v -37.192860 1.007390 65.618530
v -37.192860 -1.035783 -65.618530
v -37.192860 1.007390 -65.618530
v 37.192860 -1.035783 65.618530
v 37.192860 1.007390 65.618530
v 37.192860 -1.035783 -65.618530
v 37.192860 1.007390 -65.618530
v -39.795937 -1.035783 -65.972504
v -37.546833 -1.035783 -68.221603
v -38.205582 -1.035783 -66.631248
v -39.624737 -1.035783 -66.833199
v -39.137192 -1.035783 -67.562866
v -38.407532 -1.035783 -68.050407
v -37.546833 -1.035783 68.221603
v -39.795937 -1.035783 65.972504
v -38.205582 -1.035783 66.631248
v -38.407532 -1.035783 68.050407
v -39.137192 -1.035783 67.562866
v -39.624737 -1.035783 66.833199
v -39.795937 1.007390 65.972504
v -37.546833 1.007390 68.221603
v -38.205582 1.007390 66.631248
v -39.624737 1.007390 66.833199
v -39.137192 1.007390 67.562866
v -38.407532 1.007390 68.050407
v -37.546833 1.007390 -68.221603
v -39.795937 1.007390 -65.972504
v -38.205582 1.007390 -66.631248
v -38.407532 1.007390 -68.050407
v -39.137192 1.007390 -67.562866
v -39.624737 1.007390 -66.833199
v 37.546833 -1.035783 -68.221603
v 39.795937 -1.035783 -65.972504
v 38.205582 -1.035783 -66.631248
v 38.407532 -1.035783 -68.050407
v 39.137192 -1.035783 -67.562866
v 39.624737 -1.035783 -66.833199
v 39.795937 1.007390 -65.972504
v 37.546833 1.007390 -68.221603
v 38.205582 1.007390 -66.631248
v 39.624737 1.007390 -66.833199
v 39.137192 1.007390 -67.562866
v 38.407532 1.007390 -68.050407
v 39.795937 -1.035783 65.972504
v 37.546833 -1.035783 68.221603
v 38.205582 -1.035783 66.631248
v 39.624737 -1.035783 66.833199
v 39.137192 -1.035783 67.562866
v 38.407532 -1.035783 68.050407
v 37.546833 1.007390 68.221603
v 39.795937 1.007390 65.972504
v 38.205582 1.007390 66.631248
v 38.407532 1.007390 68.050407
v 39.137192 1.007390 67.562866
v 39.624737 1.007390 66.833199
vn -0.0000 -0.0000 -1.0000
vn -0.0000 -1.0000 -0.0000
vn 1.0000 -0.0000 -0.0000
vn -0.0000 -0.0000 1.0000
vn -1.0000 -0.0000 -0.0000
vn -0.0000 1.0000 -0.0000
vn -0.1951 -0.0000 0.9808
vn -0.5556 -0.0000 0.8315
vn -0.8315 -0.0000 0.5556
vn -0.9808 -0.0000 0.1951
vn -0.1951 -0.0000 -0.9808
vn -0.5556 -0.0000 -0.8315
vn -0.8315 -0.0000 -0.5556
vn -0.9808 -0.0000 -0.1951
vn 0.9808 -0.0000 -0.1951
vn 0.8315 -0.0000 -0.5556
vn 0.5556 -0.0000 -0.8315
vn 0.1951 -0.0000 -0.9808
vn 0.1951 -0.0000 0.9808
vn 0.5556 -0.0000 0.8315
vn 0.8315 -0.0000 0.5556
vn 0.9808 -0.0000 0.1951
vt 0.133176 0.745230
vt 0.866824 0.745230
vt 0.133176 0.504770
vt 0.866824 0.504770
vt 0.366824 0.745230
vt 0.633176 0.745230
vt 0.366824 0.504770
vt 0.633176 0.504770
vt 0.375000 0.245879
vt 0.125000 0.504121
vt 0.128532 0.502060
vt 0.132064 0.500000
vt 0.375000 0.257064
vt 0.129995 0.502914
vt 0.125538 0.502544
vt 0.375000 0.247456
vt 0.127069 0.501207
vt 0.375000 0.250000
vt 0.127449 0.501429
vt 0.375000 0.254361
vt 0.128532 0.747940
vt 0.132064 0.750000
vt 0.375000 0.992935
vt 0.375000 0.004121
vt 0.125000 0.745879
vt 0.129995 0.747086
vt 0.129361 0.749686
vt 0.375000 0.995639
vt 0.127069 0.748793
vt 0.375000 0.000000
vt 0.375000 1.000000
vt 0.125000 0.747456
vt 0.375000 0.002544
vt 0.875000 0.745879
vt 0.625000 0.004121
vt 0.871468 0.747940
vt 0.867935 0.750000
vt 0.625000 0.992936
vt 0.870005 0.747086
vt 0.874462 0.747456
vt 0.625000 0.002544
vt 0.872931 0.748793
vt 0.625000 1.000000
vt 0.625000 0.000000
vt 0.872551 0.748571
vt 0.625000 0.995639
vt 0.871468 0.502060
vt 0.625000 0.257064
vt 0.867936 0.500000
vt 0.875000 0.504121
vt 0.625000 0.245879
vt 0.870005 0.502914
vt 0.870639 0.500314
vt 0.625000 0.254361
vt 0.872931 0.501207
vt 0.625000 0.250000
vt 0.875000 0.502544
vt 0.625000 0.247456
vt 0.367936 0.500000
vt 0.375000 0.492936
vt 0.371468 0.502060
vt 0.375000 0.504121
vt 0.370005 0.502914
vt 0.370639 0.500314
vt 0.375000 0.495639
vt 0.372931 0.501207
vt 0.375000 0.500000
vt 0.372551 0.501429
vt 0.375000 0.502544
vt 0.628532 0.502060
vt 0.625000 0.504121
vt 0.632064 0.500000
vt 0.625000 0.492936
vt 0.629995 0.502914
vt 0.625538 0.502544
vt 0.625000 0.502544
vt 0.627069 0.501207
vt 0.625000 0.500000
vt 0.629361 0.500000
vt 0.625000 0.495639
vt 0.371468 0.747940
vt 0.375000 0.745879
vt 0.367935 0.750000
vt 0.375000 0.757064
vt 0.370005 0.747086
vt 0.374462 0.747456
vt 0.375000 0.747456
vt 0.372931 0.748793
vt 0.375000 0.750000
vt 0.370639 0.750000
vt 0.375000 0.754361
vt 0.632064 0.750000
vt 0.625000 0.757064
vt 0.628532 0.747940
vt 0.625000 0.745879
vt 0.629995 0.747086
vt 0.629361 0.749686
vt 0.625000 0.754361
vt 0.627069 0.748793
vt 0.625000 0.750000
vt 0.627449 0.748571
vt 0.625000 0.747456
s 0
usemtl マテリアル.001
f 27/48/1 33/60/1 10/13/1
f 10/12/2 33/59/2 3/3/2
f 34/62/2 45/82/2 7/7/2
f 46/83/2 15/22/2 5/5/2
f 4/4/3 1/1/3 3/3/3
f 8/8/4 3/3/4 7/7/4
f 21/35/5 9/9/5 16/24/5
f 22/37/6 51/92/6 2/2/6
f 51/93/4 15/23/4 46/84/4
f 39/71/3 45/82/3 34/62/3
f 52/95/6 39/71/6 6/6/6
f 28/50/6 21/34/6 4/4/6
f 40/72/6 27/49/6 8/8/6
f 6/6/5 7/7/5 5/5/5
f 2/2/1 5/5/1 1/1/1
f 9/10/2 12/15/2 11/14/2
f 12/15/2 13/17/2 11/14/2
f 13/17/2 14/19/2 11/14/2
f 14/19/2 10/11/2 11/14/2
f 15/21/2 18/27/2 17/26/2
f 18/27/2 19/29/2 17/26/2
f 19/29/2 20/32/2 17/26/2
f 20/32/2 16/25/2 17/26/2
f 21/34/6 24/40/6 23/39/6
f 24/40/6 25/42/6 23/39/6
f 25/42/6 26/45/6 23/39/6
f 26/45/6 22/36/6 23/39/6
f 27/47/6 30/53/6 29/52/6
f 30/53/6 31/55/6 29/52/6
f 31/55/6 32/57/6 29/52/6
f 32/57/6 28/50/6 29/52/6
f 33/59/2 36/64/2 35/63/2
f 36/64/2 37/66/2 35/63/2
f 37/66/2 38/68/2 35/63/2
f 38/68/2 34/61/2 35/63/2
f 39/70/6 42/75/6 41/74/6
f 42/75/6 43/77/6 41/74/6
f 43/77/6 44/79/6 41/74/6
f 44/79/6 40/72/6 41/74/6
f 45/81/2 48/86/2 47/85/2
f 48/86/2 49/88/2 47/85/2
f 49/88/2 50/90/2 47/85/2
f 50/90/2 46/83/2 47/85/2
f 51/92/6 54/97/6 53/96/6
f 54/97/6 55/99/6 53/96/6
f 55/99/6 56/101/6 53/96/6
f 56/101/6 52/94/6 53/96/6
f 22/38/7 18/28/7 15/23/7
f 26/46/8 19/31/8 18/28/8
f 25/44/9 20/33/9 19/30/9
f 24/41/10 16/24/10 20/33/10
f 10/13/11 30/54/11 27/48/11
f 14/20/12 31/56/12 30/54/12
f 13/18/13 32/58/13 31/56/13
f 12/16/14 28/51/14 32/58/14
f 34/62/15 42/76/15 39/71/15
f 38/69/16 43/78/16 42/76/16
f 37/67/17 44/80/17 43/78/17
f 36/65/18 40/73/18 44/80/18
f 46/84/19 54/98/19 51/93/19
f 50/91/20 55/100/20 54/98/20
f 49/89/21 56/102/21 55/100/21
f 48/87/22 52/95/22 56/102/22
f 16/25/2 9/10/2 1/1/2
f 27/48/1 40/73/1 33/60/1
f 35/63/2 7/7/2 33/59/2
f 7/7/2 3/3/2 33/59/2
f 3/3/2 11/14/2 10/12/2
f 47/85/2 5/5/2 45/82/2
f 5/5/2 7/7/2 45/82/2
f 7/7/2 35/63/2 34/62/2
f 17/26/2 1/1/2 15/22/2
f 1/1/2 5/5/2 15/22/2
f 5/5/2 47/85/2 46/83/2
f 4/4/3 2/2/3 1/1/3
f 8/8/4 4/4/4 3/3/4
f 21/35/5 28/51/5 9/9/5
f 53/96/6 6/6/6 51/92/6
f 6/6/6 2/2/6 51/92/6
f 2/2/6 23/39/6 22/37/6
f 51/93/4 22/38/4 15/23/4
f 39/71/3 52/95/3 45/82/3
f 41/74/6 8/8/6 39/71/6
f 8/8/6 6/6/6 39/71/6
f 6/6/6 53/96/6 52/95/6
f 23/39/6 2/2/6 21/34/6
f 2/2/6 4/4/6 21/34/6
f 4/4/6 29/52/6 28/50/6
f 29/52/6 4/4/6 27/49/6
f 4/4/6 8/8/6 27/49/6
f 8/8/6 41/74/6 40/72/6
f 6/6/5 8/8/5 7/7/5
f 2/2/1 6/6/1 5/5/1
f 22/38/7 26/46/7 18/28/7
f 26/46/8 25/43/8 19/31/8
f 25/44/9 24/41/9 20/33/9
f 24/41/10 21/35/10 16/24/10
f 10/13/11 14/20/11 30/54/11
f 14/20/12 13/18/12 31/56/12
f 13/18/13 12/16/13 32/58/13
f 12/16/14 9/9/14 28/51/14
f 34/62/15 38/69/15 42/76/15
f 38/69/16 37/67/16 43/78/16
f 37/67/17 36/65/17 44/80/17
f 36/65/18 33/60/18 40/73/18
f 46/84/19 50/91/19 54/98/19
f 50/91/20 49/89/20 55/100/20
f 49/89/21 48/87/21 56/102/21
f 48/87/22 45/82/22 52/95/22
f 11/14/2 3/3/2 9/10/2
f 3/3/2 1/1/2 9/10/2
f 1/1/2 17/26/2 16/25/2
