# Blender 3.4.1
# www.blender.org
mtllib GameStage_1(StageSky).mtl
o 立方体
v 88.109756 -49.453785 63.687199
v 88.109756 132.989365 63.687199
v -84.451981 -49.453785 63.687206
v -84.451981 132.989365 63.687206
v 88.109741 -49.453785 -309.352478
v 88.109741 132.989365 -309.352478
v -84.451996 -49.453785 -309.352478
v -84.451996 132.989365 -309.352478
vn -0.0000 -0.0000 -1.0000
vn 1.0000 -0.0000 -0.0000
vn -0.0000 -0.0000 1.0000
vn -1.0000 -0.0000 -0.0000
vn -0.0000 1.0000 -0.0000
vn -0.0000 -1.0000 -0.0000
vt 0.375000 0.000000
vt 0.375000 1.000000
vt 0.125000 0.750000
vt 0.625000 0.000000
vt 0.625000 1.000000
vt 0.875000 0.750000
vt 0.125000 0.500000
vt 0.375000 0.250000
vt 0.625000 0.250000
vt 0.875000 0.500000
vt 0.375000 0.750000
vt 0.625000 0.750000
vt 0.375000 0.500000
vt 0.625000 0.500000
s 0
usemtl マテリアル.004
f 2/4/1 1/1/1 3/8/1
f 4/9/2 3/8/2 7/13/2
f 8/14/3 7/13/3 5/11/3
f 6/12/4 5/11/4 1/2/4
f 7/13/5 3/7/5 1/3/5
f 4/10/6 8/14/6 6/12/6
f 2/4/1 3/8/1 4/9/1
f 4/9/2 7/13/2 8/14/2
f 8/14/3 5/11/3 6/12/3
f 6/12/4 1/2/4 2/5/4
f 7/13/5 1/3/5 5/11/5
f 4/10/6 6/12/6 2/6/6
