# Blender 3.4.1
# www.blender.org
mtllib GameStage_1(floorCol).mtl
o 平面.018
v -24.373030 15.044635 6.629992
v 19.731913 15.044635 6.643901
v -24.240131 15.044635 -7.968874
v 19.665203 15.044635 -7.950767
v 22.645712 15.044635 3.665512
v 22.631887 15.044635 -4.993750
v 20.805931 15.044635 6.403663
v 21.776281 15.044635 5.760490
v 22.418339 15.044635 4.791101
v 22.417410 15.044635 -6.107862
v 21.777746 15.044635 -7.072121
v 20.811295 15.044635 -7.729453
v -25.086287 15.044635 -7.803142
v -25.685244 15.044635 -7.377589
v -26.098581 15.044635 -6.773612
v -26.234697 15.044635 -6.051357
v -26.261606 15.044635 4.724990
v -25.065132 15.044635 6.488162
v -26.098827 15.044635 5.469626
v -25.692560 15.044635 6.073244
vn -0.0000 1.0000 -0.0000
vt 0.000000 0.000000
vt 0.940721 0.000000
vt 0.040739 1.000000
vt 0.941644 1.000000
vt 1.000000 0.206020
vt 1.000000 0.797806
vt 0.955540 0.051505
vt 0.970360 0.103010
vt 0.985180 0.154515
vt 0.985411 0.848355
vt 0.970822 0.898903
vt 0.956233 0.949452
vt 0.000000 0.857143
vt 0.000000 0.714286
vt 0.000000 0.571429
vt 0.000000 0.428571
vt 0.000000 0.285714
vt 0.000000 0.142857
vt 0.000000 0.238095
vt 0.000000 0.190476
s 0
f 3/3/1 14/14/1 16/16/1
f 18/18/1 1/1/1 19/19/1
f 1/1/1 2/2/1 3/3/1
f 2/2/1 7/7/1 5/5/1
f 7/7/1 8/8/1 9/9/1
f 5/5/1 7/7/1 9/9/1
f 5/5/1 6/6/1 4/4/1
f 6/6/1 10/10/1 11/11/1
f 4/4/1 6/6/1 11/11/1
f 11/11/1 12/12/1 4/4/1
f 4/4/1 3/3/1 2/2/1
f 3/3/1 13/13/1 14/14/1
f 14/14/1 15/15/1 16/16/1
f 16/16/1 17/17/1 3/3/1
f 17/17/1 19/19/1 1/1/1
f 19/19/1 20/20/1 18/18/1
f 1/1/1 3/3/1 17/17/1
f 2/2/1 5/5/1 4/4/1
o 平面.005
v 139.240662 15.665867 -9.664170
v 147.568893 15.661945 -9.657206
v 145.253815 15.664614 -22.061262
v 147.574463 15.661945 -22.061262
v 139.346283 15.665240 -12.158678
v 145.244598 15.664927 -12.183866
vn 0.0011 1.0000 -0.0000
vn 0.0001 1.0000 -0.0002
vn 0.0005 1.0000 0.0007
vn 0.0013 1.0000 -0.0000
vt 0.000000 0.000000
vt 1.000000 0.000000
vt 0.000000 1.000000
vt 1.000000 1.000000
vt 0.000000 0.500000
vt 0.000000 0.750000
s 0
f 24/24/2 23/23/2 26/26/2
f 25/25/3 21/21/3 26/26/3
f 21/21/4 22/22/4 26/26/4
f 22/22/5 24/24/5 26/26/5
o 平面.024
v 138.025894 30.982670 -43.436241
v 156.066757 30.982670 -43.306168
v 138.020309 30.983276 -59.505299
v 156.080688 30.975634 -59.505894
v 155.980286 30.982645 -59.822098
v 155.748138 31.003950 -60.004501
v 155.574127 31.016560 -60.032738
v 138.343674 30.977835 -60.041103
v 137.970779 30.980156 -59.892487
v 137.860184 30.976334 -59.719151
v 137.834167 30.982670 -43.233730
v 137.929382 30.982670 -43.140656
v 138.279282 30.982670 -43.164314
v 155.934387 30.982670 -43.158829
v 138.312668 30.955557 -59.839401
vn 0.0859 0.9963 -0.0052
vn -0.0000 1.0000 -0.0000
vn -0.0005 1.0000 -0.0004
vn 0.0004 1.0000 -0.0004
vn 0.0004 0.9970 0.0770
vn 0.0673 0.9973 0.0309
vn -0.0022 0.9999 -0.0115
vn 0.0029 1.0000 -0.0084
vn -0.0393 0.9992 -0.0030
vt 0.000000 0.000000
vt 1.000000 0.000000
vt 0.000000 1.000000
vt 1.000000 1.000000
vt 0.777778 1.000000
vt 0.666667 1.000000
vt 0.555556 1.000000
vt 0.444444 1.000000
vt 0.333333 1.000000
vt 0.222222 1.000000
vt 0.166667 0.000000
vt 0.333333 0.000000
vt 0.500000 0.000000
vt 0.833333 0.000000
s 0
f 31/31/6 33/33/6 30/30/6
f 29/29/7 27/27/7 40/40/7
f 27/27/7 37/37/7 38/38/7
f 39/39/7 27/27/7 38/38/7
f 39/39/7 40/40/7 27/27/7
f 40/40/8 28/28/8 30/30/8
f 29/29/9 40/40/9 30/30/9
f 29/29/10 30/30/10 33/33/10
f 31/31/11 32/32/11 33/33/11
f 33/33/12 34/34/12 29/29/12
f 34/34/13 35/35/13 29/29/13
f 35/35/14 36/36/14 29/29/14
l 35 41
o 平面.025
v 164.269485 43.496517 30.662167
v 170.847870 43.496517 32.396168
v 164.275787 43.496517 25.846039
v 172.269577 43.496517 24.779980
v 171.879425 43.496517 24.394747
v 171.396393 43.496517 24.143700
v 170.861725 43.496517 24.057800
v 166.070740 43.496517 24.055412
v 165.526703 43.496517 24.138414
v 165.017380 43.496517 24.389381
v 164.618790 43.496517 24.787666
v 164.364716 43.496517 25.307940
v 171.379913 43.496517 32.310257
v 171.885345 43.496517 32.057011
v 172.279755 43.496517 31.657536
v 172.519867 43.496517 31.167898
v 172.625931 43.496517 30.622843
v 172.619019 43.496517 25.842167
v 172.528748 43.496517 25.293058
v 164.371490 43.496517 31.198681
v 164.620789 43.496517 31.667627
v 165.001144 43.496517 32.052803
v 165.661224 43.496517 32.344746
vn -0.0000 1.0000 -0.0000
vt 0.000000 0.000000
vt 1.000000 0.000000
vt 0.000000 1.000000
vt 1.000000 1.000000
vt 0.888889 1.000000
vt 0.777778 1.000000
vt 0.666667 1.000000
vt 0.555556 1.000000
vt 0.444444 1.000000
vt 0.333333 1.000000
vt 0.222222 1.000000
vt 0.111111 1.000000
vt 1.000000 0.125000
vt 1.000000 0.250000
vt 1.000000 0.375000
vt 1.000000 0.500000
vt 1.000000 0.625000
vt 1.000000 0.750000
vt 1.000000 0.875000
vt 0.200000 0.000000
vt 0.400000 0.000000
vt 0.600000 0.000000
vt 0.800000 0.000000
s 0
f 44/43/15 43/42/15 49/48/15
f 44/43/15 42/41/15 43/42/15
f 42/41/15 61/60/15 64/63/15
f 43/42/15 42/41/15 64/63/15
f 61/60/15 62/61/15 64/63/15
f 62/61/15 63/62/15 64/63/15
f 43/42/15 54/53/15 57/56/15
f 54/53/15 55/54/15 57/56/15
f 55/54/15 56/55/15 57/56/15
f 57/56/15 58/57/15 43/42/15
f 58/57/15 59/58/15 43/42/15
f 59/58/15 60/59/15 48/47/15
f 60/59/15 45/44/15 46/45/15
f 48/47/15 60/59/15 46/45/15
f 46/45/15 47/46/15 48/47/15
f 48/47/15 49/48/15 59/58/15
f 49/48/15 50/49/15 53/52/15
f 50/49/15 51/50/15 53/52/15
f 51/50/15 52/51/15 53/52/15
f 53/52/15 44/43/15 49/48/15
f 43/42/15 59/58/15 49/48/15
o 平面.026
v 138.342636 35.435097 -10.460422
v 156.330063 35.435097 -9.355840
v 138.199905 35.435097 -41.714378
v 156.219879 35.435097 -43.770966
v 140.702301 35.435097 -44.113346
v 138.915161 35.435097 -43.426403
v 139.724365 35.435097 -8.941711
v 140.631409 35.435097 -8.806495
v 154.403946 35.435097 -8.765093
v 155.977966 35.435097 -9.061093
vn -0.0000 1.0000 -0.0000
vt 0.000000 0.000000
vt 1.000000 0.000000
vt 0.000000 1.000000
vt 1.000000 1.000000
vt 0.333333 1.000000
vt 0.166667 1.000000
vt 0.166667 0.000000
vt 0.333333 0.000000
vt 0.666667 0.000000
vt 0.833333 0.000000
s 0
f 69/68/16 70/69/16 67/66/16
f 67/66/16 65/64/16 73/72/16
f 65/64/16 71/70/16 72/71/16
f 73/72/16 65/64/16 72/71/16
f 73/72/16 74/73/16 66/65/16
f 66/65/16 68/67/16 73/72/16
f 68/67/16 69/68/16 67/66/16
f 73/72/16 68/67/16 67/66/16
o 平面.027
v 156.186905 39.869469 -9.650492
v 200.409088 39.869469 -9.638313
v 155.969589 39.869469 -43.237507
v 200.422882 39.869469 -43.127247
vn -0.0000 1.0000 -0.0000
vt 0.000000 0.000000
vt 1.000000 0.000000
vt 0.000000 1.000000
vt 1.000000 1.000000
s 0
f 75/74/17 78/77/17 77/76/17
f 75/74/17 76/75/17 78/77/17
o 平面.028
v 248.864410 51.108116 0.069889
v 297.210571 51.108116 0.202822
v 249.033615 51.108116 -52.433437
v 297.041382 51.108116 -52.203819
vn -0.0000 1.0000 -0.0000
vt 0.000000 0.000000
vt 1.000000 0.000000
vt 0.000000 1.000000
vt 1.000000 1.000000
s 0
f 79/78/18 82/81/18 81/80/18
f 79/78/18 80/79/18 82/81/18
o 平面.029
v 265.884766 49.646042 -75.038170
v 276.792847 49.646042 -67.269844
v 276.035767 49.646042 -107.756767
v 301.028320 49.646042 -86.467896
v 267.139557 49.646042 -103.750298
v 259.723694 49.646042 -94.146690
v 257.453827 49.646042 -81.723366
v 288.367798 49.646042 -69.735687
v 295.050537 49.646042 -75.190437
v 295.517181 49.646042 -96.990143
v 288.328308 49.646042 -104.269707
vn -0.0000 1.0000 -0.0000
vt 0.000000 0.000000
vt 1.000000 0.000000
vt 0.000000 1.000000
vt 1.000000 1.000000
vt 0.000000 0.750000
vt 0.000000 0.500000
vt 0.000000 0.250000
vt 1.000000 0.333333
vt 1.000000 0.666667
vt 0.666667 1.000000
vt 0.333333 1.000000
s 0
f 92/91/19 83/82/19 91/90/19
f 89/88/19 83/82/19 88/87/19
f 83/82/19 84/83/19 90/89/19
f 88/87/19 83/82/19 87/86/19
f 90/89/19 91/90/19 83/82/19
f 91/90/19 86/85/19 92/91/19
f 92/91/19 93/92/19 83/82/19
f 93/92/19 85/84/19 87/86/19
f 93/92/19 87/86/19 83/82/19
o 平面.030
v 69.290970 24.311953 -46.435848
v 76.155205 24.311953 -46.438011
v 69.308655 24.311953 -56.327171
v 76.096649 24.311953 -56.341156
v 68.425751 24.311953 -56.055199
v 67.833839 24.311953 -55.219292
v 67.753975 24.311953 -54.696934
v 67.753059 24.311953 -48.081875
v 67.826584 24.311953 -47.503120
v 68.425690 24.311953 -46.732635
v 76.995193 24.311953 -46.708767
v 77.573517 24.311953 -47.516380
v 77.669113 24.311953 -48.100677
v 77.666313 24.311953 -54.703304
v 77.563408 24.311953 -55.267303
v 76.977776 24.311953 -56.027546
vn -0.0000 1.0000 -0.0000
vt 0.000000 0.000000
vt 1.000000 0.000000
vt 0.000000 1.000000
vt 1.000000 1.000000
vt 0.000000 0.857143
vt 0.000000 0.714286
vt 0.000000 0.571429
vt 0.000000 0.428571
vt 0.000000 0.285714
vt 0.000000 0.142857
vt 1.000000 0.125000
vt 1.000000 0.250000
vt 1.000000 0.375000
vt 1.000000 0.625000
vt 1.000000 0.750000
vt 1.000000 0.875000
s 0
f 107/106/20 96/95/20 100/99/20
f 103/102/20 94/93/20 101/100/20
f 94/93/20 95/94/20 106/105/20
f 101/100/20 94/93/20 106/105/20
f 95/94/20 104/103/20 105/104/20
f 105/104/20 106/105/20 95/94/20
f 106/105/20 107/106/20 100/99/20
f 107/106/20 108/107/20 109/108/20
f 109/108/20 97/96/20 107/106/20
f 97/96/20 96/95/20 107/106/20
f 96/95/20 98/97/20 99/98/20
f 99/98/20 100/99/20 96/95/20
f 100/99/20 101/100/20 106/105/20
f 101/100/20 102/101/20 103/102/20
o 盛山４
v 35.691257 15.671552 4.311509
v 136.650955 15.671552 -7.469195
v 38.381012 15.671552 -62.834114
v 136.783691 15.671552 -62.792759
v 51.308998 15.671552 -7.492422
v 51.334232 15.671552 4.259219
v 35.916977 15.671552 5.414070
v 36.597061 15.671552 6.379466
v 37.539482 15.671552 6.996801
v 38.692799 15.671552 7.243787
v 47.394215 15.671552 7.235473
v 50.443851 15.671552 6.350837
v 51.094795 15.671552 5.399332
v 37.326851 15.671552 -62.591846
v 36.491898 15.671552 -62.047527
v 35.891037 15.671552 -61.161396
v 35.673904 15.671552 -60.101639
v 137.687775 15.671552 -7.689993
v 138.566040 15.671552 -8.266459
v 139.144501 15.671552 -9.141022
v 139.340927 15.671552 -60.104340
v 139.167633 15.671552 -61.123398
v 138.542419 15.671552 -62.019680
v 137.701584 15.671552 -62.590466
v 139.347763 15.671552 -10.191877
vn -0.0000 1.0000 -0.0000
vt 0.000000 0.000000
vt 0.000000 0.000000
vt 0.000000 0.000000
vt 0.000000 0.000000
vt 0.000000 0.000000
vt 0.000000 0.000000
vt 0.000000 0.000000
vt 0.000000 0.000000
vt 0.000000 0.000000
vt 0.000000 0.000000
vt 0.000000 0.000000
vt 0.000000 0.000000
vt 0.000000 0.000000
vt 0.000000 0.000000
vt 0.000000 0.000000
vt 0.000000 0.000000
vt 0.000000 0.000000
vt 0.000000 0.000000
vt 0.000000 0.000000
vt 0.000000 0.000000
vt 0.000000 0.000000
vt 0.000000 0.000000
vt 0.000000 0.000000
vt 0.000000 0.000000
vt 0.000000 0.000000
s 0
f 130/129/21 132/131/21 113/112/21
f 126/125/21 110/109/21 114/113/21
f 110/109/21 116/115/21 117/116/21
f 114/113/21 110/109/21 120/119/21
f 117/116/21 118/117/21 110/109/21
f 118/117/21 119/118/21 110/109/21
f 119/118/21 120/119/21 110/109/21
f 120/119/21 121/120/21 115/114/21
f 121/120/21 122/121/21 115/114/21
f 115/114/21 114/113/21 120/119/21
f 114/113/21 111/110/21 113/112/21
f 111/110/21 127/126/21 134/133/21
f 113/112/21 111/110/21 130/129/21
f 127/126/21 128/127/21 129/128/21
f 129/128/21 134/133/21 127/126/21
f 134/133/21 130/129/21 111/110/21
f 130/129/21 131/130/21 132/131/21
f 132/131/21 133/132/21 113/112/21
f 113/112/21 112/111/21 114/113/21
f 112/111/21 123/122/21 126/125/21
f 114/113/21 112/111/21 126/125/21
f 123/122/21 124/123/21 125/124/21
f 125/124/21 126/125/21 123/122/21
o 平面
v -19.519291 15.326879 2.206058
v -18.557362 15.326879 2.365429
v -20.654276 15.326879 -2.789703
v -18.682274 15.326879 -3.649019
v -17.016048 15.326879 1.924412
v -16.069149 15.326879 1.044046
v -15.580983 15.326879 -0.066764
v -15.747535 15.326879 -1.754758
v -16.820782 15.326879 -3.115394
v -21.376835 15.326879 -1.680688
v -21.496363 15.326879 -0.162475
v -21.155006 15.326879 0.825934
v -20.701656 15.326879 1.474063
v -20.088938 15.326879 1.936976
vn -0.0000 1.0000 -0.0000
vt 0.000000 0.000000
vt 1.000000 0.000000
vt 0.000000 1.000000
vt 1.000000 1.000000
vt 1.000000 0.166667
vt 1.000000 0.333333
vt 1.000000 0.500000
vt 1.000000 0.666667
vt 1.000000 0.833333
vt 0.000000 0.833333
vt 0.000000 0.666667
vt 0.000000 0.500000
vt 0.000000 0.333333
vt 0.000000 0.166667
s 0
f 142/141/22 138/137/22 139/138/22
f 148/147/22 135/134/22 136/135/22
f 136/135/22 139/138/22 148/147/22
f 139/138/22 140/139/22 142/141/22
f 148/147/22 139/138/22 146/145/22
f 140/139/22 141/140/22 142/141/22
f 142/141/22 143/142/22 138/137/22
f 138/137/22 137/136/22 145/144/22
f 137/136/22 144/143/22 145/144/22
f 145/144/22 146/145/22 139/138/22
f 138/137/22 145/144/22 139/138/22
f 146/145/22 147/146/22 148/147/22
o 平面.001
v 9.862778 16.663778 -5.388688
v 11.011807 16.663778 -5.430088
v 9.842320 16.663778 -6.526515
v 10.980148 16.663778 -6.568890
v 9.615835 16.663778 -5.953948
v 10.443624 16.663778 -5.163177
v 11.222219 16.663778 -5.986582
v 10.397840 16.663778 -6.654613
vn -0.0000 1.0000 -0.0000
vt 0.000000 0.000000
vt 1.000000 0.000000
vt 0.000000 1.000000
vt 1.000000 1.000000
vt 0.000000 0.500000
vt 0.500000 0.000000
vt 1.000000 0.500000
vt 0.500000 1.000000
s 0
f 156/155/23 151/150/23 153/152/23
f 153/152/23 149/148/23 156/155/23
f 149/148/23 154/153/23 156/155/23
f 154/153/23 150/149/23 156/155/23
f 150/149/23 155/154/23 156/155/23
f 155/154/23 152/151/23 156/155/23
o 平面.002
v 7.519589 15.145806 5.124380
v 5.815825 15.121231 5.291222
v 7.525862 15.145150 5.337752
v 5.860131 15.121231 5.562821
vn -0.0141 0.9999 0.0035
vn -0.0140 0.9999 0.0023
vt 0.000000 0.000000
vt 1.000000 0.000000
vt 0.000000 1.000000
vt 1.000000 1.000000
s 0
f 158/157/24 159/158/24 157/156/24
f 158/157/25 160/159/25 159/158/25
o 平面.003
v 49.844807 17.190432 -53.925095
v 50.895935 17.190432 -54.030865
v 49.758904 17.190432 -54.967186
v 50.799706 17.190432 -55.073189
v 49.585026 17.190432 -54.428822
v 50.390709 17.190432 -53.752594
v 51.056026 17.190432 -54.553539
v 50.260715 17.190432 -55.117424
vn -0.0000 1.0000 -0.0000
vt 0.000000 0.000000
vt 1.000000 0.000000
vt 0.000000 1.000000
vt 1.000000 1.000000
vt 0.000000 0.500000
vt 0.500000 0.000000
vt 1.000000 0.500000
vt 0.500000 1.000000
s 0
f 168/167/26 163/162/26 165/164/26
f 165/164/26 161/160/26 168/167/26
f 161/160/26 166/165/26 168/167/26
f 166/165/26 162/161/26 168/167/26
f 162/161/26 167/166/26 168/167/26
f 167/166/26 164/163/26 168/167/26
o 平面.004
v 79.662704 15.638390 -37.891083
v 85.877144 17.268835 -32.145096
v 77.478386 15.673271 -41.400414
v 88.008423 18.478952 -31.959616
vn -0.5010 0.8042 0.3198
vn -0.4908 0.8186 0.2985
vt 0.000000 0.000000
vt 1.000000 0.000000
vt 0.000000 1.000000
vt 1.000000 1.000000
s 0
f 169/168/27 172/171/27 171/170/27
f 169/168/28 170/169/28 172/171/28
o 平面.006
v 80.526566 15.671156 -40.419937
v 87.080620 17.659809 -33.922821
v 77.477333 15.675493 -41.402428
v 86.605598 18.105406 -33.217789
vn 0.1361 0.8980 -0.4184
vn 0.1706 0.8808 -0.4417
vt 0.000000 0.000000
vt 1.000000 0.000000
vt 0.000000 1.000000
vt 1.000000 1.000000
s 0
f 173/172/29 175/174/29 176/175/29
f 173/172/30 176/175/30 174/173/30
o 平面.007
v 84.061523 16.583014 -33.877895
v 94.689262 25.965389 -24.297417
v 85.533066 16.583014 -35.525566
v 95.724167 25.935898 -25.379007
vn -0.4071 0.8379 -0.3635
vn -0.3851 0.8358 -0.3913
vt 0.000000 0.000000
vt 1.000000 0.000000
vt 0.000000 1.000000
vt 1.000000 1.000000
s 0
f 177/176/31 180/179/31 179/178/31
f 177/176/32 178/177/32 180/179/32
o 平面.008
v 94.655174 25.923325 -24.282402
v 95.416824 25.658695 -23.535282
v 95.731842 25.923325 -25.380024
v 96.493500 25.658695 -24.632904
vn 0.1719 0.9706 0.1686
vt 0.000000 0.000000
vt 1.000000 0.000000
vt 0.000000 1.000000
vt 1.000000 1.000000
s 0
f 182/181/33 183/182/33 181/180/33
f 182/181/33 184/183/33 183/182/33
