# Blender 3.4.1
# www.blender.org
mtllib GameStage_1(wallCol).mtl
o 平面.032
v 16.065397 1.442056 -122.296997
v 16.065397 1.442056 -139.869247
v 16.065399 15.665182 -122.296997
v 16.065397 15.665182 -139.869247
vn 1.0000 -0.0000 -0.0000
vt 0.000000 0.000000
vt 1.000000 0.000000
vt 0.000000 1.000000
vt 1.000000 1.000000
s 0
f 2/2/1 3/3/1 1/1/1
f 2/2/1 4/4/1 3/3/1
o 平面.033
v -17.539436 15.004852 -155.868729
v -17.539431 30.403387 -123.919998
v -17.539433 39.793995 -155.868729
v -17.539431 34.637932 -123.919998
v -17.539436 15.035641 -142.461868
v -17.539433 34.637932 -142.461868
v -17.782021 39.680077 -142.576508
v -17.539431 16.223410 -123.957840
vn -1.0000 -0.0000 -0.0000
vn -0.9987 -0.0485 -0.0186
vt 0.000000 0.000000
vt 1.000000 0.000000
vt 0.000000 1.000000
vt 1.000000 1.000000
vt 0.419637 0.000000
vt 0.419637 1.000000
vt 0.250000 1.000000
vt 0.709818 0.000000
s 0
f 6/6/2 8/8/2 10/10/2
f 10/10/3 11/11/3 7/7/3
f 10/10/2 9/9/2 6/6/2
f 9/9/2 12/12/2 6/6/2
f 7/7/2 5/5/2 10/10/2
f 5/5/2 9/9/2 10/10/2
o 平面.035
v 49.877289 35.364376 -156.230316
v 49.877289 35.364376 -149.252762
v 49.877289 43.440567 -156.230316
v 49.877289 43.440567 -149.252762
vn -1.0000 -0.0000 -0.0000
vt 0.000000 0.000000
vt 1.000000 0.000000
vt 0.000000 1.000000
vt 1.000000 1.000000
s 0
f 14/14/4 15/15/4 13/13/4
f 14/14/4 16/16/4 15/15/4
o 平面.036
v -26.608265 27.600044 -232.990219
v 26.205435 27.600044 -232.990219
v -26.608265 51.008419 -232.990219
v 26.205435 51.008419 -232.990219
vn -0.0000 -0.0000 1.0000
vt 0.000000 0.000000
vt 1.000000 0.000000
vt 0.000000 1.000000
vt 1.000000 1.000000
s 0
f 18/18/5 19/19/5 17/17/5
f 18/18/5 20/20/5 19/19/5
o 平面.038
v -47.952606 37.646408 -251.000092
v -41.387093 37.646408 -260.969879
v -47.952606 49.583847 -251.000092
v -41.387093 49.583847 -260.969879
vn 0.8352 -0.0000 0.5500
vt 0.000000 0.000000
vt 1.000000 0.000000
vt 0.000000 1.000000
vt 1.000000 1.000000
s 0
f 22/22/6 23/23/6 21/21/6
f 22/22/6 24/24/6 23/23/6
o 平面.039
v -26.624620 27.032902 -281.602753
v -26.624619 27.032860 -233.320190
v -26.624620 50.441277 -281.602753
v -26.624619 50.441235 -233.320160
vn -1.0000 -0.0000 -0.0000
vt 0.000000 0.000000
vt 1.000000 0.000000
vt 0.000000 1.000000
vt 1.000000 1.000000
s 0
f 25/25/7 28/28/7 27/27/7
f 25/25/7 26/26/7 28/28/7
o 平面.040
v 30.882542 14.748293 -6.568460
v 30.882542 0.761227 -6.568460
v 18.861576 14.748293 -6.568458
v 18.861576 0.761227 -6.568458
vn -0.0000 -0.0000 -1.0000
vt 0.000000 0.000000
vt 1.000000 0.000000
vt 0.000000 1.000000
vt 1.000000 1.000000
s 0
f 30/30/8 31/31/8 29/29/8
f 30/30/8 32/32/8 31/31/8
o 平面.041
v -35.016991 15.578876 -19.558231
v -35.016991 1.180217 -19.558231
v 32.384869 15.578876 -19.558235
v 32.384869 1.180217 -19.558243
vn -0.0000 -0.0000 1.0000
vt 0.000000 0.000000
vt 1.000000 0.000000
vt 0.000000 1.000000
vt 1.000000 1.000000
s 0
f 34/34/9 35/35/9 33/33/9
f 34/34/9 36/36/9 35/35/9
o 平面.042
v 16.413527 2.142335 -141.290482
v 16.413525 2.142335 -183.889297
v 16.413527 39.836250 -141.290482
v 16.413525 39.836250 -183.889297
vn 1.0000 -0.0000 -0.0000
vt 0.000000 0.000000
vt 1.000000 0.000000
vt 0.000000 1.000000
vt 1.000000 1.000000
s 0
f 38/38/10 39/39/10 37/37/10
f 38/38/10 40/40/10 39/39/10
o 平面.043
v -69.643959 67.062935 -238.170761
v -69.643959 48.321941 -238.170761
v -50.184311 67.062935 -284.805298
v -50.184311 48.321945 -284.805298
vn 0.9229 -0.0000 0.3851
vt 0.000000 0.000000
vt 1.000000 0.000000
vt 0.000000 1.000000
vt 1.000000 1.000000
s 0
f 42/42/11 43/43/11 41/41/11
f 42/42/11 44/44/11 43/43/11
o 平面.044
v -33.801502 30.419220 -123.808907
v -33.801502 30.419220 -141.568512
v -33.801514 2.063185 -123.808907
v -33.801514 2.063185 -141.568512
vn -1.0000 -0.0000 -0.0000
vt 0.000000 0.000000
vt 1.000000 0.000000
vt 0.000000 1.000000
vt 1.000000 1.000000
s 0
f 46/46/12 47/47/12 45/45/12
f 46/46/12 48/48/12 47/47/12
o 平面.037
v -41.430748 37.646412 -260.940857
v -43.996193 37.646412 -272.599365
v -41.430748 49.583851 -260.940857
v -43.996185 49.583851 -272.599365
vn 0.9766 -0.0000 -0.2149
vt 0.000000 0.000000
vt 1.000000 0.000000
vt 0.000000 1.000000
vt 1.000000 1.000000
s 0
f 50/50/13 51/51/13 49/49/13
f 50/50/13 52/52/13 51/51/13
o 平面.034
v -17.226034 34.553551 -140.499084
v 15.719566 34.553551 -140.499100
v -17.226034 39.836250 -140.499084
v 15.719566 39.836250 -140.499100
vn -0.0000 -0.0000 1.0000
vt 0.000000 0.000000
vt 1.000000 0.000000
vt 0.000000 1.000000
vt 1.000000 1.000000
s 0
f 54/54/14 55/55/14 53/53/14
f 54/54/14 56/56/14 55/55/14
o 平面
v 18.821072 14.683529 40.389286
v 18.821070 14.683529 -3.807824
v 18.821074 16.683529 40.389286
v 18.821072 16.683529 -3.807824
vn 1.0000 -0.0000 -0.0000
vt 0.000000 0.000000
vt 1.000000 0.000000
vt 0.000000 1.000000
vt 1.000000 1.000000
s 0
f 58/58/15 59/59/15 57/57/15
f 58/58/15 60/60/15 59/59/15
o 平面.001
v 31.265392 14.683529 -3.754464
v 31.265408 14.683529 40.291759
v 31.310476 16.562914 -3.472507
v 31.265408 16.683529 40.291759
vn -0.9997 0.0240 -0.0000
vn -1.0000 -0.0000 -0.0010
vt 0.000000 0.000000
vt 1.000000 0.000000
vt 0.000000 1.000000
vt 1.000000 1.000000
s 0
f 62/62/16 63/63/16 61/61/16
f 62/62/17 64/64/17 63/63/17
o 平面.002
v 31.185139 16.688164 40.368111
v 31.185139 14.776983 40.368111
v 18.847244 16.688164 40.368111
v 18.847244 14.776983 40.368111
vn -0.0000 -0.0000 -1.0000
vt 0.000000 0.000000
vt 1.000000 0.000000
vt 0.000000 1.000000
vt 1.000000 1.000000
s 0
f 66/66/18 67/67/18 65/65/18
f 66/66/18 68/68/18 67/67/18
o 平面.003
v 18.876820 17.503710 -21.936520
v 18.876820 15.503712 -21.936520
v -35.216839 17.503710 -21.936520
v -35.216839 15.503712 -21.936520
vn -0.0000 -0.0000 -1.0000
vt 0.000000 0.000000
vt 1.000000 0.000000
vt 0.000000 1.000000
vt 1.000000 1.000000
s 0
f 70/70/19 71/71/19 69/69/19
f 70/70/19 72/72/19 71/71/19
o 平面.004
v -35.206921 17.503708 -21.915031
v -35.206921 15.503710 -21.915031
v -35.206924 17.503712 -120.910568
v -35.206924 15.503714 -120.910568
vn 1.0000 -0.0000 -0.0000
vt 0.000000 0.000000
vt 1.000000 0.000000
vt 0.000000 1.000000
vt 1.000000 1.000000
s 0
f 74/74/20 75/75/20 73/73/20
f 74/74/20 76/76/20 75/75/20
o 平面.005
v -35.343914 17.494295 -120.533234
v -35.343914 15.554432 -120.533234
v -34.223583 17.494295 -121.704865
v -34.223583 15.554432 -121.704865
vn 0.7228 -0.0000 0.6911
vt 0.000000 0.000000
vt 1.000000 0.000000
vt 0.000000 1.000000
vt 1.000000 1.000000
s 0
f 78/78/21 79/79/21 77/77/21
f 78/78/21 80/80/21 79/79/21
o 平面.006
v 16.776833 17.503716 -119.657181
v 16.776833 15.503717 -119.657181
v 16.776836 17.503706 -34.017399
v 16.776836 15.503706 -34.017399
vn -1.0000 -0.0000 -0.0000
vt 0.000000 0.000000
vt 1.000000 0.000000
vt 0.000000 1.000000
vt 1.000000 1.000000
s 0
f 82/82/22 83/83/22 81/81/22
f 82/82/22 84/84/22 83/83/22
o 平面.007
v 16.812109 17.421221 -119.759354
v 16.378988 17.421221 -121.194504
v 16.812109 15.421221 -119.759354
v 16.378988 15.421221 -121.194504
vn -0.9574 -0.0000 0.2889
vt 0.000000 0.000000
vt 1.000000 0.000000
vt 0.000000 1.000000
vt 1.000000 1.000000
s 0
f 86/86/23 87/87/23 85/85/23
f 86/86/23 88/88/23 87/87/23
o 平面.008
v 30.974659 17.452448 -22.358818
v 30.974659 15.452448 -22.358818
v 28.028532 17.309671 -22.088978
v 27.598631 15.452448 -22.088978
vn -0.0912 -0.0000 -0.9958
vn -0.0797 0.0184 -0.9967
vt 0.000000 0.000000
vt 1.000000 0.000000
vt 0.000000 1.000000
vt 1.000000 1.000000
s 0
f 90/90/24 91/91/24 89/89/24
f 90/90/25 92/92/25 91/91/25
o 平面.009
v 31.053457 17.473005 -22.334377
v 31.053457 17.473005 -33.963505
v 31.053457 15.473005 -22.334377
v 31.053457 15.473005 -33.963505
vn -1.0000 -0.0000 -0.0000
vt 0.000000 0.000000
vt 1.000000 0.000000
vt 0.000000 1.000000
vt 1.000000 1.000000
s 0
f 94/94/26 95/95/26 93/93/26
f 94/94/26 96/96/26 95/95/26
o 平面.010
v 31.106815 17.473005 -34.016266
v 16.730839 17.473005 -34.016266
v 31.106815 15.473005 -34.016266
v 16.730839 15.473005 -34.016266
vn -0.0000 -0.0000 1.0000
vt 0.000000 0.000000
vt 1.000000 0.000000
vt 0.000000 1.000000
vt 1.000000 1.000000
s 0
f 98/98/27 99/99/27 97/97/27
f 98/98/27 100/100/27 99/99/27
o 平面.011
v -20.800291 15.627283 -52.040558
v -20.800291 24.206009 -52.040558
v -30.610088 15.627283 -52.040558
v -30.610088 24.206009 -52.040558
vn -0.0000 -0.0000 1.0000
vt 0.000000 0.000000
vt 1.000000 0.000000
vt 0.000000 1.000000
vt 1.000000 1.000000
s 0
f 102/102/28 103/103/28 101/101/28
f 102/102/28 104/104/28 103/103/28
o 平面.012
v -20.783100 15.623600 -61.954170
v -20.783100 24.202328 -61.954170
v -20.783098 15.623602 -52.065308
v -20.783098 24.202328 -52.065308
vn 1.0000 -0.0000 -0.0000
vt 0.000000 0.000000
vt 1.000000 0.000000
vt 0.000000 1.000000
vt 1.000000 1.000000
s 0
f 106/106/29 107/107/29 105/105/29
f 106/106/29 108/108/29 107/107/29
o 平面.013
v -30.619846 15.623600 -61.968582
v -30.619846 24.202328 -61.968582
v -20.814972 15.623600 -61.968582
v -20.814972 24.202328 -61.968582
vn -0.0000 -0.0000 -1.0000
vt 0.000000 0.000000
vt 1.000000 0.000000
vt 0.000000 1.000000
vt 1.000000 1.000000
s 0
f 110/110/30 111/111/30 109/109/30
f 110/110/30 112/112/30 111/111/30
o 平面.014
v -30.678497 15.623602 -52.005836
v -30.678497 24.202328 -52.005836
v -30.678501 15.623600 -62.000748
v -30.678501 24.202328 -62.000748
vn -1.0000 -0.0000 -0.0000
vt 0.000000 0.000000
vt 1.000000 0.000000
vt 0.000000 1.000000
vt 1.000000 1.000000
s 0
f 114/114/31 115/115/31 113/113/31
f 114/114/31 116/116/31 115/115/31
o 平面.015
v 20.496273 15.084762 6.060577
v 20.496273 15.084762 4.457080
v 20.496273 16.667538 6.060577
v 20.496273 16.667538 4.457080
vn 1.0000 -0.0000 -0.0000
vt 0.000000 0.000000
vt 1.000000 0.000000
vt 0.000000 1.000000
vt 1.000000 1.000000
s 0
f 118/118/32 119/119/32 117/117/32
f 118/118/32 120/120/32 119/119/32
o 平面.016
v 18.828049 15.084763 6.065789
v 20.504635 15.084763 6.065789
v 18.828049 16.667538 6.065790
v 20.504635 16.667538 6.065790
vn -0.0000 -0.0000 1.0000
vt 0.000000 0.000000
vt 1.000000 0.000000
vt 0.000000 1.000000
vt 1.000000 1.000000
s 0
f 122/122/33 123/123/33 121/121/33
f 122/122/33 124/124/33 123/123/33
o 平面.017
v 20.498804 15.084763 4.454437
v 18.835560 15.084763 4.454437
v 20.498804 16.667538 4.454437
v 18.835560 16.667538 4.454437
vn -0.0000 -0.0000 -1.0000
vt 0.000000 0.000000
vt 1.000000 0.000000
vt 0.000000 1.000000
vt 1.000000 1.000000
s 0
f 126/126/34 127/127/34 125/125/34
f 126/126/34 128/128/34 127/127/34
o 平面.018
v -28.054066 15.655475 -33.761921
v -28.054066 15.655475 -35.365417
v -28.054066 17.238251 -33.761921
v -28.054066 17.238251 -35.365417
vn 1.0000 -0.0000 -0.0000
vt 0.000000 0.000000
vt 1.000000 0.000000
vt 0.000000 1.000000
vt 1.000000 1.000000
s 0
f 130/130/35 131/131/35 129/129/35
f 130/130/35 132/132/35 131/131/35
o 平面.019
v -29.718079 15.655476 -33.756710
v -28.041492 15.655476 -33.756710
v -29.718079 17.238251 -33.756710
v -28.041492 17.238251 -33.756710
vn -0.0000 -0.0000 1.0000
vt 0.000000 0.000000
vt 1.000000 0.000000
vt 0.000000 1.000000
vt 1.000000 1.000000
s 0
f 134/134/36 135/135/36 133/133/36
f 134/134/36 136/136/36 135/135/36
o 平面.020
v -28.046246 15.655476 -35.368061
v -29.640381 15.655476 -35.368061
v -28.046246 17.238251 -35.368061
v -29.640381 17.238251 -35.368061
vn -0.0000 -0.0000 -1.0000
vt 0.000000 0.000000
vt 1.000000 0.000000
vt 0.000000 1.000000
vt 1.000000 1.000000
s 0
f 138/138/37 139/139/37 137/137/37
f 138/138/37 140/140/37 139/139/37
o 平面.021
v -29.645512 15.655476 -35.379845
v -29.645512 15.655476 -33.703259
v -29.645512 17.238251 -35.379845
v -29.645512 17.238251 -33.703259
vn -1.0000 -0.0000 -0.0000
vt 0.000000 0.000000
vt 1.000000 0.000000
vt 0.000000 1.000000
vt 1.000000 1.000000
s 0
f 142/142/38 143/143/38 141/141/38
f 142/142/38 144/144/38 143/143/38
o 平面.022
v -14.624855 14.421209 -61.018967
v -4.577129 15.664228 -72.916039
v -11.853752 15.818052 -64.328903
v -4.351907 20.539797 -73.098709
v -7.853473 16.921913 -68.791862
vn 0.7543 -0.1392 0.6416
vn 0.7630 0.0177 0.6462
vn 0.7810 -0.0127 0.6243
vt 0.000000 0.000000
vt 1.000000 0.000000
vt 0.000000 1.000000
vt 1.000000 1.000000
vt 0.500000 1.000000
s 0
f 146/146/39 149/149/39 147/147/39
f 147/147/40 145/145/40 146/146/40
f 146/146/41 148/148/41 149/149/41
o 平面.054
v -17.893133 14.421206 -61.018982
v -6.111015 15.422462 -73.957108
v -15.122028 15.478998 -64.328903
v -6.073661 20.245737 -74.029602
v -8.601326 17.407917 -71.121635
vn -0.7286 0.0605 -0.6823
vn -0.7135 -0.2163 -0.6665
vn -0.7528 -0.0041 -0.6583
vt 0.000000 0.000000
vt 1.000000 0.000000
vt 0.000000 1.000000
vt 1.000000 1.000000
vt 0.704087 1.000000
s 0
f 151/151/42 152/152/42 154/154/42
f 152/152/43 151/151/43 150/150/43
f 151/151/44 154/154/44 153/153/44
o 平面.055
v -4.485939 20.302814 -72.990509
v -4.485939 15.959811 -72.990509
v -6.048343 20.302814 -74.082489
v -6.048343 15.959811 -74.082489
vn 0.5729 -0.0000 -0.8197
vt 0.000000 0.000000
vt 1.000000 0.000000
vt 0.000000 1.000000
vt 1.000000 1.000000
s 0
f 156/156/45 157/157/45 155/155/45
f 156/156/45 158/158/45 157/157/45
o 平面.023
v 16.136263 34.644794 -123.682396
v -17.617367 34.644794 -123.682396
v 16.136263 2.372274 -123.682396
v -17.617367 2.372274 -123.682396
vn -0.0000 -0.0000 -1.0000
vt 0.000000 0.000000
vt 1.000000 0.000000
vt 0.000000 1.000000
vt 1.000000 1.000000
s 0
f 161/161/46 160/160/46 159/159/46
f 161/161/46 162/162/46 160/160/46
o 平面.024
v -17.674475 30.775120 -123.682388
v -34.026196 30.775120 -123.682388
v -17.674475 8.648269 -123.682388
v -34.026196 8.648269 -123.682388
vn -0.0000 -0.0000 -1.0000
vt 0.000000 0.000000
vt 1.000000 0.000000
vt 0.000000 1.000000
vt 1.000000 1.000000
s 0
f 165/165/47 164/164/47 163/163/47
f 165/165/47 166/166/47 164/164/47
