# Blender 3.4.1
# www.blender.org
mtllib GameStage_1(floorCol).mtl
o 平面.018
v -24.373030 15.044635 6.629992
v 19.731913 15.044635 6.643901
v -24.240131 15.044635 -7.968874
v 19.665203 15.044635 -7.950767
v 22.645712 15.044635 3.665512
v 22.631887 15.044635 -4.993750
v 20.805931 15.044635 6.403663
v 21.776281 15.044635 5.760490
v 22.418339 15.044635 4.791101
v 22.417410 15.044635 -6.107862
v 21.777746 15.044635 -7.072121
v 20.811295 15.044635 -7.729453
v -25.086287 15.044635 -7.803142
v -25.685244 15.044635 -7.377589
v -26.098581 15.044635 -6.773612
v -26.234697 15.044635 -6.051357
v -26.261606 15.044635 4.724990
v -25.065132 15.044635 6.488162
v -26.098827 15.044635 5.469626
v -25.692560 15.044635 6.073244
vn -0.0000 1.0000 -0.0000
vt 0.000000 0.000000
vt 0.940721 0.000000
vt 0.040739 1.000000
vt 0.941644 1.000000
vt 1.000000 0.206020
vt 1.000000 0.797806
vt 0.955540 0.051505
vt 0.970360 0.103010
vt 0.985180 0.154515
vt 0.985411 0.848355
vt 0.970822 0.898903
vt 0.956233 0.949452
vt 0.000000 0.857143
vt 0.000000 0.714286
vt 0.000000 0.571429
vt 0.000000 0.428571
vt 0.000000 0.285714
vt 0.000000 0.142857
vt 0.000000 0.238095
vt 0.000000 0.190476
s 0
f 3/3/1 14/14/1 16/16/1
f 18/18/1 1/1/1 19/19/1
f 1/1/1 2/2/1 3/3/1
f 2/2/1 7/7/1 5/5/1
f 7/7/1 8/8/1 9/9/1
f 5/5/1 7/7/1 9/9/1
f 5/5/1 6/6/1 4/4/1
f 6/6/1 10/10/1 11/11/1
f 4/4/1 6/6/1 11/11/1
f 11/11/1 12/12/1 4/4/1
f 4/4/1 3/3/1 2/2/1
f 3/3/1 13/13/1 14/14/1
f 14/14/1 15/15/1 16/16/1
f 16/16/1 17/17/1 3/3/1
f 17/17/1 19/19/1 1/1/1
f 19/19/1 20/20/1 18/18/1
f 1/1/1 3/3/1 17/17/1
f 2/2/1 5/5/1 4/4/1
o 平面.023
v 35.691257 15.671552 4.311509
v 136.650955 15.671552 -7.469195
v 38.381012 15.671552 -62.834114
v 136.783691 15.671552 -62.792759
v 51.308998 15.671552 -7.492422
v 51.334232 15.671552 4.259219
v 35.916977 15.671552 5.414070
v 36.597061 15.671552 6.379466
v 37.539482 15.671552 6.996801
v 38.692799 15.671552 7.243787
v 47.394215 15.671552 7.235473
v 50.443851 15.671552 6.350837
v 51.094795 15.671552 5.399332
v 37.326851 15.671552 -62.591846
v 36.491898 15.671552 -62.047527
v 35.891037 15.671552 -61.161396
v 35.673904 15.671552 -60.101639
v 137.687775 15.671552 -7.689993
v 138.566040 15.671552 -8.266459
v 139.144501 15.671552 -9.141022
v 139.340927 15.671552 -60.104340
v 139.167633 15.671552 -61.123398
v 138.542419 15.671552 -62.019680
v 137.701584 15.671552 -62.590466
v 139.347763 15.671552 -10.191877
vn -0.0000 1.0000 -0.0000
vt 0.000000 0.000000
vt 1.000000 0.000000
vt 0.000000 1.000000
vt 1.000000 1.000000
vt 0.148104 0.000000
vt 0.074052 0.000000
vt 0.007405 0.000000
vt 0.014810 0.000000
vt 0.022216 0.000000
vt 0.029621 0.000000
vt 0.051836 0.000000
vt 0.059241 0.000000
vt 0.066647 0.000000
vt 0.000000 0.833333
vt 0.000000 0.666667
vt 0.000000 0.500000
vt 0.000000 0.333333
vt 1.000000 0.125000
vt 1.000000 0.250000
vt 1.000000 0.375000
vt 1.000000 0.500000
vt 1.000000 0.625000
vt 1.000000 0.750000
vt 1.000000 0.875000
vt 1.000000 0.437500
s 0
f 41/41/2 43/43/2 24/24/2
f 37/37/2 21/21/2 25/25/2
f 21/21/2 27/27/2 28/28/2
f 25/25/2 21/21/2 31/31/2
f 28/28/2 29/29/2 21/21/2
f 29/29/2 30/30/2 21/21/2
f 30/30/2 31/31/2 21/21/2
f 31/31/2 32/32/2 26/26/2
f 32/32/2 33/33/2 26/26/2
f 26/26/2 25/25/2 31/31/2
f 25/25/2 22/22/2 24/24/2
f 22/22/2 38/38/2 45/45/2
f 24/24/2 22/22/2 41/41/2
f 38/38/2 39/39/2 40/40/2
f 40/40/2 45/45/2 38/38/2
f 45/45/2 41/41/2 22/22/2
f 41/41/2 42/42/2 43/43/2
f 43/43/2 44/44/2 24/24/2
f 24/24/2 23/23/2 25/25/2
f 23/23/2 34/34/2 37/37/2
f 25/25/2 23/23/2 37/37/2
f 34/34/2 35/35/2 36/36/2
f 36/36/2 37/37/2 34/34/2
o 平面.005
v 139.240662 15.665867 -9.664170
v 147.568893 15.661945 -9.657206
v 145.253815 15.664614 -22.061262
v 147.574463 15.661945 -22.061262
v 139.346283 15.665240 -12.158678
v 145.244598 15.664927 -12.183866
vn 0.0011 1.0000 -0.0000
vn 0.0001 1.0000 -0.0002
vn 0.0005 1.0000 0.0007
vn 0.0013 1.0000 -0.0000
vt 0.000000 0.000000
vt 1.000000 0.000000
vt 0.000000 1.000000
vt 1.000000 1.000000
vt 0.000000 0.500000
vt 0.000000 0.750000
s 0
f 49/49/3 48/48/3 51/51/3
f 50/50/4 46/46/4 51/51/4
f 46/46/5 47/47/5 51/51/5
f 47/47/6 49/49/6 51/51/6
o 平面.024
v 138.025894 30.982670 -43.436241
v 156.066757 30.982670 -43.306168
v 138.020309 30.983276 -59.505299
v 156.080688 30.975634 -59.505894
v 155.980286 30.982645 -59.822098
v 155.748138 31.003950 -60.004501
v 155.574127 31.016560 -60.032738
v 138.343674 30.977835 -60.041103
v 137.970779 30.980156 -59.892487
v 137.860184 30.976334 -59.719151
v 137.834167 30.982670 -43.233730
v 137.929382 30.982670 -43.140656
v 138.279282 30.982670 -43.164314
v 155.934387 30.982670 -43.158829
v 138.312668 30.955557 -59.839401
vn 0.0859 0.9963 -0.0052
vn -0.0000 1.0000 -0.0000
vn -0.0005 1.0000 -0.0004
vn 0.0004 1.0000 -0.0004
vn 0.0004 0.9970 0.0770
vn 0.0673 0.9973 0.0309
vn -0.0022 0.9999 -0.0115
vn 0.0029 1.0000 -0.0084
vn -0.0393 0.9992 -0.0030
vt 0.000000 0.000000
vt 1.000000 0.000000
vt 0.000000 1.000000
vt 1.000000 1.000000
vt 0.777778 1.000000
vt 0.666667 1.000000
vt 0.555556 1.000000
vt 0.444444 1.000000
vt 0.333333 1.000000
vt 0.222222 1.000000
vt 0.166667 0.000000
vt 0.333333 0.000000
vt 0.500000 0.000000
vt 0.833333 0.000000
s 0
f 56/56/7 58/58/7 55/55/7
f 54/54/8 52/52/8 65/65/8
f 52/52/8 62/62/8 63/63/8
f 64/64/8 52/52/8 63/63/8
f 64/64/8 65/65/8 52/52/8
f 65/65/9 53/53/9 55/55/9
f 54/54/10 65/65/10 55/55/10
f 54/54/11 55/55/11 58/58/11
f 56/56/12 57/57/12 58/58/12
f 58/58/13 59/59/13 54/54/13
f 59/59/14 60/60/14 54/54/14
f 60/60/15 61/61/15 54/54/15
l 60 66
o 平面.025
v 164.269485 43.496517 30.662167
v 170.847870 43.496517 32.396168
v 164.275787 43.496517 25.846039
v 172.269577 43.496517 24.779980
v 171.879425 43.496517 24.394747
v 171.396393 43.496517 24.143700
v 170.861725 43.496517 24.057800
v 166.070740 43.496517 24.055412
v 165.526703 43.496517 24.138414
v 165.017380 43.496517 24.389381
v 164.618790 43.496517 24.787666
v 164.364716 43.496517 25.307940
v 171.379913 43.496517 32.310257
v 171.885345 43.496517 32.057011
v 172.279755 43.496517 31.657536
v 172.519867 43.496517 31.167898
v 172.625931 43.496517 30.622843
v 172.619019 43.496517 25.842167
v 172.528748 43.496517 25.293058
v 164.371490 43.496517 31.198681
v 164.620789 43.496517 31.667627
v 165.001144 43.496517 32.052803
v 165.661224 43.496517 32.344746
vn -0.0000 1.0000 -0.0000
vt 0.000000 0.000000
vt 1.000000 0.000000
vt 0.000000 1.000000
vt 1.000000 1.000000
vt 0.888889 1.000000
vt 0.777778 1.000000
vt 0.666667 1.000000
vt 0.555556 1.000000
vt 0.444444 1.000000
vt 0.333333 1.000000
vt 0.222222 1.000000
vt 0.111111 1.000000
vt 1.000000 0.125000
vt 1.000000 0.250000
vt 1.000000 0.375000
vt 1.000000 0.500000
vt 1.000000 0.625000
vt 1.000000 0.750000
vt 1.000000 0.875000
vt 0.200000 0.000000
vt 0.400000 0.000000
vt 0.600000 0.000000
vt 0.800000 0.000000
s 0
f 69/68/16 68/67/16 74/73/16
f 69/68/16 67/66/16 68/67/16
f 67/66/16 86/85/16 89/88/16
f 68/67/16 67/66/16 89/88/16
f 86/85/16 87/86/16 89/88/16
f 87/86/16 88/87/16 89/88/16
f 68/67/16 79/78/16 82/81/16
f 79/78/16 80/79/16 82/81/16
f 80/79/16 81/80/16 82/81/16
f 82/81/16 83/82/16 68/67/16
f 83/82/16 84/83/16 68/67/16
f 84/83/16 85/84/16 73/72/16
f 85/84/16 70/69/16 71/70/16
f 73/72/16 85/84/16 71/70/16
f 71/70/16 72/71/16 73/72/16
f 73/72/16 74/73/16 84/83/16
f 74/73/16 75/74/16 78/77/16
f 75/74/16 76/75/16 78/77/16
f 76/75/16 77/76/16 78/77/16
f 78/77/16 69/68/16 74/73/16
f 68/67/16 84/83/16 74/73/16
o 平面.026
v 138.342636 35.435097 -10.460422
v 156.330063 35.435097 -9.355840
v 138.199905 35.435097 -41.714378
v 156.219879 35.435097 -43.770966
v 140.702301 35.435097 -44.113346
v 138.915161 35.435097 -43.426403
v 139.724365 35.435097 -8.941711
v 140.631409 35.435097 -8.806495
v 154.403946 35.435097 -8.765093
v 155.977966 35.435097 -9.061093
vn -0.0000 1.0000 -0.0000
vt 0.000000 0.000000
vt 1.000000 0.000000
vt 0.000000 1.000000
vt 1.000000 1.000000
vt 0.333333 1.000000
vt 0.166667 1.000000
vt 0.166667 0.000000
vt 0.333333 0.000000
vt 0.666667 0.000000
vt 0.833333 0.000000
s 0
f 94/93/17 95/94/17 92/91/17
f 92/91/17 90/89/17 98/97/17
f 90/89/17 96/95/17 97/96/17
f 98/97/17 90/89/17 97/96/17
f 98/97/17 99/98/17 91/90/17
f 91/90/17 93/92/17 98/97/17
f 93/92/17 94/93/17 92/91/17
f 98/97/17 93/92/17 92/91/17
o 平面.027
v 156.186905 39.869469 -9.650492
v 200.409088 39.869469 -9.638313
v 155.969589 39.869469 -43.237507
v 200.422882 39.869469 -43.127247
vn -0.0000 1.0000 -0.0000
vt 0.000000 0.000000
vt 1.000000 0.000000
vt 0.000000 1.000000
vt 1.000000 1.000000
s 0
f 100/99/18 103/102/18 102/101/18
f 100/99/18 101/100/18 103/102/18
o 平面.028
v 248.864410 51.108116 0.069889
v 297.210571 51.108116 0.202822
v 249.033615 51.108116 -52.433437
v 297.041382 51.108116 -52.203819
vn -0.0000 1.0000 -0.0000
vt 0.000000 0.000000
vt 1.000000 0.000000
vt 0.000000 1.000000
vt 1.000000 1.000000
s 0
f 104/103/19 107/106/19 106/105/19
f 104/103/19 105/104/19 107/106/19
o 平面.029
v 265.884766 49.646042 -75.038170
v 276.792847 49.646042 -67.269844
v 276.035767 49.646042 -107.756767
v 301.028320 49.646042 -86.467896
v 267.139557 49.646042 -103.750298
v 259.723694 49.646042 -94.146690
v 257.453827 49.646042 -81.723366
v 288.367798 49.646042 -69.735687
v 295.050537 49.646042 -75.190437
v 295.517181 49.646042 -96.990143
v 288.328308 49.646042 -104.269707
vn -0.0000 1.0000 -0.0000
vt 0.000000 0.000000
vt 1.000000 0.000000
vt 0.000000 1.000000
vt 1.000000 1.000000
vt 0.000000 0.750000
vt 0.000000 0.500000
vt 0.000000 0.250000
vt 1.000000 0.333333
vt 1.000000 0.666667
vt 0.666667 1.000000
vt 0.333333 1.000000
s 0
f 117/116/20 108/107/20 116/115/20
f 114/113/20 108/107/20 113/112/20
f 108/107/20 109/108/20 115/114/20
f 113/112/20 108/107/20 112/111/20
f 115/114/20 116/115/20 108/107/20
f 116/115/20 111/110/20 117/116/20
f 117/116/20 118/117/20 108/107/20
f 118/117/20 110/109/20 112/111/20
f 118/117/20 112/111/20 108/107/20
o 平面.030
v 69.290970 24.311953 -46.435848
v 76.155205 24.311953 -46.438011
v 69.308655 24.311953 -56.327171
v 76.096649 24.311953 -56.341156
v 68.425751 24.311953 -56.055199
v 67.833839 24.311953 -55.219292
v 67.753975 24.311953 -54.696934
v 67.753059 24.311953 -48.081875
v 67.826584 24.311953 -47.503120
v 68.425690 24.311953 -46.732635
v 76.995193 24.311953 -46.708767
v 77.573517 24.311953 -47.516380
v 77.669113 24.311953 -48.100677
v 77.666313 24.311953 -54.703304
v 77.563408 24.311953 -55.267303
v 76.977776 24.311953 -56.027546
vn -0.0000 1.0000 -0.0000
vt 0.000000 0.000000
vt 1.000000 0.000000
vt 0.000000 1.000000
vt 1.000000 1.000000
vt 0.000000 0.857143
vt 0.000000 0.714286
vt 0.000000 0.571429
vt 0.000000 0.428571
vt 0.000000 0.285714
vt 0.000000 0.142857
vt 1.000000 0.125000
vt 1.000000 0.250000
vt 1.000000 0.375000
vt 1.000000 0.625000
vt 1.000000 0.750000
vt 1.000000 0.875000
s 0
f 132/131/21 121/120/21 125/124/21
f 128/127/21 119/118/21 126/125/21
f 119/118/21 120/119/21 131/130/21
f 126/125/21 119/118/21 131/130/21
f 120/119/21 129/128/21 130/129/21
f 130/129/21 131/130/21 120/119/21
f 131/130/21 132/131/21 125/124/21
f 132/131/21 133/132/21 134/133/21
f 134/133/21 122/121/21 132/131/21
f 122/121/21 121/120/21 132/131/21
f 121/120/21 123/122/21 124/123/21
f 124/123/21 125/124/21 121/120/21
f 125/124/21 126/125/21 131/130/21
f 126/125/21 127/126/21 128/127/21
