# Blender 3.4.1
# www.blender.org
mtllib GameStage_1(wallCol).mtl
o 平面
v 17.731184 14.683509 40.389297
v 17.731182 14.683532 -3.807818
v 17.731186 16.683512 40.389297
v 17.731184 16.683529 -3.807815
vn 1.0000 -0.0000 -0.0000
vt 0.000000 0.000000
vt 1.000000 0.000000
vt 0.000000 1.000000
vt 1.000000 1.000000
s 0
f 2/2/1 3/3/1 1/1/1
f 2/2/1 4/4/1 3/3/1
o 平面.001
v 30.175505 14.683532 -3.754458
v 30.175520 14.683509 40.291771
v 30.220589 16.562914 -3.472498
v 30.175520 16.683512 40.291771
vn -0.9997 0.0240 -0.0000
vn -1.0000 -0.0000 -0.0010
vt 0.000000 0.000000
vt 1.000000 0.000000
vt 0.000000 1.000000
vt 1.000000 1.000000
s 0
f 6/6/2 7/7/2 5/5/2
f 6/6/3 8/8/3 7/7/3
o 平面.002
v 30.095251 16.688147 40.368122
v 30.095251 14.776963 40.368122
v 17.757357 16.688147 40.368122
v 17.757357 14.776963 40.368122
vn -0.0000 -0.0000 -1.0000
vt 0.000000 0.000000
vt 1.000000 0.000000
vt 0.000000 1.000000
vt 1.000000 1.000000
s 0
f 10/10/4 11/11/4 9/9/4
f 10/10/4 12/12/4 11/11/4
o 平面.003
v 18.876820 17.503721 -21.936514
v 18.876820 15.503724 -21.936514
v -35.216839 17.503721 -21.936514
v -35.216839 15.503724 -21.936514
vn -0.0000 -0.0000 -1.0000
vt 0.000000 0.000000
vt 1.000000 0.000000
vt 0.000000 1.000000
vt 1.000000 1.000000
s 0
f 14/14/5 15/15/5 13/13/5
f 14/14/5 16/16/5 15/15/5
o 平面.004
v -35.206921 17.503719 -21.915026
v -35.206921 15.503721 -21.915026
v -35.206924 17.503769 -120.910568
v -35.206924 15.503774 -120.910568
vn 1.0000 -0.0000 -0.0000
vt 0.000000 0.000000
vt 1.000000 0.000000
vt 0.000000 1.000000
vt 1.000000 1.000000
s 0
f 18/18/6 19/19/6 17/17/6
f 18/18/6 20/20/6 19/19/6
o 平面.005
v -35.343914 17.494352 -120.533234
v -35.343914 15.554492 -120.533234
v -34.223583 17.494352 -121.704865
v -34.223583 15.554492 -121.704865
vn 0.7228 -0.0000 0.6911
vt 0.000000 0.000000
vt 1.000000 0.000000
vt 0.000000 1.000000
vt 1.000000 1.000000
s 0
f 22/22/7 23/23/7 21/21/7
f 22/22/7 24/24/7 23/23/7
o 平面.006
v 16.776833 17.503773 -119.657181
v 16.776833 15.503774 -119.657181
v 16.776836 17.503723 -34.017387
v 16.776836 15.503723 -34.017387
vn -1.0000 -0.0000 -0.0000
vt 0.000000 0.000000
vt 1.000000 0.000000
vt 0.000000 1.000000
vt 1.000000 1.000000
s 0
f 26/26/8 27/27/8 25/25/8
f 26/26/8 28/28/8 27/27/8
o 平面.007
v 16.812109 17.421278 -119.759354
v 16.378988 17.421278 -121.194504
v 16.812109 15.421278 -119.759354
v 16.378988 15.421281 -121.194504
vn -0.9574 -0.0000 0.2889
vt 0.000000 0.000000
vt 1.000000 0.000000
vt 0.000000 1.000000
vt 1.000000 1.000000
s 0
f 30/30/9 31/31/9 29/29/9
f 30/30/9 32/32/9 31/31/9
o 平面.008
v 30.974659 17.452459 -22.358812
v 30.974659 15.452460 -22.358812
v 28.028532 17.309683 -22.088972
v 27.598631 15.452460 -22.088972
vn -0.0912 -0.0000 -0.9958
vn -0.0797 0.0184 -0.9967
vt 0.000000 0.000000
vt 1.000000 0.000000
vt 0.000000 1.000000
vt 1.000000 1.000000
s 0
f 34/34/10 35/35/10 33/33/10
f 34/34/11 36/36/11 35/35/11
o 平面.009
v 31.053457 17.473017 -22.334372
v 31.053457 17.473022 -33.963493
v 31.053457 15.473017 -22.334372
v 31.053457 15.473022 -33.963493
vn -1.0000 -0.0000 -0.0000
vt 0.000000 0.000000
vt 1.000000 0.000000
vt 0.000000 1.000000
vt 1.000000 1.000000
s 0
f 38/38/12 39/39/12 37/37/12
f 38/38/12 40/40/12 39/39/12
o 平面.010
v 31.106815 17.473022 -34.016254
v 16.730839 17.473022 -34.016254
v 31.106815 15.473022 -34.016254
v 16.730839 15.473022 -34.016254
vn -0.0000 -0.0000 1.0000
vt 0.000000 0.000000
vt 1.000000 0.000000
vt 0.000000 1.000000
vt 1.000000 1.000000
s 0
f 42/42/13 43/43/13 41/41/13
f 42/42/13 44/44/13 43/43/13
o 平面.011
v -20.800291 15.627309 -52.040546
v -20.800291 24.206032 -52.040546
v -30.610088 15.627309 -52.040546
v -30.610088 24.206032 -52.040546
vn -0.0000 -0.0000 1.0000
vt 0.000000 0.000000
vt 1.000000 0.000000
vt 0.000000 1.000000
vt 1.000000 1.000000
s 0
f 46/46/14 47/47/14 45/45/14
f 46/46/14 48/48/14 47/47/14
o 平面.012
v -20.783100 15.623631 -61.954159
v -20.783100 24.202356 -61.954159
v -20.783098 15.623627 -52.065296
v -20.783098 24.202351 -52.065296
vn 1.0000 -0.0000 -0.0000
vt 0.000000 0.000000
vt 1.000000 0.000000
vt 0.000000 1.000000
vt 1.000000 1.000000
s 0
f 50/50/15 51/51/15 49/49/15
f 50/50/15 52/52/15 51/51/15
o 平面.013
v -30.619846 15.623631 -61.968571
v -30.619846 24.202356 -61.968571
v -20.814972 15.623631 -61.968571
v -20.814972 24.202356 -61.968571
vn -0.0000 -0.0000 -1.0000
vt 0.000000 0.000000
vt 1.000000 0.000000
vt 0.000000 1.000000
vt 1.000000 1.000000
s 0
f 54/54/16 55/55/16 53/53/16
f 54/54/16 56/56/16 55/55/16
o 平面.014
v -30.678497 15.623627 -52.005825
v -30.678497 24.202351 -52.005825
v -30.678501 15.623631 -62.000736
v -30.678501 24.202356 -62.000736
vn -1.0000 -0.0000 -0.0000
vt 0.000000 0.000000
vt 1.000000 0.000000
vt 0.000000 1.000000
vt 1.000000 1.000000
s 0
f 58/58/17 59/59/17 57/57/17
f 58/58/17 60/60/17 59/59/17
o 平面.015
v 19.406385 15.084759 6.060584
v 19.406385 15.084759 4.457087
v 19.406385 16.667532 6.060586
v 19.406385 16.667538 4.457089
vn 1.0000 -0.0000 -0.0000
vt 0.000000 0.000000
vt 1.000000 0.000000
vt 0.000000 1.000000
vt 1.000000 1.000000
s 0
f 62/62/18 63/63/18 61/61/18
f 62/62/18 64/64/18 63/63/18
o 平面.016
v 17.738161 15.084760 6.065796
v 19.414747 15.084760 6.065796
v 17.738161 16.667532 6.065799
v 19.414747 16.667532 6.065799
vn -0.0000 -0.0000 1.0000
vt 0.000000 0.000000
vt 1.000000 0.000000
vt 0.000000 1.000000
vt 1.000000 1.000000
s 0
f 66/66/19 67/67/19 65/65/19
f 66/66/19 68/68/19 67/67/19
o 平面.017
v 19.408916 15.084760 4.454444
v 17.745672 15.084760 4.454444
v 19.408916 16.667538 4.454446
v 17.745672 16.667538 4.454446
vn -0.0000 -0.0000 -1.0000
vt 0.000000 0.000000
vt 1.000000 0.000000
vt 0.000000 1.000000
vt 1.000000 1.000000
s 0
f 70/70/20 71/71/20 69/69/20
f 70/70/20 72/72/20 71/71/20
o 平面.018
v -28.054066 15.655492 -33.761909
v -28.054066 15.655492 -35.365406
v -28.054066 17.238268 -33.761909
v -28.054066 17.238268 -35.365406
vn 1.0000 -0.0000 -0.0000
vt 0.000000 0.000000
vt 1.000000 0.000000
vt 0.000000 1.000000
vt 1.000000 1.000000
s 0
f 74/74/21 75/75/21 73/73/21
f 74/74/21 76/76/21 75/75/21
o 平面.019
v -29.718079 15.655493 -33.756699
v -28.041492 15.655493 -33.756699
v -29.718079 17.238268 -33.756699
v -28.041492 17.238268 -33.756699
vn -0.0000 -0.0000 1.0000
vt 0.000000 0.000000
vt 1.000000 0.000000
vt 0.000000 1.000000
vt 1.000000 1.000000
s 0
f 78/78/22 79/79/22 77/77/22
f 78/78/22 80/80/22 79/79/22
o 平面.020
v -28.046246 15.655493 -35.368050
v -29.640381 15.655493 -35.368050
v -28.046246 17.238268 -35.368050
v -29.640381 17.238268 -35.368050
vn -0.0000 -0.0000 -1.0000
vt 0.000000 0.000000
vt 1.000000 0.000000
vt 0.000000 1.000000
vt 1.000000 1.000000
s 0
f 82/82/23 83/83/23 81/81/23
f 82/82/23 84/84/23 83/83/23
o 平面.021
v -29.645512 15.655493 -35.379833
v -29.645512 15.655493 -33.703247
v -29.645512 17.238268 -35.379833
v -29.645512 17.238268 -33.703247
vn -1.0000 -0.0000 -0.0000
vt 0.000000 0.000000
vt 1.000000 0.000000
vt 0.000000 1.000000
vt 1.000000 1.000000
s 0
f 86/86/24 87/87/24 85/85/24
f 86/86/24 88/88/24 87/87/24
o 平面.022
v -14.624855 14.421238 -61.018955
v -4.577129 15.664263 -72.916039
v -11.853752 15.818084 -64.328903
v -4.351907 20.539831 -73.098709
v -7.853473 16.921947 -68.791862
vn 0.7543 -0.1392 0.6416
vn 0.7630 0.0177 0.6462
vn 0.7810 -0.0127 0.6243
vt 0.000000 0.000000
vt 1.000000 0.000000
vt 0.000000 1.000000
vt 1.000000 1.000000
vt 0.500000 1.000000
s 0
f 90/90/25 93/93/25 91/91/25
f 91/91/26 89/89/26 90/90/26
f 90/90/27 92/92/27 93/93/27
o 平面.023
v 16.136263 34.644852 -123.682373
v -17.617367 34.644852 -123.682373
v 16.136263 2.372334 -123.682396
v -17.617367 2.372334 -123.682396
vn -0.0000 -0.0000 1.0000
vt 0.000000 0.000000
vt 1.000000 0.000000
vt 0.000000 1.000000
vt 1.000000 1.000000
s 0
f 96/96/28 94/94/28 95/95/28
f 96/96/28 95/95/28 97/97/28
o 平面.024
v -17.674475 30.775183 -123.682365
v -34.026196 30.775183 -123.682365
v -17.674475 8.648329 -123.682388
v -34.026196 8.648329 -123.682388
vn -0.0000 -0.0000 1.0000
vt 0.000000 0.000000
vt 1.000000 0.000000
vt 0.000000 1.000000
vt 1.000000 1.000000
s 0
f 100/100/29 98/98/29 99/99/29
f 100/100/29 99/99/29 101/101/29
o 平面.032
v 16.065397 1.442116 -122.296997
v 16.065397 1.442125 -139.869247
v 16.065399 15.665242 -122.296997
v 16.065397 15.665251 -139.869247
vn 1.0000 -0.0000 -0.0000
vt 0.000000 0.000000
vt 1.000000 0.000000
vt 0.000000 1.000000
vt 1.000000 1.000000
s 0
f 103/103/30 104/104/30 102/102/30
f 103/103/30 105/105/30 104/104/30
o 平面.033
v -17.539436 15.004930 -155.868729
v -17.539431 30.403450 -123.919975
v -17.539433 39.794075 -155.868729
v -17.539431 34.637989 -123.919975
v -17.539436 15.035708 -142.461868
v -17.539433 34.638000 -142.461868
v -17.782021 39.680145 -142.576508
v -17.539431 16.223473 -123.957840
vn -1.0000 -0.0000 -0.0000
vn -0.9987 -0.0485 -0.0186
vt 0.000000 0.000000
vt 1.000000 0.000000
vt 0.000000 1.000000
vt 1.000000 1.000000
vt 0.419637 0.000000
vt 0.419637 1.000000
vt 0.250000 1.000000
vt 0.709818 0.000000
s 0
f 107/107/31 109/109/31 111/111/31
f 111/111/32 112/112/32 108/108/32
f 111/111/31 110/110/31 107/107/31
f 110/110/31 113/113/31 107/107/31
f 108/108/31 106/106/31 111/111/31
f 106/106/31 110/110/31 111/111/31
o 平面.034
v -17.226034 34.553619 -140.499084
v 15.719566 34.553619 -140.499100
v -17.226034 39.836319 -140.499084
v 15.719566 39.836319 -140.499100
vn -0.0000 -0.0000 1.0000
vt 0.000000 0.000000
vt 1.000000 0.000000
vt 0.000000 1.000000
vt 1.000000 1.000000
s 0
f 115/115/33 116/116/33 114/114/33
f 115/115/33 117/117/33 116/116/33
o 平面.035
v 49.877289 35.364456 -156.230316
v 49.877289 35.364445 -149.252762
v 49.877289 43.440647 -156.230316
v 49.877289 43.440636 -149.252762
vn -1.0000 -0.0000 -0.0000
vt 0.000000 0.000000
vt 1.000000 0.000000
vt 0.000000 1.000000
vt 1.000000 1.000000
s 0
f 119/119/34 120/120/34 118/118/34
f 119/119/34 121/121/34 120/120/34
o 平面.036
v -26.608265 27.600159 -232.990219
v 26.205435 27.600159 -232.990219
v -26.608265 51.008533 -232.990173
v 26.205435 51.008533 -232.990173
vn -0.0000 -0.0000 1.0000
vt 0.000000 0.000000
vt 1.000000 0.000000
vt 0.000000 1.000000
vt 1.000000 1.000000
s 0
f 123/123/35 124/124/35 122/122/35
f 123/123/35 125/125/35 124/124/35
o 平面.037
v -33.455753 37.689228 -261.388489
v -36.021198 37.689240 -273.046997
v -33.455753 49.626667 -261.388489
v -36.021191 49.626678 -273.046997
vn 0.9766 -0.0000 -0.2149
vt 0.000000 0.000000
vt 1.000000 0.000000
vt 0.000000 1.000000
vt 1.000000 1.000000
s 0
f 127/127/36 128/128/36 126/126/36
f 127/127/36 129/129/36 128/128/36
o 平面.038
v -40.129410 37.519516 -251.416870
v -33.563896 37.519516 -261.386658
v -40.129410 49.456955 -251.416824
v -33.563896 49.456955 -261.386658
vn 0.8352 -0.0000 0.5500
vt 0.000000 0.000000
vt 1.000000 0.000000
vt 0.000000 1.000000
vt 1.000000 1.000000
s 0
f 131/131/37 132/132/37 130/130/37
f 131/131/37 133/133/37 132/132/37
o 平面.039
v -26.624620 27.033039 -281.383575
v -26.624619 27.032974 -233.101013
v -26.624620 50.441414 -281.383575
v -26.624619 50.441349 -233.100937
vn -1.0000 -0.0000 -0.0000
vt 0.000000 0.000000
vt 1.000000 0.000000
vt 0.000000 1.000000
vt 1.000000 1.000000
s 0
f 134/134/38 137/137/38 136/136/38
f 134/134/38 135/135/38 137/137/38
o 平面.040
v 29.792654 14.748296 -6.568454
v 29.792654 0.761230 -6.568460
v 17.771688 14.748296 -6.568451
v 17.771688 0.761230 -6.568458
vn -0.0000 -0.0000 -1.0000
vt 0.000000 0.000000
vt 1.000000 0.000000
vt 0.000000 1.000000
vt 1.000000 1.000000
s 0
f 139/139/39 140/140/39 138/138/39
f 139/139/39 141/141/39 140/140/39
o 平面.041
v -35.016991 15.578884 -19.558226
v -35.016991 1.180226 -19.558231
v 32.384869 15.578884 -19.558229
v 32.384869 1.180226 -19.558243
vn -0.0000 -0.0000 1.0000
vt 0.000000 0.000000
vt 1.000000 0.000000
vt 0.000000 1.000000
vt 1.000000 1.000000
s 0
f 143/143/40 144/144/40 142/142/40
f 143/143/40 145/145/40 144/144/40
o 平面.042
v 16.413527 2.142404 -141.290482
v 16.413525 2.142425 -183.889297
v 16.413527 39.836319 -141.290482
v 16.413525 39.836342 -183.889297
vn 1.0000 -0.0000 -0.0000
vt 0.000000 0.000000
vt 1.000000 0.000000
vt 0.000000 1.000000
vt 1.000000 1.000000
s 0
f 147/147/41 148/148/41 146/146/41
f 147/147/41 149/149/41 148/148/41
o 平面.043
v -60.726295 67.482094 -237.467117
v -60.726295 48.741096 -237.467117
v -41.266647 67.482117 -284.101715
v -41.266647 48.741123 -284.101715
vn 0.9229 -0.0000 0.3851
vt 0.000000 0.000000
vt 1.000000 0.000000
vt 0.000000 1.000000
vt 1.000000 1.000000
s 0
f 151/151/42 152/152/42 150/150/42
f 151/151/42 153/153/42 152/152/42
o 平面.044
v -33.801502 30.419283 -123.808884
v -33.801502 30.419289 -141.568512
v -33.801514 2.063245 -123.808907
v -33.801514 2.063254 -141.568512
vn -1.0000 -0.0000 -0.0000
vt 0.000000 0.000000
vt 1.000000 0.000000
vt 0.000000 1.000000
vt 1.000000 1.000000
s 0
f 155/155/43 156/156/43 154/154/43
f 155/155/43 157/157/43 156/156/43
o 平面.054
v -17.893133 14.421235 -61.018970
v -6.111015 15.422500 -73.957108
v -15.122028 15.479030 -64.328903
v -6.073661 20.245771 -74.029602
v -8.601326 17.407951 -71.121635
vn -0.7286 0.0605 -0.6823
vn -0.7135 -0.2163 -0.6665
vn -0.7528 -0.0041 -0.6583
vt 0.000000 0.000000
vt 1.000000 0.000000
vt 0.000000 1.000000
vt 1.000000 1.000000
vt 0.704087 1.000000
s 0
f 159/159/44 160/160/44 162/162/44
f 160/160/45 159/159/45 158/158/45
f 159/159/46 162/162/46 161/161/46
o 平面.055
v -4.485939 20.302849 -72.990509
v -4.485939 15.959846 -72.990509
v -6.048343 20.302849 -74.082489
v -6.048343 15.959848 -74.082489
vn 0.5729 -0.0000 -0.8197
vt 0.000000 0.000000
vt 1.000000 0.000000
vt 0.000000 1.000000
vt 1.000000 1.000000
s 0
f 164/164/47 165/165/47 163/163/47
f 164/164/47 166/166/47 165/165/47
