# Blender 3.4.1
# www.blender.org
mtllib GameStage_1(FallCol).mtl
o 平面.017
v 106.830429 2.320194 69.167801
v 106.830414 2.320328 -346.850220
v -109.131889 2.320194 69.167809
v -109.131905 2.320328 -346.850220
vn -0.0000 1.0000 -0.0000
vt 0.000000 0.000000
vt 1.000000 0.000000
vt 0.000000 1.000000
vt 1.000000 1.000000
s 0
usemtl マテリアル.002
f 2/2/1 3/3/1 1/1/1
f 2/2/1 4/4/1 3/3/1
o 平面.001
v 106.830429 -83.658417 69.167801
v 106.830414 -83.658287 -346.850220
v -109.131889 -83.658417 69.167809
v -109.131905 -83.658287 -346.850220
vn -0.0000 1.0000 -0.0000
vt 0.000000 0.000000
vt 1.000000 0.000000
vt 0.000000 1.000000
vt 1.000000 1.000000
s 0
usemtl マテリアル.002
f 6/6/2 7/7/2 5/5/2
f 6/6/2 8/8/2 7/7/2
