# Blender 3.4.1
# www.blender.org
mtllib GameStage_1(GoalBlock).mtl
o Cube
v -78.863663 50.379677 -269.959564
v -78.863663 53.487797 -269.959564
v -80.623016 50.379677 -267.397308
v -80.623016 53.487797 -267.397308
v -81.425919 50.379677 -271.718903
v -81.425919 53.487797 -271.718903
v -83.185272 50.379677 -269.156647
v -83.185272 53.487797 -269.156647
vn 0.8244 -0.0000 0.5660
vn -0.5660 -0.0000 0.8244
vn -0.8244 -0.0000 -0.5660
vn 0.5660 -0.0000 -0.8244
vn -0.0000 1.0000 -0.0000
vt 0.375000 0.000000
vt 0.375000 1.000000
vt 0.625000 0.000000
vt 0.625000 1.000000
vt 0.875000 0.750000
vt 0.375000 0.250000
vt 0.625000 0.250000
vt 0.875000 0.500000
vt 0.375000 0.750000
vt 0.625000 0.750000
vt 0.375000 0.500000
vt 0.625000 0.500000
s 0
usemtl Material.003
f 2/3/1 3/6/1 1/1/1
f 4/7/2 7/11/2 3/6/2
f 8/12/3 5/9/3 7/11/3
f 6/10/4 1/2/4 5/9/4
f 4/8/5 6/10/5 8/12/5
f 2/3/1 4/7/1 3/6/1
f 4/7/2 8/12/2 7/11/2
f 8/12/3 6/10/3 5/9/3
f 6/10/4 2/4/4 1/2/4
f 4/8/5 2/5/5 6/10/5
