# Blender 3.4.1
# www.blender.org
mtllib GameStage_1(wallCol).mtl
o 平面.031
v 138.465500 15.683224 -59.716167
v 138.465500 15.683224 -12.204433
v 138.465500 30.420015 -59.716167
v 138.465500 34.607349 -9.873283
v 138.465500 34.130161 -42.972317
v 138.465500 30.502337 -43.124001
v 138.465500 15.734288 -9.882540
vn -1.0000 -0.0000 -0.0000
vt 0.000000 0.000000
vt 1.000000 0.000000
vt 0.000000 1.000000
vt 1.000000 1.000000
vt 0.666667 1.000000
vt 0.333333 1.000000
vt 1.000000 0.333333
s 0
f 7/7/1 4/4/1 6/6/1
f 3/3/1 1/1/1 6/6/1
f 1/1/1 2/2/1 6/6/1
f 2/2/1 7/7/1 6/6/1
f 4/4/1 5/5/1 6/6/1
o 平面.032
v 137.977371 1.442056 -9.588333
v 155.549622 1.442056 -9.588333
v 137.977371 15.665181 -9.588332
v 155.549622 15.665181 -9.588332
vn -0.0000 -0.0000 1.0000
vt 0.000000 0.000000
vt 1.000000 0.000000
vt 0.000000 1.000000
vt 1.000000 1.000000
s 0
f 9/9/2 10/10/2 8/8/2
f 9/9/2 11/11/2 10/10/2
o 平面.033
v 169.899475 15.004852 -43.193165
v 137.950745 30.403387 -43.193161
v 169.899475 39.793995 -43.193161
v 137.950745 34.637932 -43.193161
v 156.492615 15.035641 -43.193165
v 156.492615 34.637932 -43.193161
v 156.607254 39.680077 -43.435749
v 137.988586 16.223410 -43.193161
vn -0.0000 -0.0000 -1.0000
vn 0.0186 -0.0485 -0.9987
vt 0.000000 0.000000
vt 1.000000 0.000000
vt 0.000000 1.000000
vt 1.000000 1.000000
vt 0.419637 0.000000
vt 0.419637 1.000000
vt 0.250000 1.000000
vt 0.709818 0.000000
s 0
f 13/13/3 15/15/3 17/17/3
f 17/17/4 18/18/4 14/14/4
f 17/17/3 16/16/3 13/13/3
f 16/16/3 19/19/3 13/13/3
f 14/14/3 12/12/3 17/17/3
f 12/12/3 16/16/3 17/17/3
o 平面.035
v 171.910690 35.364376 24.223558
v 164.933136 35.364376 24.223560
v 171.910690 43.440567 24.223560
v 164.933136 43.440567 24.223560
vn -0.0000 -0.0000 -1.0000
vt 0.000000 0.000000
vt 1.000000 0.000000
vt 0.000000 1.000000
vt 1.000000 1.000000
s 0
f 21/21/5 22/22/5 20/20/5
f 21/21/5 23/23/5 22/22/5
o 平面.036
v 248.670593 27.600044 -52.261990
v 248.670593 27.600044 0.551710
v 248.670593 51.008419 -52.261990
v 248.670593 51.008419 0.551710
vn -1.0000 -0.0000 -0.0000
vt 0.000000 0.000000
vt 1.000000 0.000000
vt 0.000000 1.000000
vt 1.000000 1.000000
s 0
f 25/25/6 26/26/6 24/24/6
f 25/25/6 27/27/6 26/26/6
o 平面.038
v 266.680481 37.646408 -73.606331
v 276.650269 37.646408 -67.040817
v 266.680481 49.583847 -73.606331
v 276.650269 49.583847 -67.040817
vn -0.5500 -0.0000 0.8352
vt 0.000000 0.000000
vt 1.000000 0.000000
vt 0.000000 1.000000
vt 1.000000 1.000000
s 0
f 29/29/7 30/30/7 28/28/7
f 29/29/7 31/31/7 30/30/7
o 平面.039
v 297.283142 27.032902 -52.278343
v 249.000565 27.032860 -52.278343
v 297.283142 50.441277 -52.278343
v 249.000534 50.441235 -52.278343
vn -0.0000 -0.0000 -1.0000
vt 0.000000 0.000000
vt 1.000000 0.000000
vt 0.000000 1.000000
vt 1.000000 1.000000
s 0
f 32/32/8 35/35/8 34/34/8
f 32/32/8 33/33/8 35/35/8
o 平面.040
v 22.248837 14.748293 5.228806
v 22.248838 0.761226 5.228806
v 22.248837 14.748293 -6.792159
v 22.248838 0.761226 -6.792159
vn 1.0000 -0.0000 -0.0000
vt 0.000000 0.000000
vt 1.000000 0.000000
vt 0.000000 1.000000
vt 1.000000 1.000000
s 0
f 37/37/9 38/38/9 36/36/9
f 37/37/9 39/39/9 38/38/9
o 平面.041
v 35.238613 15.578876 -60.670727
v 35.238613 1.180216 -60.670727
v 35.238613 15.578876 6.731133
v 35.238621 1.180216 6.731133
vn -1.0000 -0.0000 -0.0000
vt 0.000000 0.000000
vt 1.000000 0.000000
vt 0.000000 1.000000
vt 1.000000 1.000000
s 0
f 41/41/10 42/42/10 40/40/10
f 41/41/10 43/43/10 42/42/10
o 平面.042
v 156.970856 2.142334 -9.240203
v 199.569672 2.142334 -9.240203
v 156.970856 39.836250 -9.240203
v 199.569672 39.836250 -9.240203
vn -0.0000 -0.0000 1.0000
vt 0.000000 0.000000
vt 1.000000 0.000000
vt 0.000000 1.000000
vt 1.000000 1.000000
s 0
f 45/45/11 46/46/11 44/44/11
f 45/45/11 47/47/11 46/46/11
o 平面.043
v 253.851135 67.062935 -95.297691
v 253.851135 48.321941 -95.297691
v 300.485687 67.062935 -75.838036
v 300.485687 48.321945 -75.838036
vn -0.3851 -0.0000 0.9229
vt 0.000000 0.000000
vt 1.000000 0.000000
vt 0.000000 1.000000
vt 1.000000 1.000000
s 0
f 49/49/12 50/50/12 48/48/12
f 49/49/12 51/51/12 50/50/12
o 平面.044
v 138.168137 30.342276 -59.693451
v 155.927734 30.342276 -59.693451
v 138.168137 1.986240 -59.693462
v 155.927734 1.986240 -59.693462
vn -0.0000 -0.0000 -1.0000
vt 0.000000 0.000000
vt 1.000000 0.000000
vt 0.000000 1.000000
vt 1.000000 1.000000
s 0
f 53/53/13 54/54/13 52/52/13
f 53/53/13 55/55/13 54/54/13
o 平面.037
v 276.621246 37.646412 -67.084473
v 288.279755 37.646412 -69.649918
v 276.621246 49.583851 -67.084473
v 288.279755 49.583851 -69.649910
vn 0.2149 -0.0000 0.9766
vt 0.000000 0.000000
vt 1.000000 0.000000
vt 0.000000 1.000000
vt 1.000000 1.000000
s 0
f 57/57/14 58/58/14 56/56/14
f 57/57/14 59/59/14 58/58/14
o 平面.034
v 156.179459 34.553551 -42.879765
v 156.179474 34.553551 -9.934164
v 156.179459 39.836250 -42.879765
v 156.179474 39.836250 -9.934164
vn -1.0000 -0.0000 -0.0000
vt 0.000000 0.000000
vt 1.000000 0.000000
vt 0.000000 1.000000
vt 1.000000 1.000000
s 0
f 61/61/15 62/62/15 60/60/15
f 61/61/15 63/63/15 62/62/15
o 平面
v -24.708908 14.683529 -6.832665
v 19.488203 14.683529 -6.832665
v -24.708908 16.683529 -6.832665
v 19.488203 16.683529 -6.832665
vn -0.0000 -0.0000 1.0000
vt 0.000000 0.000000
vt 1.000000 0.000000
vt 0.000000 1.000000
vt 1.000000 1.000000
s 0
f 65/65/16 66/66/16 64/64/16
f 65/65/16 67/67/16 66/66/16
o 平面.001
v 19.434843 14.683529 5.611656
v -24.611382 14.683529 5.611670
v 19.152885 16.562914 5.656740
v -24.611382 16.683529 5.611670
vn -0.0000 0.0240 -0.9997
vn 0.0010 -0.0000 -1.0000
vt 0.000000 0.000000
vt 1.000000 0.000000
vt 0.000000 1.000000
vt 1.000000 1.000000
s 0
f 69/69/17 70/70/17 68/68/17
f 69/69/18 71/71/18 70/70/18
o 平面.002
v -24.687731 16.688164 5.531401
v -24.687731 14.776983 5.531401
v -24.687731 16.688164 -6.806494
v -24.687731 14.776983 -6.806494
vn 1.0000 -0.0000 -0.0000
vt 0.000000 0.000000
vt 1.000000 0.000000
vt 0.000000 1.000000
vt 1.000000 1.000000
s 0
f 73/73/19 74/74/19 72/72/19
f 73/73/19 75/75/19 74/74/19
o 平面.003
v 37.616898 17.503710 -6.776915
v 37.616898 15.503711 -6.776915
v 37.616898 17.503710 -60.870575
v 37.616898 15.503711 -60.870575
vn 1.0000 -0.0000 -0.0000
vt 0.000000 0.000000
vt 1.000000 0.000000
vt 0.000000 1.000000
vt 1.000000 1.000000
s 0
f 77/77/20 78/78/20 76/76/20
f 77/77/20 79/79/20 78/78/20
o 平面.004
v 37.595409 17.503708 -60.860657
v 37.595409 15.503709 -60.860657
v 136.590942 17.503712 -60.860653
v 136.590942 15.503713 -60.860653
vn -0.0000 -0.0000 1.0000
vt 0.000000 0.000000
vt 1.000000 0.000000
vt 0.000000 1.000000
vt 1.000000 1.000000
s 0
f 81/81/21 82/82/21 80/80/21
f 81/81/21 83/83/21 82/82/21
o 平面.005
v 136.213608 17.494295 -60.997643
v 136.213608 15.554431 -60.997643
v 137.385239 17.494295 -59.877312
v 137.385239 15.554431 -59.877312
vn -0.6911 -0.0000 0.7227
vn -0.6911 -0.0000 0.7228
vt 0.000000 0.000000
vt 1.000000 0.000000
vt 0.000000 1.000000
vt 1.000000 1.000000
s 0
f 85/85/22 86/86/22 84/84/22
f 85/85/23 87/87/23 86/86/23
o 平面.006
v 135.337555 17.503716 -8.876899
v 135.337555 15.503716 -8.876899
v 49.697777 17.503706 -8.876898
v 49.697777 15.503706 -8.876898
vn -0.0000 -0.0000 -1.0000
vt 0.000000 0.000000
vt 1.000000 0.000000
vt 0.000000 1.000000
vt 1.000000 1.000000
s 0
f 89/89/24 90/90/24 88/88/24
f 89/89/24 91/91/24 90/90/24
o 平面.007
v 135.439728 17.421221 -8.841621
v 136.874878 17.421221 -9.274742
v 135.439728 15.421221 -8.841621
v 136.874878 15.421221 -9.274742
vn -0.2889 -0.0000 -0.9574
vt 0.000000 0.000000
vt 1.000000 0.000000
vt 0.000000 1.000000
vt 1.000000 1.000000
s 0
f 93/93/25 94/94/25 92/92/25
f 93/93/25 95/95/25 94/94/25
o 平面.008
v 38.039196 17.452448 5.320925
v 38.039196 15.452447 5.320925
v 37.769356 17.309671 2.374798
v 37.769356 15.452447 1.944897
vn 0.9958 -0.0000 -0.0912
vn 0.9967 0.0184 -0.0797
vt 0.000000 0.000000
vt 1.000000 0.000000
vt 0.000000 1.000000
vt 1.000000 1.000000
s 0
f 97/97/26 98/98/26 96/96/26
f 97/97/27 99/99/27 98/98/27
o 平面.009
v 38.014755 17.473005 5.399724
v 49.643883 17.473005 5.399724
v 38.014755 15.473005 5.399724
v 49.643883 15.473005 5.399724
vn -0.0000 -0.0000 -1.0000
vt 0.000000 0.000000
vt 1.000000 0.000000
vt 0.000000 1.000000
vt 1.000000 1.000000
s 0
f 101/101/28 102/102/28 100/100/28
f 101/101/28 103/103/28 102/102/28
o 平面.010
v 49.696644 17.473005 5.453082
v 49.696644 17.473005 -8.922895
v 49.696644 15.473005 5.453082
v 49.696644 15.473005 -8.922895
vn -1.0000 -0.0000 -0.0000
vt 0.000000 0.000000
vt 1.000000 0.000000
vt 0.000000 1.000000
vt 1.000000 1.000000
s 0
f 105/105/29 106/106/29 104/104/29
f 105/105/29 107/107/29 106/106/29
o 平面.011
v 67.720940 15.627282 -46.454025
v 67.720940 24.206009 -46.454025
v 67.720940 15.627282 -56.263821
v 67.720940 24.206009 -56.263821
vn -1.0000 -0.0000 -0.0000
vt 0.000000 0.000000
vt 1.000000 0.000000
vt 0.000000 1.000000
vt 1.000000 1.000000
s 0
f 109/109/30 110/110/30 108/108/30
f 109/109/30 111/111/30 110/110/30
o 平面.012
v 77.634552 15.623600 -46.436832
v 77.634552 24.202328 -46.436832
v 67.745689 15.623601 -46.436832
v 67.745689 24.202328 -46.436832
vn -0.0000 -0.0000 1.0000
vt 0.000000 0.000000
vt 1.000000 0.000000
vt 0.000000 1.000000
vt 1.000000 1.000000
s 0
f 113/113/31 114/114/31 112/112/31
f 113/113/31 115/115/31 114/114/31
o 平面.013
v 77.648964 15.623600 -56.273579
v 77.648964 24.202328 -56.273579
v 77.648964 15.623600 -46.468704
v 77.648964 24.202328 -46.468704
vn 1.0000 -0.0000 -0.0000
vt 0.000000 0.000000
vt 1.000000 0.000000
vt 0.000000 1.000000
vt 1.000000 1.000000
s 0
f 117/117/32 118/118/32 116/116/32
f 117/117/32 119/119/32 118/118/32
o 平面.014
v 67.686218 15.623601 -56.332230
v 67.686218 24.202328 -56.332230
v 77.681129 15.623600 -56.332233
v 77.681129 24.202328 -56.332233
vn -0.0000 -0.0000 -1.0000
vt 0.000000 0.000000
vt 1.000000 0.000000
vt 0.000000 1.000000
vt 1.000000 1.000000
s 0
f 121/121/33 122/122/33 120/120/33
f 121/121/33 123/123/33 122/122/33
o 平面.015
v 9.619802 15.084764 -5.157461
v 11.223298 15.084764 -5.157461
v 9.619802 16.667540 -5.157461
v 11.223298 16.667540 -5.157461
vn -0.0000 -0.0000 1.0000
vt 0.000000 0.000000
vt 1.000000 0.000000
vt 0.000000 1.000000
vt 1.000000 1.000000
s 0
f 125/125/34 126/126/34 124/124/34
f 125/125/34 127/127/34 126/126/34
o 平面.016
v 9.614590 15.084764 -6.825686
v 9.614590 15.084764 -5.149099
v 9.614590 16.667540 -6.825686
v 9.614590 16.667540 -5.149099
vn -1.0000 -0.0000 -0.0000
vt 0.000000 0.000000
vt 1.000000 0.000000
vt 0.000000 1.000000
vt 1.000000 1.000000
s 0
f 129/129/35 130/130/35 128/128/35
f 129/129/35 131/131/35 130/130/35
o 平面.017
v 11.225942 15.084764 -5.154930
v 11.225942 15.084764 -6.818174
v 11.225942 16.667540 -5.154930
v 11.225942 16.667540 -6.818174
vn 1.0000 -0.0000 -0.0000
vt 0.000000 0.000000
vt 1.000000 0.000000
vt 0.000000 1.000000
vt 1.000000 1.000000
s 0
f 133/133/36 134/134/36 132/132/36
f 133/133/36 135/135/36 134/134/36
o 平面.018
v 49.442303 15.655478 -53.707802
v 51.045799 15.655478 -53.707802
v 49.442303 17.238253 -53.707802
v 51.045799 17.238253 -53.707802
vn -0.0000 -0.0000 1.0000
vt 0.000000 0.000000
vt 1.000000 0.000000
vt 0.000000 1.000000
vt 1.000000 1.000000
s 0
f 137/137/37 138/138/37 136/136/37
f 137/137/37 139/139/37 138/138/37
o 平面.019
v 49.437092 15.655478 -55.371815
v 49.437092 15.655478 -53.695229
v 49.437092 17.238253 -55.371815
v 49.437092 17.238253 -53.695229
vn -1.0000 -0.0000 -0.0000
vt 0.000000 0.000000
vt 1.000000 0.000000
vt 0.000000 1.000000
vt 1.000000 1.000000
s 0
f 141/141/38 142/142/38 140/140/38
f 141/141/38 143/143/38 142/142/38
o 平面.020
v 51.048443 15.655478 -53.699982
v 51.048443 15.655478 -55.294117
v 51.048443 17.238253 -53.699982
v 51.048443 17.238253 -55.294117
vn 1.0000 -0.0000 -0.0000
vt 0.000000 0.000000
vt 1.000000 0.000000
vt 0.000000 1.000000
vt 1.000000 1.000000
s 0
f 145/145/39 146/146/39 144/144/39
f 145/145/39 147/147/39 146/146/39
o 平面.021
v 51.060226 15.655478 -55.299248
v 49.383640 15.655478 -55.299248
v 51.060226 17.238253 -55.299248
v 49.383640 17.238253 -55.299248
vn -0.0000 -0.0000 -1.0000
vt 0.000000 0.000000
vt 1.000000 0.000000
vt 0.000000 1.000000
vt 1.000000 1.000000
s 0
f 149/149/40 150/150/40 148/148/40
f 149/149/40 151/151/40 150/150/40
o 平面.022
v 76.699341 14.421208 -40.278587
v 88.596405 15.664227 -30.230862
v 80.009277 15.818052 -37.507484
v 88.779076 20.539795 -30.005640
v 84.472229 16.921917 -33.507210
vn -0.6416 -0.1392 0.7543
vn -0.6462 0.0177 0.7630
vn -0.6243 -0.0127 0.7810
vt 0.000000 0.000000
vt 1.000000 0.000000
vt 0.000000 1.000000
vt 1.000000 1.000000
vt 0.500000 1.000000
s 0
f 153/153/41 156/156/41 154/154/41
f 154/154/42 152/152/42 153/153/42
f 153/153/43 155/155/43 156/156/43
o 平面.054
v 76.699341 14.421208 -43.546867
v 89.637474 15.422463 -31.764748
v 80.009277 15.478998 -40.775764
v 89.709969 20.245739 -31.727394
v 86.802002 17.407921 -34.255058
vn 0.6823 0.0605 -0.7286
vn 0.6665 -0.2164 -0.7135
vn 0.6583 -0.0041 -0.7528
vt 0.000000 0.000000
vt 1.000000 0.000000
vt 0.000000 1.000000
vt 1.000000 1.000000
vt 0.704087 1.000000
s 0
f 158/158/44 159/159/44 161/161/44
f 159/159/45 158/158/45 157/157/45
f 158/158/46 161/161/46 160/160/46
o 平面.055
v 88.670891 20.302818 -30.139668
v 88.670891 15.959814 -30.139668
v 89.762871 20.302818 -31.702070
v 89.762871 15.959814 -31.702070
vn 0.8197 -0.0000 0.5729
vt 0.000000 0.000000
vt 1.000000 0.000000
vt 0.000000 1.000000
vt 1.000000 1.000000
s 0
f 163/163/47 164/164/47 162/162/47
f 163/163/47 165/165/47 164/164/47
