# Blender 3.4.1
# www.blender.org
mtllib GameStage_1(WireMesh_StopCol).mtl
o 平面.004
v 67.557335 15.742845 -49.995449
v 67.557335 24.323380 -49.995449
v 67.557335 15.742845 -53.556210
v 67.557335 24.323380 -53.556210
vn -1.0000 -0.0000 -0.0000
vt 0.000000 0.000000
vt 1.000000 0.000000
vt 0.000000 1.000000
vt 1.000000 1.000000
s 0
f 2/2/1 3/3/1 1/1/1
f 2/2/1 4/4/1 3/3/1
o 平面.005
v 139.275436 15.742845 -53.741093
v 139.275436 24.323380 -53.741093
v 139.275436 15.742845 -57.301853
v 139.275436 24.323380 -57.301853
vn -1.0000 -0.0000 -0.0000
vt 0.000000 0.000000
vt 1.000000 0.000000
vt 0.000000 1.000000
vt 1.000000 1.000000
s 0
f 6/6/2 7/7/2 5/5/2
f 6/6/2 8/8/2 7/7/2
