# Blender 3.4.1
# www.blender.org
mtllib RotateFloorCol.mtl
o 平面
v -4.623116 3.475655 4.629084
v 4.635052 3.475655 4.629084
v -4.623116 3.475655 -4.629084
v 4.635052 3.475655 -4.629084
vn -0.0000 1.0000 -0.0000
vt 0.000000 0.000000
vt 1.000000 0.000000
vt 0.000000 1.000000
vt 1.000000 1.000000
s 0
usemtl マテリアル.012
f 2/2/1 3/3/1 1/1/1
f 2/2/1 4/4/1 3/3/1
o 平面.001
v 4.635052 3.447956 4.629084
v -4.623116 3.447959 4.629084
v 4.635052 3.447956 -4.629084
v -4.623116 3.447959 -4.629084
vn -0.0000 -1.0000 -0.0000
vt 0.000000 0.000000
vt 1.000000 0.000000
vt 0.000000 1.000000
vt 1.000000 1.000000
s 0
usemtl マテリアル.012
f 6/6/2 7/7/2 5/5/2
f 6/6/2 8/8/2 7/7/2
