# Blender 3.4.1
# www.blender.org
mtllib GameStageEnemyWall(1).mtl
o Wall
v -175.890747 -2.742393 -370.514832
v -175.890762 -2.742393 -799.622925
v -175.890732 103.556992 -370.514832
v -175.890747 103.556992 -799.622925
vn 1.0000 -0.0000 -0.0000
vt 0.000000 0.000000
vt 1.000000 0.000000
vt 0.000000 1.000000
vt 1.000000 1.000000
s 0
usemtl マテリアル.005
f 2/2/1 3/3/1 1/1/1
f 2/2/1 4/4/1 3/3/1
o Wall.001
v -164.829483 1.232063 -294.562927
v 122.392853 1.232063 -294.562927
v -164.829483 107.531448 -294.562927
v 122.392853 107.531448 -294.562927
vn -0.0000 -0.0000 1.0000
vt 0.000000 0.000000
vt 1.000000 0.000000
vt 0.000000 1.000000
vt 1.000000 1.000000
s 0
usemtl マテリアル
f 6/6/2 7/7/2 5/5/2
f 6/6/2 8/8/2 7/7/2
o Wall.002
v -175.682007 -2.742393 -369.370209
v 129.323013 -2.742393 -369.370209
v -175.682007 103.556992 -369.370209
v 129.323013 103.556992 -369.370209
vn -0.0000 -0.0000 -1.0000
vt 0.000000 0.000000
vt 1.000000 0.000000
vt 0.000000 1.000000
vt 1.000000 1.000000
s 0
usemtl マテリアル.002
f 11/11/3 10/10/3 9/9/3
f 11/11/3 12/12/3 10/10/3
o Wall.003
v -175.682007 -2.742393 -798.786621
v 129.323013 -2.742393 -798.786621
v -175.682007 103.556992 -798.786621
v 129.323013 103.556992 -798.786621
vn -0.0000 -0.0000 1.0000
vt 0.000000 0.000000
vt 1.000000 0.000000
vt 0.000000 1.000000
vt 1.000000 1.000000
s 0
usemtl マテリアル.004
f 14/14/4 15/15/4 13/13/4
f 14/14/4 16/16/4 15/15/4
o Wall.004
v 127.888802 -2.742393 -370.514832
v 127.888786 -2.742393 -799.622925
v 127.888802 103.556992 -370.514832
v 127.888794 103.556992 -799.622925
vn -1.0000 -0.0000 -0.0000
vt 0.000000 0.000000
vt 1.000000 0.000000
vt 0.000000 1.000000
vt 1.000000 1.000000
s 0
usemtl マテリアル.003
f 19/19/5 18/18/5 17/17/5
f 19/19/5 20/20/5 18/18/5
