# Blender 3.4.1
# www.blender.org
mtllib GameStageWall(1).mtl
o Plane.005
v -78.325897 5.425606 19.534876
v -80.427094 1.855736 13.225647
v -85.610458 5.448658 48.393299
v -90.139435 1.876392 51.708511
vn -0.6851 0.7075 -0.1735
vn -0.6841 0.7085 -0.1730
vt 0.000000 0.000000
vt 1.000000 0.000000
vt 0.000000 1.000000
vt 1.000000 1.000000
s 0
f 1/1/1 4/4/1 3/3/1
f 1/1/2 2/2/2 4/4/2
o Plane.006
v -85.641876 5.444288 48.410610
v -90.133385 1.876259 51.700020
v -67.756042 5.433484 49.594837
v -63.545082 1.877213 53.444996
vn -0.0462 0.7079 0.7048
vn -0.0463 0.7081 0.7046
vt 0.000000 0.000000
vt 1.000000 0.000000
vt 0.000000 1.000000
vt 1.000000 1.000000
s 0
f 6/6/3 7/7/3 5/5/3
f 6/6/4 8/8/4 7/7/4
o Plane.007
v -67.731346 5.433819 49.589058
v -63.546188 1.876255 53.443649
v -71.467926 5.441383 25.054588
v -68.145981 1.875187 23.151361
vn 0.6987 0.7075 -0.1062
vn 0.6990 0.7072 -0.1062
vt 0.000000 0.000000
vt 1.000000 0.000000
vt 0.000000 1.000000
vt 1.000000 1.000000
s 0
f 9/9/5 12/12/5 11/11/5
f 9/9/6 10/10/6 12/12/6
o Plane.008
v -71.469009 5.439110 25.057158
v -68.145378 1.871006 23.156536
v -78.309525 5.443947 19.525433
v -80.404984 1.879272 13.230972
vn 0.4449 0.7071 -0.5495
vn 0.4449 0.7077 -0.5489
vt 0.000000 0.000000
vt 1.000000 0.000000
vt 0.000000 1.000000
vt 1.000000 1.000000
s 0
f 14/14/7 15/15/7 13/13/7
f 14/14/8 16/16/8 15/15/8
o Plane.009
v 76.497299 1.881731 -30.324352
v 74.707184 5.168658 -24.373001
v 83.269226 1.889574 -7.079006
v 79.431702 5.154654 -7.949581
vn 0.6688 0.7174 -0.1951
vn 0.6609 0.7262 -0.1895
vt 0.000000 0.000000
vt 1.000000 0.000000
vt 0.000000 1.000000
vt 1.000000 1.000000
s 0
f 18/18/9 19/19/9 17/17/9
f 18/18/10 20/20/10 19/19/10
o Plane.028
v 83.366150 1.811253 -7.063835
v 79.457031 5.189855 -7.967648
v 66.448044 1.880466 10.155771
v 66.594612 5.155123 5.143364
vn 0.4965 0.7200 0.4849
vn 0.5008 0.7113 0.4932
vt 0.000000 0.000000
vt 1.000000 0.000000
vt 0.000000 1.000000
vt 1.000000 1.000000
s 0
f 21/21/11 24/24/11 23/23/11
f 21/21/12 22/22/12 24/24/12
o Plane.029
v 66.446434 1.882646 10.176481
v 66.605110 5.148561 5.108452
v 50.411583 1.868239 -8.457373
v 55.252022 5.147881 -8.076296
vn -0.5235 0.7236 0.4499
vn -0.5246 0.7217 0.4516
vt 0.000000 0.000000
vt 1.000000 0.000000
vt 0.000000 1.000000
vt 1.000000 1.000000
s 0
f 26/26/13 27/27/13 25/25/13
f 26/26/14 28/28/14 27/27/14
o Plane.030
v 55.251797 5.147436 -8.076926
v 74.701279 5.153683 -24.396120
v 50.398777 1.881164 -8.458038
v 76.501221 1.879298 -30.329292
vn -0.4446 0.7224 -0.5296
vn -0.4460 0.7195 -0.5324
vt 0.000000 0.000000
vt 1.000000 0.000000
vt 0.000000 1.000000
vt 1.000000 1.000000
s 0
f 30/30/15 31/31/15 29/29/15
f 30/30/16 32/32/16 31/31/16
o Plane.040
v 72.835632 45.191917 -214.245514
v 67.191765 45.172657 -253.740753
v 72.839058 32.256077 -214.249512
v 67.201248 32.286953 -253.735626
vn 0.9899 0.0007 -0.1415
vn 0.9900 0.0003 -0.1413
vt 0.000000 0.000000
vt 1.000000 0.000000
vt 0.000000 1.000000
vt 1.000000 1.000000
s 0
f 33/33/17 36/36/17 34/34/17
f 33/33/18 35/35/18 36/36/18
o Plane.041
v 54.778736 45.191917 -178.311035
v 72.793953 45.133957 -214.178024
v 54.783989 32.256077 -178.310806
v 72.795700 32.248257 -214.167374
vn 0.8936 0.0004 0.4488
vn 0.8936 0.0005 0.4489
vt 0.000000 0.000000
vt 1.000000 0.000000
vt 0.000000 1.000000
vt 1.000000 1.000000
s 0
f 39/39/19 38/38/19 37/37/19
f 39/39/20 40/40/20 38/38/20
o Plane.042
v 54.775928 45.255466 -178.323410
v 41.900005 45.175907 -240.185471
v 54.775433 32.221699 -178.315979
v 41.845371 32.267895 -240.139832
vn -0.9788 0.0002 0.2047
vn -0.9790 0.0049 0.2038
vt 0.000000 0.000000
vt 1.000000 0.000000
vt 0.000000 1.000000
vt 1.000000 1.000000
s 0
f 41/41/21 44/44/21 43/43/21
f 41/41/22 42/42/22 44/44/22
o Plane.043
v 41.877052 45.206120 -240.179062
v 67.130363 45.154739 -253.672028
v 41.882061 32.270573 -240.139236
v 67.125572 32.269032 -253.662338
vn -0.4713 -0.0029 -0.8820
vn -0.4722 -0.0005 -0.8815
vt 0.000000 0.000000
vt 1.000000 0.000000
vt 0.000000 1.000000
vt 1.000000 1.000000
s 0
f 46/46/23 47/47/23 45/45/23
f 46/46/24 48/48/24 47/47/24
o Plane.044
v 76.564117 26.672010 -272.376434
v 85.163399 26.609285 -212.147720
v 76.570946 1.890011 -272.356110
v 85.188568 1.898592 -212.237076
vn 0.9899 0.0002 -0.1419
vn 0.9900 0.0015 -0.1413
vt 0.000000 0.000000
vt 1.000000 0.000000
vt 0.000000 1.000000
vt 1.000000 1.000000
s 0
f 49/49/25 52/52/25 51/51/25
f 49/49/26 50/50/26 52/52/26
o Plane.054
v 28.323128 26.804539 -246.515884
v 76.584709 26.680500 -272.283966
v 28.338097 1.848409 -246.423889
v 76.570793 1.871325 -272.280823
vn -0.4710 -0.0035 -0.8821
vn -0.4725 0.0002 -0.8813
vt 0.000000 0.000000
vt 1.000000 0.000000
vt 0.000000 1.000000
vt 1.000000 1.000000
s 0
f 54/54/27 55/55/27 53/53/27
f 54/54/28 56/56/28 55/55/28
o Plane.055
v 50.012520 1.877621 -142.533173
v 50.199245 1.864532 -142.529678
v 49.941463 26.683510 -142.574402
v 50.184250 26.673302 -142.496841
vn -0.3043 0.0007 0.9526
vn -0.0188 -0.0013 0.9998
vt 0.000000 0.000000
vt 1.000000 0.000000
vt 0.000000 1.000000
vt 1.000000 1.000000
s 0
f 57/57/29 60/60/29 59/59/29
f 57/57/30 58/58/30 60/60/30
o Plane.056
v 50.223255 1.830671 -142.543518
v 85.207306 1.942248 -212.178268
v 50.184849 26.686268 -142.473114
v 85.169174 26.621117 -212.133743
vn 0.8936 0.0001 0.4488
vn 0.8936 0.0006 0.4489
vt 0.000000 0.000000
vt 1.000000 0.000000
vt 0.000000 1.000000
vt 1.000000 1.000000
s 0
f 61/61/31 64/64/31 63/63/31
f 61/61/32 62/62/32 64/64/32
o Plane.057
v 49.944546 26.681276 -142.576981
v 50.007576 1.848163 -142.532471
v 28.352356 26.751837 -246.501831
v 28.305958 1.912666 -246.446930
vn -0.9789 -0.0021 0.2044
vn -0.9791 0.0023 0.2034
vt 0.000000 0.000000
vt 1.000000 0.000000
vt 0.000000 1.000000
vt 1.000000 1.000000
s 0
f 65/65/33 68/68/33 66/66/33
f 65/65/34 67/67/34 68/68/34
o Plane.058
v -161.899994 0.579798 -294.320190
v -161.899994 -47.779797 -294.320190
v -161.899994 0.579798 -365.379791
v -161.899994 -47.779797 -365.379791
vn 1.0000 -0.0000 -0.0000
vt 0.000000 0.000000
vt 1.000000 0.000000
vt 0.000000 1.000000
vt 1.000000 1.000000
s 0
usemtl マテリアル.001
f 70/70/35 71/71/35 69/69/35
f 70/70/35 72/72/35 71/71/35
o Plane.059
v 121.599991 0.579797 -294.320190
v 121.599991 -47.779797 -294.320190
v 121.599991 0.579797 -365.379791
v 121.599991 -47.779797 -365.379791
vn -1.0000 -0.0000 -0.0000
vt 0.000000 0.000000
vt 1.000000 0.000000
vt 0.000000 1.000000
vt 1.000000 1.000000
s 0
f 74/74/36 73/73/36 75/75/36
f 74/74/36 75/75/36 76/76/36
o Plane.060
v -162.779572 -45.379570 -364.100006
v 121.779572 -45.379570 -364.100006
v -162.779572 0.679571 -364.100006
v 121.779572 0.679571 -364.100006
vn -0.0000 -0.0000 1.0000
vt 0.000000 0.000000
vt 1.000000 0.000000
vt 0.000000 1.000000
vt 1.000000 1.000000
s 0
f 78/78/37 79/79/37 77/77/37
f 78/78/37 80/80/37 79/79/37
o Plane.061
v -162.779572 -47.197083 -294.899994
v 121.779572 -47.197083 -294.899994
v -162.779572 1.879571 -294.899994
v 121.779572 1.879571 -294.899994
vn -0.0000 -0.0000 -1.0000
vt 0.000000 0.000000
vt 1.000000 0.000000
vt 0.000000 1.000000
vt 1.000000 1.000000
s 0
f 82/82/38 81/81/38 83/83/38
f 82/82/38 83/83/38 84/84/38
o Plane.062
v 124.876320 86.304138 92.518669
v 125.071098 -7.908320 91.798508
v -171.559891 84.744743 89.728752
v -171.365143 -9.467706 89.008598
vn 0.0094 0.0077 -0.9999
vt 0.000000 0.000000
vt 1.000000 0.000000
vt 0.000000 1.000000
vt 1.000000 1.000000
s 0
f 86/86/39 87/87/39 85/85/39
f 86/86/39 88/88/39 87/87/39
o Plane.063
v -166.982147 92.982422 98.818802
v -165.926926 -1.221547 97.793770
v -165.073059 94.229263 -293.334686
v -164.017838 0.025308 -294.359741
vn 0.9999 0.0111 0.0049
vt 0.000000 0.000000
vt 1.000000 0.000000
vt 0.000000 1.000000
vt 1.000000 1.000000
s 0
f 90/90/40 91/91/40 89/89/40
f 90/90/40 92/92/40 91/91/40
o Plane
v 119.017838 94.045593 94.043045
v 120.073059 -0.143464 92.078537
v 120.926933 99.203453 -298.078522
v 121.982162 5.014404 -300.043030
vn -0.9999 -0.0111 -0.0050
vt 0.000000 0.000000
vt 1.000000 0.000000
vt 0.000000 1.000000
vt 1.000000 1.000000
s 0
f 94/94/41 93/93/41 95/95/41
f 94/94/41 95/95/41 96/96/41
o Plane.001
v -98.524376 13.214307 -190.612457
v -80.953979 13.329208 -162.656967
v -98.500633 1.763286 -190.519775
v -80.878235 1.878269 -162.661789
vn 0.8467 -0.0025 -0.5321
vn 0.8451 0.0058 -0.5346
vt 0.000000 0.000000
vt 1.000000 0.000000
vt 0.000000 1.000000
vt 1.000000 1.000000
s 0
f 98/98/42 99/99/42 97/97/42
f 98/98/43 100/100/43 99/99/43
o Plane.002
v -80.923645 13.323151 -162.669540
v -108.796875 13.316386 -128.659332
v -80.864548 1.720842 -162.670731
v -108.751419 1.887785 -128.682343
vn 0.7731 0.0039 0.6343
vn 0.7734 0.0018 0.6339
vt 0.000000 0.000000
vt 1.000000 0.000000
vt 0.000000 1.000000
vt 1.000000 1.000000
s 0
f 101/101/44 104/104/44 103/103/44
f 101/101/45 102/102/45 104/104/45
o Plane.003
v -108.804153 13.305534 -128.694443
v -121.728256 13.148235 -172.765167
v -108.763000 1.892891 -128.655228
v -121.717476 1.758508 -172.751770
vn -0.9596 -0.0025 0.2814
vn -0.9595 -0.0006 0.2819
vt 0.000000 0.000000
vt 1.000000 0.000000
vt 0.000000 1.000000
vt 1.000000 1.000000
s 0
f 106/106/46 107/107/46 105/105/46
f 106/106/47 108/108/47 107/107/47
o Plane.004
v -121.704155 13.137006 -172.787109
v -98.527695 13.210951 -190.602478
v -121.708000 1.778980 -172.778809
v -98.506348 1.755395 -190.493118
vn -0.6068 -0.0004 -0.7948
vn -0.6094 -0.0087 -0.7928
vt 0.000000 0.000000
vt 1.000000 0.000000
vt 0.000000 1.000000
vt 1.000000 1.000000
s 0
f 109/109/48 112/112/48 111/111/48
f 109/109/49 110/110/49 112/112/49
